G04 #@! TF.GenerationSoftware,KiCad,Pcbnew,9.0.6*
G04 #@! TF.CreationDate,2025-12-01T14:44:23+01:00*
G04 #@! TF.ProjectId,wled-eth.versioned,776c6564-2d65-4746-982e-76657273696f,v0.49*
G04 #@! TF.SameCoordinates,Original*
G04 #@! TF.FileFunction,Soldermask,Top*
G04 #@! TF.FilePolarity,Negative*
%FSLAX46Y46*%
G04 Gerber Fmt 4.6, Leading zero omitted, Abs format (unit mm)*
G04 Created by KiCad (PCBNEW 9.0.6) date 2025-12-01 14:44:23*
%MOMM*%
%LPD*%
G01*
G04 APERTURE LIST*
G04 Aperture macros list*
%AMRoundRect*
0 Rectangle with rounded corners*
0 $1 Rounding radius*
0 $2 $3 $4 $5 $6 $7 $8 $9 X,Y pos of 4 corners*
0 Add a 4 corners polygon primitive as box body*
4,1,4,$2,$3,$4,$5,$6,$7,$8,$9,$2,$3,0*
0 Add four circle primitives for the rounded corners*
1,1,$1+$1,$2,$3*
1,1,$1+$1,$4,$5*
1,1,$1+$1,$6,$7*
1,1,$1+$1,$8,$9*
0 Add four rect primitives between the rounded corners*
20,1,$1+$1,$2,$3,$4,$5,0*
20,1,$1+$1,$4,$5,$6,$7,0*
20,1,$1+$1,$6,$7,$8,$9,0*
20,1,$1+$1,$8,$9,$2,$3,0*%
G04 Aperture macros list end*
%ADD10RoundRect,0.050000X-0.600000X-0.450000X0.600000X-0.450000X0.600000X0.450000X-0.600000X0.450000X0*%
%ADD11RoundRect,0.050000X0.550000X0.550000X-0.550000X0.550000X-0.550000X-0.550000X0.550000X-0.550000X0*%
%ADD12C,1.200000*%
%ADD13RoundRect,0.050000X0.550000X0.375000X-0.550000X0.375000X-0.550000X-0.375000X0.550000X-0.375000X0*%
%ADD14RoundRect,0.050000X0.550000X0.300000X-0.550000X0.300000X-0.550000X-0.300000X0.550000X-0.300000X0*%
%ADD15C,0.800000*%
%ADD16C,5.000000*%
%ADD17RoundRect,0.050000X-0.550000X-0.375000X0.550000X-0.375000X0.550000X0.375000X-0.550000X0.375000X0*%
%ADD18RoundRect,0.050000X-0.550000X-0.550000X0.550000X-0.550000X0.550000X0.550000X-0.550000X0.550000X0*%
%ADD19RoundRect,0.001000X-0.150000X-0.725000X0.150000X-0.725000X0.150000X0.725000X-0.150000X0.725000X0*%
%ADD20O,1.100000X1.900000*%
%ADD21O,1.070000X2.170000*%
%ADD22C,1.050000*%
%ADD23RoundRect,0.050000X-1.000000X1.250000X-1.000000X-1.250000X1.000000X-1.250000X1.000000X1.250000X0*%
%ADD24RoundRect,0.050000X-0.762500X-0.300000X0.762500X-0.300000X0.762500X0.300000X-0.762500X0.300000X0*%
%ADD25RoundRect,0.050000X0.375000X-0.550000X0.375000X0.550000X-0.375000X0.550000X-0.375000X-0.550000X0*%
%ADD26RoundRect,0.050000X-0.200000X-0.475000X0.200000X-0.475000X0.200000X0.475000X-0.200000X0.475000X0*%
%ADD27R,0.350000X2.300000*%
%ADD28R,1.300000X0.350000*%
%ADD29RoundRect,0.050000X-0.175000X-1.150000X0.175000X-1.150000X0.175000X1.150000X-0.175000X1.150000X0*%
%ADD30RoundRect,0.050000X-0.375000X0.550000X-0.375000X-0.550000X0.375000X-0.550000X0.375000X0.550000X0*%
%ADD31R,1.700000X1.700000*%
%ADD32O,1.700000X1.700000*%
%ADD33RoundRect,0.001000X0.725000X-0.150000X0.725000X0.150000X-0.725000X0.150000X-0.725000X-0.150000X0*%
%ADD34O,1.900000X1.100000*%
%ADD35O,2.170000X1.070000*%
%ADD36RoundRect,0.050000X-0.625000X-0.550000X0.625000X-0.550000X0.625000X0.550000X-0.625000X0.550000X0*%
%ADD37RoundRect,0.050000X-0.250000X0.200000X-0.250000X-0.200000X0.250000X-0.200000X0.250000X0.200000X0*%
%ADD38C,1.726000*%
%ADD39RoundRect,0.050000X-0.550000X0.625000X-0.550000X-0.625000X0.550000X-0.625000X0.550000X0.625000X0*%
%ADD40RoundRect,0.050000X0.375000X-0.500000X0.375000X0.500000X-0.375000X0.500000X-0.375000X-0.500000X0*%
%ADD41RoundRect,0.050000X0.550000X-0.625000X0.550000X0.625000X-0.550000X0.625000X-0.550000X-0.625000X0*%
%ADD42RoundRect,0.050000X0.775000X1.200000X-0.775000X1.200000X-0.775000X-1.200000X0.775000X-1.200000X0*%
%ADD43RoundRect,0.050000X-0.550000X-0.300000X0.550000X-0.300000X0.550000X0.300000X-0.550000X0.300000X0*%
%ADD44RoundRect,0.050000X-0.300000X0.762500X-0.300000X-0.762500X0.300000X-0.762500X0.300000X0.762500X0*%
%ADD45RoundRect,0.050000X-1.550000X1.205000X-1.550000X-1.205000X1.550000X-1.205000X1.550000X1.205000X0*%
%ADD46RoundRect,0.050000X-0.675000X-0.325000X0.675000X-0.325000X0.675000X0.325000X-0.675000X0.325000X0*%
%ADD47RoundRect,0.050000X-1.150000X-1.600000X1.150000X-1.600000X1.150000X1.600000X-1.150000X1.600000X0*%
%ADD48RoundRect,0.050000X0.625000X0.550000X-0.625000X0.550000X-0.625000X-0.550000X0.625000X-0.550000X0*%
%ADD49C,1.900000*%
%ADD50C,2.650000*%
%ADD51RoundRect,0.050000X-0.500000X-1.000000X0.500000X-1.000000X0.500000X1.000000X-0.500000X1.000000X0*%
%ADD52C,1.896000*%
%ADD53RoundRect,0.050000X1.750000X-1.175000X1.750000X1.175000X-1.750000X1.175000X-1.750000X-1.175000X0*%
%ADD54RoundRect,0.050000X0.300000X-0.550000X0.300000X0.550000X-0.300000X0.550000X-0.300000X-0.550000X0*%
%ADD55C,1.500000*%
%ADD56RoundRect,0.050000X-0.900000X1.150000X-0.900000X-1.150000X0.900000X-1.150000X0.900000X1.150000X0*%
%ADD57O,4.100000X1.400000*%
%ADD58O,1.400000X4.100000*%
%ADD59RoundRect,0.050000X0.900000X-1.150000X0.900000X1.150000X-0.900000X1.150000X-0.900000X-1.150000X0*%
%ADD60RoundRect,0.050000X0.300000X-0.762500X0.300000X0.762500X-0.300000X0.762500X-0.300000X-0.762500X0*%
%ADD61RoundRect,0.050000X-0.300000X0.725000X-0.300000X-0.725000X0.300000X-0.725000X0.300000X0.725000X0*%
G04 APERTURE END LIST*
D10*
G04 #@! TO.C,D3*
X5900000Y-66900000D03*
X5900000Y-68500000D03*
G04 #@! TD*
D11*
G04 #@! TO.C,C4*
X14800000Y-65550000D03*
D12*
X14800000Y-63050000D03*
G04 #@! TD*
D13*
G04 #@! TO.C,R20*
X28900000Y-71700000D03*
X28900000Y-70300000D03*
G04 #@! TD*
D14*
G04 #@! TO.C,Q4*
X51300000Y-68950000D03*
X51300000Y-67050000D03*
X49000000Y-68000000D03*
G04 #@! TD*
D15*
G04 #@! TO.C,REF\u002A\u002A*
X46625000Y-41775000D03*
X47174175Y-40449175D03*
X47174175Y-43100825D03*
X48500000Y-39900000D03*
D16*
X48500000Y-41775000D03*
D15*
X48500000Y-43650000D03*
X49825825Y-40449175D03*
X49825825Y-43100825D03*
X50375000Y-41775000D03*
G04 #@! TD*
D17*
G04 #@! TO.C,R16*
X23200000Y-77400000D03*
X23200000Y-78800000D03*
G04 #@! TD*
D18*
G04 #@! TO.C,C1*
X14200000Y-70300000D03*
D12*
X14200000Y-73800000D03*
G04 #@! TD*
D19*
G04 #@! TO.C,J7*
X59800000Y-47005000D03*
X59000000Y-47005000D03*
X57650000Y-47005000D03*
X56650000Y-47005000D03*
X56150000Y-47005000D03*
X55150000Y-47005000D03*
X53800000Y-47005000D03*
X53000000Y-47005000D03*
X53300000Y-47005000D03*
X54100000Y-47005000D03*
X54650000Y-47005000D03*
X55650000Y-47005000D03*
X57150000Y-47005000D03*
X58150000Y-47005000D03*
X58700000Y-47005000D03*
X59500000Y-47005000D03*
D20*
X52080000Y-41920000D03*
D21*
X52080000Y-46090000D03*
D22*
X53510000Y-45560000D03*
X59290000Y-45560000D03*
D20*
X60720000Y-41920000D03*
D21*
X60720000Y-46090000D03*
G04 #@! TD*
D15*
G04 #@! TO.C,REF\u002A\u002A*
X13925000Y-92900000D03*
X14474175Y-91574175D03*
X14474175Y-94225825D03*
X15800000Y-91025000D03*
D16*
X15800000Y-92900000D03*
D15*
X15800000Y-94775000D03*
X17125825Y-91574175D03*
X17125825Y-94225825D03*
X17675000Y-92900000D03*
G04 #@! TD*
D23*
G04 #@! TO.C,RV1*
X49700000Y-61700000D03*
X46300000Y-61700000D03*
G04 #@! TD*
D24*
G04 #@! TO.C,U4*
X34200000Y-93190000D03*
X34200000Y-94460000D03*
X34200000Y-95730000D03*
X34200000Y-97000000D03*
X34200000Y-98270000D03*
X34200000Y-99540000D03*
X34200000Y-100810000D03*
X39600000Y-100810000D03*
X39600000Y-99540000D03*
X39600000Y-98270000D03*
X39600000Y-97000000D03*
X39600000Y-95730000D03*
X39600000Y-94460000D03*
X39600000Y-93190000D03*
G04 #@! TD*
D25*
G04 #@! TO.C,R6*
X41800000Y-97100000D03*
X43200000Y-97100000D03*
G04 #@! TD*
D26*
G04 #@! TO.C,U5*
X47475000Y-98325000D03*
X47475000Y-99675000D03*
X48325000Y-99675000D03*
X48325000Y-98325000D03*
D27*
X46675000Y-99000000D03*
D28*
X47900000Y-97275000D03*
X47900000Y-100725000D03*
D29*
X49125000Y-99000000D03*
G04 #@! TD*
D30*
G04 #@! TO.C,R13*
X16800000Y-100500000D03*
X15400000Y-100500000D03*
G04 #@! TD*
D31*
G04 #@! TO.C,J11*
X43200000Y-92375000D03*
D32*
X43200000Y-89835000D03*
X43200000Y-87295000D03*
X43200000Y-84755000D03*
X43200000Y-82215000D03*
X43200000Y-79675000D03*
X43200000Y-77135000D03*
X43200000Y-74595000D03*
X43200000Y-72055000D03*
X43200000Y-69515000D03*
X43200000Y-66975000D03*
X43200000Y-64435000D03*
X43200000Y-61895000D03*
G04 #@! TD*
D33*
G04 #@! TO.C,J1*
X13105000Y-78100000D03*
X13105000Y-78900000D03*
X13105000Y-80250000D03*
X13105000Y-81250000D03*
X13105000Y-81750000D03*
X13105000Y-82750000D03*
X13105000Y-84100000D03*
X13105000Y-84900000D03*
X13105000Y-84600000D03*
X13105000Y-83800000D03*
X13105000Y-83250000D03*
X13105000Y-82250000D03*
X13105000Y-80750000D03*
X13105000Y-79750000D03*
X13105000Y-79200000D03*
X13105000Y-78400000D03*
D34*
X8020000Y-85820000D03*
D35*
X12190000Y-85820000D03*
D22*
X11660000Y-84390000D03*
X11660000Y-78610000D03*
D34*
X8020000Y-77180000D03*
D35*
X12190000Y-77180000D03*
G04 #@! TD*
D30*
G04 #@! TO.C,R14*
X10500000Y-61600000D03*
X9100000Y-61600000D03*
G04 #@! TD*
D36*
G04 #@! TO.C,C8*
X48900000Y-94050000D03*
X48900000Y-95550000D03*
G04 #@! TD*
D37*
G04 #@! TO.C,D1*
X47562500Y-67450000D03*
X45962500Y-67450000D03*
G04 #@! TD*
D38*
G04 #@! TO.C,*
X11900000Y-93400000D03*
G04 #@! TD*
D10*
G04 #@! TO.C,D5*
X5900000Y-73500000D03*
X5900000Y-75100000D03*
G04 #@! TD*
D39*
G04 #@! TO.C,C12*
X40550000Y-79100000D03*
X39050000Y-79100000D03*
G04 #@! TD*
D40*
G04 #@! TO.C,SW3*
X5825000Y-59800000D03*
X5825000Y-53800000D03*
X9575000Y-59800000D03*
X9575000Y-53800000D03*
G04 #@! TD*
D41*
G04 #@! TO.C,C2*
X30600000Y-79100000D03*
X32100000Y-79100000D03*
G04 #@! TD*
D42*
G04 #@! TO.C,D7*
X32600000Y-85250000D03*
X32600000Y-81750000D03*
G04 #@! TD*
D30*
G04 #@! TO.C,R12*
X16800000Y-97100000D03*
X15400000Y-97100000D03*
G04 #@! TD*
D39*
G04 #@! TO.C,C6*
X24850000Y-64000000D03*
X23350000Y-64000000D03*
G04 #@! TD*
D30*
G04 #@! TO.C,R24*
X12700000Y-95200000D03*
X11300000Y-95200000D03*
G04 #@! TD*
D25*
G04 #@! TO.C,R21*
X46100000Y-69050000D03*
X47500000Y-69050000D03*
G04 #@! TD*
D31*
G04 #@! TO.C,J5*
X18900000Y-40100000D03*
D32*
X16360000Y-40100000D03*
X13820000Y-40100000D03*
X11280000Y-40100000D03*
X8740000Y-40100000D03*
X6200000Y-40100000D03*
G04 #@! TD*
D43*
G04 #@! TO.C,Q3*
X46050000Y-64150000D03*
X46050000Y-66050000D03*
X48350000Y-65100000D03*
G04 #@! TD*
D25*
G04 #@! TO.C,R1*
X15300000Y-80500000D03*
X16700000Y-80500000D03*
G04 #@! TD*
D15*
G04 #@! TO.C,REF\u002A\u002A*
X46625000Y-89500000D03*
X47174175Y-88174175D03*
X47174175Y-90825825D03*
X48500000Y-87625000D03*
D16*
X48500000Y-89500000D03*
D15*
X48500000Y-91375000D03*
X49825825Y-88174175D03*
X49825825Y-90825825D03*
X50375000Y-89500000D03*
G04 #@! TD*
D44*
G04 #@! TO.C,U1*
X26870000Y-80500000D03*
X25600000Y-80500000D03*
X24330000Y-80500000D03*
X23060000Y-80500000D03*
X23060000Y-85900000D03*
X24330000Y-85900000D03*
X25600000Y-85900000D03*
X26870000Y-85900000D03*
D45*
X24965000Y-83200000D03*
G04 #@! TD*
D25*
G04 #@! TO.C,R17*
X24800000Y-89600000D03*
X26200000Y-89600000D03*
G04 #@! TD*
D15*
G04 #@! TO.C,REF\u002A\u002A*
X13925000Y-45900000D03*
X14474175Y-44574175D03*
X14474175Y-47225825D03*
X15800000Y-44025000D03*
D16*
X15800000Y-45900000D03*
D15*
X15800000Y-47775000D03*
X17125825Y-44574175D03*
X17125825Y-47225825D03*
X17675000Y-45900000D03*
G04 #@! TD*
D30*
G04 #@! TO.C,R7*
X10500000Y-65000000D03*
X9100000Y-65000000D03*
G04 #@! TD*
D31*
G04 #@! TO.C,J6*
X13900000Y-53275000D03*
D32*
X13900000Y-55815000D03*
X13900000Y-58355000D03*
G04 #@! TD*
D46*
G04 #@! TO.C,U7*
X32750000Y-72800000D03*
X32750000Y-73800000D03*
X32750000Y-74800000D03*
X32750000Y-75800000D03*
X32750000Y-76800000D03*
X38250000Y-76800000D03*
X38250000Y-75800000D03*
X38250000Y-74800000D03*
X38250000Y-73800000D03*
X38250000Y-72800000D03*
D47*
X35500000Y-74800000D03*
G04 #@! TD*
D48*
G04 #@! TO.C,C14*
X16200000Y-89150000D03*
X16200000Y-87650000D03*
G04 #@! TD*
D49*
G04 #@! TO.C,J12*
X62200000Y-92200000D03*
X57200000Y-95700000D03*
X62200000Y-99200000D03*
G04 #@! TD*
D43*
G04 #@! TO.C,Q1*
X18250000Y-96950000D03*
X18250000Y-98850000D03*
X20550000Y-97900000D03*
G04 #@! TD*
D50*
G04 #@! TO.C,J2*
X57710000Y-79000000D03*
X50090000Y-79000000D03*
G04 #@! TD*
D41*
G04 #@! TO.C,C11*
X35050000Y-79100000D03*
X36550000Y-79100000D03*
G04 #@! TD*
D25*
G04 #@! TO.C,R4*
X41800000Y-98800000D03*
X43200000Y-98800000D03*
G04 #@! TD*
D15*
G04 #@! TO.C,REF\u002A\u002A*
X9825000Y-44200000D03*
X10374175Y-42874175D03*
X10374175Y-45525825D03*
X11700000Y-42325000D03*
D16*
X11700000Y-44200000D03*
D15*
X11700000Y-46075000D03*
X13025825Y-42874175D03*
X13025825Y-45525825D03*
X13575000Y-44200000D03*
G04 #@! TD*
D51*
G04 #@! TO.C,SW4*
X30600000Y-70600000D03*
X32600000Y-70600000D03*
X36600000Y-70600000D03*
X38600000Y-70600000D03*
X30600000Y-64600000D03*
X32600000Y-64600000D03*
X36600000Y-64600000D03*
X38600000Y-64600000D03*
G04 #@! TD*
D48*
G04 #@! TO.C,C9*
X30800000Y-76950000D03*
X30800000Y-75450000D03*
G04 #@! TD*
D31*
G04 #@! TO.C,J10*
X20350000Y-92375000D03*
D32*
X20350000Y-89835000D03*
X20350000Y-87295000D03*
X20350000Y-84755000D03*
X20350000Y-82215000D03*
X20350000Y-79675000D03*
X20350000Y-77135000D03*
X20350000Y-74595000D03*
X20350000Y-72055000D03*
X20350000Y-69515000D03*
X20350000Y-66975000D03*
X20350000Y-64435000D03*
X20350000Y-61895000D03*
G04 #@! TD*
D50*
G04 #@! TO.C,J3*
X57900000Y-53600000D03*
X57900000Y-61220000D03*
G04 #@! TD*
D52*
G04 #@! TO.C,*
X62300000Y-47700000D03*
G04 #@! TD*
D25*
G04 #@! TO.C,R11*
X15400000Y-98800000D03*
X16800000Y-98800000D03*
G04 #@! TD*
D13*
G04 #@! TO.C,R3*
X23100000Y-75500000D03*
X23100000Y-74100000D03*
G04 #@! TD*
D53*
G04 #@! TO.C,L1*
X37800000Y-87625000D03*
X37800000Y-81575000D03*
G04 #@! TD*
D54*
G04 #@! TO.C,D8*
X17650000Y-57000000D03*
X18600000Y-57000000D03*
X19550000Y-57000000D03*
X19550000Y-54400000D03*
X18600000Y-54400000D03*
X17650000Y-54400000D03*
G04 #@! TD*
D10*
G04 #@! TO.C,D4*
X5900000Y-70200000D03*
X5900000Y-71800000D03*
G04 #@! TD*
D30*
G04 #@! TO.C,R18*
X24900000Y-87900000D03*
X23500000Y-87900000D03*
G04 #@! TD*
D36*
G04 #@! TO.C,C7*
X47000000Y-94250000D03*
X47000000Y-95750000D03*
G04 #@! TD*
D30*
G04 #@! TO.C,R9*
X10500000Y-68400000D03*
X9100000Y-68400000D03*
G04 #@! TD*
G04 #@! TO.C,R8*
X10500000Y-66700000D03*
X9100000Y-66700000D03*
G04 #@! TD*
D55*
G04 #@! TO.C,F1*
X53100000Y-67400000D03*
X58200000Y-68800000D03*
G04 #@! TD*
D25*
G04 #@! TO.C,R2*
X15300000Y-82900000D03*
X16700000Y-82900000D03*
G04 #@! TD*
D56*
G04 #@! TO.C,C13*
X28450000Y-74850000D03*
X25250000Y-74850000D03*
G04 #@! TD*
D10*
G04 #@! TO.C,D6*
X5900000Y-63600000D03*
X5900000Y-65200000D03*
G04 #@! TD*
D54*
G04 #@! TO.C,Q5*
X5950000Y-91550000D03*
X7850000Y-91550000D03*
X6900000Y-89250000D03*
G04 #@! TD*
D41*
G04 #@! TO.C,C5*
X38550000Y-91200000D03*
X40050000Y-91200000D03*
G04 #@! TD*
D48*
G04 #@! TO.C,C3*
X29000000Y-99450000D03*
X29000000Y-97950000D03*
G04 #@! TD*
D57*
G04 #@! TO.C,J4*
X46100000Y-59100000D03*
X46100000Y-53100000D03*
D58*
X41300000Y-56600000D03*
G04 #@! TD*
D17*
G04 #@! TO.C,R19*
X30700000Y-72600000D03*
X30700000Y-74000000D03*
G04 #@! TD*
D25*
G04 #@! TO.C,R5*
X41800000Y-100500000D03*
X43200000Y-100500000D03*
G04 #@! TD*
D15*
G04 #@! TO.C,REF\u002A\u002A*
X9825000Y-89500000D03*
X10374175Y-88174175D03*
X10374175Y-90825825D03*
X11700000Y-87625000D03*
D16*
X11700000Y-89500000D03*
D15*
X11700000Y-91375000D03*
X13025825Y-88174175D03*
X13025825Y-90825825D03*
X13575000Y-89500000D03*
G04 #@! TD*
D59*
G04 #@! TO.C,C10*
X25300000Y-77750000D03*
X28500000Y-77750000D03*
G04 #@! TD*
D30*
G04 #@! TO.C,R10*
X10500000Y-63300000D03*
X9100000Y-63300000D03*
G04 #@! TD*
D42*
G04 #@! TO.C,D2*
X29400000Y-85250000D03*
X29400000Y-81750000D03*
G04 #@! TD*
D60*
G04 #@! TO.C,U6*
X23095000Y-71500000D03*
X24365000Y-71500000D03*
X25635000Y-71500000D03*
X26905000Y-71500000D03*
X26905000Y-66100000D03*
X25635000Y-66100000D03*
X24365000Y-66100000D03*
X23095000Y-66100000D03*
G04 #@! TD*
D14*
G04 #@! TO.C,Q2*
X13950000Y-98850000D03*
X13950000Y-96950000D03*
X11650000Y-97900000D03*
G04 #@! TD*
D40*
G04 #@! TO.C,SW1*
X5800000Y-100900000D03*
X5800000Y-94900000D03*
X9550000Y-100900000D03*
X9550000Y-94900000D03*
G04 #@! TD*
D13*
G04 #@! TO.C,R22*
X16200000Y-86200000D03*
X16200000Y-84800000D03*
G04 #@! TD*
D17*
G04 #@! TO.C,R23*
X40300000Y-73400000D03*
X40300000Y-74800000D03*
G04 #@! TD*
D13*
G04 #@! TO.C,R15*
X29000000Y-96400000D03*
X29000000Y-95000000D03*
G04 #@! TD*
D52*
G04 #@! TO.C,REF\u002A\u002A*
X21850000Y-42050000D03*
G04 #@! TD*
D41*
G04 #@! TO.C,C15*
X17900000Y-52600000D03*
X19400000Y-52600000D03*
G04 #@! TD*
D61*
G04 #@! TO.C,U2*
X27200000Y-93700000D03*
X26200000Y-93700000D03*
X25200000Y-93700000D03*
X24200000Y-93700000D03*
X23200000Y-93700000D03*
X23200000Y-99300000D03*
X24200000Y-99300000D03*
X25200000Y-99300000D03*
X26200000Y-99300000D03*
X27200000Y-99300000D03*
G04 #@! TD*
M02*
