M48
; DRILL file {KiCad 9.0.6} date 2025-12-01T14:44:23+0100
; FORMAT={-:-/ absolute / metric / decimal}
; #@! TF.CreationDate,2025-12-01T14:44:23+01:00
; #@! TF.GenerationSoftware,Kicad,Pcbnew,9.0.6
; #@! TF.FileFunction,Plated,1,2,PTH
FMAT,2
METRIC
; #@! TA.AperFunction,Plated,PTH,ViaDrill
T1C0.300
; #@! TA.AperFunction,Plated,PTH,ViaDrill
T2C0.400
; #@! TA.AperFunction,Plated,PTH,ComponentDrill
T3C0.500
; #@! TA.AperFunction,Plated,PTH,ComponentDrill
T4C0.600
; #@! TA.AperFunction,Plated,PTH,ComponentDrill
T5C0.650
; #@! TA.AperFunction,Plated,PTH,ComponentDrill
T6C0.700
; #@! TA.AperFunction,Plated,PTH,ComponentDrill
T7C0.800
; #@! TA.AperFunction,Plated,PTH,ComponentDrill
T8C1.000
; #@! TA.AperFunction,Plated,PTH,ComponentDrill
T9C1.152
; #@! TA.AperFunction,Plated,PTH,ComponentDrill
T10C1.200
; #@! TA.AperFunction,Plated,PTH,ComponentDrill
T11C1.700
; #@! TA.AperFunction,Plated,PTH,ComponentDrill
T12C2.500
%
G90
G05
T1
X5.9Y-62.3
X5.9Y-87.8
X7.3Y-69.7
X11.3Y-65.0
X11.8Y-100.5
X11.88Y-81.3
X12.0Y-61.9
X13.7Y-95.4
X14.2Y-97.8
X14.5Y-81.8
X18.2Y-87.6
X18.2Y-88.5
X18.8Y-95.6
X20.7Y-59.899
X20.9Y-55.9
X21.9Y-57.0
X22.35Y-73.947
X23.7Y-95.4
X24.029Y-70.551
X25.6Y-67.5
X26.1Y-64.8
X26.224Y-97.524
X26.5Y-70.15
X27.7Y-70.8
X28.6Y-66.9
X28.7Y-93.882
X30.1Y-66.4
X32.55Y-80.05
X34.0Y-76.8
X34.735Y-77.115
X34.9Y-83.8
X35.6Y-93.8
X36.001Y-98.249
X37.6Y-95.35
X39.4Y-75.8
X39.4Y-76.8
X40.9Y-97.6
X40.9Y-100.1
X42.3Y-65.7
X44.3Y-100.2
X45.4Y-101.1
X45.7Y-97.8
X46.9Y-78.2
X46.9Y-79.7
X50.3Y-97.8
X50.65Y-96.55
X55.2Y-45.7
X56.1Y-45.7
X56.6Y-48.3
X57.8Y-48.3
T2
X5.8Y-58.6
X7.2Y-67.3
X7.675Y-99.7
X7.7Y-72.7
X14.8Y-66.9
X17.0Y-81.7
X17.35Y-60.6
X18.4Y-66.5
X19.4Y-83.5
X19.85Y-51.4
X20.1Y-95.4
X22.318Y-75.5
X22.318Y-88.0
X22.709Y-76.475
X22.8Y-82.5
X22.8Y-83.8
X23.8Y-76.5
X24.0Y-82.5
X24.0Y-83.8
X25.0Y-82.5
X25.0Y-83.8
X25.2Y-95.1
X25.9Y-88.0
X25.999Y-90.901
X26.0Y-82.5
X26.0Y-83.8
X26.1Y-63.7
X26.7Y-88.4
X27.2Y-82.5
X27.2Y-83.8
X27.6Y-88.4
X27.6Y-91.3
X27.8Y-64.4
X28.8Y-72.7
X29.1Y-89.0
X30.75Y-96.4
X31.0Y-80.6
X31.0Y-81.8
X31.0Y-82.8
X31.6Y-98.003
X32.7Y-100.7
X34.1Y-80.5
X35.075Y-80.5
X35.1Y-81.7
X35.1Y-82.7
X37.8Y-78.9
X37.8Y-79.7
X38.1Y-93.3
X44.4Y-101.23
X45.8Y-96.2
X46.001Y-65.151
X46.9Y-84.8
X47.0Y-93.0
X47.378Y-66.322
X47.9Y-84.8
X48.9Y-84.8
X48.9Y-92.8
X49.9Y-84.8
T3
X9.825Y-44.2
X9.825Y-89.5
X10.374Y-42.874
X10.374Y-45.526
X10.374Y-88.174
X10.374Y-90.826
X11.7Y-42.325
X11.7Y-46.075
X11.7Y-87.625
X11.7Y-91.375
X13.026Y-42.874
X13.026Y-45.526
X13.026Y-88.174
X13.026Y-90.826
X13.575Y-44.2
X13.575Y-89.5
X13.925Y-45.9
X13.925Y-92.9
X14.474Y-44.574
X14.474Y-47.226
X14.474Y-91.574
X14.474Y-94.226
X15.8Y-44.025
X15.8Y-47.775
X15.8Y-91.025
X15.8Y-94.775
X17.126Y-44.574
X17.126Y-47.226
X17.126Y-91.574
X17.126Y-94.226
X17.675Y-45.9
X17.675Y-92.9
X46.625Y-41.775
X46.625Y-89.5
X47.174Y-40.449
X47.174Y-43.101
X47.174Y-88.174
X47.174Y-90.826
X48.5Y-39.9
X48.5Y-43.65
X48.5Y-87.625
X48.5Y-91.375
X49.826Y-40.449
X49.826Y-43.101
X49.826Y-88.174
X49.826Y-90.826
X50.375Y-41.775
X50.375Y-89.5
T5
X11.66Y-78.61
X11.66Y-84.39
X53.51Y-45.56
X59.29Y-45.56
T6
X14.2Y-70.3
X14.2Y-73.8
X14.8Y-63.05
X14.8Y-65.55
T8
X6.2Y-40.1
X8.74Y-40.1
X11.28Y-40.1
X13.82Y-40.1
X13.9Y-53.275
X13.9Y-55.815
X13.9Y-58.355
X16.36Y-40.1
X18.9Y-40.1
X20.35Y-61.895
X20.35Y-64.435
X20.35Y-66.975
X20.35Y-69.515
X20.35Y-72.055
X20.35Y-74.595
X20.35Y-77.135
X20.35Y-79.675
X20.35Y-82.215
X20.35Y-84.755
X20.35Y-87.295
X20.35Y-89.835
X20.35Y-92.375
X43.2Y-61.895
X43.2Y-64.435
X43.2Y-66.975
X43.2Y-69.515
X43.2Y-72.055
X43.2Y-74.595
X43.2Y-77.135
X43.2Y-79.675
X43.2Y-82.215
X43.2Y-84.755
X43.2Y-87.295
X43.2Y-89.835
X43.2Y-92.375
X53.1Y-67.4
X58.2Y-68.8
T9
X11.9Y-93.4
X21.85Y-42.05
X62.3Y-47.7
T10
X57.2Y-95.7
X62.2Y-92.2
X62.2Y-99.2
T11
X50.09Y-79.0
X57.71Y-79.0
X57.9Y-53.6
X57.9Y-61.22
T12
X11.7Y-44.2
X11.7Y-89.5
X15.8Y-45.9
X15.8Y-92.9
X48.5Y-41.775
X48.5Y-89.5
T4
X7.62Y-77.18G85X8.42Y-77.18
G05
X7.62Y-85.82G85X8.42Y-85.82
G05
X11.64Y-77.18G85X12.74Y-77.18
G05
X11.64Y-85.82G85X12.74Y-85.82
G05
X52.08Y-41.52G85X52.08Y-42.32
G05
X52.08Y-45.54G85X52.08Y-46.64
G05
X60.72Y-41.52G85X60.72Y-42.32
G05
X60.72Y-45.54G85X60.72Y-46.64
G05
T7
X41.3Y-57.95G85X41.3Y-55.25
G05
X44.75Y-53.1G85X47.45Y-53.1
G05
X44.75Y-59.1G85X47.45Y-59.1
G05
M30
