G04 #@! TF.GenerationSoftware,KiCad,Pcbnew,9.0.6*
G04 #@! TF.CreationDate,2025-12-01T14:44:23+01:00*
G04 #@! TF.ProjectId,wled-eth.versioned,776c6564-2d65-4746-982e-76657273696f,v0.49*
G04 #@! TF.SameCoordinates,Original*
G04 #@! TF.FileFunction,Copper,L2,Bot*
G04 #@! TF.FilePolarity,Positive*
%FSLAX46Y46*%
G04 Gerber Fmt 4.6, Leading zero omitted, Abs format (unit mm)*
G04 Created by KiCad (PCBNEW 9.0.6) date 2025-12-01 14:44:23*
%MOMM*%
%LPD*%
G01*
G04 APERTURE LIST*
G04 #@! TA.AperFunction,ComponentPad*
%ADD10R,1.100000X1.100000*%
G04 #@! TD*
G04 #@! TA.AperFunction,ComponentPad*
%ADD11C,1.100000*%
G04 #@! TD*
G04 #@! TA.AperFunction,ComponentPad*
%ADD12C,0.800000*%
G04 #@! TD*
G04 #@! TA.AperFunction,ComponentPad*
%ADD13C,5.000000*%
G04 #@! TD*
G04 #@! TA.AperFunction,ComponentPad*
%ADD14O,1.000000X1.800000*%
G04 #@! TD*
G04 #@! TA.AperFunction,ComponentPad*
%ADD15O,1.000000X2.100000*%
G04 #@! TD*
G04 #@! TA.AperFunction,ComponentPad*
%ADD16C,0.950000*%
G04 #@! TD*
G04 #@! TA.AperFunction,ComponentPad*
%ADD17R,1.700000X1.700000*%
G04 #@! TD*
G04 #@! TA.AperFunction,ComponentPad*
%ADD18O,1.700000X1.700000*%
G04 #@! TD*
G04 #@! TA.AperFunction,ComponentPad*
%ADD19O,1.800000X1.000000*%
G04 #@! TD*
G04 #@! TA.AperFunction,ComponentPad*
%ADD20O,2.100000X1.000000*%
G04 #@! TD*
G04 #@! TA.AperFunction,ComponentPad*
%ADD21C,1.430000*%
G04 #@! TD*
G04 #@! TA.AperFunction,ComponentPad*
%ADD22C,1.800000*%
G04 #@! TD*
G04 #@! TA.AperFunction,ComponentPad*
%ADD23C,2.550000*%
G04 #@! TD*
G04 #@! TA.AperFunction,ComponentPad*
%ADD24C,1.600000*%
G04 #@! TD*
G04 #@! TA.AperFunction,ComponentPad*
%ADD25C,1.400000*%
G04 #@! TD*
G04 #@! TA.AperFunction,ComponentPad*
%ADD26O,4.000000X1.300000*%
G04 #@! TD*
G04 #@! TA.AperFunction,ComponentPad*
%ADD27O,1.300000X4.000000*%
G04 #@! TD*
G04 #@! TA.AperFunction,SMDPad,CuDef*
%ADD28C,1.500000*%
G04 #@! TD*
G04 #@! TA.AperFunction,SMDPad,CuDef*
%ADD29R,0.750000X1.000000*%
G04 #@! TD*
G04 #@! TA.AperFunction,ViaPad*
%ADD30C,0.800000*%
G04 #@! TD*
G04 #@! TA.AperFunction,ViaPad*
%ADD31C,0.600000*%
G04 #@! TD*
G04 #@! TA.AperFunction,Conductor*
%ADD32C,0.300000*%
G04 #@! TD*
G04 #@! TA.AperFunction,Conductor*
%ADD33C,1.000000*%
G04 #@! TD*
G04 #@! TA.AperFunction,Conductor*
%ADD34C,0.500000*%
G04 #@! TD*
G04 #@! TA.AperFunction,Conductor*
%ADD35C,0.200000*%
G04 #@! TD*
G04 APERTURE END LIST*
D10*
G04 #@! TO.P,C4,1*
G04 #@! TO.N,+5V*
X14800000Y-65550000D03*
D11*
G04 #@! TO.P,C4,2*
G04 #@! TO.N,GND*
X14800000Y-63050000D03*
G04 #@! TD*
D12*
G04 #@! TO.P,REF\u002A\u002A,1*
G04 #@! TO.N,N/C*
X46625000Y-41775000D03*
X47174175Y-40449175D03*
X47174175Y-43100825D03*
X48500000Y-39900000D03*
D13*
X48500000Y-41775000D03*
D12*
X48500000Y-43650000D03*
X49825825Y-40449175D03*
X49825825Y-43100825D03*
X50375000Y-41775000D03*
G04 #@! TD*
D10*
G04 #@! TO.P,C1,1*
G04 #@! TO.N,/VFUSE*
X14200000Y-70300000D03*
D11*
G04 #@! TO.P,C1,2*
G04 #@! TO.N,GND*
X14200000Y-73800000D03*
G04 #@! TD*
D14*
G04 #@! TO.P,J7,S1,SHIELD*
G04 #@! TO.N,GND*
X52080000Y-41920000D03*
D15*
X52080000Y-46090000D03*
D16*
X53510000Y-45560000D03*
X59290000Y-45560000D03*
D14*
X60720000Y-41920000D03*
D15*
X60720000Y-46090000D03*
G04 #@! TD*
D12*
G04 #@! TO.P,REF\u002A\u002A,1*
G04 #@! TO.N,N/C*
X13925000Y-92900000D03*
X14474175Y-91574175D03*
X14474175Y-94225825D03*
X15800000Y-91025000D03*
D13*
X15800000Y-92900000D03*
D12*
X15800000Y-94775000D03*
X17125825Y-91574175D03*
X17125825Y-94225825D03*
X17675000Y-92900000D03*
G04 #@! TD*
D17*
G04 #@! TO.P,J11,1,Pin_1*
G04 #@! TO.N,/TX*
X43200000Y-92375000D03*
D18*
G04 #@! TO.P,J11,2,Pin_2*
G04 #@! TO.N,/RX*
X43200000Y-89835000D03*
G04 #@! TO.P,J11,3,Pin_3*
G04 #@! TO.N,/DL*
X43200000Y-87295000D03*
G04 #@! TO.P,J11,4,Pin_4*
G04 #@! TO.N,GND*
X43200000Y-84755000D03*
G04 #@! TO.P,J11,5,Pin_5*
G04 #@! TO.N,Net-(J11-Pin_5)*
X43200000Y-82215000D03*
G04 #@! TO.P,J11,6,Pin_6*
G04 #@! TO.N,/PDM_DAT*
X43200000Y-79675000D03*
G04 #@! TO.P,J11,7,Pin_7*
G04 #@! TO.N,/PDM_CLK*
X43200000Y-77135000D03*
G04 #@! TO.P,J11,8,Pin_8*
G04 #@! TO.N,/DOUT1*
X43200000Y-74595000D03*
G04 #@! TO.P,J11,9,Pin_9*
G04 #@! TO.N,/DOUT3*
X43200000Y-72055000D03*
G04 #@! TO.P,J11,10,Pin_10*
G04 #@! TO.N,/DMX_RX*
X43200000Y-69515000D03*
G04 #@! TO.P,J11,11,Pin_11*
G04 #@! TO.N,/DOUT2*
X43200000Y-66975000D03*
G04 #@! TO.P,J11,12,Pin_12*
G04 #@! TO.N,/DMX_TX*
X43200000Y-64435000D03*
G04 #@! TO.P,J11,13,Pin_13*
G04 #@! TO.N,GND*
X43200000Y-61895000D03*
G04 #@! TD*
D19*
G04 #@! TO.P,J1,S1,SHIELD*
G04 #@! TO.N,GND*
X8020000Y-85820000D03*
D20*
X12190000Y-85820000D03*
D16*
X11660000Y-84390000D03*
X11660000Y-78610000D03*
D19*
X8020000Y-77180000D03*
D20*
X12190000Y-77180000D03*
G04 #@! TD*
D21*
G04 #@! TO.P,,e*
G04 #@! TO.N,GND*
X11900000Y-93400000D03*
G04 #@! TD*
D17*
G04 #@! TO.P,J5,1,Pin_1*
G04 #@! TO.N,+5V*
X18900000Y-40100000D03*
D18*
G04 #@! TO.P,J5,2,Pin_2*
G04 #@! TO.N,GND*
X16360000Y-40100000D03*
G04 #@! TO.P,J5,3,Pin_3*
G04 #@! TO.N,+3.3V*
X13820000Y-40100000D03*
G04 #@! TO.P,J5,4,Pin_4*
G04 #@! TO.N,/IO3*
X11280000Y-40100000D03*
G04 #@! TO.P,J5,5,Pin_5*
G04 #@! TO.N,/IO2*
X8740000Y-40100000D03*
G04 #@! TO.P,J5,6,Pin_6*
G04 #@! TO.N,/IO1*
X6200000Y-40100000D03*
G04 #@! TD*
D12*
G04 #@! TO.P,REF\u002A\u002A,1*
G04 #@! TO.N,N/C*
X46625000Y-89500000D03*
X47174175Y-88174175D03*
X47174175Y-90825825D03*
X48500000Y-87625000D03*
D13*
X48500000Y-89500000D03*
D12*
X48500000Y-91375000D03*
X49825825Y-88174175D03*
X49825825Y-90825825D03*
X50375000Y-89500000D03*
G04 #@! TD*
G04 #@! TO.P,REF\u002A\u002A,1*
G04 #@! TO.N,N/C*
X13925000Y-45900000D03*
X14474175Y-44574175D03*
X14474175Y-47225825D03*
X15800000Y-44025000D03*
D13*
X15800000Y-45900000D03*
D12*
X15800000Y-47775000D03*
X17125825Y-44574175D03*
X17125825Y-47225825D03*
X17675000Y-45900000D03*
G04 #@! TD*
D17*
G04 #@! TO.P,J6,1,Pin_1*
G04 #@! TO.N,GND*
X13900000Y-53275000D03*
D18*
G04 #@! TO.P,J6,2,Pin_2*
G04 #@! TO.N,/D1-*
X13900000Y-55815000D03*
G04 #@! TO.P,J6,3,Pin_3*
G04 #@! TO.N,/D1+*
X13900000Y-58355000D03*
G04 #@! TD*
D22*
G04 #@! TO.P,J12,1,Pin_1*
G04 #@! TO.N,Net-(J12-Pin_1)*
X62200000Y-92200000D03*
G04 #@! TO.P,J12,2,Pin_2*
G04 #@! TO.N,Net-(J12-Pin_2)*
X57200000Y-95700000D03*
G04 #@! TO.P,J12,3,Pin_3*
G04 #@! TO.N,Net-(J12-Pin_3)*
X62200000Y-99200000D03*
G04 #@! TD*
D23*
G04 #@! TO.P,J2,1,Pin_1*
G04 #@! TO.N,GND*
X57710000Y-79000000D03*
G04 #@! TO.P,J2,2,Pin_2*
G04 #@! TO.N,+5V*
X50090000Y-79000000D03*
G04 #@! TD*
D12*
G04 #@! TO.P,REF\u002A\u002A,1*
G04 #@! TO.N,N/C*
X9825000Y-44200000D03*
X10374175Y-42874175D03*
X10374175Y-45525825D03*
X11700000Y-42325000D03*
D13*
X11700000Y-44200000D03*
D12*
X11700000Y-46075000D03*
X13025825Y-42874175D03*
X13025825Y-45525825D03*
X13575000Y-44200000D03*
G04 #@! TD*
D17*
G04 #@! TO.P,J10,1,Pin_1*
G04 #@! TO.N,unconnected-(J10-Pin_1-Pad1)*
X20350000Y-92375000D03*
D18*
G04 #@! TO.P,J10,2,Pin_2*
G04 #@! TO.N,GND*
X20350000Y-89835000D03*
G04 #@! TO.P,J10,3,Pin_3*
G04 #@! TO.N,+3.3V*
X20350000Y-87295000D03*
G04 #@! TO.P,J10,4,Pin_4*
G04 #@! TO.N,/RST*
X20350000Y-84755000D03*
G04 #@! TO.P,J10,5,Pin_5*
G04 #@! TO.N,/DMX_RTS*
X20350000Y-82215000D03*
G04 #@! TO.P,J10,6,Pin_6*
G04 #@! TO.N,/IO1*
X20350000Y-79675000D03*
G04 #@! TO.P,J10,7,Pin_7*
G04 #@! TO.N,/IO2*
X20350000Y-77135000D03*
G04 #@! TO.P,J10,8,Pin_8*
G04 #@! TO.N,/IO3*
X20350000Y-74595000D03*
G04 #@! TO.P,J10,9,Pin_9*
G04 #@! TO.N,GND*
X20350000Y-72055000D03*
G04 #@! TO.P,J10,10,Pin_10*
G04 #@! TO.N,+3.3V*
X20350000Y-69515000D03*
G04 #@! TO.P,J10,11,Pin_11*
G04 #@! TO.N,GND*
X20350000Y-66975000D03*
G04 #@! TO.P,J10,12,Pin_12*
G04 #@! TO.N,+5V*
X20350000Y-64435000D03*
G04 #@! TO.P,J10,13,Pin_13*
G04 #@! TO.N,/LINK*
X20350000Y-61895000D03*
G04 #@! TD*
D23*
G04 #@! TO.P,J3,1,Pin_1*
G04 #@! TO.N,GND*
X57900000Y-53600000D03*
G04 #@! TO.P,J3,2,Pin_2*
G04 #@! TO.N,VDC*
X57900000Y-61220000D03*
G04 #@! TD*
D24*
G04 #@! TO.P,,*
G04 #@! TO.N,GND*
X62300000Y-47700000D03*
G04 #@! TD*
D25*
G04 #@! TO.P,F1,1*
G04 #@! TO.N,/VBUS*
X53100000Y-67400000D03*
G04 #@! TO.P,F1,2*
G04 #@! TO.N,/VFUSE*
X58200000Y-68800000D03*
G04 #@! TD*
D26*
G04 #@! TO.P,J4,1*
G04 #@! TO.N,VDC*
X46100000Y-59100000D03*
G04 #@! TO.P,J4,2*
G04 #@! TO.N,GND*
X46100000Y-53100000D03*
D27*
G04 #@! TO.P,J4,3*
G04 #@! TO.N,unconnected-(J4-Pad3)*
X41300000Y-56600000D03*
G04 #@! TD*
D12*
G04 #@! TO.P,REF\u002A\u002A,1*
G04 #@! TO.N,N/C*
X9825000Y-89500000D03*
X10374175Y-88174175D03*
X10374175Y-90825825D03*
X11700000Y-87625000D03*
D13*
X11700000Y-89500000D03*
D12*
X11700000Y-91375000D03*
X13025825Y-88174175D03*
X13025825Y-90825825D03*
X13575000Y-89500000D03*
G04 #@! TD*
D24*
G04 #@! TO.P,REF\u002A\u002A,*
G04 #@! TO.N,GND*
X21850000Y-42050000D03*
G04 #@! TD*
D28*
G04 #@! TO.P,TP10,1,1*
G04 #@! TO.N,/RST*
X12200000Y-97600000D03*
G04 #@! TD*
G04 #@! TO.P,TP15,1,1*
G04 #@! TO.N,GND*
X57900000Y-56400000D03*
G04 #@! TD*
G04 #@! TO.P,TP5,1,1*
G04 #@! TO.N,/VBUS*
X51300000Y-67400000D03*
G04 #@! TD*
G04 #@! TO.P,TP2,1,1*
G04 #@! TO.N,+5V*
X13100000Y-65600000D03*
G04 #@! TD*
G04 #@! TO.P,TP11,1,1*
G04 #@! TO.N,/DL*
X11800000Y-100500000D03*
G04 #@! TD*
G04 #@! TO.P,TP9,1,1*
G04 #@! TO.N,/TX*
X41200000Y-92500000D03*
G04 #@! TD*
G04 #@! TO.P,TP3,1,1*
G04 #@! TO.N,VDC*
X55100000Y-61200000D03*
G04 #@! TD*
G04 #@! TO.P,TP13,1,1*
G04 #@! TO.N,Net-(J12-Pin_2)*
X55200000Y-95700000D03*
G04 #@! TD*
G04 #@! TO.P,TP6,1,1*
G04 #@! TO.N,/D-*
X11000000Y-81300000D03*
G04 #@! TD*
G04 #@! TO.P,TP8,1,1*
G04 #@! TO.N,/RX*
X41200000Y-89900000D03*
G04 #@! TD*
G04 #@! TO.P,TP12,1,1*
G04 #@! TO.N,Net-(J12-Pin_3)*
X60200000Y-99200000D03*
G04 #@! TD*
G04 #@! TO.P,TP7,1,1*
G04 #@! TO.N,/D+*
X13600000Y-81800000D03*
G04 #@! TD*
G04 #@! TO.P,TP1,1,1*
G04 #@! TO.N,GND*
X12500000Y-73800000D03*
G04 #@! TD*
G04 #@! TO.P,TP14,1,1*
G04 #@! TO.N,Net-(J12-Pin_1)*
X60200000Y-92300000D03*
G04 #@! TD*
G04 #@! TO.P,TP4,1,1*
G04 #@! TO.N,+3.3V*
X18400000Y-69500000D03*
G04 #@! TD*
D29*
G04 #@! TO.P,SW2,1,1*
G04 #@! TO.N,GND*
X5800000Y-94900000D03*
G04 #@! TO.P,SW2,2,2*
X5800000Y-100900000D03*
G04 #@! TO.P,SW2,3,K*
G04 #@! TO.N,unconnected-(SW2-K-Pad3)*
X9550000Y-94900000D03*
G04 #@! TO.P,SW2,4,A*
G04 #@! TO.N,/DL*
X9550000Y-100900000D03*
G04 #@! TD*
D30*
G04 #@! TO.N,GND*
X24000000Y-83800000D03*
X47000000Y-93000000D03*
X26000000Y-83800000D03*
X17000000Y-81700000D03*
X23800000Y-76500000D03*
X22800000Y-83800000D03*
X27200000Y-82500000D03*
X26000000Y-82500000D03*
X7675000Y-99700000D03*
X25998959Y-90901041D03*
X22708718Y-76475002D03*
X7700000Y-72700000D03*
X22800000Y-82500000D03*
X47900000Y-84800000D03*
X48900000Y-84800000D03*
X25200000Y-95100000D03*
X26100000Y-63700000D03*
X27800000Y-64400000D03*
X14800000Y-66900000D03*
X26700000Y-88400000D03*
X20100000Y-95400000D03*
X49900000Y-84800000D03*
X48900000Y-92800000D03*
X35100000Y-82700000D03*
X25000000Y-83800000D03*
X5800000Y-58600000D03*
X30750000Y-96400000D03*
X34100000Y-80500000D03*
X38100000Y-93300000D03*
X35075000Y-80500000D03*
X28800000Y-72700000D03*
X25900000Y-88000000D03*
X27200000Y-83800000D03*
X31000000Y-82800000D03*
X32700000Y-100700000D03*
D31*
X40900000Y-97600000D03*
D30*
X22318198Y-88000000D03*
X46900000Y-84800000D03*
X31000000Y-81800000D03*
X44400000Y-101230000D03*
X29100000Y-89000000D03*
X27600000Y-88400000D03*
X19400000Y-83500000D03*
X24000000Y-82500000D03*
X35100000Y-81700000D03*
X18400000Y-66500000D03*
X31000000Y-80600000D03*
X25000000Y-82500000D03*
D31*
X40900000Y-100100000D03*
D30*
G04 #@! TO.N,+3.3V*
X45800000Y-96200000D03*
X17350000Y-60600000D03*
X31600000Y-98003496D03*
X22318075Y-75500000D03*
X27600000Y-91300000D03*
G04 #@! TO.N,+5V*
X37800000Y-78900000D03*
X7200000Y-67300000D03*
X19850000Y-51400000D03*
X37800000Y-79700000D03*
D31*
G04 #@! TO.N,/SW*
X34900000Y-83800000D03*
X32550000Y-80050000D03*
G04 #@! TO.N,/RST*
X18800000Y-95600000D03*
X13700000Y-95400000D03*
G04 #@! TO.N,/DL*
X11800000Y-100500000D03*
G04 #@! TO.N,/D-*
X11879998Y-81300000D03*
X18200000Y-88500000D03*
G04 #@! TO.N,/D+*
X18200000Y-87600000D03*
X14500000Y-81800000D03*
G04 #@! TO.N,/D1+*
X21900000Y-57000000D03*
X26100000Y-64800000D03*
G04 #@! TO.N,/D1-*
X25600000Y-67500000D03*
X20900000Y-55900000D03*
G04 #@! TO.N,/TX*
X26224265Y-97524265D03*
G04 #@! TO.N,/RX*
X28700000Y-93882330D03*
G04 #@! TO.N,/DOUT1*
X35600000Y-93800000D03*
G04 #@! TO.N,/DOUT2*
X36000735Y-98249265D03*
G04 #@! TO.N,/DOUT3*
X37600000Y-95350000D03*
G04 #@! TO.N,Net-(J12-Pin_3)*
X45400000Y-101100000D03*
G04 #@! TO.N,Net-(J12-Pin_1)*
X45700000Y-97800000D03*
G04 #@! TO.N,Net-(J12-Pin_2)*
X44300000Y-100200000D03*
G04 #@! TO.N,/PDM_CLK*
X46900000Y-78200000D03*
X50300000Y-97800000D03*
G04 #@! TO.N,/PDM_DAT*
X50650000Y-96550000D03*
X46900000Y-79700000D03*
G04 #@! TO.N,/LINK*
X5900000Y-62300000D03*
X12000000Y-61900000D03*
G04 #@! TO.N,/DMX_RTS*
X22350000Y-73946583D03*
X24029449Y-70551000D03*
G04 #@! TO.N,/DMX_RX*
X26500000Y-70150000D03*
X28600000Y-66900000D03*
X42300000Y-65700000D03*
G04 #@! TO.N,/DMX_TX*
X30100000Y-66400000D03*
X27700000Y-70800000D03*
G04 #@! TO.N,Net-(J11-Pin_5)*
X20700000Y-59899000D03*
G04 #@! TO.N,Net-(D4-K)*
X7300000Y-69700000D03*
X5900000Y-87800000D03*
G04 #@! TO.N,/DTR*
X14200000Y-97800000D03*
X23700000Y-95400000D03*
G04 #@! TO.N,Net-(U7-DP)*
X56100000Y-45700000D03*
X34000000Y-76800000D03*
G04 #@! TO.N,Net-(U7-DM)*
X56600000Y-48300000D03*
X34735318Y-77115136D03*
G04 #@! TO.N,/CC2*
X39400000Y-76800000D03*
X55200000Y-45700000D03*
G04 #@! TO.N,/CC1*
X39400000Y-75800000D03*
X57800000Y-48300000D03*
D30*
G04 #@! TO.N,/VBUS*
X47378277Y-66321723D03*
X46001000Y-65151000D03*
D31*
G04 #@! TO.N,/VFUSE*
X11300000Y-65000000D03*
G04 #@! TD*
D32*
G04 #@! TO.N,+3.3V*
X21700000Y-74925659D02*
X21700000Y-70865000D01*
X21505000Y-87295000D02*
X20350000Y-87295000D01*
X22318075Y-75500000D02*
X21800000Y-76018075D01*
X15920000Y-42200000D02*
X13820000Y-40100000D01*
X21800000Y-76018075D02*
X21800000Y-87000000D01*
X19100000Y-58400000D02*
X19100000Y-43500000D01*
X42600000Y-99400000D02*
X45800000Y-96200000D01*
D33*
X20335000Y-69500000D02*
X20350000Y-69515000D01*
D32*
X17350000Y-60600000D02*
X17350000Y-68450000D01*
X21700000Y-70865000D02*
X20350000Y-69515000D01*
X22318075Y-75500000D02*
X22274341Y-75500000D01*
X32996504Y-99400000D02*
X42600000Y-99400000D01*
X17800000Y-42200000D02*
X15920000Y-42200000D01*
X17350000Y-60600000D02*
X17350000Y-60150000D01*
D34*
X27600000Y-91300000D02*
X25400000Y-89100000D01*
D32*
X17350000Y-60150000D02*
X19100000Y-58400000D01*
D34*
X22140000Y-89100000D02*
X20340000Y-87300000D01*
D32*
X22274341Y-75500000D02*
X21700000Y-74925659D01*
X21800000Y-87000000D02*
X21505000Y-87295000D01*
X31600000Y-98003496D02*
X32996504Y-99400000D01*
X17350000Y-68450000D02*
X18415000Y-69515000D01*
D33*
X18400000Y-69500000D02*
X20335000Y-69500000D01*
D32*
X19100000Y-43500000D02*
X17800000Y-42200000D01*
D34*
X25400000Y-89100000D02*
X22140000Y-89100000D01*
D33*
G04 #@! TO.N,+5V*
X37800000Y-79700000D02*
X37000000Y-79700000D01*
X36600000Y-79300000D02*
X33400000Y-79300000D01*
D35*
X13100000Y-65000000D02*
X13100000Y-65600000D01*
D33*
X29697471Y-77397471D02*
X25099000Y-72798999D01*
X25099000Y-69184000D02*
X20552272Y-64637272D01*
X36900000Y-79000000D02*
X37800000Y-79000000D01*
D32*
X18100000Y-62600000D02*
X19935000Y-64435000D01*
D35*
X10800000Y-63700000D02*
X11800000Y-63700000D01*
D33*
X33400000Y-79300000D02*
X31497471Y-77397471D01*
D35*
X7200000Y-67300000D02*
X10800000Y-63700000D01*
D33*
X13250000Y-65550000D02*
X13200000Y-65600000D01*
X36600000Y-79300000D02*
X36900000Y-79000000D01*
X25099000Y-72798999D02*
X25099000Y-69184000D01*
D32*
X19935000Y-64435000D02*
X20350000Y-64435000D01*
X19800000Y-41000000D02*
X19800000Y-58407106D01*
D33*
X37800000Y-79700000D02*
X37800000Y-79000000D01*
X37000000Y-79700000D02*
X36600000Y-79300000D01*
D32*
X19800000Y-58407106D02*
X18100000Y-60107106D01*
X18100000Y-60107106D02*
X18100000Y-62600000D01*
D35*
X11800000Y-63700000D02*
X13100000Y-65000000D01*
D32*
X18900000Y-40100000D02*
X19800000Y-41000000D01*
D33*
X31497471Y-77397471D02*
X29697471Y-77397471D01*
X14800000Y-65550000D02*
X13250000Y-65550000D01*
G04 #@! TO.N,VDC*
X55100000Y-61200000D02*
X57880000Y-61200000D01*
X57880000Y-61200000D02*
X57900000Y-61220000D01*
D35*
G04 #@! TO.N,/SW*
X34400000Y-83300000D02*
X34400000Y-81900000D01*
X34400000Y-81900000D02*
X32550000Y-80050000D01*
X34900000Y-83800000D02*
X34400000Y-83300000D01*
G04 #@! TO.N,/RST*
X12200000Y-97600000D02*
X13700000Y-96100000D01*
X18800000Y-86305000D02*
X20350000Y-84755000D01*
X13700000Y-96100000D02*
X13700000Y-95400000D01*
X18800000Y-95600000D02*
X18800000Y-86305000D01*
G04 #@! TO.N,/DL*
X28100000Y-94000000D02*
X26200000Y-95900000D01*
X28100000Y-92300000D02*
X28100000Y-94000000D01*
X38100000Y-90500000D02*
X29900000Y-90500000D01*
X9550000Y-100900000D02*
X11400000Y-100900000D01*
X16300000Y-97900000D02*
X13700000Y-100500000D01*
X24065686Y-95900000D02*
X22065686Y-97900000D01*
X13700000Y-100500000D02*
X11800000Y-100500000D01*
X43200000Y-87295000D02*
X41305000Y-87295000D01*
X26200000Y-95900000D02*
X24065686Y-95900000D01*
X29900000Y-90500000D02*
X28100000Y-92300000D01*
X41305000Y-87295000D02*
X38100000Y-90500000D01*
X22065686Y-97900000D02*
X16300000Y-97900000D01*
G04 #@! TO.N,/D-*
X18200000Y-88500000D02*
X11000000Y-81300000D01*
X11300000Y-81300000D02*
X11879998Y-81300000D01*
X11275000Y-81275000D02*
X11300000Y-81300000D01*
G04 #@! TO.N,/D+*
X13600000Y-83263603D02*
X13600000Y-81800000D01*
X18200000Y-87600000D02*
X17936397Y-87600000D01*
X17936397Y-87600000D02*
X13600000Y-83263603D01*
G04 #@! TO.N,/D1+*
X21500000Y-58200000D02*
X22601000Y-59301000D01*
X21500000Y-57400000D02*
X21500000Y-58200000D01*
X24932900Y-64800000D02*
X26100000Y-64800000D01*
X22601000Y-59301000D02*
X22601000Y-62468100D01*
X22601000Y-62468100D02*
X24932900Y-64800000D01*
X21900000Y-57000000D02*
X21500000Y-57400000D01*
G04 #@! TO.N,/D1-*
X20900000Y-58725029D02*
X22001000Y-59826029D01*
X22001000Y-63901000D02*
X25600000Y-67500000D01*
X22001000Y-59826029D02*
X22001000Y-63901000D01*
X20900000Y-55900000D02*
X20900000Y-58725029D01*
G04 #@! TO.N,/TX*
X43040000Y-92400000D02*
X43060000Y-92380000D01*
X31348530Y-92400000D02*
X43040000Y-92400000D01*
X26224265Y-97524265D02*
X31348530Y-92400000D01*
G04 #@! TO.N,/RX*
X41260000Y-89840000D02*
X43060000Y-89840000D01*
X39900000Y-91200000D02*
X41260000Y-89840000D01*
X31382330Y-91200000D02*
X39900000Y-91200000D01*
X28700000Y-93882330D02*
X31382330Y-91200000D01*
G04 #@! TO.N,/DOUT1*
X36300000Y-94500000D02*
X43632900Y-94500000D01*
X43632900Y-94500000D02*
X44599000Y-93533900D01*
X35600000Y-93800000D02*
X36300000Y-94500000D01*
X44599000Y-93533900D02*
X44599000Y-75994000D01*
X44599000Y-75994000D02*
X43200000Y-74595000D01*
G04 #@! TO.N,/DOUT2*
X45600000Y-69380000D02*
X43200000Y-66980000D01*
X36000735Y-98249265D02*
X36000735Y-96599265D01*
X45600000Y-94300000D02*
X45600000Y-69380000D01*
X43550000Y-96350000D02*
X45600000Y-94300000D01*
X36000735Y-96599265D02*
X36250000Y-96350000D01*
X36250000Y-96350000D02*
X43550000Y-96350000D01*
G04 #@! TO.N,/DOUT3*
X43350000Y-95350000D02*
X45000000Y-93700000D01*
X45000000Y-73860000D02*
X43200000Y-72060000D01*
X45000000Y-93700000D02*
X45000000Y-73860000D01*
X37600000Y-95350000D02*
X43350000Y-95350000D01*
G04 #@! TO.N,/IO2*
X7750000Y-41090000D02*
X8740000Y-40100000D01*
X10000000Y-48700000D02*
X7750000Y-46450000D01*
X7750000Y-46450000D02*
X7750000Y-41090000D01*
X20350000Y-77135000D02*
X16200000Y-72985000D01*
X16200000Y-72985000D02*
X16200000Y-51936500D01*
X16200000Y-51936500D02*
X12963500Y-48700000D01*
X12963500Y-48700000D02*
X10000000Y-48700000D01*
G04 #@! TO.N,/IO1*
X8700000Y-49700000D02*
X6200000Y-47200000D01*
X6200000Y-47200000D02*
X6200000Y-40100000D01*
X20350000Y-79675000D02*
X15651000Y-74976000D01*
X15651000Y-74976000D02*
X15651000Y-52451000D01*
X15651000Y-52451000D02*
X12900000Y-49700000D01*
X12900000Y-49700000D02*
X8700000Y-49700000D01*
G04 #@! TO.N,Net-(J12-Pin_3)*
X45400000Y-101100000D02*
X58400000Y-101100000D01*
X62200000Y-99200000D02*
X60200000Y-99200000D01*
X58400000Y-101100000D02*
X60200000Y-99300000D01*
G04 #@! TO.N,Net-(J12-Pin_1)*
X60300000Y-92300000D02*
X62200000Y-92300000D01*
X52625735Y-98474265D02*
X53700000Y-97400000D01*
X62200000Y-92300000D02*
X62300000Y-92200000D01*
X53700000Y-94400000D02*
X55800000Y-92300000D01*
X53700000Y-97400000D02*
X53700000Y-94400000D01*
X46374265Y-98474265D02*
X52625735Y-98474265D01*
X55800000Y-92300000D02*
X60100000Y-92300000D01*
X45700000Y-97800000D02*
X46374265Y-98474265D01*
G04 #@! TO.N,Net-(J12-Pin_2)*
X44600000Y-99900000D02*
X54302943Y-99900000D01*
X55200000Y-99002943D02*
X55200000Y-95700000D01*
X55200000Y-95700000D02*
X57200000Y-95700000D01*
X44300000Y-100200000D02*
X44600000Y-99900000D01*
X54302943Y-99900000D02*
X55200000Y-99002943D01*
G04 #@! TO.N,/PDM_CLK*
X52700000Y-95474265D02*
X52700000Y-84000000D01*
X50300000Y-97800000D02*
X50374265Y-97800000D01*
X52700000Y-84000000D02*
X46900000Y-78200000D01*
X50374265Y-97800000D02*
X52700000Y-95474265D01*
G04 #@! TO.N,/PDM_DAT*
X50650000Y-96550000D02*
X52000000Y-95200000D01*
X52000000Y-95200000D02*
X52000000Y-84800000D01*
X52000000Y-84800000D02*
X46900000Y-79700000D01*
G04 #@! TO.N,/IO3*
X16900000Y-51400000D02*
X13500000Y-48000000D01*
X16900000Y-59908636D02*
X16900000Y-51400000D01*
X16600000Y-60991364D02*
X16600000Y-60208636D01*
X16600000Y-60208636D02*
X16900000Y-59908636D01*
X13500000Y-48000000D02*
X10567040Y-48000000D01*
X16749000Y-61140364D02*
X16600000Y-60991364D01*
X10567040Y-48000000D02*
X8740000Y-46172960D01*
X20350000Y-74595000D02*
X16749000Y-70994000D01*
X8740000Y-42640000D02*
X11280000Y-40100000D01*
X8740000Y-46172960D02*
X8740000Y-42640000D01*
X16749000Y-70994000D02*
X16749000Y-61140364D01*
G04 #@! TO.N,/LINK*
X6300000Y-61900000D02*
X12000000Y-61900000D01*
X5900000Y-62300000D02*
X6300000Y-61900000D01*
G04 #@! TO.N,/DMX_RTS*
X22353417Y-73950000D02*
X22350000Y-73946583D01*
X23200000Y-73096583D02*
X22353417Y-73943166D01*
X23873926Y-70693823D02*
X23200000Y-71367749D01*
X24029449Y-70551000D02*
X24029449Y-70562967D01*
X24029449Y-70562967D02*
X23898593Y-70693823D01*
X22353417Y-73943166D02*
X22353417Y-73950000D01*
X23898593Y-70693823D02*
X23873926Y-70693823D01*
X23200000Y-71367749D02*
X23200000Y-73096583D01*
G04 #@! TO.N,/DMX_RX*
X42300000Y-65700000D02*
X41900000Y-66100000D01*
X28548371Y-66900000D02*
X28600000Y-66900000D01*
X41900000Y-68215000D02*
X43200000Y-69515000D01*
X26500000Y-68948371D02*
X28548371Y-66900000D01*
X41900000Y-66100000D02*
X41900000Y-68215000D01*
X26500000Y-70150000D02*
X26500000Y-68948371D01*
G04 #@! TO.N,/DMX_TX*
X27700000Y-70800000D02*
X27700000Y-68800000D01*
X27700000Y-68800000D02*
X30100000Y-66400000D01*
G04 #@! TO.N,Net-(J11-Pin_5)*
X25900000Y-72467214D02*
X30029257Y-76596471D01*
X20700000Y-59900000D02*
X21600000Y-60800000D01*
X36567214Y-78200000D02*
X36568215Y-78199000D01*
X32300000Y-77065686D02*
X33434314Y-78200000D01*
X36568215Y-78199000D02*
X38131785Y-78199000D01*
X21600000Y-64349943D02*
X25900000Y-68649943D01*
X38800000Y-78200000D02*
X42815000Y-82215000D01*
X38131785Y-78199000D02*
X38132785Y-78200000D01*
X20700000Y-59899000D02*
X20700000Y-59900000D01*
X21600000Y-60800000D02*
X21600000Y-64349943D01*
X30029257Y-76596471D02*
X31829257Y-76596471D01*
X42815000Y-82215000D02*
X43200000Y-82215000D01*
X33434314Y-78200000D02*
X36567214Y-78200000D01*
X32298471Y-77065686D02*
X32300000Y-77065686D01*
X31829257Y-76596471D02*
X32298471Y-77065686D01*
X38132785Y-78200000D02*
X38800000Y-78200000D01*
X25900000Y-68649943D02*
X25900000Y-72467214D01*
G04 #@! TO.N,Net-(D4-K)*
X5900000Y-71100000D02*
X5900000Y-87800000D01*
X7300000Y-69700000D02*
X5900000Y-71100000D01*
G04 #@! TO.N,/DTR*
X23700000Y-95400000D02*
X22150000Y-96950000D01*
X15050000Y-96950000D02*
X14200000Y-97800000D01*
X22150000Y-96950000D02*
X15050000Y-96950000D01*
G04 #@! TO.N,Net-(U7-DP)*
X34365686Y-76434314D02*
X34000000Y-76800000D01*
X56100000Y-45700000D02*
X55900000Y-45900000D01*
X40401000Y-60193917D02*
X40401000Y-63066100D01*
X39500000Y-63967100D02*
X39500000Y-73400000D01*
X40401000Y-63066100D02*
X39500000Y-63967100D01*
X55900000Y-45900000D02*
X55900000Y-48700000D01*
X36465686Y-76434314D02*
X34365686Y-76434314D01*
X42400000Y-58194917D02*
X40401000Y-60193917D01*
X39500000Y-73400000D02*
X36465686Y-76434314D01*
X42400000Y-57400000D02*
X42400000Y-58194917D01*
X55900000Y-48700000D02*
X48700000Y-55900000D01*
X48700000Y-55900000D02*
X43900000Y-55900000D01*
X43900000Y-55900000D02*
X42400000Y-57400000D01*
G04 #@! TO.N,Net-(U7-DM)*
X39900000Y-64134200D02*
X40802000Y-63232200D01*
X39900000Y-72967100D02*
X39900000Y-64134200D01*
X56600000Y-48900000D02*
X49200000Y-56300000D01*
X34735318Y-77115136D02*
X34950454Y-76900000D01*
X40200000Y-73267100D02*
X39900000Y-72967100D01*
X42800000Y-58362017D02*
X42800000Y-58401000D01*
X44067100Y-56300000D02*
X42801000Y-57566100D01*
X34950454Y-76900000D02*
X36700000Y-76900000D01*
X42800000Y-58401000D02*
X41101000Y-60100000D01*
X42801000Y-57566100D02*
X42801000Y-58361017D01*
X49200000Y-56300000D02*
X44067100Y-56300000D01*
X36700000Y-76900000D02*
X40200000Y-73400000D01*
X40802000Y-63232200D02*
X40802000Y-60398000D01*
X56600000Y-48300000D02*
X56600000Y-48900000D01*
X42801000Y-58361017D02*
X42800000Y-58362017D01*
X40200000Y-73400000D02*
X40200000Y-73267100D01*
X40802000Y-60398000D02*
X41100000Y-60100000D01*
G04 #@! TO.N,/CC2*
X43700000Y-58768100D02*
X41604000Y-60864100D01*
X58600000Y-48900000D02*
X49800000Y-57700000D01*
X40100000Y-76800000D02*
X39400000Y-76800000D01*
X41100000Y-75567100D02*
X41100000Y-75800000D01*
X40901000Y-75368100D02*
X41100000Y-75567100D01*
X44100000Y-57700000D02*
X43700000Y-58100000D01*
X43700000Y-58100000D02*
X43700000Y-58768100D01*
X55200000Y-45700000D02*
X55800000Y-45100000D01*
X49800000Y-57700000D02*
X44100000Y-57700000D01*
X55800000Y-45100000D02*
X56500000Y-45100000D01*
X41604000Y-60864100D02*
X41604000Y-63564400D01*
X58600000Y-47200000D02*
X58600000Y-48900000D01*
X56500000Y-45100000D02*
X58600000Y-47200000D01*
X41604000Y-63564400D02*
X40901000Y-64267400D01*
X40901000Y-64267400D02*
X40901000Y-72833900D01*
X41002000Y-73732200D02*
X40901000Y-73833200D01*
X40901000Y-72833900D02*
X41002000Y-72934900D01*
X41100000Y-75800000D02*
X40100000Y-76800000D01*
X41002000Y-72934900D02*
X41002000Y-73732200D01*
X40901000Y-73833200D02*
X40901000Y-75368100D01*
G04 #@! TO.N,/CC1*
X57800000Y-48300000D02*
X57800000Y-48900000D01*
X43201000Y-58567100D02*
X43200000Y-58568100D01*
X43200000Y-58701000D02*
X41501000Y-60400000D01*
X43201000Y-58528117D02*
X43201000Y-58567100D01*
X40300000Y-75800000D02*
X39400000Y-75800000D01*
X41203000Y-63398300D02*
X40500000Y-64101300D01*
X43202000Y-58527117D02*
X43201000Y-58528117D01*
X40601000Y-73566100D02*
X40500000Y-73667100D01*
X44034200Y-57100000D02*
X43202000Y-57932200D01*
X41203000Y-60697000D02*
X41203000Y-63398300D01*
X40500000Y-73667100D02*
X40500000Y-75600000D01*
X41500000Y-60400000D02*
X41203000Y-60697000D01*
X43202000Y-57932200D02*
X43202000Y-58527117D01*
X57800000Y-48900000D02*
X49600000Y-57100000D01*
X40500000Y-73000000D02*
X40601000Y-73101000D01*
X40500000Y-64101300D02*
X40500000Y-73000000D01*
X40601000Y-73101000D02*
X40601000Y-73566100D01*
X43200000Y-58568100D02*
X43200000Y-58701000D01*
X40500000Y-75600000D02*
X40300000Y-75800000D01*
X49600000Y-57100000D02*
X44034200Y-57100000D01*
D33*
G04 #@! TO.N,/VBUS*
X45800000Y-65100000D02*
X46300000Y-65100000D01*
X46300000Y-65100000D02*
X46650000Y-65450000D01*
X51300000Y-67400000D02*
X53100000Y-67400000D01*
X48600000Y-67400000D02*
X51300000Y-67400000D01*
X46650000Y-65450000D02*
X48600000Y-67400000D01*
D35*
G04 #@! TO.N,/VFUSE*
X11300000Y-66400000D02*
X11300000Y-65000000D01*
X14200000Y-69300000D02*
X11300000Y-66400000D01*
X14200000Y-70300000D02*
X14200000Y-69300000D01*
G04 #@! TD*
G04 #@! TA.AperFunction,Conductor*
G04 #@! TO.N,GND*
G36*
X23258691Y-38819407D02*
G01*
X23294655Y-38868907D01*
X23299500Y-38899500D01*
X23299500Y-62502621D01*
X23280593Y-62560812D01*
X23231093Y-62596776D01*
X23169907Y-62596776D01*
X23130496Y-62572625D01*
X22930496Y-62372625D01*
X22902719Y-62318108D01*
X22901500Y-62302621D01*
X22901500Y-59261437D01*
X22901499Y-59261435D01*
X22881021Y-59185011D01*
X22881019Y-59185007D01*
X22841460Y-59116489D01*
X22785511Y-59060539D01*
X22785511Y-59060540D01*
X21829496Y-58104525D01*
X21801719Y-58050008D01*
X21800500Y-58034521D01*
X21800500Y-57599500D01*
X21819407Y-57541309D01*
X21868907Y-57505345D01*
X21899500Y-57500500D01*
X21965890Y-57500500D01*
X21965892Y-57500500D01*
X22093186Y-57466392D01*
X22093188Y-57466390D01*
X22093190Y-57466390D01*
X22207309Y-57400503D01*
X22207309Y-57400502D01*
X22207314Y-57400500D01*
X22300500Y-57307314D01*
X22344476Y-57231146D01*
X22366390Y-57193190D01*
X22366390Y-57193188D01*
X22366392Y-57193186D01*
X22400500Y-57065892D01*
X22400500Y-56934108D01*
X22366392Y-56806814D01*
X22366390Y-56806811D01*
X22366390Y-56806809D01*
X22300503Y-56692690D01*
X22300501Y-56692688D01*
X22300500Y-56692686D01*
X22207314Y-56599500D01*
X22207311Y-56599498D01*
X22207309Y-56599496D01*
X22093189Y-56533609D01*
X22093191Y-56533609D01*
X22043799Y-56520375D01*
X21965892Y-56499500D01*
X21834108Y-56499500D01*
X21756200Y-56520375D01*
X21706809Y-56533609D01*
X21592690Y-56599496D01*
X21499496Y-56692690D01*
X21433609Y-56806809D01*
X21399500Y-56934109D01*
X21399500Y-57034521D01*
X21397031Y-57042118D01*
X21398281Y-57050008D01*
X21387756Y-57070663D01*
X21380593Y-57092712D01*
X21370507Y-57104520D01*
X21369502Y-57105525D01*
X21314987Y-57133302D01*
X21254555Y-57123731D01*
X21211290Y-57080466D01*
X21200500Y-57035521D01*
X21200500Y-56348321D01*
X21219407Y-56290130D01*
X21229490Y-56278323D01*
X21300500Y-56207314D01*
X21366392Y-56093186D01*
X21400500Y-55965892D01*
X21400500Y-55834108D01*
X21366392Y-55706814D01*
X21366390Y-55706811D01*
X21366390Y-55706809D01*
X21300503Y-55592690D01*
X21300501Y-55592688D01*
X21300500Y-55592686D01*
X21207314Y-55499500D01*
X21207311Y-55499498D01*
X21207309Y-55499496D01*
X21093189Y-55433609D01*
X21093191Y-55433609D01*
X21043799Y-55420375D01*
X20965892Y-55399500D01*
X20834108Y-55399500D01*
X20756200Y-55420375D01*
X20706809Y-55433609D01*
X20592690Y-55499496D01*
X20499496Y-55592690D01*
X20433609Y-55706809D01*
X20414539Y-55777978D01*
X20399500Y-55834108D01*
X20399500Y-55965892D01*
X20429579Y-56078151D01*
X20433609Y-56093190D01*
X20499496Y-56207309D01*
X20499498Y-56207311D01*
X20499500Y-56207314D01*
X20570505Y-56278319D01*
X20598281Y-56332834D01*
X20599500Y-56348321D01*
X20599500Y-58764593D01*
X20615084Y-58822750D01*
X20619979Y-58841018D01*
X20644846Y-58884089D01*
X20659540Y-58909540D01*
X21046236Y-59296236D01*
X21074012Y-59350751D01*
X21064441Y-59411183D01*
X21021176Y-59454448D01*
X20960744Y-59464019D01*
X20926732Y-59451975D01*
X20893189Y-59432609D01*
X20893186Y-59432608D01*
X20765892Y-59398500D01*
X20634108Y-59398500D01*
X20556200Y-59419375D01*
X20506809Y-59432609D01*
X20392690Y-59498496D01*
X20299496Y-59591690D01*
X20233609Y-59705809D01*
X20219109Y-59759927D01*
X20199500Y-59833108D01*
X20199500Y-59964892D01*
X20229579Y-60077151D01*
X20233609Y-60092190D01*
X20299496Y-60206309D01*
X20299498Y-60206311D01*
X20299500Y-60206314D01*
X20392686Y-60299500D01*
X20392688Y-60299501D01*
X20392690Y-60299503D01*
X20506810Y-60365390D01*
X20506808Y-60365390D01*
X20506812Y-60365391D01*
X20506814Y-60365392D01*
X20634108Y-60399500D01*
X20634110Y-60399500D01*
X20733521Y-60399500D01*
X20791712Y-60418407D01*
X20803525Y-60428496D01*
X21270504Y-60895475D01*
X21274130Y-60902592D01*
X21280593Y-60907288D01*
X21287756Y-60929336D01*
X21298281Y-60949992D01*
X21299500Y-60965479D01*
X21299500Y-61119861D01*
X21280593Y-61178052D01*
X21231093Y-61214016D01*
X21169907Y-61214016D01*
X21130498Y-61189866D01*
X21019655Y-61079023D01*
X20975824Y-61049736D01*
X20847597Y-60964058D01*
X20656418Y-60884869D01*
X20453467Y-60844500D01*
X20453465Y-60844500D01*
X20246535Y-60844500D01*
X20246532Y-60844500D01*
X20043581Y-60884869D01*
X19852402Y-60964058D01*
X19680348Y-61079020D01*
X19534020Y-61225348D01*
X19419058Y-61397402D01*
X19339869Y-61588581D01*
X19299500Y-61791532D01*
X19299500Y-61998467D01*
X19339869Y-62201418D01*
X19419058Y-62392597D01*
X19531455Y-62560812D01*
X19534023Y-62564655D01*
X19680345Y-62710977D01*
X19852402Y-62825941D01*
X20043580Y-62905130D01*
X20246535Y-62945500D01*
X20246536Y-62945500D01*
X20453464Y-62945500D01*
X20453465Y-62945500D01*
X20656420Y-62905130D01*
X20847598Y-62825941D01*
X21019655Y-62710977D01*
X21130498Y-62600133D01*
X21185013Y-62572358D01*
X21245445Y-62581929D01*
X21288710Y-62625194D01*
X21299500Y-62670139D01*
X21299500Y-63659861D01*
X21280593Y-63718052D01*
X21231093Y-63754016D01*
X21169907Y-63754016D01*
X21130498Y-63729866D01*
X21019655Y-63619023D01*
X21019651Y-63619020D01*
X20847597Y-63504058D01*
X20656418Y-63424869D01*
X20453467Y-63384500D01*
X20453465Y-63384500D01*
X20246535Y-63384500D01*
X20246532Y-63384500D01*
X20043581Y-63424869D01*
X19852402Y-63504058D01*
X19708551Y-63600176D01*
X19649663Y-63616784D01*
X19592259Y-63595606D01*
X19583546Y-63587864D01*
X18479496Y-62483814D01*
X18451719Y-62429297D01*
X18450500Y-62413810D01*
X18450500Y-60293295D01*
X18469407Y-60235104D01*
X18479490Y-60223297D01*
X20080470Y-58622318D01*
X20126614Y-58542394D01*
X20130565Y-58527644D01*
X20130568Y-58527640D01*
X20130567Y-58527640D01*
X20139557Y-58494088D01*
X20150500Y-58453250D01*
X20150500Y-51977061D01*
X20169407Y-51918870D01*
X20199997Y-51891326D01*
X20218716Y-51880520D01*
X20330520Y-51768716D01*
X20409577Y-51631784D01*
X20450500Y-51479057D01*
X20450500Y-51320943D01*
X20409577Y-51168216D01*
X20330520Y-51031284D01*
X20218716Y-50919480D01*
X20199998Y-50908673D01*
X20159058Y-50863202D01*
X20150500Y-50822937D01*
X20150500Y-40953857D01*
X20150500Y-40953856D01*
X20126614Y-40864712D01*
X20117854Y-40849540D01*
X20080470Y-40784788D01*
X20035616Y-40739934D01*
X19979496Y-40683813D01*
X19951719Y-40629297D01*
X19950500Y-40613810D01*
X19950500Y-39230253D01*
X19950498Y-39230241D01*
X19944535Y-39200265D01*
X19938867Y-39171769D01*
X19894552Y-39105448D01*
X19894548Y-39105445D01*
X19828233Y-39061134D01*
X19828231Y-39061133D01*
X19828228Y-39061132D01*
X19828227Y-39061132D01*
X19769758Y-39049501D01*
X19769748Y-39049500D01*
X18030252Y-39049500D01*
X18030251Y-39049500D01*
X18030241Y-39049501D01*
X17971772Y-39061132D01*
X17971766Y-39061134D01*
X17905451Y-39105445D01*
X17905445Y-39105451D01*
X17861134Y-39171766D01*
X17861132Y-39171772D01*
X17849501Y-39230241D01*
X17849500Y-39230253D01*
X17849500Y-40969746D01*
X17849501Y-40969758D01*
X17861132Y-41028227D01*
X17861134Y-41028233D01*
X17892559Y-41075263D01*
X17905448Y-41094552D01*
X17971769Y-41138867D01*
X18016231Y-41147711D01*
X18030241Y-41150498D01*
X18030246Y-41150498D01*
X18030252Y-41150500D01*
X19350500Y-41150500D01*
X19408691Y-41169407D01*
X19444655Y-41218907D01*
X19449500Y-41249500D01*
X19449500Y-43114811D01*
X19430593Y-43173002D01*
X19381093Y-43208966D01*
X19319907Y-43208966D01*
X19280498Y-43184816D01*
X18015212Y-41919530D01*
X17935288Y-41873386D01*
X17846144Y-41849500D01*
X17846142Y-41849500D01*
X16106190Y-41849500D01*
X16047999Y-41830593D01*
X16036186Y-41820504D01*
X14815974Y-40600292D01*
X14788197Y-40545775D01*
X14794513Y-40492403D01*
X14830130Y-40406420D01*
X14852692Y-40292993D01*
X14870379Y-40204076D01*
X14870379Y-40204075D01*
X14870499Y-40203472D01*
X14870500Y-40203463D01*
X14870500Y-39996536D01*
X14870499Y-39996527D01*
X14870378Y-39995918D01*
X14861244Y-39949999D01*
X15319266Y-39949999D01*
X15319267Y-39950000D01*
X15882555Y-39950000D01*
X15860000Y-40034174D01*
X15860000Y-40165826D01*
X15882555Y-40250000D01*
X15319266Y-40250000D01*
X15350349Y-40406271D01*
X15429501Y-40597360D01*
X15429508Y-40597374D01*
X15544405Y-40769329D01*
X15690670Y-40915594D01*
X15862625Y-41030491D01*
X15862639Y-41030498D01*
X16053728Y-41109650D01*
X16053727Y-41109650D01*
X16209999Y-41140733D01*
X16210000Y-41140733D01*
X16210000Y-40577445D01*
X16294174Y-40600000D01*
X16425826Y-40600000D01*
X16510000Y-40577445D01*
X16510000Y-41140733D01*
X16666271Y-41109650D01*
X16857360Y-41030498D01*
X16857374Y-41030491D01*
X17029329Y-40915594D01*
X17175594Y-40769329D01*
X17290491Y-40597374D01*
X17290498Y-40597360D01*
X17369650Y-40406271D01*
X17400734Y-40250000D01*
X16837445Y-40250000D01*
X16860000Y-40165826D01*
X16860000Y-40034174D01*
X16837445Y-39950000D01*
X17400733Y-39950000D01*
X17400733Y-39949999D01*
X17369650Y-39793728D01*
X17290498Y-39602639D01*
X17290491Y-39602625D01*
X17175594Y-39430670D01*
X17029329Y-39284405D01*
X16857374Y-39169508D01*
X16857360Y-39169501D01*
X16666277Y-39090351D01*
X16666271Y-39090349D01*
X16510000Y-39059264D01*
X16510000Y-39622554D01*
X16425826Y-39600000D01*
X16294174Y-39600000D01*
X16210000Y-39622554D01*
X16210000Y-39059264D01*
X16053728Y-39090349D01*
X16053722Y-39090351D01*
X15862639Y-39169501D01*
X15862625Y-39169508D01*
X15690670Y-39284405D01*
X15544405Y-39430670D01*
X15429508Y-39602625D01*
X15429501Y-39602639D01*
X15350349Y-39793728D01*
X15319266Y-39949999D01*
X14861244Y-39949999D01*
X14830130Y-39793581D01*
X14829886Y-39792993D01*
X14750941Y-39602402D01*
X14635977Y-39430345D01*
X14489655Y-39284023D01*
X14489651Y-39284020D01*
X14317597Y-39169058D01*
X14126418Y-39089869D01*
X13923467Y-39049500D01*
X13923465Y-39049500D01*
X13716535Y-39049500D01*
X13716532Y-39049500D01*
X13513581Y-39089869D01*
X13322402Y-39169058D01*
X13150348Y-39284020D01*
X13004020Y-39430348D01*
X12889058Y-39602402D01*
X12809869Y-39793581D01*
X12769500Y-39996532D01*
X12769500Y-40203467D01*
X12809869Y-40406418D01*
X12889058Y-40597597D01*
X13003805Y-40769329D01*
X13004023Y-40769655D01*
X13150345Y-40915977D01*
X13322402Y-41030941D01*
X13513580Y-41110130D01*
X13716535Y-41150500D01*
X13716536Y-41150500D01*
X13923464Y-41150500D01*
X13923465Y-41150500D01*
X14126420Y-41110130D01*
X14212402Y-41074513D01*
X14273398Y-41069713D01*
X14320292Y-41095974D01*
X15704787Y-42480469D01*
X15704789Y-42480470D01*
X15704790Y-42480471D01*
X15704791Y-42480472D01*
X15780206Y-42524013D01*
X15780207Y-42524013D01*
X15784712Y-42526614D01*
X15873856Y-42550500D01*
X17613810Y-42550500D01*
X17672001Y-42569407D01*
X17683814Y-42579496D01*
X18720504Y-43616186D01*
X18748281Y-43670703D01*
X18749500Y-43686190D01*
X18749500Y-58213810D01*
X18730593Y-58272001D01*
X18720504Y-58283814D01*
X17369504Y-59634814D01*
X17314987Y-59662591D01*
X17254555Y-59653020D01*
X17211290Y-59609755D01*
X17200500Y-59564810D01*
X17200500Y-51360437D01*
X17200499Y-51360435D01*
X17180021Y-51284011D01*
X17180019Y-51284007D01*
X17140460Y-51215489D01*
X17084511Y-51159539D01*
X17084511Y-51159540D01*
X14307313Y-48382342D01*
X14279538Y-48327828D01*
X14289109Y-48267396D01*
X14332374Y-48224131D01*
X14392806Y-48214560D01*
X14429987Y-48228513D01*
X14491659Y-48267265D01*
X14491670Y-48267270D01*
X14491673Y-48267272D01*
X14497145Y-48269907D01*
X14764935Y-48398868D01*
X14811001Y-48414987D01*
X15051224Y-48499045D01*
X15051227Y-48499045D01*
X15051228Y-48499046D01*
X15346937Y-48566540D01*
X15648343Y-48600500D01*
X15648344Y-48600500D01*
X15951656Y-48600500D01*
X15951657Y-48600500D01*
X16253063Y-48566540D01*
X16548772Y-48499046D01*
X16835065Y-48398868D01*
X17108341Y-48267265D01*
X17365164Y-48105892D01*
X17602304Y-47916779D01*
X17816779Y-47702304D01*
X18005892Y-47465164D01*
X18167265Y-47208341D01*
X18298868Y-46935065D01*
X18399046Y-46648772D01*
X18466540Y-46353063D01*
X18500500Y-46051657D01*
X18500500Y-45748343D01*
X18466540Y-45446937D01*
X18399046Y-45151228D01*
X18298868Y-44864935D01*
X18167265Y-44591659D01*
X18005892Y-44334836D01*
X17816779Y-44097696D01*
X17602304Y-43883221D01*
X17365164Y-43694108D01*
X17108341Y-43532735D01*
X17108333Y-43532731D01*
X17108326Y-43532727D01*
X16835065Y-43401132D01*
X16835063Y-43401131D01*
X16548775Y-43300954D01*
X16253061Y-43233459D01*
X15951658Y-43199500D01*
X15951657Y-43199500D01*
X15648343Y-43199500D01*
X15648341Y-43199500D01*
X15346938Y-43233459D01*
X15051224Y-43300954D01*
X14764936Y-43401131D01*
X14764934Y-43401132D01*
X14491656Y-43532735D01*
X14457615Y-43554125D01*
X14398284Y-43569075D01*
X14341498Y-43546295D01*
X14308946Y-43494488D01*
X14308427Y-43492328D01*
X14306515Y-43483954D01*
X14299046Y-43451228D01*
X14198868Y-43164935D01*
X14067265Y-42891659D01*
X13905892Y-42634836D01*
X13716779Y-42397696D01*
X13502304Y-42183221D01*
X13265164Y-41994108D01*
X13008341Y-41832735D01*
X13008333Y-41832731D01*
X13008326Y-41832727D01*
X12735065Y-41701132D01*
X12735063Y-41701131D01*
X12448775Y-41600954D01*
X12153061Y-41533459D01*
X11851658Y-41499500D01*
X11851657Y-41499500D01*
X11548343Y-41499500D01*
X11548341Y-41499500D01*
X11246938Y-41533459D01*
X10951224Y-41600954D01*
X10664936Y-41701131D01*
X10664934Y-41701132D01*
X10391673Y-41832727D01*
X10391660Y-41832734D01*
X10391659Y-41832735D01*
X10306051Y-41886526D01*
X10134832Y-41994110D01*
X10134829Y-41994112D01*
X9913435Y-42170668D01*
X9856151Y-42192167D01*
X9797171Y-42175890D01*
X9759023Y-42128053D01*
X9756278Y-42066929D01*
X9781703Y-42023266D01*
X10729708Y-41075261D01*
X10784223Y-41047486D01*
X10837595Y-41053802D01*
X10973580Y-41110130D01*
X11176535Y-41150500D01*
X11176536Y-41150500D01*
X11383464Y-41150500D01*
X11383465Y-41150500D01*
X11586420Y-41110130D01*
X11777598Y-41030941D01*
X11949655Y-40915977D01*
X12095977Y-40769655D01*
X12210941Y-40597598D01*
X12290130Y-40406420D01*
X12330500Y-40203465D01*
X12330500Y-39996535D01*
X12290130Y-39793580D01*
X12210941Y-39602402D01*
X12095977Y-39430345D01*
X11949655Y-39284023D01*
X11949651Y-39284020D01*
X11777597Y-39169058D01*
X11586418Y-39089869D01*
X11383467Y-39049500D01*
X11383465Y-39049500D01*
X11176535Y-39049500D01*
X11176532Y-39049500D01*
X10973581Y-39089869D01*
X10782402Y-39169058D01*
X10610348Y-39284020D01*
X10464020Y-39430348D01*
X10349058Y-39602402D01*
X10269869Y-39793581D01*
X10229500Y-39996532D01*
X10229500Y-40203467D01*
X10269869Y-40406418D01*
X10326196Y-40542402D01*
X10330997Y-40603399D01*
X10304736Y-40650292D01*
X8555489Y-42399540D01*
X8555488Y-42399539D01*
X8499539Y-42455489D01*
X8459980Y-42524007D01*
X8459978Y-42524011D01*
X8439500Y-42600435D01*
X8439500Y-46212524D01*
X8458792Y-46284521D01*
X8459979Y-46288949D01*
X8470276Y-46306784D01*
X8499540Y-46357471D01*
X10372567Y-48230498D01*
X10383090Y-48251151D01*
X10396717Y-48269907D01*
X10396717Y-48277896D01*
X10400343Y-48285013D01*
X10396717Y-48307907D01*
X10396717Y-48331093D01*
X10392021Y-48337555D01*
X10390772Y-48345445D01*
X10374380Y-48361836D01*
X10360753Y-48380593D01*
X10353155Y-48383061D01*
X10347507Y-48388710D01*
X10302562Y-48399500D01*
X10165479Y-48399500D01*
X10107288Y-48380593D01*
X10095475Y-48370504D01*
X8079496Y-46354525D01*
X8051719Y-46300008D01*
X8050500Y-46284521D01*
X8050500Y-41255477D01*
X8069407Y-41197286D01*
X8079491Y-41185479D01*
X8189708Y-41075261D01*
X8244223Y-41047485D01*
X8297591Y-41053801D01*
X8433580Y-41110130D01*
X8636535Y-41150500D01*
X8636536Y-41150500D01*
X8843464Y-41150500D01*
X8843465Y-41150500D01*
X9046420Y-41110130D01*
X9237598Y-41030941D01*
X9409655Y-40915977D01*
X9555977Y-40769655D01*
X9670941Y-40597598D01*
X9750130Y-40406420D01*
X9790500Y-40203465D01*
X9790500Y-39996535D01*
X9750130Y-39793580D01*
X9670941Y-39602402D01*
X9555977Y-39430345D01*
X9409655Y-39284023D01*
X9409651Y-39284020D01*
X9237597Y-39169058D01*
X9046418Y-39089869D01*
X8843467Y-39049500D01*
X8843465Y-39049500D01*
X8636535Y-39049500D01*
X8636532Y-39049500D01*
X8433581Y-39089869D01*
X8242402Y-39169058D01*
X8070348Y-39284020D01*
X7924020Y-39430348D01*
X7809058Y-39602402D01*
X7729869Y-39793581D01*
X7689500Y-39996532D01*
X7689500Y-40203467D01*
X7729869Y-40406418D01*
X7786196Y-40542402D01*
X7790997Y-40603399D01*
X7764736Y-40650291D01*
X7565489Y-40849539D01*
X7509539Y-40905489D01*
X7469980Y-40974007D01*
X7469978Y-40974011D01*
X7449500Y-41050435D01*
X7449500Y-46489564D01*
X7469978Y-46565988D01*
X7469980Y-46565992D01*
X7509538Y-46634508D01*
X7509540Y-46634511D01*
X9815489Y-48940460D01*
X9815491Y-48940461D01*
X9815493Y-48940463D01*
X9884008Y-48980020D01*
X9884006Y-48980020D01*
X9884010Y-48980021D01*
X9884012Y-48980022D01*
X9960438Y-49000500D01*
X12798021Y-49000500D01*
X12856212Y-49019407D01*
X12868025Y-49029496D01*
X13086018Y-49247489D01*
X13113795Y-49302006D01*
X13104224Y-49362438D01*
X13060959Y-49405703D01*
X13000527Y-49415274D01*
X12990391Y-49413120D01*
X12962711Y-49405703D01*
X12939562Y-49399500D01*
X12939561Y-49399500D01*
X8865479Y-49399500D01*
X8807288Y-49380593D01*
X8795475Y-49370504D01*
X6529496Y-47104525D01*
X6501719Y-47050008D01*
X6500500Y-47034521D01*
X6500500Y-41178731D01*
X6519407Y-41120540D01*
X6561614Y-41087267D01*
X6697598Y-41030941D01*
X6869655Y-40915977D01*
X7015977Y-40769655D01*
X7130941Y-40597598D01*
X7210130Y-40406420D01*
X7250500Y-40203465D01*
X7250500Y-39996535D01*
X7210130Y-39793580D01*
X7130941Y-39602402D01*
X7015977Y-39430345D01*
X6869655Y-39284023D01*
X6869651Y-39284020D01*
X6697597Y-39169058D01*
X6506418Y-39089869D01*
X6303467Y-39049500D01*
X6303465Y-39049500D01*
X6096535Y-39049500D01*
X6096532Y-39049500D01*
X5893581Y-39089869D01*
X5702402Y-39169058D01*
X5530348Y-39284020D01*
X5384020Y-39430348D01*
X5269058Y-39602402D01*
X5189869Y-39793581D01*
X5149500Y-39996532D01*
X5149500Y-40203467D01*
X5189869Y-40406418D01*
X5269058Y-40597597D01*
X5383805Y-40769329D01*
X5384023Y-40769655D01*
X5530345Y-40915977D01*
X5702402Y-41030941D01*
X5702403Y-41030941D01*
X5702404Y-41030942D01*
X5742345Y-41047486D01*
X5838385Y-41087267D01*
X5884911Y-41127003D01*
X5899500Y-41178731D01*
X5899500Y-47239564D01*
X5919977Y-47315985D01*
X5919978Y-47315987D01*
X5919979Y-47315989D01*
X5949692Y-47367454D01*
X5949693Y-47367455D01*
X5949693Y-47367456D01*
X5959536Y-47384506D01*
X5959537Y-47384507D01*
X5959538Y-47384508D01*
X5959540Y-47384511D01*
X8459540Y-49884511D01*
X8459539Y-49884511D01*
X8515489Y-49940460D01*
X8584007Y-49980019D01*
X8584011Y-49980021D01*
X8660435Y-50000499D01*
X8660437Y-50000500D01*
X8660438Y-50000500D01*
X12734521Y-50000500D01*
X12792712Y-50019407D01*
X12804525Y-50029496D01*
X14831025Y-52055996D01*
X14858802Y-52110513D01*
X14849231Y-52170945D01*
X14805966Y-52214210D01*
X14761021Y-52225000D01*
X14050001Y-52225000D01*
X14050000Y-52225001D01*
X14050000Y-52797554D01*
X13965826Y-52775000D01*
X13834174Y-52775000D01*
X13750000Y-52797554D01*
X13750000Y-52225001D01*
X13749999Y-52225000D01*
X13030299Y-52225000D01*
X12971963Y-52236603D01*
X12905810Y-52280806D01*
X12905806Y-52280810D01*
X12861603Y-52346963D01*
X12850000Y-52405299D01*
X12850000Y-53124999D01*
X12850001Y-53125000D01*
X13422555Y-53125000D01*
X13400000Y-53209174D01*
X13400000Y-53340826D01*
X13422555Y-53425000D01*
X12850001Y-53425000D01*
X12850000Y-53425001D01*
X12850000Y-54144700D01*
X12861603Y-54203036D01*
X12905806Y-54269189D01*
X12905810Y-54269193D01*
X12971963Y-54313396D01*
X13030299Y-54324999D01*
X13030303Y-54325000D01*
X13749999Y-54325000D01*
X13750000Y-54324999D01*
X13750000Y-53752445D01*
X13834174Y-53775000D01*
X13965826Y-53775000D01*
X14050000Y-53752445D01*
X14050000Y-54324999D01*
X14050001Y-54325000D01*
X14769697Y-54325000D01*
X14769700Y-54324999D01*
X14828036Y-54313396D01*
X14894189Y-54269193D01*
X14894193Y-54269189D01*
X14938396Y-54203036D01*
X14949999Y-54144700D01*
X14950000Y-54144697D01*
X14950000Y-53425001D01*
X14949999Y-53425000D01*
X14377445Y-53425000D01*
X14400000Y-53340826D01*
X14400000Y-53209174D01*
X14377445Y-53125000D01*
X14949999Y-53125000D01*
X14950000Y-53124999D01*
X14950000Y-52413979D01*
X14968907Y-52355788D01*
X15018407Y-52319824D01*
X15079593Y-52319824D01*
X15119004Y-52343975D01*
X15321504Y-52546475D01*
X15349281Y-52600992D01*
X15350500Y-52616479D01*
X15350500Y-62330599D01*
X15331593Y-62388790D01*
X15282093Y-62424754D01*
X15220907Y-62424754D01*
X15196499Y-62412915D01*
X15155257Y-62385358D01*
X15018770Y-62328823D01*
X15018764Y-62328821D01*
X14873871Y-62300000D01*
X14726128Y-62300000D01*
X14581235Y-62328821D01*
X14581229Y-62328823D01*
X14444742Y-62385358D01*
X14386444Y-62424312D01*
X14681528Y-62719397D01*
X14664905Y-62723852D01*
X14585095Y-62769930D01*
X14519930Y-62835095D01*
X14473852Y-62914905D01*
X14469397Y-62931530D01*
X14174311Y-62636444D01*
X14135358Y-62694742D01*
X14078823Y-62831229D01*
X14078821Y-62831235D01*
X14050000Y-62976128D01*
X14050000Y-63123871D01*
X14078821Y-63268764D01*
X14078823Y-63268770D01*
X14135358Y-63405256D01*
X14174311Y-63463554D01*
X14469397Y-63168469D01*
X14473852Y-63185095D01*
X14519930Y-63264905D01*
X14585095Y-63330070D01*
X14664905Y-63376148D01*
X14681528Y-63380602D01*
X14386444Y-63675686D01*
X14444742Y-63714641D01*
X14581229Y-63771176D01*
X14581235Y-63771178D01*
X14726128Y-63799999D01*
X14726132Y-63800000D01*
X14873868Y-63800000D01*
X14873871Y-63799999D01*
X15018764Y-63771178D01*
X15018770Y-63771176D01*
X15155258Y-63714640D01*
X15196498Y-63687085D01*
X15255386Y-63670476D01*
X15312790Y-63691653D01*
X15346783Y-63742527D01*
X15350500Y-63769400D01*
X15350500Y-64700500D01*
X15331593Y-64758691D01*
X15282093Y-64794655D01*
X15251500Y-64799500D01*
X14230252Y-64799500D01*
X14230251Y-64799500D01*
X14230241Y-64799501D01*
X14171772Y-64811132D01*
X14171766Y-64811134D01*
X14139320Y-64832815D01*
X14084318Y-64849500D01*
X13717683Y-64849500D01*
X13662681Y-64832815D01*
X13550230Y-64757677D01*
X13377249Y-64686026D01*
X13199171Y-64650604D01*
X13148481Y-64623510D01*
X12653551Y-64128580D01*
X11984511Y-63459540D01*
X11984508Y-63459538D01*
X11915992Y-63419980D01*
X11915988Y-63419978D01*
X11839564Y-63399500D01*
X11839562Y-63399500D01*
X10760438Y-63399500D01*
X10760435Y-63399500D01*
X10684011Y-63419978D01*
X10684007Y-63419980D01*
X10615491Y-63459538D01*
X7395557Y-66679470D01*
X7341040Y-66707247D01*
X7299931Y-66705093D01*
X7279057Y-66699500D01*
X7120943Y-66699500D01*
X6968216Y-66740423D01*
X6831284Y-66819480D01*
X6719480Y-66931284D01*
X6640423Y-67068216D01*
X6599500Y-67220943D01*
X6599500Y-67379057D01*
X6640423Y-67531784D01*
X6719480Y-67668716D01*
X6831284Y-67780520D01*
X6968216Y-67859577D01*
X7120943Y-67900500D01*
X7120945Y-67900500D01*
X7279055Y-67900500D01*
X7279057Y-67900500D01*
X7431784Y-67859577D01*
X7568716Y-67780520D01*
X7680520Y-67668716D01*
X7759577Y-67531784D01*
X7800500Y-67379057D01*
X7800500Y-67220943D01*
X7794906Y-67200065D01*
X7798109Y-67138965D01*
X7820527Y-67104442D01*
X9990862Y-64934108D01*
X10799500Y-64934108D01*
X10799500Y-65065892D01*
X10821975Y-65149769D01*
X10833609Y-65193190D01*
X10899496Y-65307309D01*
X10899498Y-65307311D01*
X10899500Y-65307314D01*
X10970505Y-65378319D01*
X10998281Y-65432834D01*
X10999500Y-65448321D01*
X10999500Y-66439564D01*
X11019978Y-66515987D01*
X11024063Y-66523062D01*
X11024064Y-66523065D01*
X11044048Y-66557678D01*
X11059540Y-66584511D01*
X12459679Y-67984650D01*
X13855525Y-69380496D01*
X13883302Y-69435013D01*
X13873731Y-69495445D01*
X13830466Y-69538710D01*
X13785521Y-69549500D01*
X13630252Y-69549500D01*
X13630251Y-69549500D01*
X13630241Y-69549501D01*
X13571772Y-69561132D01*
X13571766Y-69561134D01*
X13505451Y-69605445D01*
X13505445Y-69605451D01*
X13461134Y-69671766D01*
X13461132Y-69671772D01*
X13449501Y-69730241D01*
X13449500Y-69730253D01*
X13449500Y-70869746D01*
X13449501Y-70869758D01*
X13461132Y-70928227D01*
X13461134Y-70928233D01*
X13501652Y-70988871D01*
X13505448Y-70994552D01*
X13571769Y-71038867D01*
X13616231Y-71047711D01*
X13630241Y-71050498D01*
X13630246Y-71050498D01*
X13630252Y-71050500D01*
X13630253Y-71050500D01*
X14769747Y-71050500D01*
X14769748Y-71050500D01*
X14828231Y-71038867D01*
X14894552Y-70994552D01*
X14938867Y-70928231D01*
X14950500Y-70869748D01*
X14950500Y-69730252D01*
X14938867Y-69671769D01*
X14894552Y-69605448D01*
X14894548Y-69605445D01*
X14828233Y-69561134D01*
X14828231Y-69561133D01*
X14828228Y-69561132D01*
X14828227Y-69561132D01*
X14769758Y-69549501D01*
X14769748Y-69549500D01*
X14769747Y-69549500D01*
X14599500Y-69549500D01*
X14541309Y-69530593D01*
X14505345Y-69481093D01*
X14500500Y-69450500D01*
X14500500Y-69260437D01*
X14500499Y-69260435D01*
X14480021Y-69184011D01*
X14480019Y-69184007D01*
X14440460Y-69115489D01*
X14384511Y-69059539D01*
X14384511Y-69059540D01*
X11629496Y-66304525D01*
X11601719Y-66250008D01*
X11600500Y-66234521D01*
X11600500Y-65448321D01*
X11619407Y-65390130D01*
X11629490Y-65378323D01*
X11700500Y-65307314D01*
X11700503Y-65307309D01*
X11766390Y-65193190D01*
X11766390Y-65193188D01*
X11766392Y-65193186D01*
X11800500Y-65065892D01*
X11800500Y-64934108D01*
X11766392Y-64806814D01*
X11766390Y-64806811D01*
X11766390Y-64806809D01*
X11700503Y-64692690D01*
X11700501Y-64692688D01*
X11700500Y-64692686D01*
X11607314Y-64599500D01*
X11607311Y-64599498D01*
X11607309Y-64599496D01*
X11493189Y-64533609D01*
X11493191Y-64533609D01*
X11443799Y-64520375D01*
X11365892Y-64499500D01*
X11234108Y-64499500D01*
X11156200Y-64520375D01*
X11106809Y-64533609D01*
X10992690Y-64599496D01*
X10899496Y-64692690D01*
X10833609Y-64806809D01*
X10832450Y-64811134D01*
X10799500Y-64934108D01*
X9990862Y-64934108D01*
X10895475Y-64029496D01*
X10949992Y-64001719D01*
X10965479Y-64000500D01*
X11634521Y-64000500D01*
X11692712Y-64019407D01*
X11704525Y-64029496D01*
X12445405Y-64770376D01*
X12473182Y-64824893D01*
X12463611Y-64885325D01*
X12445405Y-64910383D01*
X12361706Y-64994082D01*
X12361698Y-64994092D01*
X12257681Y-65149761D01*
X12257677Y-65149770D01*
X12186026Y-65322750D01*
X12149500Y-65506381D01*
X12149500Y-65693618D01*
X12186026Y-65877249D01*
X12257677Y-66050229D01*
X12257681Y-66050238D01*
X12330368Y-66159020D01*
X12361698Y-66205908D01*
X12494092Y-66338302D01*
X12539896Y-66368907D01*
X12649761Y-66442318D01*
X12649767Y-66442320D01*
X12649769Y-66442322D01*
X12822749Y-66513973D01*
X13006384Y-66550500D01*
X13006385Y-66550500D01*
X13193615Y-66550500D01*
X13193616Y-66550500D01*
X13377251Y-66513973D01*
X13550231Y-66442322D01*
X13550234Y-66442319D01*
X13550238Y-66442318D01*
X13595187Y-66412282D01*
X13705908Y-66338302D01*
X13764714Y-66279496D01*
X13819231Y-66251719D01*
X13834718Y-66250500D01*
X14084318Y-66250500D01*
X14139320Y-66267185D01*
X14171766Y-66288865D01*
X14171769Y-66288867D01*
X14216231Y-66297711D01*
X14230241Y-66300498D01*
X14230246Y-66300498D01*
X14230252Y-66300500D01*
X15251500Y-66300500D01*
X15309691Y-66319407D01*
X15345655Y-66368907D01*
X15350500Y-66399500D01*
X15350500Y-75015562D01*
X15370654Y-75090775D01*
X15370980Y-75091991D01*
X15371334Y-75092604D01*
X15371332Y-75092604D01*
X15371352Y-75092634D01*
X15410540Y-75160511D01*
X17430048Y-77180019D01*
X19374736Y-79124707D01*
X19402513Y-79179224D01*
X19396196Y-79232596D01*
X19339870Y-79368578D01*
X19339870Y-79368580D01*
X19299500Y-79571532D01*
X19299500Y-79778467D01*
X19339869Y-79981418D01*
X19419058Y-80172597D01*
X19518064Y-80320771D01*
X19534023Y-80344655D01*
X19680345Y-80490977D01*
X19852402Y-80605941D01*
X20043580Y-80685130D01*
X20246535Y-80725500D01*
X20246536Y-80725500D01*
X20453464Y-80725500D01*
X20453465Y-80725500D01*
X20656420Y-80685130D01*
X20847598Y-80605941D01*
X21019655Y-80490977D01*
X21165977Y-80344655D01*
X21268184Y-80191689D01*
X21316234Y-80153810D01*
X21377372Y-80151408D01*
X21428246Y-80185400D01*
X21449424Y-80242804D01*
X21449500Y-80246691D01*
X21449500Y-81643308D01*
X21430593Y-81701499D01*
X21381093Y-81737463D01*
X21319907Y-81737463D01*
X21270407Y-81701499D01*
X21268184Y-81698309D01*
X21165979Y-81545348D01*
X21165977Y-81545345D01*
X21019655Y-81399023D01*
X21019651Y-81399020D01*
X20847597Y-81284058D01*
X20656418Y-81204869D01*
X20453467Y-81164500D01*
X20453465Y-81164500D01*
X20246535Y-81164500D01*
X20246532Y-81164500D01*
X20043581Y-81204869D01*
X19852402Y-81284058D01*
X19680348Y-81399020D01*
X19534020Y-81545348D01*
X19419058Y-81717402D01*
X19339869Y-81908581D01*
X19299500Y-82111532D01*
X19299500Y-82318467D01*
X19339869Y-82521418D01*
X19419058Y-82712597D01*
X19534020Y-82884651D01*
X19534023Y-82884655D01*
X19680345Y-83030977D01*
X19852402Y-83145941D01*
X20043580Y-83225130D01*
X20246535Y-83265500D01*
X20246536Y-83265500D01*
X20453464Y-83265500D01*
X20453465Y-83265500D01*
X20656420Y-83225130D01*
X20847598Y-83145941D01*
X21019655Y-83030977D01*
X21165977Y-82884655D01*
X21268184Y-82731689D01*
X21316234Y-82693810D01*
X21377372Y-82691408D01*
X21428246Y-82725400D01*
X21449424Y-82782804D01*
X21449500Y-82786691D01*
X21449500Y-84183308D01*
X21430593Y-84241499D01*
X21381093Y-84277463D01*
X21319907Y-84277463D01*
X21270407Y-84241499D01*
X21268184Y-84238309D01*
X21165979Y-84085348D01*
X21165977Y-84085345D01*
X21019655Y-83939023D01*
X20847598Y-83824059D01*
X20847599Y-83824059D01*
X20847597Y-83824058D01*
X20656418Y-83744869D01*
X20453467Y-83704500D01*
X20453465Y-83704500D01*
X20246535Y-83704500D01*
X20246532Y-83704500D01*
X20043581Y-83744869D01*
X19852402Y-83824058D01*
X19680348Y-83939020D01*
X19534020Y-84085348D01*
X19419058Y-84257402D01*
X19339869Y-84448581D01*
X19299500Y-84651532D01*
X19299500Y-84858467D01*
X19339869Y-85061418D01*
X19396196Y-85197402D01*
X19400997Y-85258399D01*
X19374736Y-85305292D01*
X18615489Y-86064540D01*
X18615488Y-86064539D01*
X18559539Y-86120489D01*
X18519980Y-86189007D01*
X18519978Y-86189011D01*
X18499500Y-86265435D01*
X18499500Y-87033075D01*
X18480593Y-87091266D01*
X18431093Y-87127230D01*
X18374878Y-87128702D01*
X18307561Y-87110665D01*
X18265892Y-87099500D01*
X18134108Y-87099500D01*
X18056200Y-87120375D01*
X18006809Y-87133609D01*
X18006809Y-87133610D01*
X18001698Y-87136561D01*
X17941850Y-87149281D01*
X17885955Y-87124394D01*
X17882196Y-87120828D01*
X13929496Y-83168128D01*
X13901719Y-83113611D01*
X13900500Y-83098124D01*
X13900500Y-82770491D01*
X13919407Y-82712300D01*
X13961612Y-82679028D01*
X14050231Y-82642322D01*
X14205908Y-82538302D01*
X14338302Y-82405908D01*
X14379334Y-82344499D01*
X14427384Y-82306619D01*
X14461650Y-82300500D01*
X14565890Y-82300500D01*
X14565892Y-82300500D01*
X14693186Y-82266392D01*
X14693188Y-82266390D01*
X14693190Y-82266390D01*
X14807309Y-82200503D01*
X14807309Y-82200502D01*
X14807314Y-82200500D01*
X14900500Y-82107314D01*
X14964068Y-81997211D01*
X14966390Y-81993190D01*
X14966390Y-81993188D01*
X14966392Y-81993186D01*
X15000500Y-81865892D01*
X15000500Y-81734108D01*
X14966392Y-81606814D01*
X14966390Y-81606811D01*
X14966390Y-81606809D01*
X14900503Y-81492690D01*
X14900501Y-81492688D01*
X14900500Y-81492686D01*
X14807314Y-81399500D01*
X14807311Y-81399498D01*
X14807309Y-81399496D01*
X14693189Y-81333609D01*
X14693191Y-81333609D01*
X14643799Y-81320375D01*
X14565892Y-81299500D01*
X14461650Y-81299500D01*
X14403459Y-81280593D01*
X14379335Y-81255502D01*
X14365040Y-81234108D01*
X14338302Y-81194092D01*
X14205908Y-81061698D01*
X14147617Y-81022749D01*
X14050238Y-80957681D01*
X14050229Y-80957677D01*
X13877249Y-80886026D01*
X13693618Y-80849500D01*
X13693616Y-80849500D01*
X13506384Y-80849500D01*
X13506381Y-80849500D01*
X13322750Y-80886026D01*
X13149770Y-80957677D01*
X13149761Y-80957681D01*
X12994092Y-81061698D01*
X12994088Y-81061701D01*
X12861701Y-81194088D01*
X12861698Y-81194092D01*
X12757681Y-81349761D01*
X12757677Y-81349770D01*
X12686026Y-81522750D01*
X12649500Y-81706381D01*
X12649500Y-81893618D01*
X12686026Y-82077249D01*
X12757677Y-82250229D01*
X12757681Y-82250238D01*
X12820666Y-82344499D01*
X12861698Y-82405908D01*
X12994092Y-82538302D01*
X13110584Y-82616139D01*
X13149767Y-82642321D01*
X13149768Y-82642321D01*
X13149769Y-82642322D01*
X13238386Y-82679028D01*
X13284911Y-82718763D01*
X13299500Y-82770491D01*
X13299500Y-82935521D01*
X13280593Y-82993712D01*
X13231093Y-83029676D01*
X13169907Y-83029676D01*
X13130496Y-83005525D01*
X12049144Y-81924173D01*
X12021367Y-81869656D01*
X12030938Y-81809224D01*
X12069649Y-81768432D01*
X12073180Y-81766392D01*
X12073184Y-81766392D01*
X12187312Y-81700500D01*
X12280498Y-81607314D01*
X12346390Y-81493186D01*
X12380498Y-81365892D01*
X12380498Y-81234108D01*
X12346390Y-81106814D01*
X12346388Y-81106811D01*
X12346388Y-81106809D01*
X12280501Y-80992690D01*
X12280499Y-80992688D01*
X12280498Y-80992686D01*
X12187312Y-80899500D01*
X12187309Y-80899498D01*
X12187307Y-80899496D01*
X12073187Y-80833609D01*
X12073189Y-80833609D01*
X12023797Y-80820375D01*
X11945890Y-80799500D01*
X11861650Y-80799500D01*
X11803459Y-80780593D01*
X11779335Y-80755501D01*
X11738304Y-80694094D01*
X11605911Y-80561701D01*
X11605908Y-80561698D01*
X11538100Y-80516390D01*
X11450238Y-80457681D01*
X11450229Y-80457677D01*
X11277249Y-80386026D01*
X11093618Y-80349500D01*
X11093616Y-80349500D01*
X10906384Y-80349500D01*
X10906381Y-80349500D01*
X10722750Y-80386026D01*
X10549770Y-80457677D01*
X10549761Y-80457681D01*
X10394092Y-80561698D01*
X10394088Y-80561701D01*
X10261701Y-80694088D01*
X10261698Y-80694092D01*
X10157681Y-80849761D01*
X10157677Y-80849770D01*
X10086026Y-81022750D01*
X10049500Y-81206381D01*
X10049500Y-81393618D01*
X10086026Y-81577249D01*
X10157677Y-81750229D01*
X10157681Y-81750238D01*
X10231314Y-81860435D01*
X10261698Y-81905908D01*
X10394092Y-82038302D01*
X10460463Y-82082649D01*
X10549761Y-82142318D01*
X10549767Y-82142320D01*
X10549769Y-82142322D01*
X10722749Y-82213973D01*
X10906384Y-82250500D01*
X10906385Y-82250500D01*
X11093615Y-82250500D01*
X11093616Y-82250500D01*
X11277251Y-82213973D01*
X11277256Y-82213970D01*
X11277259Y-82213970D01*
X11314060Y-82198726D01*
X11365866Y-82177266D01*
X11426860Y-82172465D01*
X11473755Y-82198726D01*
X17670504Y-88395475D01*
X17698281Y-88449992D01*
X17699500Y-88465479D01*
X17699500Y-88565892D01*
X17728390Y-88673712D01*
X17733609Y-88693190D01*
X17799496Y-88807309D01*
X17799498Y-88807311D01*
X17799500Y-88807314D01*
X17892686Y-88900500D01*
X17892688Y-88900501D01*
X17892690Y-88900503D01*
X18006810Y-88966390D01*
X18006808Y-88966390D01*
X18006812Y-88966391D01*
X18006814Y-88966392D01*
X18134108Y-89000500D01*
X18134110Y-89000500D01*
X18265890Y-89000500D01*
X18265892Y-89000500D01*
X18374879Y-88971297D01*
X18435978Y-88974500D01*
X18483528Y-89013005D01*
X18499500Y-89066924D01*
X18499500Y-91855636D01*
X18480593Y-91913827D01*
X18431093Y-91949791D01*
X18369907Y-91949791D01*
X18320407Y-91913827D01*
X18307056Y-91888334D01*
X18302737Y-91875992D01*
X18298868Y-91864935D01*
X18167265Y-91591659D01*
X18005892Y-91334836D01*
X17816779Y-91097696D01*
X17602304Y-90883221D01*
X17365164Y-90694108D01*
X17108341Y-90532735D01*
X17108333Y-90532731D01*
X17108326Y-90532727D01*
X16835065Y-90401132D01*
X16835063Y-90401131D01*
X16548775Y-90300954D01*
X16253061Y-90233459D01*
X15951658Y-90199500D01*
X15951657Y-90199500D01*
X15648343Y-90199500D01*
X15648341Y-90199500D01*
X15346938Y-90233459D01*
X15051224Y-90300954D01*
X14764936Y-90401131D01*
X14764934Y-90401132D01*
X14491673Y-90532727D01*
X14491653Y-90532738D01*
X14356953Y-90617375D01*
X14297623Y-90632325D01*
X14240836Y-90609545D01*
X14208284Y-90557738D01*
X14210838Y-90500854D01*
X14285133Y-90288533D01*
X14299046Y-90248773D01*
X14299047Y-90248770D01*
X14335730Y-90088049D01*
X14366540Y-89953063D01*
X14400500Y-89651657D01*
X14400500Y-89348343D01*
X14366540Y-89046937D01*
X14299046Y-88751228D01*
X14278736Y-88693186D01*
X14198868Y-88464936D01*
X14198868Y-88464935D01*
X14090618Y-88240152D01*
X14067272Y-88191673D01*
X14067268Y-88191666D01*
X14067265Y-88191659D01*
X13905892Y-87934836D01*
X13716779Y-87697696D01*
X13502304Y-87483221D01*
X13265164Y-87294108D01*
X13008341Y-87132735D01*
X13008333Y-87132731D01*
X13008326Y-87132727D01*
X12735065Y-87001132D01*
X12735063Y-87001131D01*
X12448775Y-86900954D01*
X12153061Y-86833459D01*
X11851658Y-86799500D01*
X11851657Y-86799500D01*
X11548343Y-86799500D01*
X11548341Y-86799500D01*
X11246938Y-86833459D01*
X10951224Y-86900954D01*
X10664936Y-87001131D01*
X10664934Y-87001132D01*
X10391673Y-87132727D01*
X10391660Y-87132734D01*
X10391659Y-87132735D01*
X10325122Y-87174543D01*
X10134835Y-87294108D01*
X9897697Y-87483220D01*
X9683220Y-87697697D01*
X9494108Y-87934835D01*
X9332734Y-88191661D01*
X9332727Y-88191673D01*
X9201132Y-88464934D01*
X9201131Y-88464936D01*
X9100954Y-88751224D01*
X9033459Y-89046938D01*
X8999500Y-89348341D01*
X8999500Y-89651658D01*
X9033459Y-89953061D01*
X9100953Y-90248770D01*
X9100954Y-90248773D01*
X9201131Y-90535063D01*
X9201132Y-90535065D01*
X9332727Y-90808326D01*
X9332731Y-90808333D01*
X9332735Y-90808341D01*
X9494108Y-91065164D01*
X9683221Y-91302304D01*
X9897696Y-91516779D01*
X10134836Y-91705892D01*
X10391659Y-91867265D01*
X10391670Y-91867270D01*
X10391673Y-91867272D01*
X10482462Y-91910993D01*
X10664935Y-91998868D01*
X10725267Y-92019979D01*
X10951224Y-92099045D01*
X10951227Y-92099045D01*
X10951228Y-92099046D01*
X11246937Y-92166540D01*
X11548343Y-92200500D01*
X11548344Y-92200500D01*
X11851656Y-92200500D01*
X11851657Y-92200500D01*
X12153063Y-92166540D01*
X12448772Y-92099046D01*
X12735065Y-91998868D01*
X13008341Y-91867265D01*
X13143046Y-91782623D01*
X13202376Y-91767674D01*
X13259163Y-91790453D01*
X13291715Y-91842260D01*
X13289160Y-91899148D01*
X13200954Y-92151224D01*
X13133459Y-92446938D01*
X13099500Y-92748341D01*
X13099500Y-93051658D01*
X13133459Y-93353061D01*
X13200954Y-93648775D01*
X13301131Y-93935063D01*
X13301132Y-93935065D01*
X13432727Y-94208326D01*
X13432731Y-94208333D01*
X13432735Y-94208341D01*
X13594108Y-94465164D01*
X13783221Y-94702304D01*
X13811415Y-94730498D01*
X13839191Y-94785013D01*
X13829620Y-94845445D01*
X13786355Y-94888710D01*
X13741410Y-94899500D01*
X13634108Y-94899500D01*
X13556200Y-94920375D01*
X13506809Y-94933609D01*
X13392690Y-94999496D01*
X13299496Y-95092690D01*
X13233609Y-95206809D01*
X13229624Y-95221683D01*
X13199500Y-95334108D01*
X13199500Y-95465892D01*
X13220576Y-95544548D01*
X13233609Y-95593190D01*
X13299496Y-95707309D01*
X13299498Y-95707311D01*
X13299500Y-95707314D01*
X13370505Y-95778319D01*
X13374130Y-95785434D01*
X13380593Y-95790130D01*
X13387756Y-95812178D01*
X13398281Y-95832834D01*
X13399500Y-95848321D01*
X13399500Y-95934520D01*
X13380593Y-95992711D01*
X13370504Y-96004524D01*
X12673755Y-96701272D01*
X12619238Y-96729049D01*
X12565866Y-96722732D01*
X12477251Y-96686027D01*
X12293618Y-96649500D01*
X12293616Y-96649500D01*
X12106384Y-96649500D01*
X12106381Y-96649500D01*
X11922750Y-96686026D01*
X11749770Y-96757677D01*
X11749761Y-96757681D01*
X11594092Y-96861698D01*
X11594088Y-96861701D01*
X11461701Y-96994088D01*
X11461698Y-96994092D01*
X11357681Y-97149761D01*
X11357677Y-97149770D01*
X11286026Y-97322750D01*
X11249500Y-97506381D01*
X11249500Y-97693618D01*
X11286026Y-97877249D01*
X11357677Y-98050229D01*
X11357681Y-98050238D01*
X11415862Y-98137310D01*
X11461698Y-98205908D01*
X11594092Y-98338302D01*
X11644842Y-98372212D01*
X11749761Y-98442318D01*
X11749767Y-98442320D01*
X11749769Y-98442322D01*
X11922749Y-98513973D01*
X12106384Y-98550500D01*
X12106385Y-98550500D01*
X12293615Y-98550500D01*
X12293616Y-98550500D01*
X12477251Y-98513973D01*
X12650231Y-98442322D01*
X12650234Y-98442319D01*
X12650238Y-98442318D01*
X12695187Y-98412282D01*
X12805908Y-98338302D01*
X12938302Y-98205908D01*
X13020725Y-98082553D01*
X13042318Y-98050238D01*
X13042319Y-98050234D01*
X13042322Y-98050231D01*
X13113973Y-97877251D01*
X13150500Y-97693616D01*
X13150500Y-97506384D01*
X13113973Y-97322749D01*
X13077265Y-97234130D01*
X13072465Y-97173136D01*
X13098724Y-97126245D01*
X13940460Y-96284511D01*
X13963438Y-96244712D01*
X13980021Y-96215989D01*
X14000500Y-96139562D01*
X14000500Y-95848321D01*
X14019407Y-95790130D01*
X14029490Y-95778323D01*
X14100500Y-95707314D01*
X14124416Y-95665890D01*
X14166390Y-95593190D01*
X14166390Y-95593188D01*
X14166392Y-95593186D01*
X14200500Y-95465892D01*
X14200500Y-95334108D01*
X14185305Y-95277399D01*
X14188506Y-95216299D01*
X14227011Y-95168749D01*
X14286111Y-95152913D01*
X14333602Y-95167951D01*
X14491659Y-95267265D01*
X14491670Y-95267270D01*
X14491673Y-95267272D01*
X14526636Y-95284109D01*
X14764935Y-95398868D01*
X14833186Y-95422750D01*
X15051224Y-95499045D01*
X15051227Y-95499045D01*
X15051228Y-95499046D01*
X15346937Y-95566540D01*
X15648343Y-95600500D01*
X15648344Y-95600500D01*
X15951656Y-95600500D01*
X15951657Y-95600500D01*
X16253063Y-95566540D01*
X16548772Y-95499046D01*
X16835065Y-95398868D01*
X17108341Y-95267265D01*
X17365164Y-95105892D01*
X17602304Y-94916779D01*
X17816779Y-94702304D01*
X18005892Y-94465164D01*
X18167265Y-94208341D01*
X18298868Y-93935065D01*
X18307056Y-93911664D01*
X18344121Y-93862985D01*
X18402721Y-93845388D01*
X18460473Y-93865596D01*
X18495317Y-93915890D01*
X18499500Y-93944363D01*
X18499500Y-95151679D01*
X18480593Y-95209870D01*
X18470509Y-95221676D01*
X18424921Y-95267265D01*
X18399497Y-95292689D01*
X18399496Y-95292690D01*
X18333609Y-95406809D01*
X18324100Y-95442297D01*
X18299500Y-95534108D01*
X18299500Y-95665892D01*
X18322171Y-95750502D01*
X18333609Y-95793190D01*
X18399496Y-95907309D01*
X18399498Y-95907311D01*
X18399500Y-95907314D01*
X18492686Y-96000500D01*
X18492688Y-96000501D01*
X18492690Y-96000503D01*
X18606810Y-96066390D01*
X18606808Y-96066390D01*
X18606812Y-96066391D01*
X18606814Y-96066392D01*
X18734108Y-96100500D01*
X18734110Y-96100500D01*
X18865890Y-96100500D01*
X18865892Y-96100500D01*
X18993186Y-96066392D01*
X18993188Y-96066390D01*
X18993190Y-96066390D01*
X19107309Y-96000503D01*
X19107309Y-96000502D01*
X19107314Y-96000500D01*
X19200500Y-95907314D01*
X19259898Y-95804434D01*
X19266390Y-95793190D01*
X19266390Y-95793188D01*
X19266392Y-95793186D01*
X19300500Y-95665892D01*
X19300500Y-95534108D01*
X19266392Y-95406814D01*
X19266390Y-95406811D01*
X19266390Y-95406809D01*
X19200503Y-95292690D01*
X19200501Y-95292688D01*
X19200500Y-95292686D01*
X19129494Y-95221680D01*
X19101719Y-95167166D01*
X19100500Y-95151679D01*
X19100500Y-91505253D01*
X19299500Y-91505253D01*
X19299500Y-93244746D01*
X19299501Y-93244758D01*
X19311132Y-93303227D01*
X19311134Y-93303233D01*
X19355445Y-93369548D01*
X19355448Y-93369552D01*
X19421769Y-93413867D01*
X19466231Y-93422711D01*
X19480241Y-93425498D01*
X19480246Y-93425498D01*
X19480252Y-93425500D01*
X19480253Y-93425500D01*
X21219747Y-93425500D01*
X21219748Y-93425500D01*
X21278231Y-93413867D01*
X21344552Y-93369552D01*
X21388867Y-93303231D01*
X21400500Y-93244748D01*
X21400500Y-91505252D01*
X21388867Y-91446769D01*
X21344552Y-91380448D01*
X21344548Y-91380445D01*
X21278233Y-91336134D01*
X21278231Y-91336133D01*
X21278228Y-91336132D01*
X21278227Y-91336132D01*
X21219758Y-91324501D01*
X21219748Y-91324500D01*
X19480252Y-91324500D01*
X19480251Y-91324500D01*
X19480241Y-91324501D01*
X19421772Y-91336132D01*
X19421766Y-91336134D01*
X19355451Y-91380445D01*
X19355445Y-91380451D01*
X19311134Y-91446766D01*
X19311132Y-91446772D01*
X19299501Y-91505241D01*
X19299500Y-91505253D01*
X19100500Y-91505253D01*
X19100500Y-89684999D01*
X19309266Y-89684999D01*
X19309267Y-89685000D01*
X19872555Y-89685000D01*
X19850000Y-89769174D01*
X19850000Y-89900826D01*
X19872555Y-89985000D01*
X19309266Y-89985000D01*
X19340349Y-90141271D01*
X19419501Y-90332360D01*
X19419508Y-90332374D01*
X19534405Y-90504329D01*
X19680670Y-90650594D01*
X19852625Y-90765491D01*
X19852639Y-90765498D01*
X20043728Y-90844650D01*
X20043727Y-90844650D01*
X20199999Y-90875733D01*
X20200000Y-90875733D01*
X20200000Y-90312445D01*
X20284174Y-90335000D01*
X20415826Y-90335000D01*
X20500000Y-90312445D01*
X20500000Y-90875733D01*
X20656271Y-90844650D01*
X20847360Y-90765498D01*
X20847374Y-90765491D01*
X21019329Y-90650594D01*
X21165594Y-90504329D01*
X21280491Y-90332374D01*
X21280498Y-90332360D01*
X21359650Y-90141271D01*
X21390734Y-89985000D01*
X20827445Y-89985000D01*
X20850000Y-89900826D01*
X20850000Y-89769174D01*
X20827445Y-89685000D01*
X21390733Y-89685000D01*
X21390733Y-89684999D01*
X21359650Y-89528728D01*
X21280498Y-89337639D01*
X21280491Y-89337625D01*
X21165594Y-89165670D01*
X21019329Y-89019405D01*
X20847374Y-88904508D01*
X20847360Y-88904501D01*
X20656277Y-88825351D01*
X20656271Y-88825349D01*
X20500000Y-88794264D01*
X20500000Y-89357554D01*
X20415826Y-89335000D01*
X20284174Y-89335000D01*
X20200000Y-89357554D01*
X20200000Y-88794264D01*
X20043728Y-88825349D01*
X20043722Y-88825351D01*
X19852639Y-88904501D01*
X19852625Y-88904508D01*
X19680670Y-89019405D01*
X19534405Y-89165670D01*
X19419508Y-89337625D01*
X19419501Y-89337639D01*
X19340349Y-89528728D01*
X19309266Y-89684999D01*
X19100500Y-89684999D01*
X19100500Y-86470478D01*
X19119407Y-86412287D01*
X19129490Y-86400480D01*
X19799708Y-85730261D01*
X19854223Y-85702486D01*
X19907595Y-85708802D01*
X20043580Y-85765130D01*
X20246535Y-85805500D01*
X20246536Y-85805500D01*
X20453464Y-85805500D01*
X20453465Y-85805500D01*
X20656420Y-85765130D01*
X20847598Y-85685941D01*
X21019655Y-85570977D01*
X21165977Y-85424655D01*
X21268184Y-85271689D01*
X21316234Y-85233810D01*
X21377372Y-85231408D01*
X21428246Y-85265400D01*
X21449424Y-85322804D01*
X21449500Y-85326691D01*
X21449500Y-86723308D01*
X21430593Y-86781499D01*
X21381093Y-86817463D01*
X21319907Y-86817463D01*
X21270407Y-86781499D01*
X21268184Y-86778309D01*
X21165979Y-86625348D01*
X21165977Y-86625345D01*
X21019655Y-86479023D01*
X21019651Y-86479020D01*
X20847597Y-86364058D01*
X20656418Y-86284869D01*
X20453467Y-86244500D01*
X20453465Y-86244500D01*
X20246535Y-86244500D01*
X20246532Y-86244500D01*
X20043581Y-86284869D01*
X19852402Y-86364058D01*
X19680348Y-86479020D01*
X19534020Y-86625348D01*
X19419058Y-86797402D01*
X19339869Y-86988581D01*
X19299500Y-87191532D01*
X19299500Y-87398467D01*
X19339869Y-87601418D01*
X19419058Y-87792597D01*
X19534020Y-87964651D01*
X19534023Y-87964655D01*
X19680345Y-88110977D01*
X19852402Y-88225941D01*
X20043580Y-88305130D01*
X20246535Y-88345500D01*
X20246536Y-88345500D01*
X20453464Y-88345500D01*
X20453465Y-88345500D01*
X20647565Y-88306891D01*
X20708325Y-88314083D01*
X20736882Y-88333985D01*
X21863386Y-89460489D01*
X21893041Y-89477610D01*
X21966114Y-89519799D01*
X22080691Y-89550500D01*
X25172389Y-89550500D01*
X25230580Y-89569407D01*
X25242393Y-89579496D01*
X26970504Y-91307607D01*
X26998281Y-91362124D01*
X26999500Y-91377611D01*
X26999500Y-91379057D01*
X27040423Y-91531784D01*
X27119480Y-91668716D01*
X27231284Y-91780520D01*
X27368216Y-91859577D01*
X27520943Y-91900500D01*
X27520945Y-91900500D01*
X27679055Y-91900500D01*
X27679057Y-91900500D01*
X27831784Y-91859577D01*
X27851713Y-91848070D01*
X27869511Y-91844287D01*
X27885726Y-91836025D01*
X27898705Y-91838080D01*
X27911560Y-91835348D01*
X27928185Y-91842749D01*
X27946158Y-91845596D01*
X27955450Y-91854888D01*
X27967456Y-91860233D01*
X27976555Y-91875992D01*
X27989423Y-91888860D01*
X27991478Y-91901840D01*
X27998050Y-91913221D01*
X27996148Y-91931319D01*
X27998995Y-91949292D01*
X27993029Y-91961000D01*
X27991656Y-91974071D01*
X27971218Y-92003809D01*
X27915489Y-92059539D01*
X27859539Y-92115489D01*
X27819980Y-92184007D01*
X27819978Y-92184011D01*
X27799500Y-92260435D01*
X27799500Y-93834521D01*
X27780593Y-93892712D01*
X27770504Y-93904525D01*
X26104525Y-95570504D01*
X26050008Y-95598281D01*
X26034521Y-95599500D01*
X24293719Y-95599500D01*
X24235528Y-95580593D01*
X24199564Y-95531093D01*
X24198092Y-95474877D01*
X24200500Y-95465892D01*
X24200500Y-95334108D01*
X24166392Y-95206814D01*
X24166390Y-95206811D01*
X24166390Y-95206809D01*
X24100503Y-95092690D01*
X24100501Y-95092688D01*
X24100500Y-95092686D01*
X24007314Y-94999500D01*
X24007311Y-94999498D01*
X24007309Y-94999496D01*
X23893189Y-94933609D01*
X23893191Y-94933609D01*
X23843799Y-94920375D01*
X23765892Y-94899500D01*
X23634108Y-94899500D01*
X23556200Y-94920375D01*
X23506809Y-94933609D01*
X23392690Y-94999496D01*
X23299496Y-95092690D01*
X23233609Y-95206809D01*
X23199500Y-95334109D01*
X23199500Y-95434520D01*
X23180593Y-95492711D01*
X23170504Y-95504524D01*
X22054525Y-96620504D01*
X22000008Y-96648281D01*
X21984521Y-96649500D01*
X15089562Y-96649500D01*
X15010438Y-96649500D01*
X14963661Y-96662033D01*
X14934007Y-96669979D01*
X14865493Y-96709536D01*
X14865488Y-96709540D01*
X14304523Y-97270504D01*
X14250007Y-97298281D01*
X14234520Y-97299500D01*
X14134108Y-97299500D01*
X14056200Y-97320375D01*
X14006809Y-97333609D01*
X13892690Y-97399496D01*
X13799496Y-97492690D01*
X13733609Y-97606809D01*
X13719481Y-97659538D01*
X13699500Y-97734108D01*
X13699500Y-97865892D01*
X13715276Y-97924768D01*
X13733609Y-97993190D01*
X13799496Y-98107309D01*
X13799498Y-98107311D01*
X13799500Y-98107314D01*
X13892686Y-98200500D01*
X13892688Y-98200501D01*
X13892690Y-98200503D01*
X14006810Y-98266390D01*
X14006808Y-98266390D01*
X14006812Y-98266391D01*
X14006814Y-98266392D01*
X14134108Y-98300500D01*
X14134110Y-98300500D01*
X14265890Y-98300500D01*
X14265892Y-98300500D01*
X14393186Y-98266392D01*
X14393188Y-98266390D01*
X14393190Y-98266390D01*
X14507309Y-98200503D01*
X14507309Y-98200502D01*
X14507314Y-98200500D01*
X14600500Y-98107314D01*
X14603066Y-98102870D01*
X14666390Y-97993190D01*
X14666390Y-97993188D01*
X14666392Y-97993186D01*
X14700500Y-97865892D01*
X14700500Y-97765477D01*
X14719407Y-97707286D01*
X14729497Y-97695473D01*
X15145475Y-97279496D01*
X15199991Y-97251719D01*
X15215478Y-97250500D01*
X22051207Y-97250500D01*
X22109398Y-97269407D01*
X22145362Y-97318907D01*
X22145362Y-97380093D01*
X22121211Y-97419504D01*
X21970211Y-97570504D01*
X21915694Y-97598281D01*
X21900207Y-97599500D01*
X16260435Y-97599500D01*
X16184011Y-97619978D01*
X16148539Y-97640459D01*
X16148538Y-97640459D01*
X16115491Y-97659538D01*
X13604525Y-100170504D01*
X13550008Y-100198281D01*
X13534521Y-100199500D01*
X12770493Y-100199500D01*
X12712302Y-100180593D01*
X12679029Y-100138386D01*
X12642322Y-100049770D01*
X12642318Y-100049761D01*
X12567839Y-99938298D01*
X12538302Y-99894092D01*
X12405908Y-99761698D01*
X12353398Y-99726612D01*
X12250238Y-99657681D01*
X12250229Y-99657677D01*
X12077249Y-99586026D01*
X11893618Y-99549500D01*
X11893616Y-99549500D01*
X11706384Y-99549500D01*
X11706381Y-99549500D01*
X11522750Y-99586026D01*
X11349770Y-99657677D01*
X11349761Y-99657681D01*
X11194092Y-99761698D01*
X11194088Y-99761701D01*
X11061701Y-99894088D01*
X11061698Y-99894092D01*
X10957681Y-100049761D01*
X10957677Y-100049770D01*
X10886026Y-100222750D01*
X10849500Y-100406381D01*
X10849500Y-100500500D01*
X10830593Y-100558691D01*
X10781093Y-100594655D01*
X10750500Y-100599500D01*
X10224500Y-100599500D01*
X10166309Y-100580593D01*
X10130345Y-100531093D01*
X10125500Y-100500500D01*
X10125500Y-100380253D01*
X10125498Y-100380241D01*
X10122711Y-100366231D01*
X10113867Y-100321769D01*
X10069552Y-100255448D01*
X10020617Y-100222750D01*
X10003233Y-100211134D01*
X10003231Y-100211133D01*
X10003228Y-100211132D01*
X10003227Y-100211132D01*
X9944758Y-100199501D01*
X9944748Y-100199500D01*
X9155252Y-100199500D01*
X9155251Y-100199500D01*
X9155241Y-100199501D01*
X9096772Y-100211132D01*
X9096766Y-100211134D01*
X9030451Y-100255445D01*
X9030445Y-100255451D01*
X8986134Y-100321766D01*
X8986132Y-100321772D01*
X8974501Y-100380241D01*
X8974500Y-100380253D01*
X8974500Y-101419746D01*
X8974501Y-101419758D01*
X8986132Y-101478227D01*
X8986134Y-101478233D01*
X9024762Y-101536043D01*
X9030448Y-101544552D01*
X9096769Y-101588867D01*
X9141231Y-101597711D01*
X9155241Y-101600498D01*
X9155246Y-101600498D01*
X9155252Y-101600500D01*
X9155253Y-101600500D01*
X9944747Y-101600500D01*
X9944748Y-101600500D01*
X10003231Y-101588867D01*
X10069552Y-101544552D01*
X10113867Y-101478231D01*
X10125500Y-101419748D01*
X10125500Y-101299500D01*
X10144407Y-101241309D01*
X10193907Y-101205345D01*
X10224500Y-101200500D01*
X11115282Y-101200500D01*
X11173473Y-101219407D01*
X11185286Y-101229496D01*
X11194092Y-101238302D01*
X11260463Y-101282649D01*
X11349761Y-101342318D01*
X11349767Y-101342320D01*
X11349769Y-101342322D01*
X11522749Y-101413973D01*
X11706384Y-101450500D01*
X11706385Y-101450500D01*
X11893615Y-101450500D01*
X11893616Y-101450500D01*
X12077251Y-101413973D01*
X12250231Y-101342322D01*
X12250234Y-101342319D01*
X12250238Y-101342318D01*
X12295187Y-101312282D01*
X12405908Y-101238302D01*
X12538302Y-101105908D01*
X12586277Y-101034108D01*
X44899500Y-101034108D01*
X44899500Y-101165892D01*
X44917988Y-101234891D01*
X44933609Y-101293190D01*
X44999496Y-101407309D01*
X44999498Y-101407311D01*
X44999500Y-101407314D01*
X45092686Y-101500500D01*
X45092688Y-101500501D01*
X45092690Y-101500503D01*
X45206810Y-101566390D01*
X45206808Y-101566390D01*
X45206812Y-101566391D01*
X45206814Y-101566392D01*
X45334108Y-101600500D01*
X45334110Y-101600500D01*
X45465890Y-101600500D01*
X45465892Y-101600500D01*
X45593186Y-101566392D01*
X45593188Y-101566390D01*
X45593190Y-101566390D01*
X45707309Y-101500503D01*
X45707309Y-101500502D01*
X45707314Y-101500500D01*
X45778319Y-101429494D01*
X45832834Y-101401719D01*
X45848321Y-101400500D01*
X58439563Y-101400500D01*
X58439563Y-101400499D01*
X58515989Y-101380021D01*
X58584511Y-101340460D01*
X58640460Y-101284511D01*
X59796955Y-100128014D01*
X59851470Y-100100239D01*
X59904843Y-100106556D01*
X59922749Y-100113973D01*
X60106384Y-100150500D01*
X60106385Y-100150500D01*
X60293615Y-100150500D01*
X60293616Y-100150500D01*
X60477251Y-100113973D01*
X60650231Y-100042322D01*
X60650234Y-100042319D01*
X60650238Y-100042318D01*
X60695187Y-100012282D01*
X60805908Y-99938302D01*
X60938302Y-99805908D01*
X61022117Y-99680470D01*
X61034698Y-99661642D01*
X61082748Y-99623763D01*
X61143886Y-99621361D01*
X61194760Y-99655354D01*
X61205223Y-99671699D01*
X61251080Y-99761701D01*
X61258768Y-99776788D01*
X61360586Y-99916928D01*
X61483072Y-100039414D01*
X61623212Y-100141232D01*
X61777555Y-100219873D01*
X61777557Y-100219873D01*
X61777558Y-100219874D01*
X61777561Y-100219876D01*
X61942293Y-100273401D01*
X61942297Y-100273402D01*
X62113386Y-100300500D01*
X62113389Y-100300500D01*
X62286614Y-100300500D01*
X62457702Y-100273402D01*
X62457706Y-100273401D01*
X62622438Y-100219876D01*
X62622440Y-100219874D01*
X62622445Y-100219873D01*
X62776788Y-100141232D01*
X62916928Y-100039414D01*
X63039414Y-99916928D01*
X63141232Y-99776788D01*
X63219873Y-99622445D01*
X63219874Y-99622440D01*
X63219876Y-99622438D01*
X63273401Y-99457706D01*
X63273402Y-99457702D01*
X63300500Y-99286614D01*
X63300500Y-99113385D01*
X63273402Y-98942297D01*
X63273401Y-98942293D01*
X63219876Y-98777561D01*
X63219874Y-98777558D01*
X63219873Y-98777557D01*
X63219873Y-98777555D01*
X63141232Y-98623212D01*
X63039414Y-98483072D01*
X62916928Y-98360586D01*
X62776788Y-98258768D01*
X62776787Y-98258767D01*
X62776785Y-98258766D01*
X62622441Y-98180125D01*
X62622438Y-98180123D01*
X62457706Y-98126598D01*
X62457702Y-98126597D01*
X62286614Y-98099500D01*
X62286611Y-98099500D01*
X62113389Y-98099500D01*
X62113386Y-98099500D01*
X61942297Y-98126597D01*
X61942293Y-98126598D01*
X61777561Y-98180123D01*
X61777558Y-98180125D01*
X61623214Y-98258766D01*
X61483073Y-98360585D01*
X61360585Y-98483073D01*
X61258766Y-98623214D01*
X61205223Y-98728300D01*
X61161958Y-98771565D01*
X61101526Y-98781136D01*
X61047009Y-98753359D01*
X61034698Y-98738357D01*
X60964294Y-98632992D01*
X60938302Y-98594092D01*
X60805908Y-98461698D01*
X60761559Y-98432065D01*
X60650238Y-98357681D01*
X60650229Y-98357677D01*
X60477249Y-98286026D01*
X60293618Y-98249500D01*
X60293616Y-98249500D01*
X60106384Y-98249500D01*
X60106381Y-98249500D01*
X59922750Y-98286026D01*
X59749770Y-98357677D01*
X59749761Y-98357681D01*
X59594092Y-98461698D01*
X59594088Y-98461701D01*
X59461701Y-98594088D01*
X59461698Y-98594092D01*
X59357681Y-98749761D01*
X59357680Y-98749765D01*
X59357678Y-98749767D01*
X59357678Y-98749769D01*
X59346166Y-98777561D01*
X59286026Y-98922750D01*
X59249500Y-99106381D01*
X59249500Y-99106384D01*
X59249500Y-99293616D01*
X59282138Y-99457702D01*
X59286027Y-99477250D01*
X59286027Y-99477252D01*
X59352021Y-99636577D01*
X59356821Y-99697574D01*
X59330561Y-99744466D01*
X58304525Y-100770504D01*
X58250008Y-100798281D01*
X58234521Y-100799500D01*
X45848321Y-100799500D01*
X45790130Y-100780593D01*
X45778323Y-100770509D01*
X45707314Y-100699500D01*
X45707311Y-100699498D01*
X45707309Y-100699496D01*
X45593189Y-100633609D01*
X45593191Y-100633609D01*
X45543799Y-100620375D01*
X45465892Y-100599500D01*
X45334108Y-100599500D01*
X45256200Y-100620375D01*
X45206809Y-100633609D01*
X45092690Y-100699496D01*
X44999496Y-100792690D01*
X44933609Y-100906809D01*
X44914539Y-100977978D01*
X44899500Y-101034108D01*
X12586277Y-101034108D01*
X12642322Y-100950231D01*
X12679980Y-100859316D01*
X12681057Y-100857048D01*
X12700440Y-100836544D01*
X12718766Y-100815088D01*
X12721436Y-100814334D01*
X12723090Y-100812586D01*
X12736627Y-100810050D01*
X12770493Y-100800500D01*
X13739563Y-100800500D01*
X13739563Y-100800499D01*
X13815989Y-100780021D01*
X13884511Y-100740460D01*
X13940460Y-100684511D01*
X14490863Y-100134108D01*
X43799500Y-100134108D01*
X43799500Y-100265892D01*
X43814472Y-100321769D01*
X43833609Y-100393190D01*
X43899496Y-100507309D01*
X43899498Y-100507311D01*
X43899500Y-100507314D01*
X43992686Y-100600500D01*
X43992688Y-100600501D01*
X43992690Y-100600503D01*
X44106810Y-100666390D01*
X44106808Y-100666390D01*
X44106812Y-100666391D01*
X44106814Y-100666392D01*
X44234108Y-100700500D01*
X44234110Y-100700500D01*
X44365890Y-100700500D01*
X44365892Y-100700500D01*
X44493186Y-100666392D01*
X44493188Y-100666390D01*
X44493190Y-100666390D01*
X44607309Y-100600503D01*
X44607309Y-100600502D01*
X44607314Y-100600500D01*
X44700500Y-100507314D01*
X44766392Y-100393186D01*
X44798360Y-100273875D01*
X44831684Y-100222563D01*
X44888806Y-100200636D01*
X44893987Y-100200500D01*
X54342506Y-100200500D01*
X54342506Y-100200499D01*
X54418932Y-100180021D01*
X54487454Y-100140460D01*
X54543403Y-100084511D01*
X55440460Y-99187454D01*
X55442447Y-99184012D01*
X55480021Y-99118932D01*
X55500500Y-99042505D01*
X55500500Y-96670491D01*
X55519407Y-96612300D01*
X55561612Y-96579028D01*
X55650231Y-96542322D01*
X55805908Y-96438302D01*
X55938302Y-96305908D01*
X56022417Y-96180021D01*
X56034698Y-96161642D01*
X56082748Y-96123763D01*
X56143886Y-96121361D01*
X56194760Y-96155354D01*
X56205223Y-96171699D01*
X56242425Y-96244714D01*
X56258768Y-96276788D01*
X56360586Y-96416928D01*
X56483072Y-96539414D01*
X56623212Y-96641232D01*
X56777555Y-96719873D01*
X56777557Y-96719873D01*
X56777558Y-96719874D01*
X56777561Y-96719876D01*
X56942293Y-96773401D01*
X56942297Y-96773402D01*
X57113386Y-96800500D01*
X57113389Y-96800500D01*
X57286614Y-96800500D01*
X57457702Y-96773402D01*
X57457706Y-96773401D01*
X57622438Y-96719876D01*
X57622440Y-96719874D01*
X57622445Y-96719873D01*
X57776788Y-96641232D01*
X57916928Y-96539414D01*
X58039414Y-96416928D01*
X58141232Y-96276788D01*
X58219873Y-96122445D01*
X58219874Y-96122440D01*
X58219876Y-96122438D01*
X58273401Y-95957706D01*
X58273402Y-95957702D01*
X58300500Y-95786614D01*
X58300500Y-95613385D01*
X58273402Y-95442297D01*
X58273401Y-95442293D01*
X58219876Y-95277561D01*
X58219874Y-95277558D01*
X58219873Y-95277557D01*
X58219873Y-95277555D01*
X58141232Y-95123212D01*
X58039414Y-94983072D01*
X57916928Y-94860586D01*
X57776788Y-94758768D01*
X57776787Y-94758767D01*
X57776785Y-94758766D01*
X57622441Y-94680125D01*
X57622438Y-94680123D01*
X57457706Y-94626598D01*
X57457702Y-94626597D01*
X57286614Y-94599500D01*
X57286611Y-94599500D01*
X57113389Y-94599500D01*
X57113386Y-94599500D01*
X56942297Y-94626597D01*
X56942293Y-94626598D01*
X56777561Y-94680123D01*
X56777558Y-94680125D01*
X56623214Y-94758766D01*
X56483073Y-94860585D01*
X56360585Y-94983073D01*
X56258766Y-95123214D01*
X56205223Y-95228300D01*
X56161958Y-95271565D01*
X56101526Y-95281136D01*
X56047009Y-95253359D01*
X56034698Y-95238357D01*
X55976780Y-95151679D01*
X55938302Y-95094092D01*
X55805908Y-94961698D01*
X55738682Y-94916779D01*
X55650238Y-94857681D01*
X55650229Y-94857677D01*
X55477249Y-94786026D01*
X55293618Y-94749500D01*
X55293616Y-94749500D01*
X55106384Y-94749500D01*
X55106381Y-94749500D01*
X54922750Y-94786026D01*
X54749770Y-94857677D01*
X54749761Y-94857681D01*
X54594092Y-94961698D01*
X54594088Y-94961701D01*
X54461701Y-95094088D01*
X54461698Y-95094092D01*
X54357681Y-95249761D01*
X54357677Y-95249770D01*
X54286026Y-95422750D01*
X54249500Y-95606381D01*
X54249500Y-95793618D01*
X54286026Y-95977249D01*
X54357677Y-96150229D01*
X54357681Y-96150238D01*
X54410641Y-96229496D01*
X54461698Y-96305908D01*
X54594092Y-96438302D01*
X54710584Y-96516139D01*
X54749767Y-96542321D01*
X54749768Y-96542321D01*
X54749769Y-96542322D01*
X54838386Y-96579028D01*
X54884911Y-96618763D01*
X54899500Y-96670491D01*
X54899500Y-98837464D01*
X54880593Y-98895655D01*
X54870504Y-98907468D01*
X54207468Y-99570504D01*
X54152951Y-99598281D01*
X54137464Y-99599500D01*
X44560435Y-99599500D01*
X44484012Y-99619978D01*
X44455262Y-99636577D01*
X44431613Y-99650231D01*
X44415489Y-99659540D01*
X44399695Y-99675332D01*
X44394254Y-99679450D01*
X44371484Y-99687339D01*
X44350009Y-99698281D01*
X44336932Y-99699310D01*
X44336440Y-99699481D01*
X44336094Y-99699376D01*
X44334522Y-99699500D01*
X44234108Y-99699500D01*
X44156200Y-99720375D01*
X44106809Y-99733609D01*
X43992690Y-99799496D01*
X43899496Y-99892690D01*
X43833609Y-100006809D01*
X43833608Y-100006814D01*
X43799500Y-100134108D01*
X14490863Y-100134108D01*
X16395475Y-98229496D01*
X16449992Y-98201719D01*
X16465479Y-98200500D01*
X22105249Y-98200500D01*
X22105249Y-98200499D01*
X22181675Y-98180021D01*
X22250197Y-98140460D01*
X22306146Y-98084511D01*
X24161161Y-96229496D01*
X24215678Y-96201719D01*
X24231165Y-96200500D01*
X26239563Y-96200500D01*
X26239563Y-96200499D01*
X26315989Y-96180021D01*
X26384511Y-96140460D01*
X26440460Y-96084511D01*
X28247411Y-94277558D01*
X28301926Y-94249783D01*
X28362358Y-94259354D01*
X28387413Y-94277557D01*
X28392686Y-94282830D01*
X28392688Y-94282831D01*
X28392690Y-94282833D01*
X28506810Y-94348720D01*
X28506808Y-94348720D01*
X28506812Y-94348721D01*
X28506814Y-94348722D01*
X28634108Y-94382830D01*
X28634110Y-94382830D01*
X28701721Y-94382830D01*
X28759912Y-94401737D01*
X28795876Y-94451237D01*
X28795876Y-94512423D01*
X28771725Y-94551832D01*
X27545241Y-95778317D01*
X26328789Y-96994769D01*
X26274272Y-97022546D01*
X26258785Y-97023765D01*
X26158373Y-97023765D01*
X26080465Y-97044640D01*
X26031074Y-97057874D01*
X25916955Y-97123761D01*
X25823761Y-97216955D01*
X25757874Y-97331074D01*
X25757873Y-97331079D01*
X25723765Y-97458373D01*
X25723765Y-97590157D01*
X25751487Y-97693618D01*
X25757874Y-97717455D01*
X25823761Y-97831574D01*
X25823763Y-97831576D01*
X25823765Y-97831579D01*
X25916951Y-97924765D01*
X25916953Y-97924766D01*
X25916955Y-97924768D01*
X26031075Y-97990655D01*
X26031073Y-97990655D01*
X26031077Y-97990656D01*
X26031079Y-97990657D01*
X26158373Y-98024765D01*
X26158375Y-98024765D01*
X26290155Y-98024765D01*
X26290157Y-98024765D01*
X26417451Y-97990657D01*
X26417453Y-97990655D01*
X26417455Y-97990655D01*
X26531574Y-97924768D01*
X26531574Y-97924767D01*
X26531579Y-97924765D01*
X26531905Y-97924439D01*
X30999500Y-97924439D01*
X30999500Y-98082553D01*
X31040423Y-98235280D01*
X31119480Y-98372212D01*
X31231284Y-98484016D01*
X31368216Y-98563073D01*
X31520943Y-98603996D01*
X31520945Y-98603996D01*
X31663810Y-98603996D01*
X31722001Y-98622903D01*
X31733814Y-98632992D01*
X32781292Y-99680470D01*
X32793190Y-99687339D01*
X32841944Y-99715488D01*
X32841947Y-99715489D01*
X32848370Y-99719197D01*
X32861212Y-99726612D01*
X32861213Y-99726612D01*
X32861216Y-99726614D01*
X32950360Y-99750500D01*
X32950362Y-99750500D01*
X42646142Y-99750500D01*
X42646144Y-99750500D01*
X42735288Y-99726614D01*
X42754554Y-99715490D01*
X42754556Y-99715490D01*
X42778724Y-99701536D01*
X42815212Y-99680470D01*
X44761572Y-97734108D01*
X45199500Y-97734108D01*
X45199500Y-97865892D01*
X45215276Y-97924768D01*
X45233609Y-97993190D01*
X45299496Y-98107309D01*
X45299498Y-98107311D01*
X45299500Y-98107314D01*
X45392686Y-98200500D01*
X45392688Y-98200501D01*
X45392690Y-98200503D01*
X45506810Y-98266390D01*
X45506808Y-98266390D01*
X45506812Y-98266391D01*
X45506814Y-98266392D01*
X45634108Y-98300500D01*
X45634110Y-98300500D01*
X45734521Y-98300500D01*
X45792712Y-98319407D01*
X45804524Y-98329496D01*
X46189753Y-98714724D01*
X46189758Y-98714728D01*
X46258273Y-98754285D01*
X46258271Y-98754285D01*
X46258275Y-98754286D01*
X46258277Y-98754287D01*
X46334703Y-98774765D01*
X46334705Y-98774765D01*
X52665298Y-98774765D01*
X52665298Y-98774764D01*
X52741724Y-98754286D01*
X52810246Y-98714725D01*
X52866195Y-98658776D01*
X53940460Y-97584511D01*
X53977717Y-97519979D01*
X53980021Y-97515989D01*
X54000500Y-97439562D01*
X54000500Y-94565479D01*
X54019407Y-94507288D01*
X54029496Y-94495475D01*
X55895475Y-92629496D01*
X55949992Y-92601719D01*
X55965479Y-92600500D01*
X59229507Y-92600500D01*
X59287698Y-92619407D01*
X59320971Y-92661614D01*
X59357677Y-92750229D01*
X59357681Y-92750238D01*
X59432065Y-92861559D01*
X59461698Y-92905908D01*
X59594092Y-93038302D01*
X59660463Y-93082649D01*
X59749761Y-93142318D01*
X59749767Y-93142320D01*
X59749769Y-93142322D01*
X59922749Y-93213973D01*
X60106384Y-93250500D01*
X60106385Y-93250500D01*
X60293615Y-93250500D01*
X60293616Y-93250500D01*
X60477251Y-93213973D01*
X60650231Y-93142322D01*
X60650234Y-93142319D01*
X60650238Y-93142318D01*
X60704730Y-93105907D01*
X60805908Y-93038302D01*
X60938302Y-92905908D01*
X61024579Y-92776785D01*
X61042318Y-92750238D01*
X61042323Y-92750229D01*
X61051129Y-92728966D01*
X61090865Y-92682441D01*
X61150359Y-92668156D01*
X61206888Y-92691569D01*
X61230804Y-92721906D01*
X61245236Y-92750231D01*
X61258768Y-92776788D01*
X61360586Y-92916928D01*
X61483072Y-93039414D01*
X61623212Y-93141232D01*
X61777555Y-93219873D01*
X61777557Y-93219873D01*
X61777558Y-93219874D01*
X61777561Y-93219876D01*
X61942293Y-93273401D01*
X61942297Y-93273402D01*
X62113386Y-93300500D01*
X62113389Y-93300500D01*
X62286614Y-93300500D01*
X62457702Y-93273402D01*
X62457706Y-93273401D01*
X62622438Y-93219876D01*
X62622440Y-93219874D01*
X62622445Y-93219873D01*
X62776788Y-93141232D01*
X62916928Y-93039414D01*
X63039414Y-92916928D01*
X63141232Y-92776788D01*
X63219873Y-92622445D01*
X63219874Y-92622440D01*
X63219876Y-92622438D01*
X63273401Y-92457706D01*
X63273402Y-92457702D01*
X63300500Y-92286614D01*
X63300500Y-92113385D01*
X63273402Y-91942297D01*
X63273401Y-91942293D01*
X63219876Y-91777561D01*
X63219874Y-91777558D01*
X63219873Y-91777557D01*
X63219873Y-91777555D01*
X63141232Y-91623212D01*
X63039414Y-91483072D01*
X62916928Y-91360586D01*
X62776788Y-91258768D01*
X62776787Y-91258767D01*
X62776785Y-91258766D01*
X62622441Y-91180125D01*
X62622438Y-91180123D01*
X62457706Y-91126598D01*
X62457702Y-91126597D01*
X62286614Y-91099500D01*
X62286611Y-91099500D01*
X62113389Y-91099500D01*
X62113386Y-91099500D01*
X61942297Y-91126597D01*
X61942293Y-91126598D01*
X61777561Y-91180123D01*
X61777558Y-91180125D01*
X61623214Y-91258766D01*
X61483073Y-91360585D01*
X61360585Y-91483073D01*
X61258766Y-91623214D01*
X61180124Y-91777559D01*
X61179803Y-91778336D01*
X61179619Y-91778550D01*
X61178361Y-91781021D01*
X61177767Y-91780718D01*
X61140063Y-91824859D01*
X61080568Y-91839139D01*
X61024041Y-91815721D01*
X61006026Y-91795447D01*
X60976263Y-91750905D01*
X60938302Y-91694092D01*
X60805908Y-91561698D01*
X60738682Y-91516779D01*
X60650238Y-91457681D01*
X60650229Y-91457677D01*
X60477249Y-91386026D01*
X60293618Y-91349500D01*
X60293616Y-91349500D01*
X60106384Y-91349500D01*
X60106381Y-91349500D01*
X59922750Y-91386026D01*
X59749770Y-91457677D01*
X59749761Y-91457681D01*
X59594092Y-91561698D01*
X59594088Y-91561701D01*
X59461701Y-91694088D01*
X59461698Y-91694092D01*
X59357681Y-91849761D01*
X59357677Y-91849770D01*
X59320971Y-91938386D01*
X59281234Y-91984912D01*
X59229507Y-91999500D01*
X55760435Y-91999500D01*
X55684012Y-92019978D01*
X55641897Y-92044292D01*
X55641898Y-92044293D01*
X55615489Y-92059540D01*
X53515489Y-94159540D01*
X53515488Y-94159539D01*
X53459539Y-94215489D01*
X53419980Y-94284007D01*
X53419978Y-94284011D01*
X53399500Y-94360435D01*
X53399500Y-97234521D01*
X53380593Y-97292712D01*
X53370504Y-97304525D01*
X52530260Y-98144769D01*
X52475743Y-98172546D01*
X52460256Y-98173765D01*
X50833608Y-98173765D01*
X50775417Y-98154858D01*
X50739453Y-98105358D01*
X50739453Y-98044172D01*
X50747872Y-98025265D01*
X50766390Y-97993190D01*
X50766390Y-97993188D01*
X50766392Y-97993186D01*
X50800500Y-97865892D01*
X50800500Y-97839743D01*
X50819407Y-97781552D01*
X50829490Y-97769745D01*
X52940460Y-95658776D01*
X52951553Y-95639562D01*
X52980021Y-95590254D01*
X53000500Y-95513827D01*
X53000500Y-83960438D01*
X52994762Y-83939023D01*
X52980022Y-83884012D01*
X52980019Y-83884006D01*
X52940463Y-83815493D01*
X52940462Y-83815492D01*
X52940461Y-83815491D01*
X52940460Y-83815489D01*
X49745649Y-80620678D01*
X49717872Y-80566161D01*
X49727443Y-80505729D01*
X49770708Y-80462464D01*
X49831138Y-80452893D01*
X49890728Y-80462331D01*
X49973873Y-80475500D01*
X49973876Y-80475500D01*
X50206127Y-80475500D01*
X50435509Y-80439170D01*
X50435510Y-80439169D01*
X50435514Y-80439169D01*
X50656396Y-80367400D01*
X50863331Y-80261961D01*
X51051224Y-80125449D01*
X51215449Y-79961224D01*
X51351961Y-79773331D01*
X51457400Y-79566396D01*
X51529169Y-79345514D01*
X51529187Y-79345402D01*
X51565500Y-79116127D01*
X51565500Y-78883911D01*
X56235000Y-78883911D01*
X56235000Y-79116088D01*
X56271318Y-79345398D01*
X56271319Y-79345402D01*
X56343060Y-79566196D01*
X56343062Y-79566199D01*
X56448466Y-79773067D01*
X56448468Y-79773071D01*
X56564748Y-79933117D01*
X57012214Y-79485650D01*
X57049762Y-79541844D01*
X57168156Y-79660238D01*
X57224347Y-79697783D01*
X56776881Y-80145250D01*
X56936928Y-80261531D01*
X56936932Y-80261533D01*
X57143800Y-80366937D01*
X57143803Y-80366939D01*
X57364597Y-80438680D01*
X57364601Y-80438681D01*
X57593912Y-80475000D01*
X57826088Y-80475000D01*
X58055398Y-80438681D01*
X58055402Y-80438680D01*
X58276196Y-80366939D01*
X58276199Y-80366937D01*
X58483065Y-80261534D01*
X58643116Y-80145249D01*
X58195651Y-79697784D01*
X58251844Y-79660238D01*
X58370238Y-79541844D01*
X58407784Y-79485651D01*
X58855249Y-79933116D01*
X58971534Y-79773065D01*
X59076937Y-79566199D01*
X59076939Y-79566196D01*
X59148680Y-79345402D01*
X59148681Y-79345398D01*
X59185000Y-79116088D01*
X59185000Y-78883911D01*
X59148681Y-78654601D01*
X59148680Y-78654597D01*
X59076939Y-78433803D01*
X59076937Y-78433800D01*
X58971533Y-78226932D01*
X58971531Y-78226928D01*
X58855250Y-78066881D01*
X58407783Y-78514347D01*
X58370238Y-78458156D01*
X58251844Y-78339762D01*
X58195650Y-78302214D01*
X58643117Y-77854748D01*
X58483071Y-77738468D01*
X58483067Y-77738466D01*
X58276199Y-77633062D01*
X58276196Y-77633060D01*
X58055402Y-77561319D01*
X58055398Y-77561318D01*
X57826088Y-77525000D01*
X57593912Y-77525000D01*
X57364601Y-77561318D01*
X57364597Y-77561319D01*
X57143803Y-77633060D01*
X57143800Y-77633062D01*
X56936933Y-77738466D01*
X56776881Y-77854748D01*
X57224348Y-78302215D01*
X57168156Y-78339762D01*
X57049762Y-78458156D01*
X57012215Y-78514348D01*
X56564748Y-78066881D01*
X56448466Y-78226933D01*
X56343062Y-78433800D01*
X56343060Y-78433803D01*
X56271319Y-78654597D01*
X56271318Y-78654601D01*
X56235000Y-78883911D01*
X51565500Y-78883911D01*
X51565500Y-78883872D01*
X51529170Y-78654490D01*
X51524866Y-78641242D01*
X51457400Y-78433604D01*
X51351961Y-78226669D01*
X51215449Y-78038776D01*
X51051224Y-77874551D01*
X50955015Y-77804651D01*
X50863329Y-77738037D01*
X50681517Y-77645400D01*
X50656396Y-77632600D01*
X50656393Y-77632599D01*
X50656391Y-77632598D01*
X50435509Y-77560829D01*
X50206127Y-77524500D01*
X50206124Y-77524500D01*
X49973876Y-77524500D01*
X49973873Y-77524500D01*
X49744490Y-77560829D01*
X49523608Y-77632598D01*
X49316670Y-77738037D01*
X49128777Y-77874550D01*
X48964550Y-78038777D01*
X48828037Y-78226670D01*
X48722598Y-78433608D01*
X48650829Y-78654490D01*
X48614500Y-78883872D01*
X48614500Y-79116127D01*
X48637106Y-79258859D01*
X48627534Y-79319291D01*
X48584270Y-79362556D01*
X48523838Y-79372127D01*
X48469321Y-79344350D01*
X47429496Y-78304525D01*
X47401719Y-78250008D01*
X47400500Y-78234521D01*
X47400500Y-78134109D01*
X47400500Y-78134108D01*
X47366392Y-78006814D01*
X47366390Y-78006811D01*
X47366390Y-78006809D01*
X47300503Y-77892690D01*
X47300501Y-77892688D01*
X47300500Y-77892686D01*
X47207314Y-77799500D01*
X47207311Y-77799498D01*
X47207309Y-77799496D01*
X47093189Y-77733609D01*
X47093191Y-77733609D01*
X47043799Y-77720375D01*
X46965892Y-77699500D01*
X46834108Y-77699500D01*
X46756200Y-77720375D01*
X46706809Y-77733609D01*
X46592690Y-77799496D01*
X46499496Y-77892690D01*
X46433609Y-78006809D01*
X46417765Y-78065941D01*
X46399500Y-78134108D01*
X46399500Y-78265892D01*
X46409852Y-78304525D01*
X46433609Y-78393190D01*
X46499496Y-78507309D01*
X46499498Y-78507311D01*
X46499500Y-78507314D01*
X46592686Y-78600500D01*
X46592688Y-78600501D01*
X46592690Y-78600503D01*
X46706810Y-78666390D01*
X46706808Y-78666390D01*
X46706812Y-78666391D01*
X46706814Y-78666392D01*
X46834108Y-78700500D01*
X46834110Y-78700500D01*
X46934521Y-78700500D01*
X46992712Y-78719407D01*
X47004525Y-78729496D01*
X52370504Y-84095475D01*
X52398281Y-84149992D01*
X52399500Y-84165479D01*
X52399500Y-84535521D01*
X52380593Y-84593712D01*
X52331093Y-84629676D01*
X52269907Y-84629676D01*
X52230496Y-84605525D01*
X47429496Y-79804525D01*
X47401719Y-79750008D01*
X47400500Y-79734521D01*
X47400500Y-79634109D01*
X47386969Y-79583609D01*
X47366392Y-79506814D01*
X47366390Y-79506811D01*
X47366390Y-79506809D01*
X47300503Y-79392690D01*
X47300501Y-79392688D01*
X47300500Y-79392686D01*
X47207314Y-79299500D01*
X47207311Y-79299498D01*
X47207309Y-79299496D01*
X47093189Y-79233609D01*
X47093191Y-79233609D01*
X47043799Y-79220375D01*
X46965892Y-79199500D01*
X46834108Y-79199500D01*
X46756200Y-79220375D01*
X46706809Y-79233609D01*
X46592690Y-79299496D01*
X46499496Y-79392690D01*
X46433609Y-79506809D01*
X46417643Y-79566396D01*
X46399500Y-79634108D01*
X46399500Y-79765892D01*
X46423861Y-79856809D01*
X46433609Y-79893190D01*
X46499496Y-80007309D01*
X46499498Y-80007311D01*
X46499500Y-80007314D01*
X46592686Y-80100500D01*
X46592688Y-80100501D01*
X46592690Y-80100503D01*
X46706810Y-80166390D01*
X46706808Y-80166390D01*
X46706812Y-80166391D01*
X46706814Y-80166392D01*
X46834108Y-80200500D01*
X46834110Y-80200500D01*
X46934521Y-80200500D01*
X46992712Y-80219407D01*
X47004525Y-80229496D01*
X51670504Y-84895475D01*
X51698281Y-84949992D01*
X51699500Y-84965479D01*
X51699500Y-95034520D01*
X51680593Y-95092711D01*
X51670504Y-95104524D01*
X50754524Y-96020504D01*
X50700007Y-96048281D01*
X50684520Y-96049500D01*
X50584108Y-96049500D01*
X50521073Y-96066390D01*
X50456809Y-96083609D01*
X50342690Y-96149496D01*
X50249496Y-96242690D01*
X50183609Y-96356809D01*
X50168083Y-96414754D01*
X50149500Y-96484108D01*
X50149500Y-96615892D01*
X50170627Y-96694740D01*
X50183609Y-96743190D01*
X50249496Y-96857309D01*
X50249498Y-96857311D01*
X50249500Y-96857314D01*
X50342686Y-96950500D01*
X50342688Y-96950501D01*
X50342690Y-96950503D01*
X50456810Y-97016390D01*
X50456808Y-97016390D01*
X50456812Y-97016391D01*
X50456814Y-97016392D01*
X50508928Y-97030355D01*
X50517801Y-97036117D01*
X50528250Y-97037773D01*
X50542884Y-97052407D01*
X50560241Y-97063679D01*
X50564032Y-97073555D01*
X50571514Y-97081037D01*
X50574751Y-97101481D01*
X50582168Y-97120801D01*
X50579429Y-97131019D01*
X50581085Y-97141470D01*
X50571689Y-97159909D01*
X50566333Y-97179901D01*
X50553307Y-97195986D01*
X50472478Y-97276814D01*
X50417961Y-97304591D01*
X50376853Y-97302437D01*
X50365892Y-97299500D01*
X50234108Y-97299500D01*
X50156200Y-97320375D01*
X50106809Y-97333609D01*
X49992690Y-97399496D01*
X49899496Y-97492690D01*
X49833609Y-97606809D01*
X49819481Y-97659538D01*
X49799500Y-97734108D01*
X49799500Y-97865892D01*
X49815276Y-97924768D01*
X49833609Y-97993190D01*
X49852128Y-98025265D01*
X49864850Y-98085113D01*
X49839963Y-98141009D01*
X49786975Y-98171602D01*
X49766392Y-98173765D01*
X46539744Y-98173765D01*
X46481553Y-98154858D01*
X46469740Y-98144769D01*
X46229496Y-97904525D01*
X46201719Y-97850008D01*
X46200500Y-97834521D01*
X46200500Y-97734109D01*
X46196038Y-97717455D01*
X46166392Y-97606814D01*
X46166390Y-97606811D01*
X46166390Y-97606809D01*
X46100503Y-97492690D01*
X46100501Y-97492688D01*
X46100500Y-97492686D01*
X46007314Y-97399500D01*
X46007311Y-97399498D01*
X46007309Y-97399496D01*
X45893189Y-97333609D01*
X45893191Y-97333609D01*
X45843799Y-97320375D01*
X45765892Y-97299500D01*
X45634108Y-97299500D01*
X45556200Y-97320375D01*
X45506809Y-97333609D01*
X45392690Y-97399496D01*
X45299496Y-97492690D01*
X45233609Y-97606809D01*
X45219481Y-97659538D01*
X45199500Y-97734108D01*
X44761572Y-97734108D01*
X45666184Y-96829495D01*
X45720701Y-96801719D01*
X45736188Y-96800500D01*
X45879055Y-96800500D01*
X45879057Y-96800500D01*
X46031784Y-96759577D01*
X46168716Y-96680520D01*
X46280520Y-96568716D01*
X46359577Y-96431784D01*
X46400500Y-96279057D01*
X46400500Y-96120943D01*
X46359577Y-95968216D01*
X46280520Y-95831284D01*
X46168716Y-95719480D01*
X46031784Y-95640423D01*
X45879057Y-95599500D01*
X45720943Y-95599500D01*
X45568216Y-95640423D01*
X45431284Y-95719480D01*
X45319480Y-95831284D01*
X45240423Y-95968216D01*
X45202556Y-96109540D01*
X45199500Y-96120944D01*
X45199500Y-96263810D01*
X45180593Y-96322001D01*
X45170504Y-96333814D01*
X42483814Y-99020504D01*
X42429297Y-99048281D01*
X42413810Y-99049500D01*
X33182694Y-99049500D01*
X33124503Y-99030593D01*
X33112690Y-99020504D01*
X32229496Y-98137310D01*
X32201719Y-98082793D01*
X32200500Y-98067306D01*
X32200500Y-97924440D01*
X32187856Y-97877251D01*
X32159577Y-97771712D01*
X32080520Y-97634780D01*
X31968716Y-97522976D01*
X31831784Y-97443919D01*
X31679057Y-97402996D01*
X31520943Y-97402996D01*
X31368216Y-97443919D01*
X31231284Y-97522976D01*
X31119480Y-97634780D01*
X31040423Y-97771712D01*
X30999500Y-97924439D01*
X26531905Y-97924439D01*
X26624765Y-97831579D01*
X26653648Y-97781552D01*
X26690655Y-97717455D01*
X26690655Y-97717453D01*
X26690657Y-97717451D01*
X26724765Y-97590157D01*
X26724765Y-97489743D01*
X26743672Y-97431552D01*
X26753761Y-97419739D01*
X29097972Y-95075529D01*
X31444005Y-92729496D01*
X31498522Y-92701719D01*
X31514009Y-92700500D01*
X40189513Y-92700500D01*
X40247704Y-92719407D01*
X40283668Y-92768907D01*
X40284724Y-92772955D01*
X40286028Y-92777254D01*
X40357677Y-92950229D01*
X40357681Y-92950238D01*
X40404899Y-93020903D01*
X40461698Y-93105908D01*
X40594092Y-93238302D01*
X40646623Y-93273402D01*
X40749761Y-93342318D01*
X40749767Y-93342320D01*
X40749769Y-93342322D01*
X40922749Y-93413973D01*
X41106384Y-93450500D01*
X41106385Y-93450500D01*
X41293615Y-93450500D01*
X41293616Y-93450500D01*
X41477251Y-93413973D01*
X41650231Y-93342322D01*
X41650234Y-93342319D01*
X41650238Y-93342318D01*
X41712822Y-93300500D01*
X41805908Y-93238302D01*
X41938302Y-93105908D01*
X41968185Y-93061183D01*
X42016234Y-93023305D01*
X42077373Y-93020903D01*
X42128246Y-93054896D01*
X42149424Y-93112299D01*
X42149500Y-93116186D01*
X42149500Y-93244746D01*
X42149501Y-93244758D01*
X42161132Y-93303227D01*
X42161134Y-93303233D01*
X42205445Y-93369548D01*
X42205448Y-93369552D01*
X42271769Y-93413867D01*
X42316231Y-93422711D01*
X42330241Y-93425498D01*
X42330246Y-93425498D01*
X42330252Y-93425500D01*
X42330253Y-93425500D01*
X44043421Y-93425500D01*
X44101612Y-93444407D01*
X44137576Y-93493907D01*
X44137576Y-93555093D01*
X44113425Y-93594504D01*
X43537425Y-94170504D01*
X43482908Y-94198281D01*
X43467421Y-94199500D01*
X36465479Y-94199500D01*
X36407288Y-94180593D01*
X36395475Y-94170504D01*
X36129496Y-93904525D01*
X36101719Y-93850008D01*
X36100500Y-93834521D01*
X36100500Y-93734109D01*
X36077635Y-93648775D01*
X36066392Y-93606814D01*
X36066390Y-93606811D01*
X36066390Y-93606809D01*
X36000503Y-93492690D01*
X36000501Y-93492688D01*
X36000500Y-93492686D01*
X35907314Y-93399500D01*
X35907311Y-93399498D01*
X35907309Y-93399496D01*
X35793189Y-93333609D01*
X35793191Y-93333609D01*
X35743799Y-93320375D01*
X35665892Y-93299500D01*
X35534108Y-93299500D01*
X35456200Y-93320375D01*
X35406809Y-93333609D01*
X35292690Y-93399496D01*
X35199496Y-93492690D01*
X35133609Y-93606809D01*
X35133608Y-93606814D01*
X35099500Y-93734108D01*
X35099500Y-93865892D01*
X35109852Y-93904525D01*
X35133609Y-93993190D01*
X35199496Y-94107309D01*
X35199498Y-94107311D01*
X35199500Y-94107314D01*
X35292686Y-94200500D01*
X35292688Y-94200501D01*
X35292690Y-94200503D01*
X35406810Y-94266390D01*
X35406808Y-94266390D01*
X35406812Y-94266391D01*
X35406814Y-94266392D01*
X35534108Y-94300500D01*
X35534110Y-94300500D01*
X35634521Y-94300500D01*
X35692712Y-94319407D01*
X35704525Y-94329496D01*
X36059540Y-94684511D01*
X36059539Y-94684511D01*
X36115489Y-94740460D01*
X36184007Y-94780019D01*
X36184011Y-94780021D01*
X36260435Y-94800499D01*
X36260437Y-94800500D01*
X36260438Y-94800500D01*
X37202679Y-94800500D01*
X37260870Y-94819407D01*
X37296834Y-94868907D01*
X37296834Y-94930093D01*
X37272684Y-94969501D01*
X37221682Y-95020504D01*
X37199497Y-95042689D01*
X37199496Y-95042690D01*
X37133609Y-95156809D01*
X37133608Y-95156814D01*
X37099500Y-95284108D01*
X37099500Y-95415892D01*
X37121781Y-95499045D01*
X37133609Y-95543190D01*
X37199496Y-95657309D01*
X37199498Y-95657311D01*
X37199500Y-95657314D01*
X37292686Y-95750500D01*
X37292688Y-95750501D01*
X37292690Y-95750503D01*
X37406810Y-95816390D01*
X37406808Y-95816390D01*
X37406812Y-95816391D01*
X37406814Y-95816392D01*
X37534108Y-95850500D01*
X37534110Y-95850500D01*
X37665890Y-95850500D01*
X37665892Y-95850500D01*
X37793186Y-95816392D01*
X37793188Y-95816390D01*
X37793190Y-95816390D01*
X37907309Y-95750503D01*
X37907309Y-95750502D01*
X37907314Y-95750500D01*
X37978319Y-95679494D01*
X38032834Y-95651719D01*
X38048321Y-95650500D01*
X43389563Y-95650500D01*
X43389563Y-95650499D01*
X43465989Y-95630021D01*
X43534511Y-95590460D01*
X43590460Y-95534511D01*
X45130498Y-93994472D01*
X45151151Y-93983949D01*
X45169907Y-93970323D01*
X45177896Y-93970323D01*
X45185013Y-93966697D01*
X45207908Y-93970323D01*
X45231093Y-93970323D01*
X45237555Y-93975018D01*
X45245445Y-93976268D01*
X45261836Y-93992659D01*
X45280593Y-94006287D01*
X45283061Y-94013884D01*
X45288710Y-94019533D01*
X45299500Y-94064478D01*
X45299500Y-94134521D01*
X45280593Y-94192712D01*
X45270504Y-94204525D01*
X43454525Y-96020504D01*
X43400008Y-96048281D01*
X43384521Y-96049500D01*
X36210435Y-96049500D01*
X36134012Y-96069978D01*
X36110405Y-96083608D01*
X36110404Y-96083607D01*
X36065488Y-96109540D01*
X35760274Y-96414754D01*
X35720715Y-96483272D01*
X35720713Y-96483276D01*
X35700235Y-96559700D01*
X35700235Y-97800944D01*
X35681328Y-97859135D01*
X35671244Y-97870941D01*
X35617747Y-97924439D01*
X35600232Y-97941954D01*
X35600231Y-97941955D01*
X35534344Y-98056074D01*
X35521139Y-98105358D01*
X35500235Y-98183373D01*
X35500235Y-98315157D01*
X35515523Y-98372212D01*
X35534344Y-98442455D01*
X35600231Y-98556574D01*
X35600233Y-98556576D01*
X35600235Y-98556579D01*
X35693421Y-98649765D01*
X35693423Y-98649766D01*
X35693425Y-98649768D01*
X35807545Y-98715655D01*
X35807543Y-98715655D01*
X35807547Y-98715656D01*
X35807549Y-98715657D01*
X35934843Y-98749765D01*
X35934845Y-98749765D01*
X36066625Y-98749765D01*
X36066627Y-98749765D01*
X36193921Y-98715657D01*
X36193923Y-98715655D01*
X36193925Y-98715655D01*
X36308044Y-98649768D01*
X36308044Y-98649767D01*
X36308049Y-98649765D01*
X36401235Y-98556579D01*
X36425834Y-98513973D01*
X36467125Y-98442455D01*
X36467125Y-98442453D01*
X36467127Y-98442451D01*
X36501235Y-98315157D01*
X36501235Y-98183373D01*
X36467127Y-98056079D01*
X36467125Y-98056076D01*
X36467125Y-98056074D01*
X36401238Y-97941955D01*
X36401236Y-97941953D01*
X36401235Y-97941951D01*
X36330229Y-97870945D01*
X36302454Y-97816431D01*
X36301235Y-97800944D01*
X36301235Y-96764744D01*
X36303703Y-96757146D01*
X36302454Y-96749257D01*
X36312978Y-96728601D01*
X36320142Y-96706553D01*
X36330231Y-96694740D01*
X36345475Y-96679496D01*
X36399992Y-96651719D01*
X36415479Y-96650500D01*
X43589563Y-96650500D01*
X43589563Y-96650499D01*
X43665989Y-96630021D01*
X43734511Y-96590460D01*
X43790460Y-96534511D01*
X45840460Y-94484511D01*
X45866411Y-94439562D01*
X45880021Y-94415989D01*
X45900500Y-94339562D01*
X45900500Y-90759847D01*
X45919407Y-90701656D01*
X45968907Y-90665692D01*
X46030093Y-90665692D01*
X46079593Y-90701656D01*
X46088696Y-90716893D01*
X46132727Y-90808326D01*
X46132731Y-90808333D01*
X46132735Y-90808341D01*
X46294108Y-91065164D01*
X46483221Y-91302304D01*
X46697696Y-91516779D01*
X46934836Y-91705892D01*
X47191659Y-91867265D01*
X47191670Y-91867270D01*
X47191673Y-91867272D01*
X47282462Y-91910993D01*
X47464935Y-91998868D01*
X47525267Y-92019979D01*
X47751224Y-92099045D01*
X47751227Y-92099045D01*
X47751228Y-92099046D01*
X48046937Y-92166540D01*
X48348343Y-92200500D01*
X48348344Y-92200500D01*
X48651656Y-92200500D01*
X48651657Y-92200500D01*
X48953063Y-92166540D01*
X49248772Y-92099046D01*
X49535065Y-91998868D01*
X49808341Y-91867265D01*
X50065164Y-91705892D01*
X50302304Y-91516779D01*
X50516779Y-91302304D01*
X50705892Y-91065164D01*
X50867265Y-90808341D01*
X50998868Y-90535065D01*
X51099046Y-90248772D01*
X51099046Y-90248771D01*
X51099047Y-90248770D01*
X51135730Y-90088049D01*
X51166540Y-89953063D01*
X51200500Y-89651657D01*
X51200500Y-89348343D01*
X51166540Y-89046937D01*
X51099046Y-88751228D01*
X51078736Y-88693186D01*
X50998868Y-88464936D01*
X50998868Y-88464935D01*
X50890618Y-88240152D01*
X50867272Y-88191673D01*
X50867268Y-88191666D01*
X50867265Y-88191659D01*
X50705892Y-87934836D01*
X50516779Y-87697696D01*
X50302304Y-87483221D01*
X50065164Y-87294108D01*
X49808341Y-87132735D01*
X49808333Y-87132731D01*
X49808326Y-87132727D01*
X49535065Y-87001132D01*
X49535063Y-87001131D01*
X49248775Y-86900954D01*
X48953061Y-86833459D01*
X48651658Y-86799500D01*
X48651657Y-86799500D01*
X48348343Y-86799500D01*
X48348341Y-86799500D01*
X48046938Y-86833459D01*
X47751224Y-86900954D01*
X47464936Y-87001131D01*
X47464934Y-87001132D01*
X47191673Y-87132727D01*
X47191660Y-87132734D01*
X47191659Y-87132735D01*
X47125122Y-87174543D01*
X46934835Y-87294108D01*
X46697697Y-87483220D01*
X46483220Y-87697697D01*
X46294108Y-87934835D01*
X46132734Y-88191661D01*
X46132731Y-88191666D01*
X46088696Y-88283107D01*
X46046413Y-88327331D01*
X45986211Y-88338256D01*
X45931085Y-88311709D01*
X45902091Y-88257829D01*
X45900500Y-88240152D01*
X45900500Y-69340439D01*
X45900500Y-69340438D01*
X45889608Y-69299788D01*
X45889608Y-69299787D01*
X45889608Y-69299786D01*
X45880022Y-69264012D01*
X45880020Y-69264008D01*
X45840463Y-69195493D01*
X45840461Y-69195491D01*
X45840460Y-69195489D01*
X45356277Y-68711306D01*
X57299500Y-68711306D01*
X57299500Y-68888693D01*
X57334106Y-69062665D01*
X57334106Y-69062667D01*
X57401985Y-69226544D01*
X57401985Y-69226545D01*
X57500535Y-69374034D01*
X57500536Y-69374035D01*
X57625965Y-69499464D01*
X57773453Y-69598013D01*
X57773454Y-69598013D01*
X57773455Y-69598014D01*
X57791403Y-69605448D01*
X57937334Y-69665894D01*
X58111309Y-69700500D01*
X58111310Y-69700500D01*
X58288690Y-69700500D01*
X58288691Y-69700500D01*
X58462666Y-69665894D01*
X58626547Y-69598013D01*
X58774035Y-69499464D01*
X58899464Y-69374035D01*
X58998013Y-69226547D01*
X59065894Y-69062666D01*
X59100500Y-68888691D01*
X59100500Y-68711309D01*
X59065894Y-68537334D01*
X59012937Y-68409482D01*
X58998014Y-68373455D01*
X58998014Y-68373454D01*
X58899464Y-68225965D01*
X58774034Y-68100535D01*
X58626544Y-68001985D01*
X58462666Y-67934106D01*
X58288693Y-67899500D01*
X58288691Y-67899500D01*
X58111309Y-67899500D01*
X58111306Y-67899500D01*
X57937334Y-67934106D01*
X57937332Y-67934106D01*
X57773455Y-68001985D01*
X57773454Y-68001985D01*
X57625965Y-68100535D01*
X57500535Y-68225965D01*
X57401985Y-68373454D01*
X57401985Y-68373455D01*
X57334106Y-68537332D01*
X57334106Y-68537334D01*
X57299500Y-68711306D01*
X45356277Y-68711306D01*
X44173799Y-67528828D01*
X44146022Y-67474311D01*
X44152339Y-67420938D01*
X44160805Y-67400500D01*
X44210130Y-67281420D01*
X44250500Y-67078465D01*
X44250500Y-66871535D01*
X44210130Y-66668580D01*
X44130941Y-66477402D01*
X44015977Y-66305345D01*
X43869655Y-66159023D01*
X43770374Y-66092686D01*
X43697597Y-66044058D01*
X43506418Y-65964869D01*
X43303467Y-65924500D01*
X43303465Y-65924500D01*
X43096535Y-65924500D01*
X43096532Y-65924500D01*
X42895088Y-65964570D01*
X42834327Y-65957378D01*
X42789397Y-65915845D01*
X42777460Y-65855836D01*
X42780145Y-65841856D01*
X42800500Y-65765892D01*
X42800500Y-65634108D01*
X42782977Y-65568711D01*
X42786180Y-65507612D01*
X42824685Y-65460062D01*
X42883785Y-65444226D01*
X42897906Y-65445990D01*
X43096535Y-65485500D01*
X43096536Y-65485500D01*
X43303464Y-65485500D01*
X43303465Y-65485500D01*
X43506420Y-65445130D01*
X43697598Y-65365941D01*
X43869655Y-65250977D01*
X44015977Y-65104655D01*
X44065189Y-65031004D01*
X45099500Y-65031004D01*
X45099500Y-65168995D01*
X45126420Y-65304327D01*
X45126420Y-65304329D01*
X45179222Y-65431806D01*
X45179228Y-65431817D01*
X45255885Y-65546541D01*
X45353458Y-65644114D01*
X45468182Y-65720771D01*
X45468193Y-65720777D01*
X45501375Y-65734521D01*
X45595672Y-65773580D01*
X45731007Y-65800500D01*
X45968835Y-65800500D01*
X46027026Y-65819407D01*
X46038839Y-65829496D01*
X46105886Y-65896543D01*
X46894990Y-66685646D01*
X46897757Y-66690439D01*
X47009561Y-66802243D01*
X47014353Y-66805009D01*
X48153458Y-67944114D01*
X48268182Y-68020771D01*
X48268186Y-68020773D01*
X48268189Y-68020775D01*
X48327881Y-68045500D01*
X48395671Y-68073580D01*
X48422591Y-68078934D01*
X48531007Y-68100500D01*
X50615282Y-68100500D01*
X50673473Y-68119407D01*
X50685286Y-68129496D01*
X50694092Y-68138302D01*
X50760463Y-68182649D01*
X50849761Y-68242318D01*
X50849767Y-68242320D01*
X50849769Y-68242322D01*
X51022749Y-68313973D01*
X51206384Y-68350500D01*
X51206385Y-68350500D01*
X51393615Y-68350500D01*
X51393616Y-68350500D01*
X51577251Y-68313973D01*
X51750231Y-68242322D01*
X51750234Y-68242319D01*
X51750238Y-68242318D01*
X51816541Y-68198015D01*
X51905908Y-68138302D01*
X51914714Y-68129496D01*
X51969231Y-68101719D01*
X51984718Y-68100500D01*
X52497484Y-68100500D01*
X52552486Y-68117185D01*
X52673445Y-68198009D01*
X52673457Y-68198015D01*
X52733994Y-68223089D01*
X52837334Y-68265894D01*
X53011309Y-68300500D01*
X53011310Y-68300500D01*
X53188690Y-68300500D01*
X53188691Y-68300500D01*
X53362666Y-68265894D01*
X53526547Y-68198013D01*
X53674035Y-68099464D01*
X53799464Y-67974035D01*
X53898013Y-67826547D01*
X53965894Y-67662666D01*
X54000500Y-67488691D01*
X54000500Y-67311309D01*
X53965894Y-67137334D01*
X53908802Y-66999500D01*
X53898014Y-66973455D01*
X53898014Y-66973454D01*
X53799464Y-66825965D01*
X53674034Y-66700535D01*
X53526544Y-66601985D01*
X53362666Y-66534106D01*
X53188693Y-66499500D01*
X53188691Y-66499500D01*
X53011309Y-66499500D01*
X53011306Y-66499500D01*
X52837334Y-66534106D01*
X52837332Y-66534106D01*
X52673457Y-66601984D01*
X52673445Y-66601990D01*
X52552486Y-66682815D01*
X52497484Y-66699500D01*
X51984718Y-66699500D01*
X51926527Y-66680593D01*
X51914714Y-66670504D01*
X51905911Y-66661701D01*
X51905908Y-66661698D01*
X51861559Y-66632065D01*
X51750238Y-66557681D01*
X51750229Y-66557677D01*
X51577249Y-66486026D01*
X51393618Y-66449500D01*
X51393616Y-66449500D01*
X51206384Y-66449500D01*
X51206381Y-66449500D01*
X51022750Y-66486026D01*
X50849770Y-66557677D01*
X50849761Y-66557681D01*
X50694092Y-66661698D01*
X50694088Y-66661701D01*
X50685286Y-66670504D01*
X50630769Y-66698281D01*
X50615282Y-66699500D01*
X48931164Y-66699500D01*
X48872973Y-66680593D01*
X48861160Y-66670504D01*
X47991156Y-65800500D01*
X47096543Y-64905886D01*
X47096543Y-64905885D01*
X46746542Y-64555885D01*
X46631808Y-64479223D01*
X46504328Y-64426420D01*
X46368996Y-64399500D01*
X46368994Y-64399500D01*
X46368993Y-64399500D01*
X45731007Y-64399500D01*
X45731004Y-64399500D01*
X45595672Y-64426420D01*
X45595670Y-64426420D01*
X45468193Y-64479222D01*
X45468182Y-64479228D01*
X45353458Y-64555885D01*
X45255885Y-64653458D01*
X45179228Y-64768182D01*
X45179222Y-64768193D01*
X45126420Y-64895670D01*
X45126420Y-64895672D01*
X45099500Y-65031004D01*
X44065189Y-65031004D01*
X44130941Y-64932598D01*
X44210130Y-64741420D01*
X44250500Y-64538465D01*
X44250500Y-64331535D01*
X44210130Y-64128580D01*
X44130941Y-63937402D01*
X44015977Y-63765345D01*
X43869655Y-63619023D01*
X43869651Y-63619020D01*
X43697597Y-63504058D01*
X43506418Y-63424869D01*
X43303467Y-63384500D01*
X43303465Y-63384500D01*
X43096535Y-63384500D01*
X43096532Y-63384500D01*
X42893581Y-63424869D01*
X42702402Y-63504058D01*
X42530348Y-63619020D01*
X42384020Y-63765348D01*
X42269058Y-63937402D01*
X42189869Y-64128581D01*
X42149500Y-64331532D01*
X42149500Y-64538467D01*
X42189869Y-64741418D01*
X42269058Y-64932597D01*
X42344496Y-65045499D01*
X42361104Y-65104387D01*
X42339926Y-65161791D01*
X42289052Y-65195783D01*
X42262180Y-65199500D01*
X42234108Y-65199500D01*
X42156200Y-65220375D01*
X42106809Y-65233609D01*
X41992690Y-65299496D01*
X41899496Y-65392690D01*
X41833609Y-65506809D01*
X41799500Y-65634109D01*
X41799500Y-65734521D01*
X41780593Y-65792712D01*
X41770507Y-65804520D01*
X41715489Y-65859540D01*
X41715488Y-65859539D01*
X41659539Y-65915489D01*
X41619980Y-65984007D01*
X41619978Y-65984011D01*
X41599500Y-66060435D01*
X41599500Y-68254564D01*
X41619978Y-68330988D01*
X41619980Y-68330992D01*
X41659538Y-68399508D01*
X41659540Y-68399511D01*
X41944040Y-68684011D01*
X42224736Y-68964707D01*
X42252513Y-69019224D01*
X42246196Y-69072596D01*
X42189870Y-69208578D01*
X42189870Y-69208580D01*
X42149500Y-69411532D01*
X42149500Y-69618467D01*
X42189869Y-69821418D01*
X42269058Y-70012597D01*
X42371820Y-70166392D01*
X42384023Y-70184655D01*
X42530345Y-70330977D01*
X42702402Y-70445941D01*
X42893580Y-70525130D01*
X43096535Y-70565500D01*
X43096536Y-70565500D01*
X43303464Y-70565500D01*
X43303465Y-70565500D01*
X43506420Y-70525130D01*
X43697598Y-70445941D01*
X43869655Y-70330977D01*
X44015977Y-70184655D01*
X44130941Y-70012598D01*
X44210130Y-69821420D01*
X44250500Y-69618465D01*
X44250500Y-69411535D01*
X44210130Y-69208580D01*
X44130941Y-69017402D01*
X44015977Y-68845345D01*
X43869655Y-68699023D01*
X43847188Y-68684011D01*
X43697597Y-68584058D01*
X43506418Y-68504869D01*
X43303467Y-68464500D01*
X43303465Y-68464500D01*
X43096535Y-68464500D01*
X43096532Y-68464500D01*
X42893580Y-68504870D01*
X42893578Y-68504870D01*
X42757596Y-68561196D01*
X42696600Y-68565997D01*
X42649707Y-68539736D01*
X42229496Y-68119525D01*
X42201719Y-68065008D01*
X42200500Y-68049521D01*
X42200500Y-67696353D01*
X42219407Y-67638162D01*
X42268907Y-67602198D01*
X42330093Y-67602198D01*
X42379593Y-67638162D01*
X42381816Y-67641352D01*
X42384023Y-67644655D01*
X42530345Y-67790977D01*
X42702402Y-67905941D01*
X42893580Y-67985130D01*
X43096535Y-68025500D01*
X43096536Y-68025500D01*
X43303464Y-68025500D01*
X43303465Y-68025500D01*
X43506420Y-67985130D01*
X43638867Y-67930267D01*
X43699864Y-67925467D01*
X43746757Y-67951728D01*
X45270504Y-69475475D01*
X45298281Y-69529992D01*
X45299500Y-69545479D01*
X45299500Y-73495521D01*
X45280593Y-73553712D01*
X45231093Y-73589676D01*
X45169907Y-73589676D01*
X45130496Y-73565525D01*
X44173799Y-72608828D01*
X44146022Y-72554311D01*
X44152339Y-72500938D01*
X44210130Y-72361420D01*
X44250500Y-72158465D01*
X44250500Y-71951535D01*
X44210130Y-71748580D01*
X44130941Y-71557402D01*
X44015977Y-71385345D01*
X43869655Y-71239023D01*
X43869651Y-71239020D01*
X43697597Y-71124058D01*
X43506418Y-71044869D01*
X43303467Y-71004500D01*
X43303465Y-71004500D01*
X43096535Y-71004500D01*
X43096532Y-71004500D01*
X42893581Y-71044869D01*
X42702402Y-71124058D01*
X42530348Y-71239020D01*
X42384020Y-71385348D01*
X42269058Y-71557402D01*
X42189869Y-71748581D01*
X42149500Y-71951532D01*
X42149500Y-72158467D01*
X42189869Y-72361418D01*
X42269058Y-72552597D01*
X42355905Y-72682573D01*
X42384023Y-72724655D01*
X42530345Y-72870977D01*
X42702402Y-72985941D01*
X42893580Y-73065130D01*
X43096535Y-73105500D01*
X43096536Y-73105500D01*
X43303464Y-73105500D01*
X43303465Y-73105500D01*
X43506420Y-73065130D01*
X43638867Y-73010267D01*
X43699864Y-73005467D01*
X43746757Y-73031728D01*
X44670504Y-73955475D01*
X44698281Y-74009992D01*
X44699500Y-74025479D01*
X44699500Y-75430521D01*
X44680593Y-75488712D01*
X44631093Y-75524676D01*
X44569907Y-75524676D01*
X44530496Y-75500525D01*
X44175263Y-75145292D01*
X44147486Y-75090775D01*
X44153802Y-75037405D01*
X44210130Y-74901420D01*
X44250500Y-74698465D01*
X44250500Y-74491535D01*
X44210130Y-74288580D01*
X44130941Y-74097402D01*
X44015977Y-73925345D01*
X43869655Y-73779023D01*
X43869651Y-73779020D01*
X43697597Y-73664058D01*
X43506418Y-73584869D01*
X43303467Y-73544500D01*
X43303465Y-73544500D01*
X43096535Y-73544500D01*
X43096532Y-73544500D01*
X42893581Y-73584869D01*
X42702402Y-73664058D01*
X42530348Y-73779020D01*
X42384020Y-73925348D01*
X42269058Y-74097402D01*
X42189869Y-74288581D01*
X42149500Y-74491532D01*
X42149500Y-74698467D01*
X42189869Y-74901418D01*
X42269058Y-75092597D01*
X42369974Y-75243629D01*
X42384023Y-75264655D01*
X42530345Y-75410977D01*
X42702402Y-75525941D01*
X42893580Y-75605130D01*
X43096535Y-75645500D01*
X43096536Y-75645500D01*
X43303464Y-75645500D01*
X43303465Y-75645500D01*
X43506420Y-75605130D01*
X43642405Y-75548802D01*
X43703399Y-75544002D01*
X43750292Y-75570263D01*
X44269504Y-76089475D01*
X44297281Y-76143992D01*
X44298500Y-76159479D01*
X44298500Y-76561812D01*
X44279593Y-76620003D01*
X44230093Y-76655967D01*
X44168907Y-76655967D01*
X44119407Y-76620003D01*
X44117184Y-76616813D01*
X44015979Y-76465348D01*
X44015977Y-76465345D01*
X43869655Y-76319023D01*
X43865806Y-76316451D01*
X43697597Y-76204058D01*
X43506418Y-76124869D01*
X43303467Y-76084500D01*
X43303465Y-76084500D01*
X43096535Y-76084500D01*
X43096532Y-76084500D01*
X42893581Y-76124869D01*
X42702402Y-76204058D01*
X42530348Y-76319020D01*
X42384020Y-76465348D01*
X42269058Y-76637402D01*
X42189869Y-76828581D01*
X42149500Y-77031532D01*
X42149500Y-77238467D01*
X42189869Y-77441418D01*
X42269058Y-77632597D01*
X42381135Y-77800333D01*
X42384023Y-77804655D01*
X42530345Y-77950977D01*
X42702402Y-78065941D01*
X42893580Y-78145130D01*
X43096535Y-78185500D01*
X43096536Y-78185500D01*
X43303464Y-78185500D01*
X43303465Y-78185500D01*
X43506420Y-78145130D01*
X43697598Y-78065941D01*
X43869655Y-77950977D01*
X44015977Y-77804655D01*
X44117185Y-77653184D01*
X44165234Y-77615306D01*
X44226372Y-77612904D01*
X44277246Y-77646896D01*
X44298424Y-77704300D01*
X44298500Y-77708187D01*
X44298500Y-79101812D01*
X44279593Y-79160003D01*
X44230093Y-79195967D01*
X44168907Y-79195967D01*
X44119407Y-79160003D01*
X44117184Y-79156813D01*
X44015979Y-79005348D01*
X44015977Y-79005345D01*
X43869655Y-78859023D01*
X43774840Y-78795670D01*
X43697597Y-78744058D01*
X43506418Y-78664869D01*
X43303467Y-78624500D01*
X43303465Y-78624500D01*
X43096535Y-78624500D01*
X43096532Y-78624500D01*
X42893581Y-78664869D01*
X42702402Y-78744058D01*
X42530348Y-78859020D01*
X42384020Y-79005348D01*
X42269058Y-79177402D01*
X42189869Y-79368581D01*
X42149500Y-79571532D01*
X42149500Y-79778467D01*
X42189869Y-79981418D01*
X42269058Y-80172597D01*
X42368064Y-80320771D01*
X42384023Y-80344655D01*
X42530345Y-80490977D01*
X42702402Y-80605941D01*
X42893580Y-80685130D01*
X43096535Y-80725500D01*
X43096536Y-80725500D01*
X43303464Y-80725500D01*
X43303465Y-80725500D01*
X43506420Y-80685130D01*
X43697598Y-80605941D01*
X43869655Y-80490977D01*
X44015977Y-80344655D01*
X44117185Y-80193184D01*
X44165234Y-80155306D01*
X44226372Y-80152904D01*
X44277246Y-80186896D01*
X44298424Y-80244300D01*
X44298500Y-80248187D01*
X44298500Y-81641812D01*
X44279593Y-81700003D01*
X44230093Y-81735967D01*
X44168907Y-81735967D01*
X44119407Y-81700003D01*
X44117184Y-81696813D01*
X44015979Y-81545348D01*
X44015977Y-81545345D01*
X43869655Y-81399023D01*
X43869651Y-81399020D01*
X43697597Y-81284058D01*
X43506418Y-81204869D01*
X43303467Y-81164500D01*
X43303465Y-81164500D01*
X43096535Y-81164500D01*
X43096532Y-81164500D01*
X42893581Y-81204869D01*
X42702402Y-81284058D01*
X42534146Y-81396482D01*
X42475257Y-81413090D01*
X42417854Y-81391912D01*
X42409141Y-81384170D01*
X40759492Y-79734521D01*
X38984511Y-77959540D01*
X38984508Y-77959538D01*
X38984507Y-77959537D01*
X38969681Y-77950978D01*
X38969681Y-77950977D01*
X38969677Y-77950976D01*
X38935639Y-77931324D01*
X38915988Y-77919978D01*
X38839564Y-77899500D01*
X38839562Y-77899500D01*
X38185432Y-77899500D01*
X38172510Y-77898653D01*
X38171348Y-77898500D01*
X38171347Y-77898500D01*
X36568365Y-77898500D01*
X36528803Y-77898480D01*
X36528728Y-77898500D01*
X36528653Y-77898500D01*
X36528647Y-77898500D01*
X36527443Y-77898658D01*
X36514557Y-77899500D01*
X33599793Y-77899500D01*
X33541602Y-77880593D01*
X33529789Y-77870504D01*
X33023490Y-77364205D01*
X32484511Y-76825226D01*
X32484508Y-76825224D01*
X32484506Y-76825222D01*
X32483084Y-76824131D01*
X32473350Y-76815594D01*
X32013767Y-76356010D01*
X31945249Y-76316451D01*
X31945245Y-76316449D01*
X31868821Y-76295971D01*
X31868819Y-76295971D01*
X30194736Y-76295971D01*
X30136545Y-76277064D01*
X30124732Y-76266975D01*
X26229496Y-72371739D01*
X26201719Y-72317222D01*
X26200500Y-72301735D01*
X26200500Y-70716924D01*
X26219407Y-70658733D01*
X26268907Y-70622769D01*
X26325120Y-70621297D01*
X26434108Y-70650500D01*
X26434110Y-70650500D01*
X26565890Y-70650500D01*
X26565892Y-70650500D01*
X26693186Y-70616392D01*
X26693188Y-70616390D01*
X26693190Y-70616390D01*
X26807309Y-70550503D01*
X26807309Y-70550502D01*
X26807314Y-70550500D01*
X26900500Y-70457314D01*
X26952547Y-70367166D01*
X26966390Y-70343190D01*
X26966390Y-70343188D01*
X26966392Y-70343186D01*
X27000500Y-70215892D01*
X27000500Y-70084108D01*
X26966392Y-69956814D01*
X26966390Y-69956811D01*
X26966390Y-69956809D01*
X26900503Y-69842690D01*
X26900501Y-69842688D01*
X26900500Y-69842686D01*
X26829494Y-69771680D01*
X26801719Y-69717166D01*
X26800500Y-69701679D01*
X26800500Y-69113849D01*
X26819407Y-69055658D01*
X26829490Y-69043851D01*
X27243145Y-68630196D01*
X27297661Y-68602420D01*
X27358093Y-68611991D01*
X27401358Y-68655256D01*
X27410929Y-68715688D01*
X27408775Y-68725824D01*
X27399500Y-68760438D01*
X27399500Y-70351679D01*
X27380593Y-70409870D01*
X27370509Y-70421676D01*
X27334877Y-70457309D01*
X27299497Y-70492689D01*
X27299496Y-70492690D01*
X27233609Y-70606809D01*
X27222093Y-70649788D01*
X27199500Y-70734108D01*
X27199500Y-70865892D01*
X27229579Y-70978151D01*
X27233609Y-70993190D01*
X27299496Y-71107309D01*
X27299498Y-71107311D01*
X27299500Y-71107314D01*
X27392686Y-71200500D01*
X27392688Y-71200501D01*
X27392690Y-71200503D01*
X27506810Y-71266390D01*
X27506808Y-71266390D01*
X27506812Y-71266391D01*
X27506814Y-71266392D01*
X27634108Y-71300500D01*
X27634110Y-71300500D01*
X27765890Y-71300500D01*
X27765892Y-71300500D01*
X27893186Y-71266392D01*
X27893188Y-71266390D01*
X27893190Y-71266390D01*
X28007309Y-71200503D01*
X28007309Y-71200502D01*
X28007314Y-71200500D01*
X28100500Y-71107314D01*
X28100503Y-71107309D01*
X28166390Y-70993190D01*
X28166390Y-70993188D01*
X28166392Y-70993186D01*
X28200500Y-70865892D01*
X28200500Y-70734108D01*
X28166392Y-70606814D01*
X28166390Y-70606811D01*
X28166390Y-70606809D01*
X28100503Y-70492690D01*
X28100501Y-70492688D01*
X28100500Y-70492686D01*
X28029494Y-70421680D01*
X28001719Y-70367166D01*
X28000500Y-70351679D01*
X28000500Y-68965478D01*
X28019407Y-68907287D01*
X28029490Y-68895480D01*
X29995474Y-66929495D01*
X30049991Y-66901719D01*
X30065478Y-66900500D01*
X30165890Y-66900500D01*
X30165892Y-66900500D01*
X30293186Y-66866392D01*
X30293188Y-66866390D01*
X30293190Y-66866390D01*
X30407309Y-66800503D01*
X30407309Y-66800502D01*
X30407314Y-66800500D01*
X30500500Y-66707314D01*
X30504414Y-66700535D01*
X30566390Y-66593190D01*
X30566390Y-66593188D01*
X30566392Y-66593186D01*
X30600500Y-66465892D01*
X30600500Y-66334108D01*
X30566392Y-66206814D01*
X30566390Y-66206811D01*
X30566390Y-66206809D01*
X30500503Y-66092690D01*
X30500501Y-66092688D01*
X30500500Y-66092686D01*
X30407314Y-65999500D01*
X30407311Y-65999498D01*
X30407309Y-65999496D01*
X30293189Y-65933609D01*
X30293191Y-65933609D01*
X30225564Y-65915489D01*
X30165892Y-65899500D01*
X30034108Y-65899500D01*
X29974436Y-65915489D01*
X29906809Y-65933609D01*
X29792690Y-65999496D01*
X29699496Y-66092690D01*
X29633609Y-66206809D01*
X29599500Y-66334109D01*
X29599500Y-66434520D01*
X29580593Y-66492711D01*
X29570503Y-66504524D01*
X29251423Y-66823603D01*
X29196907Y-66851380D01*
X29136475Y-66841809D01*
X29093210Y-66798544D01*
X29085793Y-66779222D01*
X29075397Y-66740423D01*
X29066392Y-66706814D01*
X29066390Y-66706811D01*
X29066390Y-66706809D01*
X29000503Y-66592690D01*
X29000501Y-66592688D01*
X29000500Y-66592686D01*
X28907314Y-66499500D01*
X28907311Y-66499498D01*
X28907309Y-66499496D01*
X28793189Y-66433609D01*
X28793191Y-66433609D01*
X28743799Y-66420375D01*
X28665892Y-66399500D01*
X28534108Y-66399500D01*
X28456200Y-66420375D01*
X28406809Y-66433609D01*
X28292690Y-66499496D01*
X28199496Y-66592690D01*
X28133609Y-66706809D01*
X28114539Y-66777978D01*
X28101941Y-66825000D01*
X28099500Y-66834109D01*
X28099500Y-66882892D01*
X28080593Y-66941083D01*
X28070504Y-66952896D01*
X26366660Y-68656739D01*
X26312143Y-68684516D01*
X26251711Y-68674945D01*
X26208446Y-68631680D01*
X26201029Y-68612358D01*
X26200500Y-68610383D01*
X26200500Y-68610381D01*
X26180021Y-68533954D01*
X26180019Y-68533951D01*
X26180019Y-68533949D01*
X26140460Y-68465432D01*
X26084511Y-68409482D01*
X26084511Y-68409483D01*
X25788200Y-68113172D01*
X25760423Y-68058655D01*
X25769994Y-67998223D01*
X25808702Y-67957433D01*
X25907314Y-67900500D01*
X26000500Y-67807314D01*
X26066392Y-67693186D01*
X26100500Y-67565892D01*
X26100500Y-67434108D01*
X26066392Y-67306814D01*
X26066390Y-67306811D01*
X26066390Y-67306809D01*
X26000503Y-67192690D01*
X26000501Y-67192688D01*
X26000500Y-67192686D01*
X25907314Y-67099500D01*
X25907311Y-67099498D01*
X25907309Y-67099496D01*
X25793189Y-67033609D01*
X25793191Y-67033609D01*
X25743799Y-67020375D01*
X25665892Y-66999500D01*
X25565479Y-66999500D01*
X25507288Y-66980593D01*
X25495475Y-66970504D01*
X22330496Y-63805525D01*
X22302719Y-63751008D01*
X22301500Y-63735521D01*
X22301500Y-62832578D01*
X22320407Y-62774387D01*
X22369907Y-62738423D01*
X22431093Y-62738423D01*
X22470501Y-62762572D01*
X24748389Y-65040460D01*
X24748391Y-65040461D01*
X24748393Y-65040463D01*
X24816908Y-65080020D01*
X24816906Y-65080020D01*
X24816910Y-65080021D01*
X24816912Y-65080022D01*
X24893338Y-65100500D01*
X24972462Y-65100500D01*
X25651679Y-65100500D01*
X25709870Y-65119407D01*
X25721676Y-65129490D01*
X25792686Y-65200500D01*
X25792688Y-65200501D01*
X25792690Y-65200503D01*
X25906810Y-65266390D01*
X25906808Y-65266390D01*
X25906812Y-65266391D01*
X25906814Y-65266392D01*
X26034108Y-65300500D01*
X26034110Y-65300500D01*
X26165890Y-65300500D01*
X26165892Y-65300500D01*
X26293186Y-65266392D01*
X26293188Y-65266390D01*
X26293190Y-65266390D01*
X26407309Y-65200503D01*
X26407309Y-65200502D01*
X26407314Y-65200500D01*
X26500500Y-65107314D01*
X26502035Y-65104655D01*
X26566390Y-64993190D01*
X26566390Y-64993188D01*
X26566392Y-64993186D01*
X26600500Y-64865892D01*
X26600500Y-64734108D01*
X26566392Y-64606814D01*
X26566390Y-64606811D01*
X26566390Y-64606809D01*
X26500503Y-64492690D01*
X26500501Y-64492688D01*
X26500500Y-64492686D01*
X26407314Y-64399500D01*
X26407311Y-64399498D01*
X26407309Y-64399496D01*
X26293189Y-64333609D01*
X26293191Y-64333609D01*
X26243799Y-64320375D01*
X26165892Y-64299500D01*
X26034108Y-64299500D01*
X25956200Y-64320375D01*
X25906809Y-64333609D01*
X25792690Y-64399496D01*
X25792689Y-64399497D01*
X25792686Y-64399499D01*
X25792686Y-64399500D01*
X25721680Y-64470505D01*
X25667166Y-64498281D01*
X25651679Y-64499500D01*
X25098379Y-64499500D01*
X25040188Y-64480593D01*
X25028375Y-64470504D01*
X23927375Y-63369504D01*
X23899598Y-63314987D01*
X23909169Y-63254555D01*
X23952434Y-63211290D01*
X23997379Y-63200500D01*
X39602621Y-63200500D01*
X39660812Y-63219407D01*
X39696776Y-63268907D01*
X39696776Y-63330093D01*
X39672625Y-63369504D01*
X39315489Y-63726640D01*
X39315488Y-63726639D01*
X39259539Y-63782589D01*
X39219980Y-63851107D01*
X39219978Y-63851111D01*
X39199500Y-63927535D01*
X39199500Y-73234521D01*
X39180593Y-73292712D01*
X39170504Y-73304525D01*
X36370211Y-76104818D01*
X36315694Y-76132595D01*
X36300207Y-76133814D01*
X34326121Y-76133814D01*
X34249698Y-76154292D01*
X34207751Y-76178509D01*
X34207750Y-76178511D01*
X34203100Y-76181196D01*
X34181172Y-76193856D01*
X34104524Y-76270504D01*
X34050007Y-76298281D01*
X34034521Y-76299500D01*
X33934108Y-76299500D01*
X33856200Y-76320375D01*
X33806809Y-76333609D01*
X33692690Y-76399496D01*
X33599496Y-76492690D01*
X33533609Y-76606809D01*
X33533608Y-76606814D01*
X33499500Y-76734108D01*
X33499500Y-76865892D01*
X33508758Y-76900444D01*
X33533609Y-76993190D01*
X33599496Y-77107309D01*
X33599498Y-77107311D01*
X33599500Y-77107314D01*
X33692686Y-77200500D01*
X33692688Y-77200501D01*
X33692690Y-77200503D01*
X33806810Y-77266390D01*
X33806808Y-77266390D01*
X33806812Y-77266391D01*
X33806814Y-77266392D01*
X33934108Y-77300500D01*
X33934110Y-77300500D01*
X34065891Y-77300500D01*
X34065892Y-77300500D01*
X34164437Y-77274095D01*
X34225537Y-77277296D01*
X34273087Y-77315801D01*
X34275795Y-77320221D01*
X34334814Y-77422445D01*
X34334816Y-77422447D01*
X34334818Y-77422450D01*
X34428004Y-77515636D01*
X34428006Y-77515637D01*
X34428008Y-77515639D01*
X34542128Y-77581526D01*
X34542126Y-77581526D01*
X34542130Y-77581527D01*
X34542132Y-77581528D01*
X34669426Y-77615636D01*
X34669428Y-77615636D01*
X34801208Y-77615636D01*
X34801210Y-77615636D01*
X34928504Y-77581528D01*
X34928506Y-77581526D01*
X34928508Y-77581526D01*
X35042627Y-77515639D01*
X35042627Y-77515638D01*
X35042632Y-77515636D01*
X35135818Y-77422450D01*
X35201710Y-77308322D01*
X35210939Y-77273875D01*
X35244263Y-77222563D01*
X35301385Y-77200636D01*
X35306566Y-77200500D01*
X36739563Y-77200500D01*
X36739563Y-77200499D01*
X36815989Y-77180021D01*
X36884511Y-77140460D01*
X36940460Y-77084511D01*
X40030496Y-73994475D01*
X40085013Y-73966698D01*
X40145445Y-73976269D01*
X40188710Y-74019534D01*
X40199500Y-74064479D01*
X40199500Y-75400500D01*
X40180593Y-75458691D01*
X40131093Y-75494655D01*
X40100500Y-75499500D01*
X39848321Y-75499500D01*
X39790130Y-75480593D01*
X39778323Y-75470509D01*
X39707314Y-75399500D01*
X39707311Y-75399498D01*
X39707309Y-75399496D01*
X39593189Y-75333609D01*
X39593191Y-75333609D01*
X39543799Y-75320375D01*
X39465892Y-75299500D01*
X39334108Y-75299500D01*
X39256200Y-75320375D01*
X39206809Y-75333609D01*
X39092690Y-75399496D01*
X38999496Y-75492690D01*
X38933609Y-75606809D01*
X38923242Y-75645499D01*
X38899500Y-75734108D01*
X38899500Y-75865892D01*
X38900257Y-75868716D01*
X38933609Y-75993190D01*
X38999496Y-76107309D01*
X38999498Y-76107311D01*
X38999500Y-76107314D01*
X39092686Y-76200500D01*
X39092688Y-76200501D01*
X39116525Y-76214264D01*
X39157465Y-76259734D01*
X39163860Y-76320584D01*
X39133267Y-76373572D01*
X39116525Y-76385736D01*
X39092688Y-76399498D01*
X38999496Y-76492690D01*
X38933609Y-76606809D01*
X38933608Y-76606814D01*
X38899500Y-76734108D01*
X38899500Y-76865892D01*
X38908758Y-76900444D01*
X38933609Y-76993190D01*
X38999496Y-77107309D01*
X38999498Y-77107311D01*
X38999500Y-77107314D01*
X39092686Y-77200500D01*
X39092688Y-77200501D01*
X39092690Y-77200503D01*
X39206810Y-77266390D01*
X39206808Y-77266390D01*
X39206812Y-77266391D01*
X39206814Y-77266392D01*
X39334108Y-77300500D01*
X39334110Y-77300500D01*
X39465890Y-77300500D01*
X39465892Y-77300500D01*
X39593186Y-77266392D01*
X39593188Y-77266390D01*
X39593190Y-77266390D01*
X39707309Y-77200503D01*
X39707309Y-77200502D01*
X39707314Y-77200500D01*
X39778319Y-77129494D01*
X39832834Y-77101719D01*
X39848321Y-77100500D01*
X40139563Y-77100500D01*
X40139563Y-77100499D01*
X40215989Y-77080021D01*
X40284511Y-77040460D01*
X40340460Y-76984511D01*
X41340460Y-75984511D01*
X41380022Y-75915988D01*
X41400500Y-75839562D01*
X41400500Y-75760438D01*
X41400500Y-75527538D01*
X41380021Y-75451111D01*
X41375788Y-75443780D01*
X41340460Y-75382589D01*
X41284511Y-75326639D01*
X41284511Y-75326640D01*
X41230496Y-75272625D01*
X41202719Y-75218108D01*
X41201500Y-75202621D01*
X41201500Y-73998678D01*
X41220407Y-73940487D01*
X41230490Y-73928680D01*
X41242460Y-73916711D01*
X41267645Y-73873090D01*
X41282020Y-73848192D01*
X41282020Y-73848190D01*
X41282022Y-73848188D01*
X41302500Y-73771762D01*
X41302500Y-73692638D01*
X41302500Y-72895338D01*
X41296638Y-72873462D01*
X41282022Y-72818912D01*
X41242460Y-72750389D01*
X41242458Y-72750387D01*
X41230494Y-72738422D01*
X41202718Y-72683905D01*
X41201500Y-72668421D01*
X41201500Y-64432878D01*
X41220407Y-64374687D01*
X41230490Y-64362880D01*
X41844460Y-63748911D01*
X41857318Y-63726640D01*
X41884021Y-63680389D01*
X41904500Y-63603962D01*
X41904500Y-61744999D01*
X42159266Y-61744999D01*
X42159267Y-61745000D01*
X42722555Y-61745000D01*
X42700000Y-61829174D01*
X42700000Y-61960826D01*
X42722555Y-62045000D01*
X42159266Y-62045000D01*
X42190349Y-62201271D01*
X42269501Y-62392360D01*
X42269508Y-62392374D01*
X42384405Y-62564329D01*
X42530670Y-62710594D01*
X42702625Y-62825491D01*
X42702639Y-62825498D01*
X42893728Y-62904650D01*
X42893727Y-62904650D01*
X43049999Y-62935733D01*
X43050000Y-62935733D01*
X43050000Y-62372445D01*
X43134174Y-62395000D01*
X43265826Y-62395000D01*
X43350000Y-62372445D01*
X43350000Y-62935733D01*
X43506271Y-62904650D01*
X43697360Y-62825498D01*
X43697374Y-62825491D01*
X43869329Y-62710594D01*
X44015594Y-62564329D01*
X44130491Y-62392374D01*
X44130498Y-62392360D01*
X44209650Y-62201271D01*
X44240734Y-62045000D01*
X43677445Y-62045000D01*
X43700000Y-61960826D01*
X43700000Y-61829174D01*
X43677445Y-61745000D01*
X44240733Y-61745000D01*
X44240733Y-61744999D01*
X44209650Y-61588728D01*
X44130498Y-61397639D01*
X44130491Y-61397625D01*
X44015594Y-61225670D01*
X43886456Y-61096532D01*
X54049500Y-61096532D01*
X54049500Y-61303467D01*
X54089869Y-61506418D01*
X54169058Y-61697597D01*
X54259937Y-61833608D01*
X54284023Y-61869655D01*
X54430345Y-62015977D01*
X54602402Y-62130941D01*
X54793580Y-62210130D01*
X54996535Y-62250500D01*
X54996536Y-62250500D01*
X55203464Y-62250500D01*
X55203465Y-62250500D01*
X55406420Y-62210130D01*
X55597598Y-62130941D01*
X55767849Y-62017184D01*
X55822850Y-62000500D01*
X56469344Y-62000500D01*
X56527535Y-62019407D01*
X56549473Y-62043141D01*
X56550225Y-62042595D01*
X56552509Y-62045739D01*
X56552511Y-62045742D01*
X56698276Y-62246370D01*
X56873630Y-62421724D01*
X57074258Y-62567489D01*
X57295218Y-62680073D01*
X57531069Y-62756706D01*
X57531070Y-62756706D01*
X57531073Y-62756707D01*
X57776002Y-62795500D01*
X57776005Y-62795500D01*
X58023998Y-62795500D01*
X58268926Y-62756707D01*
X58268927Y-62756706D01*
X58268931Y-62756706D01*
X58504782Y-62680073D01*
X58725742Y-62567489D01*
X58926370Y-62421724D01*
X59101724Y-62246370D01*
X59247489Y-62045742D01*
X59360073Y-61824782D01*
X59436706Y-61588931D01*
X59436738Y-61588728D01*
X59475500Y-61343998D01*
X59475500Y-61096001D01*
X59436707Y-60851073D01*
X59436706Y-60851069D01*
X59360073Y-60615218D01*
X59247489Y-60394258D01*
X59101724Y-60193630D01*
X58926370Y-60018276D01*
X58725742Y-59872511D01*
X58725741Y-59872510D01*
X58725739Y-59872509D01*
X58504782Y-59759927D01*
X58268926Y-59683292D01*
X58023998Y-59644500D01*
X58023995Y-59644500D01*
X57776005Y-59644500D01*
X57776002Y-59644500D01*
X57531073Y-59683292D01*
X57295217Y-59759927D01*
X57074260Y-59872509D01*
X56873631Y-60018275D01*
X56698275Y-60193631D01*
X56578352Y-60358691D01*
X56528851Y-60394655D01*
X56498259Y-60399500D01*
X55822850Y-60399500D01*
X55767849Y-60382816D01*
X55597597Y-60269058D01*
X55406418Y-60189869D01*
X55203467Y-60149500D01*
X55203465Y-60149500D01*
X54996535Y-60149500D01*
X54996532Y-60149500D01*
X54793581Y-60189869D01*
X54602402Y-60269058D01*
X54430348Y-60384020D01*
X54284020Y-60530348D01*
X54169058Y-60702402D01*
X54089869Y-60893581D01*
X54049500Y-61096532D01*
X43886456Y-61096532D01*
X43869329Y-61079405D01*
X43697374Y-60964508D01*
X43697360Y-60964501D01*
X43506277Y-60885351D01*
X43506271Y-60885349D01*
X43350000Y-60854264D01*
X43350000Y-61417554D01*
X43265826Y-61395000D01*
X43134174Y-61395000D01*
X43050000Y-61417554D01*
X43050000Y-60854264D01*
X42893728Y-60885349D01*
X42893722Y-60885351D01*
X42702639Y-60964501D01*
X42702625Y-60964508D01*
X42530670Y-61079405D01*
X42384405Y-61225670D01*
X42269508Y-61397625D01*
X42269501Y-61397639D01*
X42190349Y-61588728D01*
X42159266Y-61744999D01*
X41904500Y-61744999D01*
X41904500Y-61029579D01*
X41923407Y-60971388D01*
X41933496Y-60959575D01*
X42743571Y-60149500D01*
X43651935Y-59241135D01*
X43706450Y-59213360D01*
X43766882Y-59222931D01*
X43810147Y-59266196D01*
X43819035Y-59291827D01*
X43836026Y-59377249D01*
X43907677Y-59550229D01*
X43907681Y-59550238D01*
X43976359Y-59653020D01*
X44011698Y-59705908D01*
X44144092Y-59838302D01*
X44210463Y-59882649D01*
X44299761Y-59942318D01*
X44299767Y-59942320D01*
X44299769Y-59942322D01*
X44472749Y-60013973D01*
X44656384Y-60050500D01*
X44656385Y-60050500D01*
X47543615Y-60050500D01*
X47543616Y-60050500D01*
X47727251Y-60013973D01*
X47900231Y-59942322D01*
X47900234Y-59942319D01*
X47900238Y-59942318D01*
X47945187Y-59912282D01*
X48055908Y-59838302D01*
X48188302Y-59705908D01*
X48290629Y-59552765D01*
X48292318Y-59550238D01*
X48292319Y-59550234D01*
X48292322Y-59550231D01*
X48363973Y-59377251D01*
X48400500Y-59193616D01*
X48400500Y-59006384D01*
X48363973Y-58822749D01*
X48292322Y-58649769D01*
X48292320Y-58649767D01*
X48292318Y-58649761D01*
X48220575Y-58542392D01*
X48188302Y-58494092D01*
X48055908Y-58361698D01*
X48011559Y-58332065D01*
X47900238Y-58257681D01*
X47900229Y-58257677D01*
X47843195Y-58234053D01*
X47739168Y-58190963D01*
X47692644Y-58151227D01*
X47678360Y-58091733D01*
X47701775Y-58035205D01*
X47753944Y-58003235D01*
X47777055Y-58000500D01*
X49839563Y-58000500D01*
X49839563Y-58000499D01*
X49915989Y-57980021D01*
X49984511Y-57940460D01*
X50040460Y-57884511D01*
X54441060Y-53483911D01*
X56425000Y-53483911D01*
X56425000Y-53716088D01*
X56461318Y-53945398D01*
X56461319Y-53945402D01*
X56533060Y-54166196D01*
X56533062Y-54166199D01*
X56638466Y-54373067D01*
X56638468Y-54373071D01*
X56754748Y-54533117D01*
X57202214Y-54085650D01*
X57239762Y-54141844D01*
X57358156Y-54260238D01*
X57414347Y-54297783D01*
X56966881Y-54745250D01*
X57126928Y-54861531D01*
X57126932Y-54861533D01*
X57333800Y-54966937D01*
X57333803Y-54966939D01*
X57554597Y-55038680D01*
X57554601Y-55038681D01*
X57783912Y-55075000D01*
X58016088Y-55075000D01*
X58245398Y-55038681D01*
X58245402Y-55038680D01*
X58466196Y-54966939D01*
X58466199Y-54966937D01*
X58673065Y-54861534D01*
X58833116Y-54745249D01*
X58385651Y-54297784D01*
X58441844Y-54260238D01*
X58560238Y-54141844D01*
X58597784Y-54085651D01*
X59045249Y-54533116D01*
X59161534Y-54373065D01*
X59266937Y-54166199D01*
X59266939Y-54166196D01*
X59338680Y-53945402D01*
X59338681Y-53945398D01*
X59375000Y-53716088D01*
X59375000Y-53483911D01*
X59338681Y-53254601D01*
X59338680Y-53254597D01*
X59266939Y-53033803D01*
X59266937Y-53033800D01*
X59161533Y-52826932D01*
X59161531Y-52826928D01*
X59045250Y-52666881D01*
X58597783Y-53114347D01*
X58560238Y-53058156D01*
X58441844Y-52939762D01*
X58385650Y-52902214D01*
X58833117Y-52454748D01*
X58673071Y-52338468D01*
X58673067Y-52338466D01*
X58466199Y-52233062D01*
X58466196Y-52233060D01*
X58245402Y-52161319D01*
X58245398Y-52161318D01*
X58016088Y-52125000D01*
X57783912Y-52125000D01*
X57554601Y-52161318D01*
X57554597Y-52161319D01*
X57333803Y-52233060D01*
X57333800Y-52233062D01*
X57126933Y-52338466D01*
X56966881Y-52454748D01*
X57414348Y-52902215D01*
X57358156Y-52939762D01*
X57239762Y-53058156D01*
X57202215Y-53114348D01*
X56754748Y-52666881D01*
X56638466Y-52826933D01*
X56533062Y-53033800D01*
X56533060Y-53033803D01*
X56461319Y-53254597D01*
X56461318Y-53254601D01*
X56425000Y-53483911D01*
X54441060Y-53483911D01*
X58840460Y-49084511D01*
X58880021Y-49015989D01*
X58900500Y-48939562D01*
X58900500Y-47160438D01*
X58880021Y-47084011D01*
X58860389Y-47050008D01*
X58840460Y-47015489D01*
X58784511Y-46959539D01*
X58784511Y-46959540D01*
X57296026Y-45471055D01*
X60020000Y-45471055D01*
X60020000Y-45939999D01*
X60020001Y-45940000D01*
X60420000Y-45940000D01*
X60420000Y-46240000D01*
X60020001Y-46240000D01*
X60020000Y-46240001D01*
X60020000Y-46708944D01*
X60046901Y-46844183D01*
X60099666Y-46971571D01*
X60176271Y-47086220D01*
X60273779Y-47183728D01*
X60388428Y-47260333D01*
X60515811Y-47313096D01*
X60515822Y-47313099D01*
X60570000Y-47323875D01*
X60570000Y-46899808D01*
X60604204Y-46919556D01*
X60680504Y-46940000D01*
X60759496Y-46940000D01*
X60835796Y-46919556D01*
X60870000Y-46899808D01*
X60870000Y-47323874D01*
X60924177Y-47313099D01*
X60924188Y-47313096D01*
X61051571Y-47260333D01*
X61166220Y-47183728D01*
X61263728Y-47086220D01*
X61340333Y-46971571D01*
X61393098Y-46844183D01*
X61419999Y-46708944D01*
X61420000Y-46708942D01*
X61420000Y-46240001D01*
X61419999Y-46240000D01*
X61020000Y-46240000D01*
X61020000Y-45940000D01*
X61419999Y-45940000D01*
X61420000Y-45939999D01*
X61420000Y-45471057D01*
X61419999Y-45471055D01*
X61393098Y-45335816D01*
X61340333Y-45208428D01*
X61263728Y-45093779D01*
X61166220Y-44996271D01*
X61051571Y-44919666D01*
X60924182Y-44866901D01*
X60870000Y-44856123D01*
X60870000Y-45280191D01*
X60835796Y-45260444D01*
X60759496Y-45240000D01*
X60680504Y-45240000D01*
X60604204Y-45260444D01*
X60570000Y-45280191D01*
X60570000Y-44856123D01*
X60515817Y-44866901D01*
X60388428Y-44919666D01*
X60273779Y-44996271D01*
X60176271Y-45093779D01*
X60099666Y-45208428D01*
X60046901Y-45335816D01*
X60020000Y-45471055D01*
X57296026Y-45471055D01*
X56684511Y-44859540D01*
X56678593Y-44856123D01*
X56615992Y-44819980D01*
X56615988Y-44819978D01*
X56539564Y-44799500D01*
X56539562Y-44799500D01*
X55760438Y-44799500D01*
X55760435Y-44799500D01*
X55684011Y-44819978D01*
X55684007Y-44819980D01*
X55615489Y-44859539D01*
X55304524Y-45170504D01*
X55250008Y-45198281D01*
X55234521Y-45199500D01*
X55134108Y-45199500D01*
X55056200Y-45220375D01*
X55006809Y-45233609D01*
X54892690Y-45299496D01*
X54799496Y-45392690D01*
X54733609Y-45506809D01*
X54733199Y-45508341D01*
X54699500Y-45634108D01*
X54699500Y-45765892D01*
X54729579Y-45878151D01*
X54733609Y-45893190D01*
X54799496Y-46007309D01*
X54799498Y-46007311D01*
X54799500Y-46007314D01*
X54892686Y-46100500D01*
X54892688Y-46100501D01*
X54892690Y-46100503D01*
X55006810Y-46166390D01*
X55006808Y-46166390D01*
X55006812Y-46166391D01*
X55006814Y-46166392D01*
X55134108Y-46200500D01*
X55134110Y-46200500D01*
X55265890Y-46200500D01*
X55265892Y-46200500D01*
X55393186Y-46166392D01*
X55451000Y-46133012D01*
X55510847Y-46120291D01*
X55566743Y-46145177D01*
X55597336Y-46198165D01*
X55599500Y-46218749D01*
X55599500Y-48534521D01*
X55580593Y-48592712D01*
X55570504Y-48604525D01*
X48604525Y-55570504D01*
X48550008Y-55598281D01*
X48534521Y-55599500D01*
X43860435Y-55599500D01*
X43784012Y-55619978D01*
X43729188Y-55651631D01*
X43729187Y-55651630D01*
X43715491Y-55659538D01*
X42319504Y-57055525D01*
X42264987Y-57083302D01*
X42204555Y-57073731D01*
X42161290Y-57030466D01*
X42150500Y-56985521D01*
X42150500Y-55166234D01*
X42150499Y-55166230D01*
X42146345Y-55145348D01*
X42117816Y-55001918D01*
X42053703Y-54847137D01*
X41960626Y-54707838D01*
X41842162Y-54589374D01*
X41702863Y-54496297D01*
X41702864Y-54496297D01*
X41702862Y-54496296D01*
X41548085Y-54432185D01*
X41548079Y-54432183D01*
X41383769Y-54399500D01*
X41383767Y-54399500D01*
X41216233Y-54399500D01*
X41216230Y-54399500D01*
X41051920Y-54432183D01*
X41051914Y-54432185D01*
X40897137Y-54496296D01*
X40757838Y-54589374D01*
X40757834Y-54589377D01*
X40639377Y-54707834D01*
X40639374Y-54707838D01*
X40546296Y-54847137D01*
X40490964Y-54980721D01*
X40451227Y-55027247D01*
X40391732Y-55041530D01*
X40335204Y-55018115D01*
X40303235Y-54965946D01*
X40300500Y-54942835D01*
X40300500Y-52950000D01*
X43913183Y-52950000D01*
X44376082Y-52950000D01*
X44350000Y-53047339D01*
X44350000Y-53152661D01*
X44376082Y-53250000D01*
X43913184Y-53250000D01*
X43932664Y-53347933D01*
X43932666Y-53347939D01*
X43996739Y-53502625D01*
X44089759Y-53641840D01*
X44208159Y-53760240D01*
X44347374Y-53853260D01*
X44502065Y-53917335D01*
X44666279Y-53949999D01*
X44666283Y-53950000D01*
X45949999Y-53950000D01*
X45950000Y-53949999D01*
X45950000Y-53500000D01*
X46250000Y-53500000D01*
X46250000Y-53949999D01*
X46250001Y-53950000D01*
X47533717Y-53950000D01*
X47533720Y-53949999D01*
X47697934Y-53917335D01*
X47852625Y-53853260D01*
X47991840Y-53760240D01*
X48110240Y-53641840D01*
X48203260Y-53502625D01*
X48267333Y-53347939D01*
X48267335Y-53347933D01*
X48286816Y-53250000D01*
X47823918Y-53250000D01*
X47850000Y-53152661D01*
X47850000Y-53047339D01*
X47823918Y-52950000D01*
X48286816Y-52950000D01*
X48267335Y-52852066D01*
X48267333Y-52852060D01*
X48203260Y-52697374D01*
X48110240Y-52558159D01*
X47991840Y-52439759D01*
X47852625Y-52346739D01*
X47697934Y-52282664D01*
X47533720Y-52250000D01*
X46250001Y-52250000D01*
X46250000Y-52250001D01*
X46250000Y-52700000D01*
X45950000Y-52700000D01*
X45950000Y-52250001D01*
X45949999Y-52250000D01*
X44666279Y-52250000D01*
X44502065Y-52282664D01*
X44347374Y-52346739D01*
X44208159Y-52439759D01*
X44089759Y-52558159D01*
X43996739Y-52697374D01*
X43932666Y-52852060D01*
X43932664Y-52852066D01*
X43913183Y-52950000D01*
X40300500Y-52950000D01*
X40300500Y-45471055D01*
X51380000Y-45471055D01*
X51380000Y-45939999D01*
X51380001Y-45940000D01*
X51780000Y-45940000D01*
X51780000Y-46240000D01*
X51380001Y-46240000D01*
X51380000Y-46240001D01*
X51380000Y-46708944D01*
X51406901Y-46844183D01*
X51459666Y-46971571D01*
X51536271Y-47086220D01*
X51633779Y-47183728D01*
X51748428Y-47260333D01*
X51875811Y-47313096D01*
X51875822Y-47313099D01*
X51930000Y-47323875D01*
X51930000Y-46899808D01*
X51964204Y-46919556D01*
X52040504Y-46940000D01*
X52119496Y-46940000D01*
X52195796Y-46919556D01*
X52230000Y-46899808D01*
X52230000Y-47323874D01*
X52284177Y-47313099D01*
X52284188Y-47313096D01*
X52411571Y-47260333D01*
X52526220Y-47183728D01*
X52623728Y-47086220D01*
X52700333Y-46971571D01*
X52753098Y-46844183D01*
X52779999Y-46708944D01*
X52780000Y-46708942D01*
X52780000Y-46240001D01*
X52779999Y-46240000D01*
X52380000Y-46240000D01*
X52380000Y-45940000D01*
X52779999Y-45940000D01*
X52780000Y-45939999D01*
X52780000Y-45471057D01*
X52779999Y-45471055D01*
X52753098Y-45335816D01*
X52700333Y-45208428D01*
X52623728Y-45093779D01*
X52526220Y-44996271D01*
X52411571Y-44919666D01*
X52284182Y-44866901D01*
X52230000Y-44856123D01*
X52230000Y-45280191D01*
X52195796Y-45260444D01*
X52119496Y-45240000D01*
X52040504Y-45240000D01*
X51964204Y-45260444D01*
X51930000Y-45280191D01*
X51930000Y-44856123D01*
X51875817Y-44866901D01*
X51748428Y-44919666D01*
X51633779Y-44996271D01*
X51536271Y-45093779D01*
X51459666Y-45208428D01*
X51406901Y-45335816D01*
X51380000Y-45471055D01*
X40300500Y-45471055D01*
X40300500Y-41623341D01*
X45799500Y-41623341D01*
X45799500Y-41926658D01*
X45833459Y-42228061D01*
X45900954Y-42523775D01*
X46001131Y-42810063D01*
X46001132Y-42810065D01*
X46132727Y-43083326D01*
X46132731Y-43083333D01*
X46132735Y-43083341D01*
X46294108Y-43340164D01*
X46483221Y-43577304D01*
X46697696Y-43791779D01*
X46934836Y-43980892D01*
X47191659Y-44142265D01*
X47191670Y-44142270D01*
X47191673Y-44142272D01*
X47282462Y-44185993D01*
X47464935Y-44273868D01*
X47598580Y-44320632D01*
X47751224Y-44374045D01*
X47751227Y-44374045D01*
X47751228Y-44374046D01*
X48046937Y-44441540D01*
X48348343Y-44475500D01*
X48348344Y-44475500D01*
X48651656Y-44475500D01*
X48651657Y-44475500D01*
X48953063Y-44441540D01*
X49248772Y-44374046D01*
X49535065Y-44273868D01*
X49808341Y-44142265D01*
X50065164Y-43980892D01*
X50302304Y-43791779D01*
X50516779Y-43577304D01*
X50705892Y-43340164D01*
X50867265Y-43083341D01*
X50998868Y-42810065D01*
X51099046Y-42523772D01*
X51166540Y-42228063D01*
X51182622Y-42085329D01*
X51207926Y-42029622D01*
X51261141Y-41999426D01*
X51321942Y-42006277D01*
X51367104Y-42047557D01*
X51380000Y-42096414D01*
X51380000Y-42388944D01*
X51406901Y-42524183D01*
X51459666Y-42651571D01*
X51536271Y-42766220D01*
X51633779Y-42863728D01*
X51748428Y-42940333D01*
X51875811Y-42993096D01*
X51875822Y-42993099D01*
X51930000Y-43003875D01*
X51930000Y-42579808D01*
X51964204Y-42599556D01*
X52040504Y-42620000D01*
X52119496Y-42620000D01*
X52195796Y-42599556D01*
X52230000Y-42579808D01*
X52230000Y-43003874D01*
X52284177Y-42993099D01*
X52284188Y-42993096D01*
X52411571Y-42940333D01*
X52526220Y-42863728D01*
X52623728Y-42766220D01*
X52700333Y-42651571D01*
X52753098Y-42524183D01*
X52779999Y-42388944D01*
X52780000Y-42388942D01*
X52780000Y-42070001D01*
X52779999Y-42070000D01*
X52380000Y-42070000D01*
X52380000Y-41770000D01*
X52779999Y-41770000D01*
X52780000Y-41769999D01*
X52780000Y-41451057D01*
X52779999Y-41451055D01*
X60020000Y-41451055D01*
X60020000Y-41769999D01*
X60020001Y-41770000D01*
X60420000Y-41770000D01*
X60420000Y-42070000D01*
X60020001Y-42070000D01*
X60020000Y-42070001D01*
X60020000Y-42388944D01*
X60046901Y-42524183D01*
X60099666Y-42651571D01*
X60176271Y-42766220D01*
X60273779Y-42863728D01*
X60388428Y-42940333D01*
X60515811Y-42993096D01*
X60515822Y-42993099D01*
X60570000Y-43003875D01*
X60570000Y-42579808D01*
X60604204Y-42599556D01*
X60680504Y-42620000D01*
X60759496Y-42620000D01*
X60835796Y-42599556D01*
X60870000Y-42579808D01*
X60870000Y-43003874D01*
X60924177Y-42993099D01*
X60924188Y-42993096D01*
X61051571Y-42940333D01*
X61166220Y-42863728D01*
X61263728Y-42766220D01*
X61340333Y-42651571D01*
X61393098Y-42524183D01*
X61419999Y-42388944D01*
X61420000Y-42388942D01*
X61420000Y-42070001D01*
X61419999Y-42070000D01*
X61020000Y-42070000D01*
X61020000Y-41770000D01*
X61419999Y-41770000D01*
X61420000Y-41769999D01*
X61420000Y-41451057D01*
X61419999Y-41451055D01*
X61393098Y-41315816D01*
X61340333Y-41188428D01*
X61263728Y-41073779D01*
X61166220Y-40976271D01*
X61051571Y-40899666D01*
X60924182Y-40846901D01*
X60870000Y-40836123D01*
X60870000Y-41260191D01*
X60835796Y-41240444D01*
X60759496Y-41220000D01*
X60680504Y-41220000D01*
X60604204Y-41240444D01*
X60570000Y-41260191D01*
X60570000Y-40836123D01*
X60515817Y-40846901D01*
X60388428Y-40899666D01*
X60273779Y-40976271D01*
X60176271Y-41073779D01*
X60099666Y-41188428D01*
X60046901Y-41315816D01*
X60020000Y-41451055D01*
X52779999Y-41451055D01*
X52753098Y-41315816D01*
X52700333Y-41188428D01*
X52623728Y-41073779D01*
X52526220Y-40976271D01*
X52411571Y-40899666D01*
X52284182Y-40846901D01*
X52230000Y-40836123D01*
X52230000Y-41260191D01*
X52195796Y-41240444D01*
X52119496Y-41220000D01*
X52040504Y-41220000D01*
X51964204Y-41240444D01*
X51930000Y-41260191D01*
X51930000Y-40836123D01*
X51875817Y-40846901D01*
X51748428Y-40899666D01*
X51633779Y-40976271D01*
X51536271Y-41073779D01*
X51459666Y-41188428D01*
X51406901Y-41315816D01*
X51380000Y-41451055D01*
X51380000Y-41453585D01*
X51379642Y-41454683D01*
X51379524Y-41455892D01*
X51379258Y-41455865D01*
X51361093Y-41511776D01*
X51311593Y-41547740D01*
X51250407Y-41547740D01*
X51200907Y-41511776D01*
X51182622Y-41464669D01*
X51166540Y-41321938D01*
X51150006Y-41249500D01*
X51099046Y-41026228D01*
X51081565Y-40976271D01*
X51042529Y-40864712D01*
X50998868Y-40739935D01*
X50867265Y-40466659D01*
X50705892Y-40209836D01*
X50516779Y-39972696D01*
X50302304Y-39758221D01*
X50065164Y-39569108D01*
X49808341Y-39407735D01*
X49808333Y-39407731D01*
X49808326Y-39407727D01*
X49535065Y-39276132D01*
X49535063Y-39276131D01*
X49248775Y-39175954D01*
X48953061Y-39108459D01*
X48651658Y-39074500D01*
X48651657Y-39074500D01*
X48348343Y-39074500D01*
X48348341Y-39074500D01*
X48046938Y-39108459D01*
X47751224Y-39175954D01*
X47464936Y-39276131D01*
X47464934Y-39276132D01*
X47191673Y-39407727D01*
X47191660Y-39407734D01*
X47191659Y-39407735D01*
X47155671Y-39430348D01*
X46934835Y-39569108D01*
X46697697Y-39758220D01*
X46483220Y-39972697D01*
X46294108Y-40209835D01*
X46132734Y-40466661D01*
X46132727Y-40466673D01*
X46001132Y-40739934D01*
X46001131Y-40739936D01*
X45900954Y-41026224D01*
X45833459Y-41321938D01*
X45799500Y-41623341D01*
X40300500Y-41623341D01*
X40300500Y-38899500D01*
X40319407Y-38841309D01*
X40368907Y-38805345D01*
X40399500Y-38800500D01*
X63852405Y-38800500D01*
X63895139Y-38800500D01*
X63904842Y-38800976D01*
X64065782Y-38816828D01*
X64084812Y-38820613D01*
X64153037Y-38841309D01*
X64234891Y-38866139D01*
X64252821Y-38873566D01*
X64391136Y-38947497D01*
X64407273Y-38958279D01*
X64528505Y-39057771D01*
X64542228Y-39071494D01*
X64641720Y-39192726D01*
X64652502Y-39208863D01*
X64726433Y-39347178D01*
X64733860Y-39365108D01*
X64779385Y-39515185D01*
X64783171Y-39534219D01*
X64799023Y-39695157D01*
X64799500Y-39704861D01*
X64799500Y-100895138D01*
X64799023Y-100904842D01*
X64783171Y-101065780D01*
X64779385Y-101084814D01*
X64733860Y-101234891D01*
X64726433Y-101252821D01*
X64652502Y-101391136D01*
X64641720Y-101407273D01*
X64542228Y-101528505D01*
X64528505Y-101542228D01*
X64407273Y-101641720D01*
X64391136Y-101652502D01*
X64252821Y-101726433D01*
X64234891Y-101733860D01*
X64084814Y-101779385D01*
X64065780Y-101783171D01*
X63904843Y-101799023D01*
X63895139Y-101799500D01*
X5804861Y-101799500D01*
X5795157Y-101799023D01*
X5690145Y-101788680D01*
X5634088Y-101764160D01*
X5603149Y-101711373D01*
X5609146Y-101650483D01*
X5629846Y-101620153D01*
X5650000Y-101599999D01*
X5650000Y-101050001D01*
X5950000Y-101050001D01*
X5950000Y-101599999D01*
X5950001Y-101600000D01*
X6194697Y-101600000D01*
X6194700Y-101599999D01*
X6253036Y-101588396D01*
X6319189Y-101544193D01*
X6319193Y-101544189D01*
X6363396Y-101478036D01*
X6374999Y-101419700D01*
X6375000Y-101419697D01*
X6375000Y-101050001D01*
X6374999Y-101050000D01*
X5950001Y-101050000D01*
X5950000Y-101050001D01*
X5650000Y-101050001D01*
X5649999Y-101050000D01*
X5225001Y-101050000D01*
X5225000Y-101050001D01*
X5225000Y-101327990D01*
X5222834Y-101334655D01*
X5224066Y-101341554D01*
X5213544Y-101363246D01*
X5206093Y-101386181D01*
X5200422Y-101390300D01*
X5197365Y-101396605D01*
X5176104Y-101407969D01*
X5156593Y-101422145D01*
X5149583Y-101422145D01*
X5143404Y-101425448D01*
X5119524Y-101422145D01*
X5095407Y-101422145D01*
X5089736Y-101418024D01*
X5082796Y-101417065D01*
X5065417Y-101400356D01*
X5045907Y-101386181D01*
X5038690Y-101374659D01*
X4973566Y-101252822D01*
X4973566Y-101252821D01*
X4966139Y-101234891D01*
X4927013Y-101105908D01*
X4920613Y-101084812D01*
X4916828Y-101065780D01*
X4900977Y-100904842D01*
X4900500Y-100895138D01*
X4900500Y-100380299D01*
X5225000Y-100380299D01*
X5225000Y-100749999D01*
X5225001Y-100750000D01*
X5649999Y-100750000D01*
X5650000Y-100749999D01*
X5650000Y-100200001D01*
X5950000Y-100200001D01*
X5950000Y-100749999D01*
X5950001Y-100750000D01*
X6374999Y-100750000D01*
X6375000Y-100749999D01*
X6375000Y-100380302D01*
X6374999Y-100380299D01*
X6363396Y-100321963D01*
X6319193Y-100255810D01*
X6319189Y-100255806D01*
X6253036Y-100211603D01*
X6194700Y-100200000D01*
X5950001Y-100200000D01*
X5950000Y-100200001D01*
X5650000Y-100200001D01*
X5649999Y-100200000D01*
X5405299Y-100200000D01*
X5346963Y-100211603D01*
X5280810Y-100255806D01*
X5280806Y-100255810D01*
X5236603Y-100321963D01*
X5225000Y-100380299D01*
X4900500Y-100380299D01*
X4900500Y-95050001D01*
X5225000Y-95050001D01*
X5225000Y-95419700D01*
X5236603Y-95478036D01*
X5280806Y-95544189D01*
X5280810Y-95544193D01*
X5346963Y-95588396D01*
X5405299Y-95599999D01*
X5405303Y-95600000D01*
X5649999Y-95600000D01*
X5650000Y-95599999D01*
X5650000Y-95050001D01*
X5950000Y-95050001D01*
X5950000Y-95599999D01*
X5950001Y-95600000D01*
X6194697Y-95600000D01*
X6194700Y-95599999D01*
X6253036Y-95588396D01*
X6319189Y-95544193D01*
X6319193Y-95544189D01*
X6363396Y-95478036D01*
X6374999Y-95419700D01*
X6375000Y-95419697D01*
X6375000Y-95050001D01*
X6374999Y-95050000D01*
X5950001Y-95050000D01*
X5950000Y-95050001D01*
X5650000Y-95050001D01*
X5649999Y-95050000D01*
X5225001Y-95050000D01*
X5225000Y-95050001D01*
X4900500Y-95050001D01*
X4900500Y-94380299D01*
X5225000Y-94380299D01*
X5225000Y-94749999D01*
X5225001Y-94750000D01*
X5649999Y-94750000D01*
X5650000Y-94749999D01*
X5650000Y-94200001D01*
X5950000Y-94200001D01*
X5950000Y-94749999D01*
X5950001Y-94750000D01*
X6374999Y-94750000D01*
X6375000Y-94749999D01*
X6375000Y-94380302D01*
X6374999Y-94380299D01*
X6374990Y-94380253D01*
X8974500Y-94380253D01*
X8974500Y-95419746D01*
X8974501Y-95419758D01*
X8986132Y-95478227D01*
X8986134Y-95478233D01*
X9029535Y-95543186D01*
X9030448Y-95544552D01*
X9096769Y-95588867D01*
X9141231Y-95597711D01*
X9155241Y-95600498D01*
X9155246Y-95600498D01*
X9155252Y-95600500D01*
X9155253Y-95600500D01*
X9944747Y-95600500D01*
X9944748Y-95600500D01*
X10003231Y-95588867D01*
X10069552Y-95544552D01*
X10113867Y-95478231D01*
X10125500Y-95419748D01*
X10125500Y-94380252D01*
X10113867Y-94321769D01*
X10069552Y-94255448D01*
X10061074Y-94249783D01*
X10003233Y-94211134D01*
X10003231Y-94211133D01*
X10003228Y-94211132D01*
X10003227Y-94211132D01*
X9944758Y-94199501D01*
X9944748Y-94199500D01*
X9155252Y-94199500D01*
X9155251Y-94199500D01*
X9155241Y-94199501D01*
X9096772Y-94211132D01*
X9096766Y-94211134D01*
X9030451Y-94255445D01*
X9030445Y-94255451D01*
X8986134Y-94321766D01*
X8986132Y-94321772D01*
X8974501Y-94380241D01*
X8974500Y-94380253D01*
X6374990Y-94380253D01*
X6363396Y-94321963D01*
X6319193Y-94255810D01*
X6319189Y-94255806D01*
X6253036Y-94211603D01*
X6194700Y-94200000D01*
X5950001Y-94200000D01*
X5950000Y-94200001D01*
X5650000Y-94200001D01*
X5649999Y-94200000D01*
X5405299Y-94200000D01*
X5346963Y-94211603D01*
X5280810Y-94255806D01*
X5280806Y-94255810D01*
X5236603Y-94321963D01*
X5225000Y-94380299D01*
X4900500Y-94380299D01*
X4900500Y-87734108D01*
X5399500Y-87734108D01*
X5399500Y-87865892D01*
X5425962Y-87964651D01*
X5433609Y-87993190D01*
X5499496Y-88107309D01*
X5499498Y-88107311D01*
X5499500Y-88107314D01*
X5592686Y-88200500D01*
X5592688Y-88200501D01*
X5592690Y-88200503D01*
X5706810Y-88266390D01*
X5706808Y-88266390D01*
X5706812Y-88266391D01*
X5706814Y-88266392D01*
X5834108Y-88300500D01*
X5834110Y-88300500D01*
X5965890Y-88300500D01*
X5965892Y-88300500D01*
X6093186Y-88266392D01*
X6093188Y-88266390D01*
X6093190Y-88266390D01*
X6207309Y-88200503D01*
X6207309Y-88200502D01*
X6207314Y-88200500D01*
X6300500Y-88107314D01*
X6300503Y-88107309D01*
X6366390Y-87993190D01*
X6366390Y-87993188D01*
X6366392Y-87993186D01*
X6400500Y-87865892D01*
X6400500Y-87734108D01*
X6366392Y-87606814D01*
X6366390Y-87606811D01*
X6366390Y-87606809D01*
X6300503Y-87492690D01*
X6300501Y-87492688D01*
X6300500Y-87492686D01*
X6229494Y-87421680D01*
X6201719Y-87367166D01*
X6200500Y-87351679D01*
X6200500Y-85670000D01*
X6936123Y-85670000D01*
X7360192Y-85670000D01*
X7340444Y-85704204D01*
X7320000Y-85780504D01*
X7320000Y-85859496D01*
X7340444Y-85935796D01*
X7360192Y-85970000D01*
X6936123Y-85970000D01*
X6946901Y-86024182D01*
X6999666Y-86151571D01*
X7076271Y-86266220D01*
X7173779Y-86363728D01*
X7288428Y-86440333D01*
X7415816Y-86493098D01*
X7551055Y-86519999D01*
X7551057Y-86520000D01*
X7869999Y-86520000D01*
X7870000Y-86519999D01*
X7870000Y-86120000D01*
X8170000Y-86120000D01*
X8170000Y-86519999D01*
X8170001Y-86520000D01*
X8488943Y-86520000D01*
X8488944Y-86519999D01*
X8624183Y-86493098D01*
X8751571Y-86440333D01*
X8866220Y-86363728D01*
X8963728Y-86266220D01*
X9040333Y-86151571D01*
X9093098Y-86024182D01*
X9103877Y-85970000D01*
X8679808Y-85970000D01*
X8699556Y-85935796D01*
X8720000Y-85859496D01*
X8720000Y-85780504D01*
X8699556Y-85704204D01*
X8679808Y-85670000D01*
X9103877Y-85670000D01*
X10956123Y-85670000D01*
X11380192Y-85670000D01*
X11360444Y-85704204D01*
X11340000Y-85780504D01*
X11340000Y-85859496D01*
X11360444Y-85935796D01*
X11380192Y-85970000D01*
X10956123Y-85970000D01*
X10966901Y-86024182D01*
X11019666Y-86151571D01*
X11096271Y-86266220D01*
X11193779Y-86363728D01*
X11308428Y-86440333D01*
X11435816Y-86493098D01*
X11571055Y-86519999D01*
X11571057Y-86520000D01*
X12039999Y-86520000D01*
X12040000Y-86519999D01*
X12040000Y-86120000D01*
X12340000Y-86120000D01*
X12340000Y-86519999D01*
X12340001Y-86520000D01*
X12808943Y-86520000D01*
X12808944Y-86519999D01*
X12944183Y-86493098D01*
X13071571Y-86440333D01*
X13186220Y-86363728D01*
X13283728Y-86266220D01*
X13360333Y-86151571D01*
X13413098Y-86024182D01*
X13423877Y-85970000D01*
X12999808Y-85970000D01*
X13019556Y-85935796D01*
X13040000Y-85859496D01*
X13040000Y-85780504D01*
X13019556Y-85704204D01*
X12999808Y-85670000D01*
X13423877Y-85670000D01*
X13413098Y-85615817D01*
X13360333Y-85488428D01*
X13283728Y-85373779D01*
X13186220Y-85276271D01*
X13071571Y-85199666D01*
X12944183Y-85146901D01*
X12808944Y-85120000D01*
X12340001Y-85120000D01*
X12340000Y-85120001D01*
X12340000Y-85520000D01*
X12040000Y-85520000D01*
X12040000Y-85120001D01*
X12039999Y-85120000D01*
X11571055Y-85120000D01*
X11435816Y-85146901D01*
X11308428Y-85199666D01*
X11193779Y-85276271D01*
X11096271Y-85373779D01*
X11019666Y-85488428D01*
X10966901Y-85615817D01*
X10956123Y-85670000D01*
X9103877Y-85670000D01*
X9093098Y-85615817D01*
X9040333Y-85488428D01*
X8963728Y-85373779D01*
X8866220Y-85276271D01*
X8751571Y-85199666D01*
X8624183Y-85146901D01*
X8488944Y-85120000D01*
X8170001Y-85120000D01*
X8170000Y-85120001D01*
X8170000Y-85520000D01*
X7870000Y-85520000D01*
X7870000Y-85120001D01*
X7869999Y-85120000D01*
X7551055Y-85120000D01*
X7415816Y-85146901D01*
X7288428Y-85199666D01*
X7173779Y-85276271D01*
X7076271Y-85373779D01*
X6999666Y-85488428D01*
X6946901Y-85615817D01*
X6936123Y-85670000D01*
X6200500Y-85670000D01*
X6200500Y-77030000D01*
X6936123Y-77030000D01*
X7360192Y-77030000D01*
X7340444Y-77064204D01*
X7320000Y-77140504D01*
X7320000Y-77219496D01*
X7340444Y-77295796D01*
X7360192Y-77330000D01*
X6936123Y-77330000D01*
X6946901Y-77384182D01*
X6999666Y-77511571D01*
X7076271Y-77626220D01*
X7173779Y-77723728D01*
X7288428Y-77800333D01*
X7415816Y-77853098D01*
X7551055Y-77879999D01*
X7551057Y-77880000D01*
X7869999Y-77880000D01*
X7870000Y-77879999D01*
X7870000Y-77480000D01*
X8170000Y-77480000D01*
X8170000Y-77879999D01*
X8170001Y-77880000D01*
X8488943Y-77880000D01*
X8488944Y-77879999D01*
X8624183Y-77853098D01*
X8751571Y-77800333D01*
X8866220Y-77723728D01*
X8963728Y-77626220D01*
X9040333Y-77511571D01*
X9093098Y-77384182D01*
X9103877Y-77330000D01*
X8679808Y-77330000D01*
X8699556Y-77295796D01*
X8720000Y-77219496D01*
X8720000Y-77140504D01*
X8699556Y-77064204D01*
X8679808Y-77030000D01*
X9103877Y-77030000D01*
X10956123Y-77030000D01*
X11380192Y-77030000D01*
X11360444Y-77064204D01*
X11340000Y-77140504D01*
X11340000Y-77219496D01*
X11360444Y-77295796D01*
X11380192Y-77330000D01*
X10956123Y-77330000D01*
X10966901Y-77384182D01*
X11019666Y-77511571D01*
X11096271Y-77626220D01*
X11193779Y-77723728D01*
X11308428Y-77800333D01*
X11435816Y-77853098D01*
X11571055Y-77879999D01*
X11571057Y-77880000D01*
X12039999Y-77880000D01*
X12040000Y-77879999D01*
X12040000Y-77480000D01*
X12340000Y-77480000D01*
X12340000Y-77879999D01*
X12340001Y-77880000D01*
X12808943Y-77880000D01*
X12808944Y-77879999D01*
X12944183Y-77853098D01*
X13071571Y-77800333D01*
X13186220Y-77723728D01*
X13283728Y-77626220D01*
X13360333Y-77511571D01*
X13413098Y-77384182D01*
X13423877Y-77330000D01*
X12999808Y-77330000D01*
X13019556Y-77295796D01*
X13040000Y-77219496D01*
X13040000Y-77140504D01*
X13019556Y-77064204D01*
X12999808Y-77030000D01*
X13423877Y-77030000D01*
X13413098Y-76975817D01*
X13360333Y-76848428D01*
X13283728Y-76733779D01*
X13186220Y-76636271D01*
X13071571Y-76559666D01*
X12944183Y-76506901D01*
X12808944Y-76480000D01*
X12340001Y-76480000D01*
X12340000Y-76480001D01*
X12340000Y-76880000D01*
X12040000Y-76880000D01*
X12040000Y-76480001D01*
X12039999Y-76480000D01*
X11571055Y-76480000D01*
X11435816Y-76506901D01*
X11308428Y-76559666D01*
X11193779Y-76636271D01*
X11096271Y-76733779D01*
X11019666Y-76848428D01*
X10966901Y-76975817D01*
X10956123Y-77030000D01*
X9103877Y-77030000D01*
X9093098Y-76975817D01*
X9040333Y-76848428D01*
X8963728Y-76733779D01*
X8866220Y-76636271D01*
X8751571Y-76559666D01*
X8624183Y-76506901D01*
X8488944Y-76480000D01*
X8170001Y-76480000D01*
X8170000Y-76480001D01*
X8170000Y-76880000D01*
X7870000Y-76880000D01*
X7870000Y-76480001D01*
X7869999Y-76480000D01*
X7551055Y-76480000D01*
X7415816Y-76506901D01*
X7288428Y-76559666D01*
X7173779Y-76636271D01*
X7076271Y-76733779D01*
X6999666Y-76848428D01*
X6946901Y-76975817D01*
X6936123Y-77030000D01*
X6200500Y-77030000D01*
X6200500Y-73726128D01*
X13450000Y-73726128D01*
X13450000Y-73873871D01*
X13478821Y-74018764D01*
X13478823Y-74018770D01*
X13535358Y-74155256D01*
X13574311Y-74213554D01*
X13869397Y-73918469D01*
X13873852Y-73935095D01*
X13919930Y-74014905D01*
X13985095Y-74080070D01*
X14064905Y-74126148D01*
X14081528Y-74130602D01*
X13786443Y-74425686D01*
X13844742Y-74464641D01*
X13981229Y-74521176D01*
X13981235Y-74521178D01*
X14126128Y-74549999D01*
X14126132Y-74550000D01*
X14273868Y-74550000D01*
X14273871Y-74549999D01*
X14418764Y-74521178D01*
X14418770Y-74521176D01*
X14555255Y-74464642D01*
X14613554Y-74425687D01*
X14318469Y-74130602D01*
X14335095Y-74126148D01*
X14414905Y-74080070D01*
X14480070Y-74014905D01*
X14526148Y-73935095D01*
X14530602Y-73918469D01*
X14825687Y-74213554D01*
X14864642Y-74155255D01*
X14921176Y-74018770D01*
X14921178Y-74018764D01*
X14949999Y-73873871D01*
X14950000Y-73873867D01*
X14950000Y-73726132D01*
X14949999Y-73726128D01*
X14921178Y-73581235D01*
X14921176Y-73581229D01*
X14864641Y-73444742D01*
X14825686Y-73386443D01*
X14530602Y-73681528D01*
X14526148Y-73664905D01*
X14480070Y-73585095D01*
X14414905Y-73519930D01*
X14335095Y-73473852D01*
X14318469Y-73469397D01*
X14613555Y-73174312D01*
X14555256Y-73135358D01*
X14418770Y-73078823D01*
X14418764Y-73078821D01*
X14273871Y-73050000D01*
X14126128Y-73050000D01*
X13981235Y-73078821D01*
X13981229Y-73078823D01*
X13844742Y-73135358D01*
X13786444Y-73174311D01*
X14081530Y-73469397D01*
X14064905Y-73473852D01*
X13985095Y-73519930D01*
X13919930Y-73585095D01*
X13873852Y-73664905D01*
X13869397Y-73681530D01*
X13574311Y-73386444D01*
X13535358Y-73444742D01*
X13478823Y-73581229D01*
X13478821Y-73581235D01*
X13450000Y-73726128D01*
X6200500Y-73726128D01*
X6200500Y-71265478D01*
X6219407Y-71207287D01*
X6229490Y-71195480D01*
X7195474Y-70229495D01*
X7249991Y-70201719D01*
X7265478Y-70200500D01*
X7365890Y-70200500D01*
X7365892Y-70200500D01*
X7493186Y-70166392D01*
X7493188Y-70166390D01*
X7493190Y-70166390D01*
X7607309Y-70100503D01*
X7607309Y-70100502D01*
X7607314Y-70100500D01*
X7700500Y-70007314D01*
X7766392Y-69893186D01*
X7800500Y-69765892D01*
X7800500Y-69634108D01*
X7766392Y-69506814D01*
X7766390Y-69506811D01*
X7766390Y-69506809D01*
X7700503Y-69392690D01*
X7700501Y-69392688D01*
X7700500Y-69392686D01*
X7607314Y-69299500D01*
X7607311Y-69299498D01*
X7607309Y-69299496D01*
X7493189Y-69233609D01*
X7493191Y-69233609D01*
X7443799Y-69220375D01*
X7365892Y-69199500D01*
X7234108Y-69199500D01*
X7156200Y-69220375D01*
X7106809Y-69233609D01*
X6992690Y-69299496D01*
X6899496Y-69392690D01*
X6833609Y-69506809D01*
X6823248Y-69545479D01*
X6803692Y-69618465D01*
X6799500Y-69634109D01*
X6799500Y-69734520D01*
X6780593Y-69792711D01*
X6770504Y-69804524D01*
X5715489Y-70859540D01*
X5715488Y-70859539D01*
X5659539Y-70915489D01*
X5619980Y-70984007D01*
X5619978Y-70984011D01*
X5599500Y-71060435D01*
X5599500Y-87351679D01*
X5580593Y-87409870D01*
X5570509Y-87421676D01*
X5508966Y-87483220D01*
X5499497Y-87492689D01*
X5499496Y-87492690D01*
X5433609Y-87606809D01*
X5431908Y-87613158D01*
X5399500Y-87734108D01*
X4900500Y-87734108D01*
X4900500Y-62234108D01*
X5399500Y-62234108D01*
X5399500Y-62365892D01*
X5429579Y-62478151D01*
X5433609Y-62493190D01*
X5499496Y-62607309D01*
X5499498Y-62607311D01*
X5499500Y-62607314D01*
X5592686Y-62700500D01*
X5592688Y-62700501D01*
X5592690Y-62700503D01*
X5706810Y-62766390D01*
X5706808Y-62766390D01*
X5706812Y-62766391D01*
X5706814Y-62766392D01*
X5834108Y-62800500D01*
X5834110Y-62800500D01*
X5965890Y-62800500D01*
X5965892Y-62800500D01*
X6093186Y-62766392D01*
X6093188Y-62766390D01*
X6093190Y-62766390D01*
X6207309Y-62700503D01*
X6207309Y-62700502D01*
X6207314Y-62700500D01*
X6300500Y-62607314D01*
X6304645Y-62600135D01*
X6366390Y-62493190D01*
X6366390Y-62493188D01*
X6366392Y-62493186D01*
X6400500Y-62365892D01*
X6400500Y-62299500D01*
X6419407Y-62241309D01*
X6468907Y-62205345D01*
X6499500Y-62200500D01*
X11551679Y-62200500D01*
X11609870Y-62219407D01*
X11621676Y-62229490D01*
X11692686Y-62300500D01*
X11692688Y-62300501D01*
X11692690Y-62300503D01*
X11806810Y-62366390D01*
X11806808Y-62366390D01*
X11806812Y-62366391D01*
X11806814Y-62366392D01*
X11934108Y-62400500D01*
X11934110Y-62400500D01*
X12065890Y-62400500D01*
X12065892Y-62400500D01*
X12193186Y-62366392D01*
X12193188Y-62366390D01*
X12193190Y-62366390D01*
X12307309Y-62300503D01*
X12307309Y-62300502D01*
X12307314Y-62300500D01*
X12400500Y-62207314D01*
X12466392Y-62093186D01*
X12500500Y-61965892D01*
X12500500Y-61834108D01*
X12466392Y-61706814D01*
X12466390Y-61706811D01*
X12466390Y-61706809D01*
X12400503Y-61592690D01*
X12400501Y-61592688D01*
X12400500Y-61592686D01*
X12307314Y-61499500D01*
X12307311Y-61499498D01*
X12307309Y-61499496D01*
X12193189Y-61433609D01*
X12193191Y-61433609D01*
X12143799Y-61420375D01*
X12065892Y-61399500D01*
X11934108Y-61399500D01*
X11856200Y-61420375D01*
X11806809Y-61433609D01*
X11692690Y-61499496D01*
X11692689Y-61499497D01*
X11692686Y-61499499D01*
X11692686Y-61499500D01*
X11621680Y-61570505D01*
X11567166Y-61598281D01*
X11551679Y-61599500D01*
X6260435Y-61599500D01*
X6184012Y-61619978D01*
X6129188Y-61651631D01*
X6129187Y-61651630D01*
X6115489Y-61659539D01*
X6004524Y-61770504D01*
X5950008Y-61798281D01*
X5934521Y-61799500D01*
X5834108Y-61799500D01*
X5756200Y-61820375D01*
X5706809Y-61833609D01*
X5592690Y-61899496D01*
X5499496Y-61992690D01*
X5433609Y-62106809D01*
X5433608Y-62106814D01*
X5399500Y-62234108D01*
X4900500Y-62234108D01*
X4900500Y-58251532D01*
X12849500Y-58251532D01*
X12849500Y-58458467D01*
X12889869Y-58661418D01*
X12969058Y-58852597D01*
X13071815Y-59006385D01*
X13084023Y-59024655D01*
X13230345Y-59170977D01*
X13402402Y-59285941D01*
X13593580Y-59365130D01*
X13796535Y-59405500D01*
X13796536Y-59405500D01*
X14003464Y-59405500D01*
X14003465Y-59405500D01*
X14206420Y-59365130D01*
X14397598Y-59285941D01*
X14569655Y-59170977D01*
X14715977Y-59024655D01*
X14830941Y-58852598D01*
X14910130Y-58661420D01*
X14950500Y-58458465D01*
X14950500Y-58251535D01*
X14910130Y-58048580D01*
X14830941Y-57857402D01*
X14715977Y-57685345D01*
X14569655Y-57539023D01*
X14569651Y-57539020D01*
X14397597Y-57424058D01*
X14206418Y-57344869D01*
X14003467Y-57304500D01*
X14003465Y-57304500D01*
X13796535Y-57304500D01*
X13796532Y-57304500D01*
X13593581Y-57344869D01*
X13402402Y-57424058D01*
X13230348Y-57539020D01*
X13084020Y-57685348D01*
X12969058Y-57857402D01*
X12889869Y-58048581D01*
X12849500Y-58251532D01*
X4900500Y-58251532D01*
X4900500Y-55711532D01*
X12849500Y-55711532D01*
X12849500Y-55918467D01*
X12889869Y-56121418D01*
X12969058Y-56312597D01*
X13084020Y-56484651D01*
X13084023Y-56484655D01*
X13230345Y-56630977D01*
X13402402Y-56745941D01*
X13593580Y-56825130D01*
X13796535Y-56865500D01*
X13796536Y-56865500D01*
X14003464Y-56865500D01*
X14003465Y-56865500D01*
X14206420Y-56825130D01*
X14397598Y-56745941D01*
X14569655Y-56630977D01*
X14715977Y-56484655D01*
X14830941Y-56312598D01*
X14910130Y-56121420D01*
X14950500Y-55918465D01*
X14950500Y-55711535D01*
X14910130Y-55508580D01*
X14830941Y-55317402D01*
X14715977Y-55145345D01*
X14569655Y-54999023D01*
X14521635Y-54966937D01*
X14397597Y-54884058D01*
X14206418Y-54804869D01*
X14003467Y-54764500D01*
X14003465Y-54764500D01*
X13796535Y-54764500D01*
X13796532Y-54764500D01*
X13593581Y-54804869D01*
X13402402Y-54884058D01*
X13230348Y-54999020D01*
X13084020Y-55145348D01*
X12969058Y-55317402D01*
X12889869Y-55508581D01*
X12849500Y-55711532D01*
X4900500Y-55711532D01*
X4900500Y-39704861D01*
X4900977Y-39695157D01*
X4916828Y-39534219D01*
X4920614Y-39515185D01*
X4953209Y-39407735D01*
X4966139Y-39365106D01*
X4973566Y-39347178D01*
X5047497Y-39208863D01*
X5058274Y-39192732D01*
X5157774Y-39071490D01*
X5171490Y-39057774D01*
X5292732Y-38958274D01*
X5308863Y-38947497D01*
X5447178Y-38873566D01*
X5465106Y-38866139D01*
X5615189Y-38820613D01*
X5634215Y-38816828D01*
X5795157Y-38800976D01*
X5804861Y-38800500D01*
X5847595Y-38800500D01*
X23200500Y-38800500D01*
X23258691Y-38819407D01*
G37*
G04 #@! TD.AperFunction*
G04 #@! TA.AperFunction,Conductor*
G36*
X24365743Y-71013757D02*
G01*
X24396336Y-71066744D01*
X24398500Y-71087329D01*
X24398500Y-72867995D01*
X24425420Y-73003326D01*
X24425420Y-73003328D01*
X24478223Y-73130807D01*
X24532857Y-73212574D01*
X24554886Y-73245542D01*
X29250928Y-77941585D01*
X29365660Y-78018246D01*
X29493143Y-78071051D01*
X29628477Y-78097971D01*
X29628478Y-78097971D01*
X31166306Y-78097971D01*
X31224497Y-78116878D01*
X31236310Y-78126967D01*
X32500667Y-79391324D01*
X32528444Y-79445841D01*
X32518873Y-79506273D01*
X32475608Y-79549538D01*
X32456287Y-79556954D01*
X32425436Y-79565221D01*
X32356809Y-79583609D01*
X32242690Y-79649496D01*
X32149496Y-79742690D01*
X32083609Y-79856809D01*
X32066470Y-79920775D01*
X32049500Y-79984108D01*
X32049500Y-80115892D01*
X32079579Y-80228151D01*
X32083609Y-80243190D01*
X32149496Y-80357309D01*
X32149498Y-80357311D01*
X32149500Y-80357314D01*
X32242686Y-80450500D01*
X32242688Y-80450501D01*
X32242690Y-80450503D01*
X32356810Y-80516390D01*
X32356808Y-80516390D01*
X32356812Y-80516391D01*
X32356814Y-80516392D01*
X32484108Y-80550500D01*
X32484110Y-80550500D01*
X32584521Y-80550500D01*
X32642712Y-80569407D01*
X32654525Y-80579496D01*
X34070504Y-81995475D01*
X34098281Y-82049992D01*
X34099500Y-82065479D01*
X34099500Y-83339564D01*
X34119978Y-83415987D01*
X34119979Y-83415989D01*
X34154811Y-83476320D01*
X34159540Y-83484511D01*
X34370505Y-83695476D01*
X34398281Y-83749991D01*
X34399500Y-83765478D01*
X34399500Y-83865892D01*
X34424833Y-83960438D01*
X34433609Y-83993190D01*
X34499496Y-84107309D01*
X34499498Y-84107311D01*
X34499500Y-84107314D01*
X34592686Y-84200500D01*
X34592688Y-84200501D01*
X34592690Y-84200503D01*
X34706810Y-84266390D01*
X34706808Y-84266390D01*
X34706812Y-84266391D01*
X34706814Y-84266392D01*
X34834108Y-84300500D01*
X34834110Y-84300500D01*
X34965890Y-84300500D01*
X34965892Y-84300500D01*
X35093186Y-84266392D01*
X35093188Y-84266390D01*
X35093190Y-84266390D01*
X35207309Y-84200503D01*
X35207309Y-84200502D01*
X35207314Y-84200500D01*
X35300500Y-84107314D01*
X35312996Y-84085670D01*
X35366390Y-83993190D01*
X35366390Y-83993188D01*
X35366392Y-83993186D01*
X35400500Y-83865892D01*
X35400500Y-83734108D01*
X35366392Y-83606814D01*
X35366390Y-83606811D01*
X35366390Y-83606809D01*
X35300503Y-83492690D01*
X35300501Y-83492688D01*
X35300500Y-83492686D01*
X35207314Y-83399500D01*
X35207311Y-83399498D01*
X35207309Y-83399496D01*
X35093189Y-83333609D01*
X35093191Y-83333609D01*
X35043799Y-83320375D01*
X34965892Y-83299500D01*
X34865479Y-83299500D01*
X34857881Y-83297031D01*
X34849992Y-83298281D01*
X34829336Y-83287756D01*
X34807288Y-83280593D01*
X34795475Y-83270504D01*
X34729496Y-83204525D01*
X34701719Y-83150008D01*
X34700500Y-83134521D01*
X34700500Y-81860437D01*
X34700499Y-81860435D01*
X34680021Y-81784011D01*
X34680019Y-81784007D01*
X34640460Y-81715489D01*
X34584511Y-81659539D01*
X34584511Y-81659540D01*
X33079496Y-80154525D01*
X33075869Y-80147407D01*
X33069407Y-80142712D01*
X33062243Y-80120663D01*
X33051719Y-80100008D01*
X33050500Y-80084521D01*
X33050500Y-80061612D01*
X33069407Y-80003421D01*
X33118907Y-79967457D01*
X33180093Y-79967457D01*
X33187374Y-79970143D01*
X33195671Y-79973580D01*
X33205320Y-79975499D01*
X33205323Y-79975501D01*
X33205324Y-79975500D01*
X33331007Y-80000500D01*
X36268836Y-80000500D01*
X36327027Y-80019407D01*
X36338840Y-80029496D01*
X36553458Y-80244114D01*
X36668182Y-80320771D01*
X36668186Y-80320773D01*
X36668189Y-80320775D01*
X36723364Y-80343629D01*
X36795671Y-80373580D01*
X36822591Y-80378934D01*
X36931007Y-80400500D01*
X36931008Y-80400500D01*
X37868992Y-80400500D01*
X37868993Y-80400500D01*
X38004328Y-80373580D01*
X38131811Y-80320775D01*
X38246542Y-80244114D01*
X38344114Y-80146542D01*
X38420775Y-80031811D01*
X38473580Y-79904328D01*
X38500500Y-79768993D01*
X38500500Y-78931007D01*
X38473580Y-78795672D01*
X38420775Y-78668189D01*
X38420774Y-78668187D01*
X38420770Y-78668180D01*
X38411631Y-78654503D01*
X38407890Y-78641242D01*
X38399790Y-78630093D01*
X38399790Y-78612522D01*
X38395021Y-78595615D01*
X38399790Y-78582687D01*
X38399790Y-78568907D01*
X38410116Y-78554693D01*
X38416197Y-78538211D01*
X38427654Y-78530554D01*
X38435754Y-78519407D01*
X38452461Y-78513978D01*
X38467070Y-78504217D01*
X38493945Y-78500500D01*
X38634521Y-78500500D01*
X38692712Y-78519407D01*
X38704525Y-78529496D01*
X42134822Y-81959793D01*
X42162599Y-82014310D01*
X42161916Y-82049110D01*
X42149500Y-82111530D01*
X42149500Y-82318467D01*
X42189869Y-82521418D01*
X42269058Y-82712597D01*
X42384020Y-82884651D01*
X42384023Y-82884655D01*
X42530345Y-83030977D01*
X42702402Y-83145941D01*
X42893580Y-83225130D01*
X43096535Y-83265500D01*
X43096536Y-83265500D01*
X43303464Y-83265500D01*
X43303465Y-83265500D01*
X43506420Y-83225130D01*
X43697598Y-83145941D01*
X43869655Y-83030977D01*
X44015977Y-82884655D01*
X44117185Y-82733184D01*
X44165234Y-82695306D01*
X44226372Y-82692904D01*
X44277246Y-82726896D01*
X44298424Y-82784300D01*
X44298500Y-82788187D01*
X44298500Y-84182710D01*
X44279593Y-84240901D01*
X44230093Y-84276865D01*
X44168907Y-84276865D01*
X44119407Y-84240901D01*
X44117185Y-84237712D01*
X44015592Y-84085668D01*
X43869329Y-83939405D01*
X43697374Y-83824508D01*
X43697360Y-83824501D01*
X43506277Y-83745351D01*
X43506271Y-83745349D01*
X43350000Y-83714264D01*
X43350000Y-84277554D01*
X43265826Y-84255000D01*
X43134174Y-84255000D01*
X43050000Y-84277554D01*
X43050000Y-83714264D01*
X42893728Y-83745349D01*
X42893722Y-83745351D01*
X42702639Y-83824501D01*
X42702625Y-83824508D01*
X42530670Y-83939405D01*
X42384405Y-84085670D01*
X42269508Y-84257625D01*
X42269501Y-84257639D01*
X42190349Y-84448728D01*
X42159266Y-84604999D01*
X42159267Y-84605000D01*
X42722555Y-84605000D01*
X42700000Y-84689174D01*
X42700000Y-84820826D01*
X42722555Y-84905000D01*
X42159266Y-84905000D01*
X42190349Y-85061271D01*
X42269501Y-85252360D01*
X42269508Y-85252374D01*
X42384405Y-85424329D01*
X42530670Y-85570594D01*
X42702625Y-85685491D01*
X42702639Y-85685498D01*
X42893728Y-85764650D01*
X42893727Y-85764650D01*
X43049999Y-85795733D01*
X43050000Y-85795733D01*
X43050000Y-85232445D01*
X43134174Y-85255000D01*
X43265826Y-85255000D01*
X43350000Y-85232445D01*
X43350000Y-85795733D01*
X43506271Y-85764650D01*
X43697360Y-85685498D01*
X43697374Y-85685491D01*
X43869329Y-85570594D01*
X44015591Y-85424332D01*
X44117184Y-85272288D01*
X44165234Y-85234408D01*
X44226372Y-85232006D01*
X44277246Y-85265999D01*
X44298424Y-85323402D01*
X44298500Y-85327289D01*
X44298500Y-86721812D01*
X44279593Y-86780003D01*
X44230093Y-86815967D01*
X44168907Y-86815967D01*
X44119407Y-86780003D01*
X44117184Y-86776813D01*
X44015979Y-86625348D01*
X44015977Y-86625345D01*
X43869655Y-86479023D01*
X43869651Y-86479020D01*
X43697597Y-86364058D01*
X43506418Y-86284869D01*
X43303467Y-86244500D01*
X43303465Y-86244500D01*
X43096535Y-86244500D01*
X43096532Y-86244500D01*
X42893581Y-86284869D01*
X42702402Y-86364058D01*
X42530348Y-86479020D01*
X42384020Y-86625348D01*
X42269058Y-86797402D01*
X42212732Y-86933386D01*
X42172995Y-86979912D01*
X42121268Y-86994500D01*
X41265435Y-86994500D01*
X41189011Y-87014978D01*
X41189007Y-87014980D01*
X41120491Y-87054538D01*
X38004525Y-90170504D01*
X37950008Y-90198281D01*
X37934521Y-90199500D01*
X29860435Y-90199500D01*
X29784012Y-90219978D01*
X29734140Y-90248772D01*
X29734139Y-90248771D01*
X29715491Y-90259538D01*
X28303810Y-91671218D01*
X28249293Y-91698995D01*
X28188861Y-91689424D01*
X28145596Y-91646159D01*
X28136025Y-91585727D01*
X28148069Y-91551715D01*
X28159577Y-91531784D01*
X28200500Y-91379057D01*
X28200500Y-91220943D01*
X28159577Y-91068216D01*
X28080520Y-90931284D01*
X27968716Y-90819480D01*
X27831784Y-90740423D01*
X27679057Y-90699500D01*
X27679055Y-90699500D01*
X27677612Y-90699500D01*
X27676628Y-90699180D01*
X27672623Y-90698653D01*
X27672720Y-90697910D01*
X27619421Y-90680593D01*
X27607608Y-90670504D01*
X27135385Y-90198281D01*
X25676614Y-88739511D01*
X25676611Y-88739509D01*
X25676610Y-88739508D01*
X25676609Y-88739507D01*
X25573890Y-88680202D01*
X25573886Y-88680200D01*
X25549673Y-88673712D01*
X25549673Y-88673713D01*
X25459309Y-88649500D01*
X25459307Y-88649500D01*
X22367611Y-88649500D01*
X22309420Y-88630593D01*
X22297607Y-88620504D01*
X21491144Y-87814041D01*
X21463367Y-87759524D01*
X21472938Y-87699092D01*
X21516203Y-87655827D01*
X21529807Y-87650129D01*
X21543677Y-87645500D01*
X21551144Y-87645500D01*
X21640288Y-87621614D01*
X21665922Y-87606814D01*
X21720212Y-87575470D01*
X22080470Y-87215212D01*
X22126614Y-87135288D01*
X22141485Y-87079788D01*
X22150500Y-87046144D01*
X22150500Y-76204263D01*
X22152969Y-76196661D01*
X22151720Y-76188766D01*
X22162244Y-76168116D01*
X22169407Y-76146072D01*
X22179500Y-76134255D01*
X22184268Y-76129489D01*
X22238787Y-76101717D01*
X22254264Y-76100500D01*
X22397130Y-76100500D01*
X22397132Y-76100500D01*
X22549859Y-76059577D01*
X22686791Y-75980520D01*
X22798595Y-75868716D01*
X22877652Y-75731784D01*
X22918575Y-75579057D01*
X22918575Y-75420943D01*
X22877652Y-75268216D01*
X22798595Y-75131284D01*
X22686791Y-75019480D01*
X22549859Y-74940423D01*
X22397132Y-74899500D01*
X22239018Y-74899500D01*
X22239016Y-74899500D01*
X22232587Y-74900347D01*
X22232413Y-74899029D01*
X22218741Y-74898310D01*
X22198309Y-74901546D01*
X22188873Y-74896738D01*
X22178298Y-74896182D01*
X22143792Y-74873769D01*
X22079496Y-74809473D01*
X22051719Y-74754956D01*
X22050500Y-74739469D01*
X22050500Y-74513507D01*
X22069407Y-74455316D01*
X22118907Y-74419352D01*
X22175120Y-74417880D01*
X22284108Y-74447083D01*
X22284110Y-74447083D01*
X22415890Y-74447083D01*
X22415892Y-74447083D01*
X22543186Y-74412975D01*
X22543188Y-74412973D01*
X22543190Y-74412973D01*
X22657309Y-74347086D01*
X22657309Y-74347085D01*
X22657314Y-74347083D01*
X22750500Y-74253897D01*
X22807451Y-74155255D01*
X22816390Y-74139773D01*
X22816390Y-74139771D01*
X22816392Y-74139769D01*
X22850500Y-74012475D01*
X22850500Y-73912061D01*
X22869407Y-73853870D01*
X22879496Y-73842057D01*
X23140324Y-73581229D01*
X23440460Y-73281094D01*
X23477471Y-73216988D01*
X23480021Y-73212572D01*
X23500500Y-73136145D01*
X23500500Y-71533226D01*
X23519407Y-71475035D01*
X23529484Y-71463235D01*
X23912224Y-71080494D01*
X23966739Y-71052719D01*
X23982226Y-71051500D01*
X24095339Y-71051500D01*
X24095341Y-71051500D01*
X24222635Y-71017392D01*
X24249999Y-71001592D01*
X24309847Y-70988871D01*
X24365743Y-71013757D01*
G37*
G04 #@! TD.AperFunction*
G04 #@! TA.AperFunction,Conductor*
G36*
X17218504Y-68814186D02*
G01*
X17480561Y-69076244D01*
X17508338Y-69130760D01*
X17502022Y-69184129D01*
X17486028Y-69222743D01*
X17486027Y-69222749D01*
X17449500Y-69406381D01*
X17449500Y-69593618D01*
X17486026Y-69777249D01*
X17557677Y-69950229D01*
X17557681Y-69950238D01*
X17632065Y-70061559D01*
X17661698Y-70105908D01*
X17794092Y-70238302D01*
X17860463Y-70282649D01*
X17949761Y-70342318D01*
X17949767Y-70342320D01*
X17949769Y-70342322D01*
X18122749Y-70413973D01*
X18306384Y-70450500D01*
X18306385Y-70450500D01*
X18493615Y-70450500D01*
X18493616Y-70450500D01*
X18677251Y-70413973D01*
X18850231Y-70342322D01*
X18850234Y-70342319D01*
X18850238Y-70342318D01*
X18895187Y-70312282D01*
X19005908Y-70238302D01*
X19014714Y-70229496D01*
X19069231Y-70201719D01*
X19084718Y-70200500D01*
X19508860Y-70200500D01*
X19567051Y-70219407D01*
X19578863Y-70229496D01*
X19680345Y-70330977D01*
X19852402Y-70445941D01*
X20043580Y-70525130D01*
X20246535Y-70565500D01*
X20246536Y-70565500D01*
X20453464Y-70565500D01*
X20453465Y-70565500D01*
X20656420Y-70525130D01*
X20742403Y-70489513D01*
X20803400Y-70484713D01*
X20850293Y-70510974D01*
X21320504Y-70981185D01*
X21348281Y-71035702D01*
X21349500Y-71051189D01*
X21349500Y-71334546D01*
X21330593Y-71392737D01*
X21281093Y-71428701D01*
X21219907Y-71428701D01*
X21170407Y-71392737D01*
X21168186Y-71389550D01*
X21165591Y-71385667D01*
X21019329Y-71239405D01*
X20847374Y-71124508D01*
X20847360Y-71124501D01*
X20656277Y-71045351D01*
X20656271Y-71045349D01*
X20500000Y-71014264D01*
X20500000Y-71577554D01*
X20415826Y-71555000D01*
X20284174Y-71555000D01*
X20200000Y-71577554D01*
X20200000Y-71014264D01*
X20043728Y-71045349D01*
X20043722Y-71045351D01*
X19852639Y-71124501D01*
X19852625Y-71124508D01*
X19680670Y-71239405D01*
X19534405Y-71385670D01*
X19419508Y-71557625D01*
X19419501Y-71557639D01*
X19340349Y-71748728D01*
X19309266Y-71904999D01*
X19309267Y-71905000D01*
X19872555Y-71905000D01*
X19850000Y-71989174D01*
X19850000Y-72120826D01*
X19872555Y-72205000D01*
X19309266Y-72205000D01*
X19340349Y-72361271D01*
X19419501Y-72552360D01*
X19419508Y-72552374D01*
X19534405Y-72724329D01*
X19680670Y-72870594D01*
X19852625Y-72985491D01*
X19852639Y-72985498D01*
X20043728Y-73064650D01*
X20043727Y-73064650D01*
X20199999Y-73095733D01*
X20200000Y-73095733D01*
X20200000Y-72532445D01*
X20284174Y-72555000D01*
X20415826Y-72555000D01*
X20500000Y-72532445D01*
X20500000Y-73095733D01*
X20656271Y-73064650D01*
X20847360Y-72985498D01*
X20847374Y-72985491D01*
X21019329Y-72870594D01*
X21165591Y-72724332D01*
X21168183Y-72720454D01*
X21216232Y-72682573D01*
X21277370Y-72680169D01*
X21328245Y-72714161D01*
X21349424Y-72771564D01*
X21349500Y-72775453D01*
X21349500Y-73873646D01*
X21330593Y-73931837D01*
X21281093Y-73967801D01*
X21219907Y-73967801D01*
X21170407Y-73931837D01*
X21168187Y-73928652D01*
X21165979Y-73925348D01*
X21165977Y-73925345D01*
X21019655Y-73779023D01*
X21019651Y-73779020D01*
X20847597Y-73664058D01*
X20656418Y-73584869D01*
X20453467Y-73544500D01*
X20453465Y-73544500D01*
X20246535Y-73544500D01*
X20246532Y-73544500D01*
X20043580Y-73584870D01*
X20043578Y-73584870D01*
X19907596Y-73641196D01*
X19846600Y-73645997D01*
X19799707Y-73619736D01*
X17078496Y-70898525D01*
X17050719Y-70844008D01*
X17049500Y-70828521D01*
X17049500Y-68884189D01*
X17068407Y-68825998D01*
X17117907Y-68790034D01*
X17179093Y-68790034D01*
X17218504Y-68814186D01*
G37*
G04 #@! TD.AperFunction*
G04 #@! TA.AperFunction,Conductor*
G36*
X17869501Y-62865183D02*
G01*
X19270505Y-64266187D01*
X19298281Y-64320702D01*
X19299500Y-64336189D01*
X19299500Y-64538467D01*
X19339869Y-64741418D01*
X19419058Y-64932597D01*
X19533844Y-65104387D01*
X19534023Y-65104655D01*
X19680345Y-65250977D01*
X19852402Y-65365941D01*
X20043580Y-65445130D01*
X20246535Y-65485500D01*
X20368835Y-65485500D01*
X20427026Y-65504407D01*
X20438838Y-65514496D01*
X20716879Y-65792536D01*
X20744657Y-65847053D01*
X20735086Y-65907485D01*
X20691821Y-65950750D01*
X20631389Y-65960321D01*
X20627562Y-65959638D01*
X20500000Y-65934264D01*
X20500000Y-66497554D01*
X20415826Y-66475000D01*
X20284174Y-66475000D01*
X20200000Y-66497554D01*
X20200000Y-65934264D01*
X20043728Y-65965349D01*
X20043722Y-65965351D01*
X19852639Y-66044501D01*
X19852625Y-66044508D01*
X19680670Y-66159405D01*
X19534405Y-66305670D01*
X19419508Y-66477625D01*
X19419501Y-66477639D01*
X19340349Y-66668728D01*
X19309266Y-66824999D01*
X19309267Y-66825000D01*
X19872555Y-66825000D01*
X19850000Y-66909174D01*
X19850000Y-67040826D01*
X19872555Y-67125000D01*
X19309266Y-67125000D01*
X19340349Y-67281271D01*
X19419501Y-67472360D01*
X19419508Y-67472374D01*
X19534405Y-67644329D01*
X19680670Y-67790594D01*
X19852625Y-67905491D01*
X19852639Y-67905498D01*
X20043728Y-67984650D01*
X20043727Y-67984650D01*
X20199999Y-68015733D01*
X20200000Y-68015733D01*
X20200000Y-67452445D01*
X20284174Y-67475000D01*
X20415826Y-67475000D01*
X20500000Y-67452445D01*
X20500000Y-68015733D01*
X20656271Y-67984650D01*
X20847360Y-67905498D01*
X20847374Y-67905491D01*
X21019329Y-67790594D01*
X21165594Y-67644329D01*
X21280491Y-67472374D01*
X21280498Y-67472360D01*
X21359650Y-67281271D01*
X21390734Y-67125000D01*
X20827445Y-67125000D01*
X20850000Y-67040826D01*
X20850000Y-66909174D01*
X20827445Y-66825000D01*
X21390733Y-66825000D01*
X21365360Y-66697437D01*
X21372552Y-66636675D01*
X21414085Y-66591746D01*
X21474095Y-66579809D01*
X21529660Y-66605425D01*
X21532462Y-66608119D01*
X24369504Y-69445160D01*
X24397281Y-69499677D01*
X24398500Y-69515164D01*
X24398500Y-70014670D01*
X24379593Y-70072861D01*
X24330093Y-70108825D01*
X24268907Y-70108825D01*
X24250001Y-70100407D01*
X24222638Y-70084609D01*
X24222635Y-70084608D01*
X24095341Y-70050500D01*
X23963557Y-70050500D01*
X23885649Y-70071375D01*
X23836258Y-70084609D01*
X23722139Y-70150496D01*
X23628945Y-70243690D01*
X23563058Y-70357809D01*
X23543988Y-70428978D01*
X23534552Y-70464199D01*
X23528949Y-70485109D01*
X23528949Y-70572821D01*
X23510042Y-70631012D01*
X23499953Y-70642825D01*
X23015489Y-71127289D01*
X23015488Y-71127288D01*
X22959539Y-71183238D01*
X22919980Y-71251756D01*
X22919978Y-71251760D01*
X22899500Y-71328184D01*
X22899500Y-72931104D01*
X22880593Y-72989295D01*
X22870504Y-73001107D01*
X22454523Y-73417087D01*
X22400008Y-73444864D01*
X22384521Y-73446083D01*
X22284108Y-73446083D01*
X22242438Y-73457248D01*
X22175122Y-73475285D01*
X22114021Y-73472082D01*
X22066471Y-73433577D01*
X22050500Y-73379658D01*
X22050500Y-70818857D01*
X22050500Y-70818856D01*
X22026614Y-70729712D01*
X22008710Y-70698702D01*
X21980470Y-70649789D01*
X21980468Y-70649787D01*
X21915212Y-70584530D01*
X21915212Y-70584531D01*
X21345974Y-70015293D01*
X21318197Y-69960776D01*
X21324514Y-69907403D01*
X21330403Y-69893186D01*
X21360130Y-69821420D01*
X21400500Y-69618465D01*
X21400500Y-69411535D01*
X21360130Y-69208580D01*
X21280941Y-69017402D01*
X21165977Y-68845345D01*
X21019655Y-68699023D01*
X20997188Y-68684011D01*
X20847597Y-68584058D01*
X20656418Y-68504869D01*
X20453467Y-68464500D01*
X20453465Y-68464500D01*
X20246535Y-68464500D01*
X20246532Y-68464500D01*
X20043581Y-68504869D01*
X19852402Y-68584058D01*
X19680345Y-68699022D01*
X19608863Y-68770504D01*
X19554346Y-68798281D01*
X19538860Y-68799500D01*
X19084718Y-68799500D01*
X19026527Y-68780593D01*
X19014714Y-68770504D01*
X19005911Y-68761701D01*
X19005908Y-68761698D01*
X18952219Y-68725824D01*
X18850238Y-68657681D01*
X18850229Y-68657677D01*
X18677249Y-68586026D01*
X18493618Y-68549500D01*
X18493616Y-68549500D01*
X18306384Y-68549500D01*
X18306381Y-68549500D01*
X18122749Y-68586027D01*
X18122743Y-68586028D01*
X18084129Y-68602022D01*
X18023133Y-68606821D01*
X17976243Y-68580561D01*
X17729496Y-68333814D01*
X17701719Y-68279297D01*
X17700500Y-68263810D01*
X17700500Y-62935189D01*
X17719407Y-62876998D01*
X17768907Y-62841034D01*
X17830093Y-62841034D01*
X17869501Y-62865183D01*
G37*
G04 #@! TD.AperFunction*
G04 #@! TD*
M02*
