%TF.GenerationSoftware,KiCad,Pcbnew,9.0.6*%
%TF.CreationDate,2025-12-01T14:44:23+01:00*%
%TF.ProjectId,wled-eth.versioned,776c6564-2d65-4746-982e-76657273696f,v0.49*%
%TF.SameCoordinates,Original*%
%TF.FileFunction,Drillmap*%
%TF.FilePolarity,Positive*%
%FSLAX45Y45*%
G04 Gerber Fmt 4.5, Leading zero omitted, Abs format (unit mm)*
G04 Created by KiCad (PCBNEW 9.0.6) date 2025-12-01 14:44:23*
%MOMM*%
%LPD*%
G01*
G04 APERTURE LIST*
%ADD10C,0.050000*%
%ADD11C,0.200000*%
G04 APERTURE END LIST*
D10*
X4000000Y-6290000D02*
X2360000Y-6290000D01*
X580000Y-3850000D02*
X2360000Y-3850000D01*
X2360000Y-6290000D02*
X2360000Y-3850000D01*
X6390000Y-3850000D02*
G75*
G02*
X6510000Y-3970000I0J-120000D01*
G01*
X580000Y-10210000D02*
G75*
G02*
X460000Y-10090000I0J120000D01*
G01*
X6390000Y-10210000D02*
X580000Y-10210000D01*
X460000Y-3970000D02*
X460000Y-10090000D01*
X4000000Y-3850000D02*
X4000000Y-6290000D01*
X6510000Y-3970000D02*
X6510000Y-10090000D01*
X6510000Y-10090000D02*
G75*
G02*
X6390000Y-10210000I-120000J0D01*
G01*
X4000000Y-3850000D02*
X6390000Y-3850000D01*
X460000Y-3970000D02*
G75*
G02*
X580000Y-3850000I120000J0D01*
G01*
D11*
X718277Y-10523984D02*
X718277Y-10323984D01*
X718277Y-10323984D02*
X765896Y-10323984D01*
X765896Y-10323984D02*
X794467Y-10333508D01*
X794467Y-10333508D02*
X813515Y-10352555D01*
X813515Y-10352555D02*
X823039Y-10371603D01*
X823039Y-10371603D02*
X832562Y-10409698D01*
X832562Y-10409698D02*
X832562Y-10438270D01*
X832562Y-10438270D02*
X823039Y-10476365D01*
X823039Y-10476365D02*
X813515Y-10495412D01*
X813515Y-10495412D02*
X794467Y-10514460D01*
X794467Y-10514460D02*
X765896Y-10523984D01*
X765896Y-10523984D02*
X718277Y-10523984D01*
X918277Y-10523984D02*
X918277Y-10390650D01*
X918277Y-10428746D02*
X927801Y-10409698D01*
X927801Y-10409698D02*
X937324Y-10400174D01*
X937324Y-10400174D02*
X956372Y-10390650D01*
X956372Y-10390650D02*
X975420Y-10390650D01*
X1042086Y-10523984D02*
X1042086Y-10390650D01*
X1042086Y-10323984D02*
X1032562Y-10333508D01*
X1032562Y-10333508D02*
X1042086Y-10343031D01*
X1042086Y-10343031D02*
X1051610Y-10333508D01*
X1051610Y-10333508D02*
X1042086Y-10323984D01*
X1042086Y-10323984D02*
X1042086Y-10343031D01*
X1165896Y-10523984D02*
X1146848Y-10514460D01*
X1146848Y-10514460D02*
X1137324Y-10495412D01*
X1137324Y-10495412D02*
X1137324Y-10323984D01*
X1270658Y-10523984D02*
X1251610Y-10514460D01*
X1251610Y-10514460D02*
X1242086Y-10495412D01*
X1242086Y-10495412D02*
X1242086Y-10323984D01*
X1499229Y-10523984D02*
X1499229Y-10323984D01*
X1499229Y-10323984D02*
X1565896Y-10466841D01*
X1565896Y-10466841D02*
X1632562Y-10323984D01*
X1632562Y-10323984D02*
X1632562Y-10523984D01*
X1813515Y-10523984D02*
X1813515Y-10419222D01*
X1813515Y-10419222D02*
X1803991Y-10400174D01*
X1803991Y-10400174D02*
X1784943Y-10390650D01*
X1784943Y-10390650D02*
X1746848Y-10390650D01*
X1746848Y-10390650D02*
X1727801Y-10400174D01*
X1813515Y-10514460D02*
X1794467Y-10523984D01*
X1794467Y-10523984D02*
X1746848Y-10523984D01*
X1746848Y-10523984D02*
X1727801Y-10514460D01*
X1727801Y-10514460D02*
X1718277Y-10495412D01*
X1718277Y-10495412D02*
X1718277Y-10476365D01*
X1718277Y-10476365D02*
X1727801Y-10457317D01*
X1727801Y-10457317D02*
X1746848Y-10447793D01*
X1746848Y-10447793D02*
X1794467Y-10447793D01*
X1794467Y-10447793D02*
X1813515Y-10438270D01*
X1908753Y-10390650D02*
X1908753Y-10590650D01*
X1908753Y-10400174D02*
X1927801Y-10390650D01*
X1927801Y-10390650D02*
X1965896Y-10390650D01*
X1965896Y-10390650D02*
X1984943Y-10400174D01*
X1984943Y-10400174D02*
X1994467Y-10409698D01*
X1994467Y-10409698D02*
X2003991Y-10428746D01*
X2003991Y-10428746D02*
X2003991Y-10485889D01*
X2003991Y-10485889D02*
X1994467Y-10504936D01*
X1994467Y-10504936D02*
X1984943Y-10514460D01*
X1984943Y-10514460D02*
X1965896Y-10523984D01*
X1965896Y-10523984D02*
X1927801Y-10523984D01*
X1927801Y-10523984D02*
X1908753Y-10514460D01*
X2089705Y-10504936D02*
X2099229Y-10514460D01*
X2099229Y-10514460D02*
X2089705Y-10523984D01*
X2089705Y-10523984D02*
X2080182Y-10514460D01*
X2080182Y-10514460D02*
X2089705Y-10504936D01*
X2089705Y-10504936D02*
X2089705Y-10523984D01*
X2089705Y-10400174D02*
X2099229Y-10409698D01*
X2099229Y-10409698D02*
X2089705Y-10419222D01*
X2089705Y-10419222D02*
X2080182Y-10409698D01*
X2080182Y-10409698D02*
X2089705Y-10400174D01*
X2089705Y-10400174D02*
X2089705Y-10419222D01*
M02*
