%TF.GenerationSoftware,KiCad,Pcbnew,9.0.6*%
%TF.CreationDate,2025-12-01T14:44:23+01:00*%
%TF.ProjectId,wled-eth.versioned,776c6564-2d65-4746-982e-76657273696f,v0.49*%
%TF.SameCoordinates,Original*%
%TF.FileFunction,Drillmap*%
%TF.FilePolarity,Positive*%
%FSLAX45Y45*%
G04 Gerber Fmt 4.5, Leading zero omitted, Abs format (unit mm)*
G04 Created by KiCad (PCBNEW 9.0.6) date 2025-12-01 14:44:23*
%MOMM*%
%LPD*%
G01*
G04 APERTURE LIST*
%ADD10C,0.050000*%
%ADD11C,0.200000*%
%ADD12C,0.100000*%
%ADD13C,0.115200*%
%ADD14C,0.120000*%
%ADD15C,0.170000*%
%ADD16C,0.250000*%
G04 APERTURE END LIST*
D10*
X4000000Y-6290000D02*
X2360000Y-6290000D01*
X580000Y-3850000D02*
X2360000Y-3850000D01*
X2360000Y-6290000D02*
X2360000Y-3850000D01*
X6390000Y-3850000D02*
G75*
G02*
X6510000Y-3970000I0J-120000D01*
G01*
X580000Y-10210000D02*
G75*
G02*
X460000Y-10090000I0J120000D01*
G01*
X6390000Y-10210000D02*
X580000Y-10210000D01*
X460000Y-3970000D02*
X460000Y-10090000D01*
X4000000Y-3850000D02*
X4000000Y-6290000D01*
X6510000Y-3970000D02*
X6510000Y-10090000D01*
X6510000Y-10090000D02*
G75*
G02*
X6390000Y-10210000I-120000J0D01*
G01*
X4000000Y-3850000D02*
X6390000Y-3850000D01*
X460000Y-3970000D02*
G75*
G02*
X580000Y-3850000I120000J0D01*
G01*
D11*
D12*
X575000Y-6215000D02*
X605000Y-6245000D01*
X605000Y-6215000D02*
X575000Y-6245000D01*
X575000Y-8765000D02*
X605000Y-8795000D01*
X605000Y-8765000D02*
X575000Y-8795000D01*
X715000Y-6955000D02*
X745000Y-6985000D01*
X745000Y-6955000D02*
X715000Y-6985000D01*
X1115000Y-6485000D02*
X1145000Y-6515000D01*
X1145000Y-6485000D02*
X1115000Y-6515000D01*
X1165000Y-10035000D02*
X1195000Y-10065000D01*
X1195000Y-10035000D02*
X1165000Y-10065000D01*
X1173000Y-8115000D02*
X1203000Y-8145000D01*
X1203000Y-8115000D02*
X1173000Y-8145000D01*
X1185000Y-6175000D02*
X1215000Y-6205000D01*
X1215000Y-6175000D02*
X1185000Y-6205000D01*
X1355000Y-9525000D02*
X1385000Y-9555000D01*
X1385000Y-9525000D02*
X1355000Y-9555000D01*
X1405000Y-9765000D02*
X1435000Y-9795000D01*
X1435000Y-9765000D02*
X1405000Y-9795000D01*
X1435000Y-8165000D02*
X1465000Y-8195000D01*
X1465000Y-8165000D02*
X1435000Y-8195000D01*
X1805000Y-8745000D02*
X1835000Y-8775000D01*
X1835000Y-8745000D02*
X1805000Y-8775000D01*
X1805000Y-8835000D02*
X1835000Y-8865000D01*
X1835000Y-8835000D02*
X1805000Y-8865000D01*
X1865000Y-9545000D02*
X1895000Y-9575000D01*
X1895000Y-9545000D02*
X1865000Y-9575000D01*
X2055000Y-5974900D02*
X2085000Y-6004900D01*
X2085000Y-5974900D02*
X2055000Y-6004900D01*
X2075000Y-5575000D02*
X2105000Y-5605000D01*
X2105000Y-5575000D02*
X2075000Y-5605000D01*
X2175000Y-5685000D02*
X2205000Y-5715000D01*
X2205000Y-5685000D02*
X2175000Y-5715000D01*
X2220000Y-7379658D02*
X2250000Y-7409658D01*
X2250000Y-7379658D02*
X2220000Y-7409658D01*
X2355000Y-9525000D02*
X2385000Y-9555000D01*
X2385000Y-9525000D02*
X2355000Y-9555000D01*
X2387945Y-7040100D02*
X2417945Y-7070100D01*
X2417945Y-7040100D02*
X2387945Y-7070100D01*
X2545000Y-6735000D02*
X2575000Y-6765000D01*
X2575000Y-6735000D02*
X2545000Y-6765000D01*
X2595000Y-6465000D02*
X2625000Y-6495000D01*
X2625000Y-6465000D02*
X2595000Y-6495000D01*
X2607427Y-9737427D02*
X2637427Y-9767427D01*
X2637427Y-9737427D02*
X2607427Y-9767427D01*
X2635000Y-7000000D02*
X2665000Y-7030000D01*
X2665000Y-7000000D02*
X2635000Y-7030000D01*
X2755000Y-7065000D02*
X2785000Y-7095000D01*
X2785000Y-7065000D02*
X2755000Y-7095000D01*
X2845000Y-6675000D02*
X2875000Y-6705000D01*
X2875000Y-6675000D02*
X2845000Y-6705000D01*
X2855000Y-9373233D02*
X2885000Y-9403233D01*
X2885000Y-9373233D02*
X2855000Y-9403233D01*
X2995000Y-6625000D02*
X3025000Y-6655000D01*
X3025000Y-6625000D02*
X2995000Y-6655000D01*
X3240000Y-7990000D02*
X3270000Y-8020000D01*
X3270000Y-7990000D02*
X3240000Y-8020000D01*
X3385000Y-7665000D02*
X3415000Y-7695000D01*
X3415000Y-7665000D02*
X3385000Y-7695000D01*
X3458532Y-7696514D02*
X3488532Y-7726514D01*
X3488532Y-7696514D02*
X3458532Y-7726514D01*
X3475000Y-8365000D02*
X3505000Y-8395000D01*
X3505000Y-8365000D02*
X3475000Y-8395000D01*
X3545000Y-9365000D02*
X3575000Y-9395000D01*
X3575000Y-9365000D02*
X3545000Y-9395000D01*
X3585073Y-9809927D02*
X3615073Y-9839927D01*
X3615073Y-9809927D02*
X3585073Y-9839927D01*
X3745000Y-9520000D02*
X3775000Y-9550000D01*
X3775000Y-9520000D02*
X3745000Y-9550000D01*
X3925000Y-7565000D02*
X3955000Y-7595000D01*
X3955000Y-7565000D02*
X3925000Y-7595000D01*
X3925000Y-7665000D02*
X3955000Y-7695000D01*
X3955000Y-7665000D02*
X3925000Y-7695000D01*
X4075000Y-9745000D02*
X4105000Y-9775000D01*
X4105000Y-9745000D02*
X4075000Y-9775000D01*
X4075000Y-9995000D02*
X4105000Y-10025000D01*
X4105000Y-9995000D02*
X4075000Y-10025000D01*
X4215000Y-6555000D02*
X4245000Y-6585000D01*
X4245000Y-6555000D02*
X4215000Y-6585000D01*
X4415000Y-10005000D02*
X4445000Y-10035000D01*
X4445000Y-10005000D02*
X4415000Y-10035000D01*
X4525000Y-10095000D02*
X4555000Y-10125000D01*
X4555000Y-10095000D02*
X4525000Y-10125000D01*
X4555000Y-9765000D02*
X4585000Y-9795000D01*
X4585000Y-9765000D02*
X4555000Y-9795000D01*
X4675000Y-7805000D02*
X4705000Y-7835000D01*
X4705000Y-7805000D02*
X4675000Y-7835000D01*
X4675000Y-7955000D02*
X4705000Y-7985000D01*
X4705000Y-7955000D02*
X4675000Y-7985000D01*
X5015000Y-9765000D02*
X5045000Y-9795000D01*
X5045000Y-9765000D02*
X5015000Y-9795000D01*
X5050000Y-9640000D02*
X5080000Y-9670000D01*
X5080000Y-9640000D02*
X5050000Y-9670000D01*
X5505000Y-4555000D02*
X5535000Y-4585000D01*
X5535000Y-4555000D02*
X5505000Y-4585000D01*
X5595000Y-4555000D02*
X5625000Y-4585000D01*
X5625000Y-4555000D02*
X5595000Y-4585000D01*
X5645000Y-4815000D02*
X5675000Y-4845000D01*
X5675000Y-4815000D02*
X5645000Y-4845000D01*
X5765000Y-4815000D02*
X5795000Y-4845000D01*
X5795000Y-4815000D02*
X5765000Y-4845000D01*
X600000Y-5860000D02*
G75*
G02*
X560000Y-5860000I-20000J0D01*
G01*
X560000Y-5860000D02*
G75*
G02*
X600000Y-5860000I20000J0D01*
G01*
X740000Y-6730000D02*
G75*
G02*
X700000Y-6730000I-20000J0D01*
G01*
X700000Y-6730000D02*
G75*
G02*
X740000Y-6730000I20000J0D01*
G01*
X787500Y-9970000D02*
G75*
G02*
X747500Y-9970000I-20000J0D01*
G01*
X747500Y-9970000D02*
G75*
G02*
X787500Y-9970000I20000J0D01*
G01*
X790000Y-7270000D02*
G75*
G02*
X750000Y-7270000I-20000J0D01*
G01*
X750000Y-7270000D02*
G75*
G02*
X790000Y-7270000I20000J0D01*
G01*
X1500000Y-6690000D02*
G75*
G02*
X1460000Y-6690000I-20000J0D01*
G01*
X1460000Y-6690000D02*
G75*
G02*
X1500000Y-6690000I20000J0D01*
G01*
X1720000Y-8170000D02*
G75*
G02*
X1680000Y-8170000I-20000J0D01*
G01*
X1680000Y-8170000D02*
G75*
G02*
X1720000Y-8170000I20000J0D01*
G01*
X1755000Y-6060000D02*
G75*
G02*
X1715000Y-6060000I-20000J0D01*
G01*
X1715000Y-6060000D02*
G75*
G02*
X1755000Y-6060000I20000J0D01*
G01*
X1860000Y-6650000D02*
G75*
G02*
X1820000Y-6650000I-20000J0D01*
G01*
X1820000Y-6650000D02*
G75*
G02*
X1860000Y-6650000I20000J0D01*
G01*
X1960000Y-8350000D02*
G75*
G02*
X1920000Y-8350000I-20000J0D01*
G01*
X1920000Y-8350000D02*
G75*
G02*
X1960000Y-8350000I20000J0D01*
G01*
X2005000Y-5140000D02*
G75*
G02*
X1965000Y-5140000I-20000J0D01*
G01*
X1965000Y-5140000D02*
G75*
G02*
X2005000Y-5140000I20000J0D01*
G01*
X2030000Y-9540000D02*
G75*
G02*
X1990000Y-9540000I-20000J0D01*
G01*
X1990000Y-9540000D02*
G75*
G02*
X2030000Y-9540000I20000J0D01*
G01*
X2251808Y-7550000D02*
G75*
G02*
X2211808Y-7550000I-20000J0D01*
G01*
X2211808Y-7550000D02*
G75*
G02*
X2251808Y-7550000I20000J0D01*
G01*
X2251820Y-8800000D02*
G75*
G02*
X2211820Y-8800000I-20000J0D01*
G01*
X2211820Y-8800000D02*
G75*
G02*
X2251820Y-8800000I20000J0D01*
G01*
X2290872Y-7647500D02*
G75*
G02*
X2250872Y-7647500I-20000J0D01*
G01*
X2250872Y-7647500D02*
G75*
G02*
X2290872Y-7647500I20000J0D01*
G01*
X2300000Y-8250000D02*
G75*
G02*
X2260000Y-8250000I-20000J0D01*
G01*
X2260000Y-8250000D02*
G75*
G02*
X2300000Y-8250000I20000J0D01*
G01*
X2300000Y-8380000D02*
G75*
G02*
X2260000Y-8380000I-20000J0D01*
G01*
X2260000Y-8380000D02*
G75*
G02*
X2300000Y-8380000I20000J0D01*
G01*
X2400000Y-7650000D02*
G75*
G02*
X2360000Y-7650000I-20000J0D01*
G01*
X2360000Y-7650000D02*
G75*
G02*
X2400000Y-7650000I20000J0D01*
G01*
X2420000Y-8250000D02*
G75*
G02*
X2380000Y-8250000I-20000J0D01*
G01*
X2380000Y-8250000D02*
G75*
G02*
X2420000Y-8250000I20000J0D01*
G01*
X2420000Y-8380000D02*
G75*
G02*
X2380000Y-8380000I-20000J0D01*
G01*
X2380000Y-8380000D02*
G75*
G02*
X2420000Y-8380000I20000J0D01*
G01*
X2520000Y-8250000D02*
G75*
G02*
X2480000Y-8250000I-20000J0D01*
G01*
X2480000Y-8250000D02*
G75*
G02*
X2520000Y-8250000I20000J0D01*
G01*
X2520000Y-8380000D02*
G75*
G02*
X2480000Y-8380000I-20000J0D01*
G01*
X2480000Y-8380000D02*
G75*
G02*
X2520000Y-8380000I20000J0D01*
G01*
X2540000Y-9510000D02*
G75*
G02*
X2500000Y-9510000I-20000J0D01*
G01*
X2500000Y-9510000D02*
G75*
G02*
X2540000Y-9510000I20000J0D01*
G01*
X2610000Y-8800000D02*
G75*
G02*
X2570000Y-8800000I-20000J0D01*
G01*
X2570000Y-8800000D02*
G75*
G02*
X2610000Y-8800000I20000J0D01*
G01*
X2619896Y-9090104D02*
G75*
G02*
X2579896Y-9090104I-20000J0D01*
G01*
X2579896Y-9090104D02*
G75*
G02*
X2619896Y-9090104I20000J0D01*
G01*
X2620000Y-8250000D02*
G75*
G02*
X2580000Y-8250000I-20000J0D01*
G01*
X2580000Y-8250000D02*
G75*
G02*
X2620000Y-8250000I20000J0D01*
G01*
X2620000Y-8380000D02*
G75*
G02*
X2580000Y-8380000I-20000J0D01*
G01*
X2580000Y-8380000D02*
G75*
G02*
X2620000Y-8380000I20000J0D01*
G01*
X2630000Y-6370000D02*
G75*
G02*
X2590000Y-6370000I-20000J0D01*
G01*
X2590000Y-6370000D02*
G75*
G02*
X2630000Y-6370000I20000J0D01*
G01*
X2690000Y-8840000D02*
G75*
G02*
X2650000Y-8840000I-20000J0D01*
G01*
X2650000Y-8840000D02*
G75*
G02*
X2690000Y-8840000I20000J0D01*
G01*
X2740000Y-8250000D02*
G75*
G02*
X2700000Y-8250000I-20000J0D01*
G01*
X2700000Y-8250000D02*
G75*
G02*
X2740000Y-8250000I20000J0D01*
G01*
X2740000Y-8380000D02*
G75*
G02*
X2700000Y-8380000I-20000J0D01*
G01*
X2700000Y-8380000D02*
G75*
G02*
X2740000Y-8380000I20000J0D01*
G01*
X2780000Y-8840000D02*
G75*
G02*
X2740000Y-8840000I-20000J0D01*
G01*
X2740000Y-8840000D02*
G75*
G02*
X2780000Y-8840000I20000J0D01*
G01*
X2780000Y-9130000D02*
G75*
G02*
X2740000Y-9130000I-20000J0D01*
G01*
X2740000Y-9130000D02*
G75*
G02*
X2780000Y-9130000I20000J0D01*
G01*
X2800000Y-6440000D02*
G75*
G02*
X2760000Y-6440000I-20000J0D01*
G01*
X2760000Y-6440000D02*
G75*
G02*
X2800000Y-6440000I20000J0D01*
G01*
X2900000Y-7270000D02*
G75*
G02*
X2860000Y-7270000I-20000J0D01*
G01*
X2860000Y-7270000D02*
G75*
G02*
X2900000Y-7270000I20000J0D01*
G01*
X2930000Y-8900000D02*
G75*
G02*
X2890000Y-8900000I-20000J0D01*
G01*
X2890000Y-8900000D02*
G75*
G02*
X2930000Y-8900000I20000J0D01*
G01*
X3095000Y-9640000D02*
G75*
G02*
X3055000Y-9640000I-20000J0D01*
G01*
X3055000Y-9640000D02*
G75*
G02*
X3095000Y-9640000I20000J0D01*
G01*
X3120000Y-8060000D02*
G75*
G02*
X3080000Y-8060000I-20000J0D01*
G01*
X3080000Y-8060000D02*
G75*
G02*
X3120000Y-8060000I20000J0D01*
G01*
X3120000Y-8180000D02*
G75*
G02*
X3080000Y-8180000I-20000J0D01*
G01*
X3080000Y-8180000D02*
G75*
G02*
X3120000Y-8180000I20000J0D01*
G01*
X3120000Y-8280000D02*
G75*
G02*
X3080000Y-8280000I-20000J0D01*
G01*
X3080000Y-8280000D02*
G75*
G02*
X3120000Y-8280000I20000J0D01*
G01*
X3180000Y-9800350D02*
G75*
G02*
X3140000Y-9800350I-20000J0D01*
G01*
X3140000Y-9800350D02*
G75*
G02*
X3180000Y-9800350I20000J0D01*
G01*
X3290000Y-10070000D02*
G75*
G02*
X3250000Y-10070000I-20000J0D01*
G01*
X3250000Y-10070000D02*
G75*
G02*
X3290000Y-10070000I20000J0D01*
G01*
X3430000Y-8050000D02*
G75*
G02*
X3390000Y-8050000I-20000J0D01*
G01*
X3390000Y-8050000D02*
G75*
G02*
X3430000Y-8050000I20000J0D01*
G01*
X3527500Y-8050000D02*
G75*
G02*
X3487500Y-8050000I-20000J0D01*
G01*
X3487500Y-8050000D02*
G75*
G02*
X3527500Y-8050000I20000J0D01*
G01*
X3530000Y-8170000D02*
G75*
G02*
X3490000Y-8170000I-20000J0D01*
G01*
X3490000Y-8170000D02*
G75*
G02*
X3530000Y-8170000I20000J0D01*
G01*
X3530000Y-8270000D02*
G75*
G02*
X3490000Y-8270000I-20000J0D01*
G01*
X3490000Y-8270000D02*
G75*
G02*
X3530000Y-8270000I20000J0D01*
G01*
X3800000Y-7890000D02*
G75*
G02*
X3760000Y-7890000I-20000J0D01*
G01*
X3760000Y-7890000D02*
G75*
G02*
X3800000Y-7890000I20000J0D01*
G01*
X3800000Y-7970000D02*
G75*
G02*
X3760000Y-7970000I-20000J0D01*
G01*
X3760000Y-7970000D02*
G75*
G02*
X3800000Y-7970000I20000J0D01*
G01*
X3830000Y-9330000D02*
G75*
G02*
X3790000Y-9330000I-20000J0D01*
G01*
X3790000Y-9330000D02*
G75*
G02*
X3830000Y-9330000I20000J0D01*
G01*
X4460000Y-10123000D02*
G75*
G02*
X4420000Y-10123000I-20000J0D01*
G01*
X4420000Y-10123000D02*
G75*
G02*
X4460000Y-10123000I20000J0D01*
G01*
X4600000Y-9620000D02*
G75*
G02*
X4560000Y-9620000I-20000J0D01*
G01*
X4560000Y-9620000D02*
G75*
G02*
X4600000Y-9620000I20000J0D01*
G01*
X4620100Y-6515100D02*
G75*
G02*
X4580100Y-6515100I-20000J0D01*
G01*
X4580100Y-6515100D02*
G75*
G02*
X4620100Y-6515100I20000J0D01*
G01*
X4710000Y-8480000D02*
G75*
G02*
X4670000Y-8480000I-20000J0D01*
G01*
X4670000Y-8480000D02*
G75*
G02*
X4710000Y-8480000I20000J0D01*
G01*
X4720000Y-9300000D02*
G75*
G02*
X4680000Y-9300000I-20000J0D01*
G01*
X4680000Y-9300000D02*
G75*
G02*
X4720000Y-9300000I20000J0D01*
G01*
X4757828Y-6632172D02*
G75*
G02*
X4717828Y-6632172I-20000J0D01*
G01*
X4717828Y-6632172D02*
G75*
G02*
X4757828Y-6632172I20000J0D01*
G01*
X4810000Y-8480000D02*
G75*
G02*
X4770000Y-8480000I-20000J0D01*
G01*
X4770000Y-8480000D02*
G75*
G02*
X4810000Y-8480000I20000J0D01*
G01*
X4910000Y-8480000D02*
G75*
G02*
X4870000Y-8480000I-20000J0D01*
G01*
X4870000Y-8480000D02*
G75*
G02*
X4910000Y-8480000I20000J0D01*
G01*
X4910000Y-9280000D02*
G75*
G02*
X4870000Y-9280000I-20000J0D01*
G01*
X4870000Y-9280000D02*
G75*
G02*
X4910000Y-9280000I20000J0D01*
G01*
X5010000Y-8480000D02*
G75*
G02*
X4970000Y-8480000I-20000J0D01*
G01*
X4970000Y-8480000D02*
G75*
G02*
X5010000Y-8480000I20000J0D01*
G01*
X982500Y-4395000D02*
X982500Y-4445000D01*
X957500Y-4420000D02*
X1007500Y-4420000D01*
X982500Y-8925000D02*
X982500Y-8975000D01*
X957500Y-8950000D02*
X1007500Y-8950000D01*
X1037417Y-4262418D02*
X1037417Y-4312418D01*
X1012417Y-4287418D02*
X1062418Y-4287418D01*
X1037417Y-4527583D02*
X1037417Y-4577583D01*
X1012417Y-4552583D02*
X1062418Y-4552583D01*
X1037417Y-8792418D02*
X1037417Y-8842418D01*
X1012417Y-8817418D02*
X1062418Y-8817418D01*
X1037417Y-9057583D02*
X1037417Y-9107583D01*
X1012417Y-9082583D02*
X1062418Y-9082583D01*
X1170000Y-4207500D02*
X1170000Y-4257500D01*
X1145000Y-4232500D02*
X1195000Y-4232500D01*
X1170000Y-4582500D02*
X1170000Y-4632500D01*
X1145000Y-4607500D02*
X1195000Y-4607500D01*
X1170000Y-8737500D02*
X1170000Y-8787500D01*
X1145000Y-8762500D02*
X1195000Y-8762500D01*
X1170000Y-9112500D02*
X1170000Y-9162500D01*
X1145000Y-9137500D02*
X1195000Y-9137500D01*
X1302583Y-4262418D02*
X1302583Y-4312418D01*
X1277583Y-4287418D02*
X1327583Y-4287418D01*
X1302583Y-4527583D02*
X1302583Y-4577583D01*
X1277583Y-4552583D02*
X1327583Y-4552583D01*
X1302583Y-8792418D02*
X1302583Y-8842418D01*
X1277583Y-8817418D02*
X1327583Y-8817418D01*
X1302583Y-9057583D02*
X1302583Y-9107583D01*
X1277583Y-9082583D02*
X1327583Y-9082583D01*
X1357500Y-4395000D02*
X1357500Y-4445000D01*
X1332500Y-4420000D02*
X1382500Y-4420000D01*
X1357500Y-8925000D02*
X1357500Y-8975000D01*
X1332500Y-8950000D02*
X1382500Y-8950000D01*
X1392500Y-4565000D02*
X1392500Y-4615000D01*
X1367500Y-4590000D02*
X1417500Y-4590000D01*
X1392500Y-9265000D02*
X1392500Y-9315000D01*
X1367500Y-9290000D02*
X1417500Y-9290000D01*
X1447417Y-4432418D02*
X1447417Y-4482418D01*
X1422417Y-4457418D02*
X1472417Y-4457418D01*
X1447417Y-4697583D02*
X1447417Y-4747583D01*
X1422417Y-4722583D02*
X1472417Y-4722583D01*
X1447417Y-9132418D02*
X1447417Y-9182418D01*
X1422417Y-9157418D02*
X1472417Y-9157418D01*
X1447417Y-9397583D02*
X1447417Y-9447583D01*
X1422417Y-9422583D02*
X1472417Y-9422583D01*
X1580000Y-4377500D02*
X1580000Y-4427500D01*
X1555000Y-4402500D02*
X1605000Y-4402500D01*
X1580000Y-4752500D02*
X1580000Y-4802500D01*
X1555000Y-4777500D02*
X1605000Y-4777500D01*
X1580000Y-9077500D02*
X1580000Y-9127500D01*
X1555000Y-9102500D02*
X1605000Y-9102500D01*
X1580000Y-9452500D02*
X1580000Y-9502500D01*
X1555000Y-9477500D02*
X1605000Y-9477500D01*
X1712582Y-4432418D02*
X1712582Y-4482418D01*
X1687582Y-4457418D02*
X1737582Y-4457418D01*
X1712582Y-4697583D02*
X1712582Y-4747583D01*
X1687582Y-4722583D02*
X1737582Y-4722583D01*
X1712582Y-9132418D02*
X1712582Y-9182418D01*
X1687582Y-9157418D02*
X1737582Y-9157418D01*
X1712582Y-9397583D02*
X1712582Y-9447583D01*
X1687582Y-9422583D02*
X1737582Y-9422583D01*
X1767500Y-4565000D02*
X1767500Y-4615000D01*
X1742500Y-4590000D02*
X1792500Y-4590000D01*
X1767500Y-9265000D02*
X1767500Y-9315000D01*
X1742500Y-9290000D02*
X1792500Y-9290000D01*
X4662500Y-4152500D02*
X4662500Y-4202500D01*
X4637500Y-4177500D02*
X4687500Y-4177500D01*
X4662500Y-8925000D02*
X4662500Y-8975000D01*
X4637500Y-8950000D02*
X4687500Y-8950000D01*
X4717418Y-4019917D02*
X4717418Y-4069917D01*
X4692418Y-4044917D02*
X4742418Y-4044917D01*
X4717418Y-4285083D02*
X4717418Y-4335083D01*
X4692418Y-4310083D02*
X4742418Y-4310083D01*
X4717418Y-8792418D02*
X4717418Y-8842418D01*
X4692418Y-8817418D02*
X4742418Y-8817418D01*
X4717418Y-9057583D02*
X4717418Y-9107583D01*
X4692418Y-9082583D02*
X4742418Y-9082583D01*
X4850000Y-3965000D02*
X4850000Y-4015000D01*
X4825000Y-3990000D02*
X4875000Y-3990000D01*
X4850000Y-4340000D02*
X4850000Y-4390000D01*
X4825000Y-4365000D02*
X4875000Y-4365000D01*
X4850000Y-8737500D02*
X4850000Y-8787500D01*
X4825000Y-8762500D02*
X4875000Y-8762500D01*
X4850000Y-9112500D02*
X4850000Y-9162500D01*
X4825000Y-9137500D02*
X4875000Y-9137500D01*
X4982583Y-4019917D02*
X4982583Y-4069917D01*
X4957583Y-4044917D02*
X5007583Y-4044917D01*
X4982583Y-4285083D02*
X4982583Y-4335083D01*
X4957583Y-4310083D02*
X5007583Y-4310083D01*
X4982583Y-8792418D02*
X4982583Y-8842418D01*
X4957583Y-8817418D02*
X5007583Y-8817418D01*
X4982583Y-9057583D02*
X4982583Y-9107583D01*
X4957583Y-9082583D02*
X5007583Y-9082583D01*
X5037500Y-4152500D02*
X5037500Y-4202500D01*
X5012500Y-4177500D02*
X5062500Y-4177500D01*
X5037500Y-8925000D02*
X5037500Y-8975000D01*
X5012500Y-8950000D02*
X5062500Y-8950000D01*
X823213Y-7739213D02*
X823213Y-7696787D01*
X780787Y-7696787D01*
X780787Y-7739213D01*
X823213Y-7739213D01*
X762000Y-7748000D02*
X842000Y-7748000D01*
X842000Y-7688000D02*
G75*
G02*
X842000Y-7748000I0J-30000D01*
G01*
X842000Y-7688000D02*
X762000Y-7688000D01*
X762000Y-7688000D02*
G75*
G03*
X762000Y-7748000I0J-30000D01*
G01*
X823213Y-8603213D02*
X823213Y-8560787D01*
X780787Y-8560787D01*
X780787Y-8603213D01*
X823213Y-8603213D01*
X762000Y-8612000D02*
X842000Y-8612000D01*
X842000Y-8552000D02*
G75*
G02*
X842000Y-8612000I0J-30000D01*
G01*
X842000Y-8552000D02*
X762000Y-8552000D01*
X762000Y-8552000D02*
G75*
G03*
X762000Y-8612000I0J-30000D01*
G01*
X1240213Y-7739213D02*
X1240213Y-7696787D01*
X1197787Y-7696787D01*
X1197787Y-7739213D01*
X1240213Y-7739213D01*
X1164000Y-7748000D02*
X1274000Y-7748000D01*
X1274000Y-7688000D02*
G75*
G02*
X1274000Y-7748000I0J-30000D01*
G01*
X1274000Y-7688000D02*
X1164000Y-7688000D01*
X1164000Y-7688000D02*
G75*
G03*
X1164000Y-7748000I0J-30000D01*
G01*
X1240213Y-8603213D02*
X1240213Y-8560787D01*
X1197787Y-8560787D01*
X1197787Y-8603213D01*
X1240213Y-8603213D01*
X1164000Y-8612000D02*
X1274000Y-8612000D01*
X1274000Y-8552000D02*
G75*
G02*
X1274000Y-8612000I0J-30000D01*
G01*
X1274000Y-8552000D02*
X1164000Y-8552000D01*
X1164000Y-8552000D02*
G75*
G03*
X1164000Y-8612000I0J-30000D01*
G01*
X5229213Y-4213213D02*
X5229213Y-4170787D01*
X5186787Y-4170787D01*
X5186787Y-4213213D01*
X5229213Y-4213213D01*
X5178000Y-4152000D02*
X5178000Y-4232000D01*
X5238000Y-4232000D02*
G75*
G02*
X5178000Y-4232000I-30000J0D01*
G01*
X5238000Y-4232000D02*
X5238000Y-4152000D01*
X5238000Y-4152000D02*
G75*
G03*
X5178000Y-4152000I-30000J0D01*
G01*
X5229213Y-4630213D02*
X5229213Y-4587787D01*
X5186787Y-4587787D01*
X5186787Y-4630213D01*
X5229213Y-4630213D01*
X5178000Y-4554000D02*
X5178000Y-4664000D01*
X5238000Y-4664000D02*
G75*
G02*
X5178000Y-4664000I-30000J0D01*
G01*
X5238000Y-4664000D02*
X5238000Y-4554000D01*
X5238000Y-4554000D02*
G75*
G03*
X5178000Y-4554000I-30000J0D01*
G01*
X6093213Y-4213213D02*
X6093213Y-4170787D01*
X6050787Y-4170787D01*
X6050787Y-4213213D01*
X6093213Y-4213213D01*
X6042000Y-4152000D02*
X6042000Y-4232000D01*
X6102000Y-4232000D02*
G75*
G02*
X6042000Y-4232000I-30000J0D01*
G01*
X6102000Y-4232000D02*
X6102000Y-4152000D01*
X6102000Y-4152000D02*
G75*
G03*
X6042000Y-4152000I-30000J0D01*
G01*
X6093213Y-4630213D02*
X6093213Y-4587787D01*
X6050787Y-4587787D01*
X6050787Y-4630213D01*
X6093213Y-4630213D01*
X6042000Y-4554000D02*
X6042000Y-4664000D01*
X6102000Y-4664000D02*
G75*
G02*
X6042000Y-4664000I-30000J0D01*
G01*
X6102000Y-4664000D02*
X6102000Y-4554000D01*
X6102000Y-4554000D02*
G75*
G03*
X6042000Y-4554000I-30000J0D01*
G01*
X1166000Y-7893500D02*
X1198500Y-7861000D01*
X1166000Y-7828500D01*
X1133500Y-7861000D01*
X1166000Y-7893500D01*
X1166000Y-8471500D02*
X1198500Y-8439000D01*
X1166000Y-8406500D01*
X1133500Y-8439000D01*
X1166000Y-8471500D01*
X5351000Y-4588500D02*
X5383500Y-4556000D01*
X5351000Y-4523500D01*
X5318500Y-4556000D01*
X5351000Y-4588500D01*
X5929000Y-4588500D02*
X5961500Y-4556000D01*
X5929000Y-4523500D01*
X5896500Y-4556000D01*
X5929000Y-4588500D01*
X1385000Y-6995000D02*
X1455000Y-7065000D01*
X1455000Y-6995000D02*
X1385000Y-7065000D01*
X1455000Y-7030000D02*
G75*
G02*
X1385000Y-7030000I-35000J0D01*
G01*
X1385000Y-7030000D02*
G75*
G02*
X1455000Y-7030000I35000J0D01*
G01*
X1385000Y-7345000D02*
X1455000Y-7415000D01*
X1455000Y-7345000D02*
X1385000Y-7415000D01*
X1455000Y-7380000D02*
G75*
G02*
X1385000Y-7380000I-35000J0D01*
G01*
X1385000Y-7380000D02*
G75*
G02*
X1455000Y-7380000I35000J0D01*
G01*
X1445000Y-6270000D02*
X1515000Y-6340000D01*
X1515000Y-6270000D02*
X1445000Y-6340000D01*
X1515000Y-6305000D02*
G75*
G02*
X1445000Y-6305000I-35000J0D01*
G01*
X1445000Y-6305000D02*
G75*
G02*
X1515000Y-6305000I35000J0D01*
G01*
X1445000Y-6520000D02*
X1515000Y-6590000D01*
X1515000Y-6520000D02*
X1445000Y-6590000D01*
X1515000Y-6555000D02*
G75*
G02*
X1445000Y-6555000I-35000J0D01*
G01*
X1445000Y-6555000D02*
G75*
G02*
X1515000Y-6555000I35000J0D01*
G01*
X4090000Y-5620000D02*
X4170000Y-5700000D01*
X4170000Y-5620000D02*
X4090000Y-5700000D01*
X4130000Y-5620000D02*
X4130000Y-5700000D01*
X4090000Y-5660000D02*
X4170000Y-5660000D01*
X4170000Y-5795000D02*
X4170000Y-5525000D01*
X4090000Y-5525000D02*
G75*
G02*
X4170000Y-5525000I40000J0D01*
G01*
X4090000Y-5525000D02*
X4090000Y-5795000D01*
X4090000Y-5795000D02*
G75*
G03*
X4170000Y-5795000I40000J0D01*
G01*
X4570000Y-5270000D02*
X4650000Y-5350000D01*
X4650000Y-5270000D02*
X4570000Y-5350000D01*
X4610000Y-5270000D02*
X4610000Y-5350000D01*
X4570000Y-5310000D02*
X4650000Y-5310000D01*
X4475000Y-5350000D02*
X4745000Y-5350000D01*
X4745000Y-5270000D02*
G75*
G02*
X4745000Y-5350000I0J-40000D01*
G01*
X4745000Y-5270000D02*
X4475000Y-5270000D01*
X4475000Y-5270000D02*
G75*
G03*
X4475000Y-5350000I0J-40000D01*
G01*
X4570000Y-5870000D02*
X4650000Y-5950000D01*
X4650000Y-5870000D02*
X4570000Y-5950000D01*
X4610000Y-5870000D02*
X4610000Y-5950000D01*
X4570000Y-5910000D02*
X4650000Y-5910000D01*
X4475000Y-5950000D02*
X4745000Y-5950000D01*
X4745000Y-5870000D02*
G75*
G02*
X4745000Y-5950000I0J-40000D01*
G01*
X4745000Y-5870000D02*
X4475000Y-5870000D01*
X4475000Y-5870000D02*
G75*
G03*
X4475000Y-5950000I0J-40000D01*
G01*
X570000Y-3960000D02*
X670000Y-4060000D01*
X670000Y-3960000D02*
X570000Y-4060000D01*
X655356Y-4045356D02*
X655356Y-3974644D01*
X584644Y-3974644D01*
X584644Y-4045356D01*
X655356Y-4045356D01*
X824000Y-3960000D02*
X924000Y-4060000D01*
X924000Y-3960000D02*
X824000Y-4060000D01*
X909356Y-4045356D02*
X909356Y-3974644D01*
X838644Y-3974644D01*
X838644Y-4045356D01*
X909356Y-4045356D01*
X1078000Y-3960000D02*
X1178000Y-4060000D01*
X1178000Y-3960000D02*
X1078000Y-4060000D01*
X1163356Y-4045356D02*
X1163356Y-3974644D01*
X1092644Y-3974644D01*
X1092644Y-4045356D01*
X1163356Y-4045356D01*
X1332000Y-3960000D02*
X1432000Y-4060000D01*
X1432000Y-3960000D02*
X1332000Y-4060000D01*
X1417356Y-4045356D02*
X1417356Y-3974644D01*
X1346644Y-3974644D01*
X1346644Y-4045356D01*
X1417356Y-4045356D01*
X1340000Y-5277500D02*
X1440000Y-5377500D01*
X1440000Y-5277500D02*
X1340000Y-5377500D01*
X1425356Y-5362856D02*
X1425356Y-5292144D01*
X1354644Y-5292144D01*
X1354644Y-5362856D01*
X1425356Y-5362856D01*
X1340000Y-5531500D02*
X1440000Y-5631500D01*
X1440000Y-5531500D02*
X1340000Y-5631500D01*
X1425356Y-5616856D02*
X1425356Y-5546144D01*
X1354644Y-5546144D01*
X1354644Y-5616856D01*
X1425356Y-5616856D01*
X1340000Y-5785500D02*
X1440000Y-5885500D01*
X1440000Y-5785500D02*
X1340000Y-5885500D01*
X1425356Y-5870856D02*
X1425356Y-5800144D01*
X1354644Y-5800144D01*
X1354644Y-5870856D01*
X1425356Y-5870856D01*
X1586000Y-3960000D02*
X1686000Y-4060000D01*
X1686000Y-3960000D02*
X1586000Y-4060000D01*
X1671356Y-4045356D02*
X1671356Y-3974644D01*
X1600644Y-3974644D01*
X1600644Y-4045356D01*
X1671356Y-4045356D01*
X1840000Y-3960000D02*
X1940000Y-4060000D01*
X1940000Y-3960000D02*
X1840000Y-4060000D01*
X1925356Y-4045356D02*
X1925356Y-3974644D01*
X1854644Y-3974644D01*
X1854644Y-4045356D01*
X1925356Y-4045356D01*
X1985000Y-6139500D02*
X2085000Y-6239500D01*
X2085000Y-6139500D02*
X1985000Y-6239500D01*
X2070356Y-6224856D02*
X2070356Y-6154144D01*
X1999644Y-6154144D01*
X1999644Y-6224856D01*
X2070356Y-6224856D01*
X1985000Y-6393500D02*
X2085000Y-6493500D01*
X2085000Y-6393500D02*
X1985000Y-6493500D01*
X2070356Y-6478856D02*
X2070356Y-6408144D01*
X1999644Y-6408144D01*
X1999644Y-6478856D01*
X2070356Y-6478856D01*
X1985000Y-6647500D02*
X2085000Y-6747500D01*
X2085000Y-6647500D02*
X1985000Y-6747500D01*
X2070356Y-6732856D02*
X2070356Y-6662144D01*
X1999644Y-6662144D01*
X1999644Y-6732856D01*
X2070356Y-6732856D01*
X1985000Y-6901500D02*
X2085000Y-7001500D01*
X2085000Y-6901500D02*
X1985000Y-7001500D01*
X2070356Y-6986856D02*
X2070356Y-6916144D01*
X1999644Y-6916144D01*
X1999644Y-6986856D01*
X2070356Y-6986856D01*
X1985000Y-7155500D02*
X2085000Y-7255500D01*
X2085000Y-7155500D02*
X1985000Y-7255500D01*
X2070356Y-7240856D02*
X2070356Y-7170144D01*
X1999644Y-7170144D01*
X1999644Y-7240856D01*
X2070356Y-7240856D01*
X1985000Y-7409500D02*
X2085000Y-7509500D01*
X2085000Y-7409500D02*
X1985000Y-7509500D01*
X2070356Y-7494856D02*
X2070356Y-7424144D01*
X1999644Y-7424144D01*
X1999644Y-7494856D01*
X2070356Y-7494856D01*
X1985000Y-7663500D02*
X2085000Y-7763500D01*
X2085000Y-7663500D02*
X1985000Y-7763500D01*
X2070356Y-7748856D02*
X2070356Y-7678144D01*
X1999644Y-7678144D01*
X1999644Y-7748856D01*
X2070356Y-7748856D01*
X1985000Y-7917500D02*
X2085000Y-8017500D01*
X2085000Y-7917500D02*
X1985000Y-8017500D01*
X2070356Y-8002856D02*
X2070356Y-7932144D01*
X1999644Y-7932144D01*
X1999644Y-8002856D01*
X2070356Y-8002856D01*
X1985000Y-8171500D02*
X2085000Y-8271500D01*
X2085000Y-8171500D02*
X1985000Y-8271500D01*
X2070356Y-8256856D02*
X2070356Y-8186144D01*
X1999644Y-8186144D01*
X1999644Y-8256856D01*
X2070356Y-8256856D01*
X1985000Y-8425500D02*
X2085000Y-8525500D01*
X2085000Y-8425500D02*
X1985000Y-8525500D01*
X2070356Y-8510856D02*
X2070356Y-8440144D01*
X1999644Y-8440144D01*
X1999644Y-8510856D01*
X2070356Y-8510856D01*
X1985000Y-8679500D02*
X2085000Y-8779500D01*
X2085000Y-8679500D02*
X1985000Y-8779500D01*
X2070356Y-8764856D02*
X2070356Y-8694144D01*
X1999644Y-8694144D01*
X1999644Y-8764856D01*
X2070356Y-8764856D01*
X1985000Y-8933500D02*
X2085000Y-9033500D01*
X2085000Y-8933500D02*
X1985000Y-9033500D01*
X2070356Y-9018856D02*
X2070356Y-8948144D01*
X1999644Y-8948144D01*
X1999644Y-9018856D01*
X2070356Y-9018856D01*
X1985000Y-9187500D02*
X2085000Y-9287500D01*
X2085000Y-9187500D02*
X1985000Y-9287500D01*
X2070356Y-9272856D02*
X2070356Y-9202144D01*
X1999644Y-9202144D01*
X1999644Y-9272856D01*
X2070356Y-9272856D01*
X4270000Y-6139500D02*
X4370000Y-6239500D01*
X4370000Y-6139500D02*
X4270000Y-6239500D01*
X4355356Y-6224856D02*
X4355356Y-6154144D01*
X4284644Y-6154144D01*
X4284644Y-6224856D01*
X4355356Y-6224856D01*
X4270000Y-6393500D02*
X4370000Y-6493500D01*
X4370000Y-6393500D02*
X4270000Y-6493500D01*
X4355356Y-6478856D02*
X4355356Y-6408144D01*
X4284644Y-6408144D01*
X4284644Y-6478856D01*
X4355356Y-6478856D01*
X4270000Y-6647500D02*
X4370000Y-6747500D01*
X4370000Y-6647500D02*
X4270000Y-6747500D01*
X4355356Y-6732856D02*
X4355356Y-6662144D01*
X4284644Y-6662144D01*
X4284644Y-6732856D01*
X4355356Y-6732856D01*
X4270000Y-6901500D02*
X4370000Y-7001500D01*
X4370000Y-6901500D02*
X4270000Y-7001500D01*
X4355356Y-6986856D02*
X4355356Y-6916144D01*
X4284644Y-6916144D01*
X4284644Y-6986856D01*
X4355356Y-6986856D01*
X4270000Y-7155500D02*
X4370000Y-7255500D01*
X4370000Y-7155500D02*
X4270000Y-7255500D01*
X4355356Y-7240856D02*
X4355356Y-7170144D01*
X4284644Y-7170144D01*
X4284644Y-7240856D01*
X4355356Y-7240856D01*
X4270000Y-7409500D02*
X4370000Y-7509500D01*
X4370000Y-7409500D02*
X4270000Y-7509500D01*
X4355356Y-7494856D02*
X4355356Y-7424144D01*
X4284644Y-7424144D01*
X4284644Y-7494856D01*
X4355356Y-7494856D01*
X4270000Y-7663500D02*
X4370000Y-7763500D01*
X4370000Y-7663500D02*
X4270000Y-7763500D01*
X4355356Y-7748856D02*
X4355356Y-7678144D01*
X4284644Y-7678144D01*
X4284644Y-7748856D01*
X4355356Y-7748856D01*
X4270000Y-7917500D02*
X4370000Y-8017500D01*
X4370000Y-7917500D02*
X4270000Y-8017500D01*
X4355356Y-8002856D02*
X4355356Y-7932144D01*
X4284644Y-7932144D01*
X4284644Y-8002856D01*
X4355356Y-8002856D01*
X4270000Y-8171500D02*
X4370000Y-8271500D01*
X4370000Y-8171500D02*
X4270000Y-8271500D01*
X4355356Y-8256856D02*
X4355356Y-8186144D01*
X4284644Y-8186144D01*
X4284644Y-8256856D01*
X4355356Y-8256856D01*
X4270000Y-8425500D02*
X4370000Y-8525500D01*
X4370000Y-8425500D02*
X4270000Y-8525500D01*
X4355356Y-8510856D02*
X4355356Y-8440144D01*
X4284644Y-8440144D01*
X4284644Y-8510856D01*
X4355356Y-8510856D01*
X4270000Y-8679500D02*
X4370000Y-8779500D01*
X4370000Y-8679500D02*
X4270000Y-8779500D01*
X4355356Y-8764856D02*
X4355356Y-8694144D01*
X4284644Y-8694144D01*
X4284644Y-8764856D01*
X4355356Y-8764856D01*
X4270000Y-8933500D02*
X4370000Y-9033500D01*
X4370000Y-8933500D02*
X4270000Y-9033500D01*
X4355356Y-9018856D02*
X4355356Y-8948144D01*
X4284644Y-8948144D01*
X4284644Y-9018856D01*
X4355356Y-9018856D01*
X4270000Y-9187500D02*
X4370000Y-9287500D01*
X4370000Y-9187500D02*
X4270000Y-9287500D01*
X4355356Y-9272856D02*
X4355356Y-9202144D01*
X4284644Y-9202144D01*
X4284644Y-9272856D01*
X4355356Y-9272856D01*
X5260000Y-6690000D02*
X5360000Y-6790000D01*
X5360000Y-6690000D02*
X5260000Y-6790000D01*
X5345356Y-6775356D02*
X5345356Y-6704644D01*
X5274644Y-6704644D01*
X5274644Y-6775356D01*
X5345356Y-6775356D01*
X5770000Y-6830000D02*
X5870000Y-6930000D01*
X5870000Y-6830000D02*
X5770000Y-6930000D01*
X5855356Y-6915356D02*
X5855356Y-6844644D01*
X5784644Y-6844644D01*
X5784644Y-6915356D01*
X5855356Y-6915356D01*
D13*
X1132400Y-9282400D02*
X1247600Y-9397600D01*
X1247600Y-9282400D02*
X1132400Y-9397600D01*
X1190000Y-9397600D02*
X1247600Y-9340000D01*
X1190000Y-9282400D01*
X1132400Y-9340000D01*
X1190000Y-9397600D01*
X2127400Y-4147400D02*
X2242600Y-4262600D01*
X2242600Y-4147400D02*
X2127400Y-4262600D01*
X2185000Y-4262600D02*
X2242600Y-4205000D01*
X2185000Y-4147400D01*
X2127400Y-4205000D01*
X2185000Y-4262600D01*
X6172400Y-4712400D02*
X6287600Y-4827600D01*
X6287600Y-4712400D02*
X6172400Y-4827600D01*
X6230000Y-4827600D02*
X6287600Y-4770000D01*
X6230000Y-4712400D01*
X6172400Y-4770000D01*
X6230000Y-4827600D01*
D14*
X5720000Y-9510000D02*
X5720000Y-9630000D01*
X5660000Y-9570000D02*
X5780000Y-9570000D01*
X5780000Y-9570000D02*
G75*
G02*
X5660000Y-9570000I-60000J0D01*
G01*
X5660000Y-9570000D02*
G75*
G02*
X5780000Y-9570000I60000J0D01*
G01*
X6220000Y-9160000D02*
X6220000Y-9280000D01*
X6160000Y-9220000D02*
X6280000Y-9220000D01*
X6280000Y-9220000D02*
G75*
G02*
X6160000Y-9220000I-60000J0D01*
G01*
X6160000Y-9220000D02*
G75*
G02*
X6280000Y-9220000I60000J0D01*
G01*
X6220000Y-9860000D02*
X6220000Y-9980000D01*
X6160000Y-9920000D02*
X6280000Y-9920000D01*
X6280000Y-9920000D02*
G75*
G02*
X6160000Y-9920000I-60000J0D01*
G01*
X6160000Y-9920000D02*
G75*
G02*
X6280000Y-9920000I60000J0D01*
G01*
D15*
X5069105Y-7960105D02*
X5069105Y-7839895D01*
X4948895Y-7839895D01*
X4948895Y-7960105D01*
X5069105Y-7960105D01*
X5094000Y-7900000D02*
G75*
G02*
X4924000Y-7900000I-85000J0D01*
G01*
X4924000Y-7900000D02*
G75*
G02*
X5094000Y-7900000I85000J0D01*
G01*
X5831105Y-7960105D02*
X5831105Y-7839895D01*
X5710895Y-7839895D01*
X5710895Y-7960105D01*
X5831105Y-7960105D01*
X5856000Y-7900000D02*
G75*
G02*
X5686000Y-7900000I-85000J0D01*
G01*
X5686000Y-7900000D02*
G75*
G02*
X5856000Y-7900000I85000J0D01*
G01*
X5850105Y-5420105D02*
X5850105Y-5299895D01*
X5729895Y-5299895D01*
X5729895Y-5420105D01*
X5850105Y-5420105D01*
X5875000Y-5360000D02*
G75*
G02*
X5705000Y-5360000I-85000J0D01*
G01*
X5705000Y-5360000D02*
G75*
G02*
X5875000Y-5360000I85000J0D01*
G01*
X5850105Y-6182105D02*
X5850105Y-6061895D01*
X5729895Y-6061895D01*
X5729895Y-6182105D01*
X5850105Y-6182105D01*
X5875000Y-6122000D02*
G75*
G02*
X5705000Y-6122000I-85000J0D01*
G01*
X5705000Y-6122000D02*
G75*
G02*
X5875000Y-6122000I85000J0D01*
G01*
D16*
X1170000Y-4545000D02*
X1295000Y-4420000D01*
X1170000Y-4295000D01*
X1045000Y-4420000D01*
X1170000Y-4545000D01*
X1295000Y-4420000D02*
G75*
G02*
X1045000Y-4420000I-125000J0D01*
G01*
X1045000Y-4420000D02*
G75*
G02*
X1295000Y-4420000I125000J0D01*
G01*
X1170000Y-9075000D02*
X1295000Y-8950000D01*
X1170000Y-8825000D01*
X1045000Y-8950000D01*
X1170000Y-9075000D01*
X1295000Y-8950000D02*
G75*
G02*
X1045000Y-8950000I-125000J0D01*
G01*
X1045000Y-8950000D02*
G75*
G02*
X1295000Y-8950000I125000J0D01*
G01*
X1580000Y-4715000D02*
X1705000Y-4590000D01*
X1580000Y-4465000D01*
X1455000Y-4590000D01*
X1580000Y-4715000D01*
X1705000Y-4590000D02*
G75*
G02*
X1455000Y-4590000I-125000J0D01*
G01*
X1455000Y-4590000D02*
G75*
G02*
X1705000Y-4590000I125000J0D01*
G01*
X1580000Y-9415000D02*
X1705000Y-9290000D01*
X1580000Y-9165000D01*
X1455000Y-9290000D01*
X1580000Y-9415000D01*
X1705000Y-9290000D02*
G75*
G02*
X1455000Y-9290000I-125000J0D01*
G01*
X1455000Y-9290000D02*
G75*
G02*
X1705000Y-9290000I125000J0D01*
G01*
X4850000Y-4302500D02*
X4975000Y-4177500D01*
X4850000Y-4052500D01*
X4725000Y-4177500D01*
X4850000Y-4302500D01*
X4975000Y-4177500D02*
G75*
G02*
X4725000Y-4177500I-125000J0D01*
G01*
X4725000Y-4177500D02*
G75*
G02*
X4975000Y-4177500I125000J0D01*
G01*
X4850000Y-9075000D02*
X4975000Y-8950000D01*
X4850000Y-8825000D01*
X4725000Y-8950000D01*
X4850000Y-9075000D01*
X4975000Y-8950000D02*
G75*
G02*
X4725000Y-8950000I-125000J0D01*
G01*
X4725000Y-8950000D02*
G75*
G02*
X4975000Y-8950000I125000J0D01*
G01*
D11*
X718277Y-10523984D02*
X718277Y-10323984D01*
X718277Y-10323984D02*
X765896Y-10323984D01*
X765896Y-10323984D02*
X794467Y-10333508D01*
X794467Y-10333508D02*
X813515Y-10352555D01*
X813515Y-10352555D02*
X823039Y-10371603D01*
X823039Y-10371603D02*
X832562Y-10409698D01*
X832562Y-10409698D02*
X832562Y-10438270D01*
X832562Y-10438270D02*
X823039Y-10476365D01*
X823039Y-10476365D02*
X813515Y-10495412D01*
X813515Y-10495412D02*
X794467Y-10514460D01*
X794467Y-10514460D02*
X765896Y-10523984D01*
X765896Y-10523984D02*
X718277Y-10523984D01*
X918277Y-10523984D02*
X918277Y-10390650D01*
X918277Y-10428746D02*
X927801Y-10409698D01*
X927801Y-10409698D02*
X937324Y-10400174D01*
X937324Y-10400174D02*
X956372Y-10390650D01*
X956372Y-10390650D02*
X975420Y-10390650D01*
X1042086Y-10523984D02*
X1042086Y-10390650D01*
X1042086Y-10323984D02*
X1032562Y-10333508D01*
X1032562Y-10333508D02*
X1042086Y-10343031D01*
X1042086Y-10343031D02*
X1051610Y-10333508D01*
X1051610Y-10333508D02*
X1042086Y-10323984D01*
X1042086Y-10323984D02*
X1042086Y-10343031D01*
X1165896Y-10523984D02*
X1146848Y-10514460D01*
X1146848Y-10514460D02*
X1137324Y-10495412D01*
X1137324Y-10495412D02*
X1137324Y-10323984D01*
X1270658Y-10523984D02*
X1251610Y-10514460D01*
X1251610Y-10514460D02*
X1242086Y-10495412D01*
X1242086Y-10495412D02*
X1242086Y-10323984D01*
X1499229Y-10523984D02*
X1499229Y-10323984D01*
X1499229Y-10323984D02*
X1565896Y-10466841D01*
X1565896Y-10466841D02*
X1632562Y-10323984D01*
X1632562Y-10323984D02*
X1632562Y-10523984D01*
X1813515Y-10523984D02*
X1813515Y-10419222D01*
X1813515Y-10419222D02*
X1803991Y-10400174D01*
X1803991Y-10400174D02*
X1784943Y-10390650D01*
X1784943Y-10390650D02*
X1746848Y-10390650D01*
X1746848Y-10390650D02*
X1727801Y-10400174D01*
X1813515Y-10514460D02*
X1794467Y-10523984D01*
X1794467Y-10523984D02*
X1746848Y-10523984D01*
X1746848Y-10523984D02*
X1727801Y-10514460D01*
X1727801Y-10514460D02*
X1718277Y-10495412D01*
X1718277Y-10495412D02*
X1718277Y-10476365D01*
X1718277Y-10476365D02*
X1727801Y-10457317D01*
X1727801Y-10457317D02*
X1746848Y-10447793D01*
X1746848Y-10447793D02*
X1794467Y-10447793D01*
X1794467Y-10447793D02*
X1813515Y-10438270D01*
X1908753Y-10390650D02*
X1908753Y-10590650D01*
X1908753Y-10400174D02*
X1927801Y-10390650D01*
X1927801Y-10390650D02*
X1965896Y-10390650D01*
X1965896Y-10390650D02*
X1984943Y-10400174D01*
X1984943Y-10400174D02*
X1994467Y-10409698D01*
X1994467Y-10409698D02*
X2003991Y-10428746D01*
X2003991Y-10428746D02*
X2003991Y-10485889D01*
X2003991Y-10485889D02*
X1994467Y-10504936D01*
X1994467Y-10504936D02*
X1984943Y-10514460D01*
X1984943Y-10514460D02*
X1965896Y-10523984D01*
X1965896Y-10523984D02*
X1927801Y-10523984D01*
X1927801Y-10523984D02*
X1908753Y-10514460D01*
X2089705Y-10504936D02*
X2099229Y-10514460D01*
X2099229Y-10514460D02*
X2089705Y-10523984D01*
X2089705Y-10523984D02*
X2080182Y-10514460D01*
X2080182Y-10514460D02*
X2089705Y-10504936D01*
X2089705Y-10504936D02*
X2089705Y-10523984D01*
X2089705Y-10400174D02*
X2099229Y-10409698D01*
X2099229Y-10409698D02*
X2089705Y-10419222D01*
X2089705Y-10419222D02*
X2080182Y-10409698D01*
X2080182Y-10409698D02*
X2089705Y-10400174D01*
X2089705Y-10400174D02*
X2089705Y-10419222D01*
D12*
X427500Y-10837500D02*
X457500Y-10867500D01*
X457500Y-10837500D02*
X427500Y-10867500D01*
D11*
X756372Y-10743984D02*
X775420Y-10743984D01*
X775420Y-10743984D02*
X794467Y-10753508D01*
X794467Y-10753508D02*
X803991Y-10763031D01*
X803991Y-10763031D02*
X813515Y-10782079D01*
X813515Y-10782079D02*
X823039Y-10820174D01*
X823039Y-10820174D02*
X823039Y-10867793D01*
X823039Y-10867793D02*
X813515Y-10905889D01*
X813515Y-10905889D02*
X803991Y-10924936D01*
X803991Y-10924936D02*
X794467Y-10934460D01*
X794467Y-10934460D02*
X775420Y-10943984D01*
X775420Y-10943984D02*
X756372Y-10943984D01*
X756372Y-10943984D02*
X737324Y-10934460D01*
X737324Y-10934460D02*
X727801Y-10924936D01*
X727801Y-10924936D02*
X718277Y-10905889D01*
X718277Y-10905889D02*
X708753Y-10867793D01*
X708753Y-10867793D02*
X708753Y-10820174D01*
X708753Y-10820174D02*
X718277Y-10782079D01*
X718277Y-10782079D02*
X727801Y-10763031D01*
X727801Y-10763031D02*
X737324Y-10753508D01*
X737324Y-10753508D02*
X756372Y-10743984D01*
X908753Y-10924936D02*
X918277Y-10934460D01*
X918277Y-10934460D02*
X908753Y-10943984D01*
X908753Y-10943984D02*
X899229Y-10934460D01*
X899229Y-10934460D02*
X908753Y-10924936D01*
X908753Y-10924936D02*
X908753Y-10943984D01*
X984943Y-10743984D02*
X1108753Y-10743984D01*
X1108753Y-10743984D02*
X1042086Y-10820174D01*
X1042086Y-10820174D02*
X1070658Y-10820174D01*
X1070658Y-10820174D02*
X1089705Y-10829698D01*
X1089705Y-10829698D02*
X1099229Y-10839222D01*
X1099229Y-10839222D02*
X1108753Y-10858270D01*
X1108753Y-10858270D02*
X1108753Y-10905889D01*
X1108753Y-10905889D02*
X1099229Y-10924936D01*
X1099229Y-10924936D02*
X1089705Y-10934460D01*
X1089705Y-10934460D02*
X1070658Y-10943984D01*
X1070658Y-10943984D02*
X1013515Y-10943984D01*
X1013515Y-10943984D02*
X994467Y-10934460D01*
X994467Y-10934460D02*
X984943Y-10924936D01*
X1232563Y-10743984D02*
X1251610Y-10743984D01*
X1251610Y-10743984D02*
X1270658Y-10753508D01*
X1270658Y-10753508D02*
X1280182Y-10763031D01*
X1280182Y-10763031D02*
X1289705Y-10782079D01*
X1289705Y-10782079D02*
X1299229Y-10820174D01*
X1299229Y-10820174D02*
X1299229Y-10867793D01*
X1299229Y-10867793D02*
X1289705Y-10905889D01*
X1289705Y-10905889D02*
X1280182Y-10924936D01*
X1280182Y-10924936D02*
X1270658Y-10934460D01*
X1270658Y-10934460D02*
X1251610Y-10943984D01*
X1251610Y-10943984D02*
X1232563Y-10943984D01*
X1232563Y-10943984D02*
X1213515Y-10934460D01*
X1213515Y-10934460D02*
X1203991Y-10924936D01*
X1203991Y-10924936D02*
X1194467Y-10905889D01*
X1194467Y-10905889D02*
X1184944Y-10867793D01*
X1184944Y-10867793D02*
X1184944Y-10820174D01*
X1184944Y-10820174D02*
X1194467Y-10782079D01*
X1194467Y-10782079D02*
X1203991Y-10763031D01*
X1203991Y-10763031D02*
X1213515Y-10753508D01*
X1213515Y-10753508D02*
X1232563Y-10743984D01*
X1423039Y-10743984D02*
X1442086Y-10743984D01*
X1442086Y-10743984D02*
X1461134Y-10753508D01*
X1461134Y-10753508D02*
X1470658Y-10763031D01*
X1470658Y-10763031D02*
X1480182Y-10782079D01*
X1480182Y-10782079D02*
X1489705Y-10820174D01*
X1489705Y-10820174D02*
X1489705Y-10867793D01*
X1489705Y-10867793D02*
X1480182Y-10905889D01*
X1480182Y-10905889D02*
X1470658Y-10924936D01*
X1470658Y-10924936D02*
X1461134Y-10934460D01*
X1461134Y-10934460D02*
X1442086Y-10943984D01*
X1442086Y-10943984D02*
X1423039Y-10943984D01*
X1423039Y-10943984D02*
X1403991Y-10934460D01*
X1403991Y-10934460D02*
X1394467Y-10924936D01*
X1394467Y-10924936D02*
X1384944Y-10905889D01*
X1384944Y-10905889D02*
X1375420Y-10867793D01*
X1375420Y-10867793D02*
X1375420Y-10820174D01*
X1375420Y-10820174D02*
X1384944Y-10782079D01*
X1384944Y-10782079D02*
X1394467Y-10763031D01*
X1394467Y-10763031D02*
X1403991Y-10753508D01*
X1403991Y-10753508D02*
X1423039Y-10743984D01*
X1575420Y-10943984D02*
X1575420Y-10810650D01*
X1575420Y-10829698D02*
X1584943Y-10820174D01*
X1584943Y-10820174D02*
X1603991Y-10810650D01*
X1603991Y-10810650D02*
X1632563Y-10810650D01*
X1632563Y-10810650D02*
X1651610Y-10820174D01*
X1651610Y-10820174D02*
X1661134Y-10839222D01*
X1661134Y-10839222D02*
X1661134Y-10943984D01*
X1661134Y-10839222D02*
X1670658Y-10820174D01*
X1670658Y-10820174D02*
X1689705Y-10810650D01*
X1689705Y-10810650D02*
X1718277Y-10810650D01*
X1718277Y-10810650D02*
X1737324Y-10820174D01*
X1737324Y-10820174D02*
X1746848Y-10839222D01*
X1746848Y-10839222D02*
X1746848Y-10943984D01*
X1842086Y-10943984D02*
X1842086Y-10810650D01*
X1842086Y-10829698D02*
X1851610Y-10820174D01*
X1851610Y-10820174D02*
X1870658Y-10810650D01*
X1870658Y-10810650D02*
X1899229Y-10810650D01*
X1899229Y-10810650D02*
X1918277Y-10820174D01*
X1918277Y-10820174D02*
X1927801Y-10839222D01*
X1927801Y-10839222D02*
X1927801Y-10943984D01*
X1927801Y-10839222D02*
X1937324Y-10820174D01*
X1937324Y-10820174D02*
X1956372Y-10810650D01*
X1956372Y-10810650D02*
X1984943Y-10810650D01*
X1984943Y-10810650D02*
X2003991Y-10820174D01*
X2003991Y-10820174D02*
X2013515Y-10839222D01*
X2013515Y-10839222D02*
X2013515Y-10943984D01*
X2403991Y-10734460D02*
X2232563Y-10991603D01*
X2661134Y-10743984D02*
X2680182Y-10743984D01*
X2680182Y-10743984D02*
X2699229Y-10753508D01*
X2699229Y-10753508D02*
X2708753Y-10763031D01*
X2708753Y-10763031D02*
X2718277Y-10782079D01*
X2718277Y-10782079D02*
X2727801Y-10820174D01*
X2727801Y-10820174D02*
X2727801Y-10867793D01*
X2727801Y-10867793D02*
X2718277Y-10905889D01*
X2718277Y-10905889D02*
X2708753Y-10924936D01*
X2708753Y-10924936D02*
X2699229Y-10934460D01*
X2699229Y-10934460D02*
X2680182Y-10943984D01*
X2680182Y-10943984D02*
X2661134Y-10943984D01*
X2661134Y-10943984D02*
X2642087Y-10934460D01*
X2642087Y-10934460D02*
X2632563Y-10924936D01*
X2632563Y-10924936D02*
X2623039Y-10905889D01*
X2623039Y-10905889D02*
X2613515Y-10867793D01*
X2613515Y-10867793D02*
X2613515Y-10820174D01*
X2613515Y-10820174D02*
X2623039Y-10782079D01*
X2623039Y-10782079D02*
X2632563Y-10763031D01*
X2632563Y-10763031D02*
X2642087Y-10753508D01*
X2642087Y-10753508D02*
X2661134Y-10743984D01*
X2813515Y-10924936D02*
X2823039Y-10934460D01*
X2823039Y-10934460D02*
X2813515Y-10943984D01*
X2813515Y-10943984D02*
X2803991Y-10934460D01*
X2803991Y-10934460D02*
X2813515Y-10924936D01*
X2813515Y-10924936D02*
X2813515Y-10943984D01*
X2946848Y-10743984D02*
X2965896Y-10743984D01*
X2965896Y-10743984D02*
X2984944Y-10753508D01*
X2984944Y-10753508D02*
X2994467Y-10763031D01*
X2994467Y-10763031D02*
X3003991Y-10782079D01*
X3003991Y-10782079D02*
X3013515Y-10820174D01*
X3013515Y-10820174D02*
X3013515Y-10867793D01*
X3013515Y-10867793D02*
X3003991Y-10905889D01*
X3003991Y-10905889D02*
X2994467Y-10924936D01*
X2994467Y-10924936D02*
X2984944Y-10934460D01*
X2984944Y-10934460D02*
X2965896Y-10943984D01*
X2965896Y-10943984D02*
X2946848Y-10943984D01*
X2946848Y-10943984D02*
X2927801Y-10934460D01*
X2927801Y-10934460D02*
X2918277Y-10924936D01*
X2918277Y-10924936D02*
X2908753Y-10905889D01*
X2908753Y-10905889D02*
X2899229Y-10867793D01*
X2899229Y-10867793D02*
X2899229Y-10820174D01*
X2899229Y-10820174D02*
X2908753Y-10782079D01*
X2908753Y-10782079D02*
X2918277Y-10763031D01*
X2918277Y-10763031D02*
X2927801Y-10753508D01*
X2927801Y-10753508D02*
X2946848Y-10743984D01*
X3203991Y-10943984D02*
X3089706Y-10943984D01*
X3146848Y-10943984D02*
X3146848Y-10743984D01*
X3146848Y-10743984D02*
X3127801Y-10772555D01*
X3127801Y-10772555D02*
X3108753Y-10791603D01*
X3108753Y-10791603D02*
X3089706Y-10801127D01*
X3394467Y-10943984D02*
X3280182Y-10943984D01*
X3337325Y-10943984D02*
X3337325Y-10743984D01*
X3337325Y-10743984D02*
X3318277Y-10772555D01*
X3318277Y-10772555D02*
X3299229Y-10791603D01*
X3299229Y-10791603D02*
X3280182Y-10801127D01*
X3508753Y-10829698D02*
X3489706Y-10820174D01*
X3489706Y-10820174D02*
X3480182Y-10810650D01*
X3480182Y-10810650D02*
X3470658Y-10791603D01*
X3470658Y-10791603D02*
X3470658Y-10782079D01*
X3470658Y-10782079D02*
X3480182Y-10763031D01*
X3480182Y-10763031D02*
X3489706Y-10753508D01*
X3489706Y-10753508D02*
X3508753Y-10743984D01*
X3508753Y-10743984D02*
X3546848Y-10743984D01*
X3546848Y-10743984D02*
X3565896Y-10753508D01*
X3565896Y-10753508D02*
X3575420Y-10763031D01*
X3575420Y-10763031D02*
X3584944Y-10782079D01*
X3584944Y-10782079D02*
X3584944Y-10791603D01*
X3584944Y-10791603D02*
X3575420Y-10810650D01*
X3575420Y-10810650D02*
X3565896Y-10820174D01*
X3565896Y-10820174D02*
X3546848Y-10829698D01*
X3546848Y-10829698D02*
X3508753Y-10829698D01*
X3508753Y-10829698D02*
X3489706Y-10839222D01*
X3489706Y-10839222D02*
X3480182Y-10848746D01*
X3480182Y-10848746D02*
X3470658Y-10867793D01*
X3470658Y-10867793D02*
X3470658Y-10905889D01*
X3470658Y-10905889D02*
X3480182Y-10924936D01*
X3480182Y-10924936D02*
X3489706Y-10934460D01*
X3489706Y-10934460D02*
X3508753Y-10943984D01*
X3508753Y-10943984D02*
X3546848Y-10943984D01*
X3546848Y-10943984D02*
X3565896Y-10934460D01*
X3565896Y-10934460D02*
X3575420Y-10924936D01*
X3575420Y-10924936D02*
X3584944Y-10905889D01*
X3584944Y-10905889D02*
X3584944Y-10867793D01*
X3584944Y-10867793D02*
X3575420Y-10848746D01*
X3575420Y-10848746D02*
X3565896Y-10839222D01*
X3565896Y-10839222D02*
X3546848Y-10829698D01*
X3661134Y-10743984D02*
X3661134Y-10782079D01*
X3737325Y-10743984D02*
X3737325Y-10782079D01*
X4032563Y-11020174D02*
X4023039Y-11010650D01*
X4023039Y-11010650D02*
X4003991Y-10982079D01*
X4003991Y-10982079D02*
X3994468Y-10963031D01*
X3994468Y-10963031D02*
X3984944Y-10934460D01*
X3984944Y-10934460D02*
X3975420Y-10886841D01*
X3975420Y-10886841D02*
X3975420Y-10848746D01*
X3975420Y-10848746D02*
X3984944Y-10801127D01*
X3984944Y-10801127D02*
X3994468Y-10772555D01*
X3994468Y-10772555D02*
X4003991Y-10753508D01*
X4003991Y-10753508D02*
X4023039Y-10724936D01*
X4023039Y-10724936D02*
X4032563Y-10715412D01*
X4203991Y-10743984D02*
X4108753Y-10743984D01*
X4108753Y-10743984D02*
X4099229Y-10839222D01*
X4099229Y-10839222D02*
X4108753Y-10829698D01*
X4108753Y-10829698D02*
X4127801Y-10820174D01*
X4127801Y-10820174D02*
X4175420Y-10820174D01*
X4175420Y-10820174D02*
X4194468Y-10829698D01*
X4194468Y-10829698D02*
X4203991Y-10839222D01*
X4203991Y-10839222D02*
X4213515Y-10858270D01*
X4213515Y-10858270D02*
X4213515Y-10905889D01*
X4213515Y-10905889D02*
X4203991Y-10924936D01*
X4203991Y-10924936D02*
X4194468Y-10934460D01*
X4194468Y-10934460D02*
X4175420Y-10943984D01*
X4175420Y-10943984D02*
X4127801Y-10943984D01*
X4127801Y-10943984D02*
X4108753Y-10934460D01*
X4108753Y-10934460D02*
X4099229Y-10924936D01*
X4337325Y-10743984D02*
X4356372Y-10743984D01*
X4356372Y-10743984D02*
X4375420Y-10753508D01*
X4375420Y-10753508D02*
X4384944Y-10763031D01*
X4384944Y-10763031D02*
X4394468Y-10782079D01*
X4394468Y-10782079D02*
X4403991Y-10820174D01*
X4403991Y-10820174D02*
X4403991Y-10867793D01*
X4403991Y-10867793D02*
X4394468Y-10905889D01*
X4394468Y-10905889D02*
X4384944Y-10924936D01*
X4384944Y-10924936D02*
X4375420Y-10934460D01*
X4375420Y-10934460D02*
X4356372Y-10943984D01*
X4356372Y-10943984D02*
X4337325Y-10943984D01*
X4337325Y-10943984D02*
X4318277Y-10934460D01*
X4318277Y-10934460D02*
X4308753Y-10924936D01*
X4308753Y-10924936D02*
X4299230Y-10905889D01*
X4299230Y-10905889D02*
X4289706Y-10867793D01*
X4289706Y-10867793D02*
X4289706Y-10820174D01*
X4289706Y-10820174D02*
X4299230Y-10782079D01*
X4299230Y-10782079D02*
X4308753Y-10763031D01*
X4308753Y-10763031D02*
X4318277Y-10753508D01*
X4318277Y-10753508D02*
X4337325Y-10743984D01*
X4642087Y-10943984D02*
X4642087Y-10743984D01*
X4727801Y-10943984D02*
X4727801Y-10839222D01*
X4727801Y-10839222D02*
X4718277Y-10820174D01*
X4718277Y-10820174D02*
X4699230Y-10810650D01*
X4699230Y-10810650D02*
X4670658Y-10810650D01*
X4670658Y-10810650D02*
X4651611Y-10820174D01*
X4651611Y-10820174D02*
X4642087Y-10829698D01*
X4851611Y-10943984D02*
X4832563Y-10934460D01*
X4832563Y-10934460D02*
X4823039Y-10924936D01*
X4823039Y-10924936D02*
X4813515Y-10905889D01*
X4813515Y-10905889D02*
X4813515Y-10848746D01*
X4813515Y-10848746D02*
X4823039Y-10829698D01*
X4823039Y-10829698D02*
X4832563Y-10820174D01*
X4832563Y-10820174D02*
X4851611Y-10810650D01*
X4851611Y-10810650D02*
X4880182Y-10810650D01*
X4880182Y-10810650D02*
X4899230Y-10820174D01*
X4899230Y-10820174D02*
X4908753Y-10829698D01*
X4908753Y-10829698D02*
X4918277Y-10848746D01*
X4918277Y-10848746D02*
X4918277Y-10905889D01*
X4918277Y-10905889D02*
X4908753Y-10924936D01*
X4908753Y-10924936D02*
X4899230Y-10934460D01*
X4899230Y-10934460D02*
X4880182Y-10943984D01*
X4880182Y-10943984D02*
X4851611Y-10943984D01*
X5032563Y-10943984D02*
X5013515Y-10934460D01*
X5013515Y-10934460D02*
X5003992Y-10915412D01*
X5003992Y-10915412D02*
X5003992Y-10743984D01*
X5184944Y-10934460D02*
X5165896Y-10943984D01*
X5165896Y-10943984D02*
X5127801Y-10943984D01*
X5127801Y-10943984D02*
X5108753Y-10934460D01*
X5108753Y-10934460D02*
X5099230Y-10915412D01*
X5099230Y-10915412D02*
X5099230Y-10839222D01*
X5099230Y-10839222D02*
X5108753Y-10820174D01*
X5108753Y-10820174D02*
X5127801Y-10810650D01*
X5127801Y-10810650D02*
X5165896Y-10810650D01*
X5165896Y-10810650D02*
X5184944Y-10820174D01*
X5184944Y-10820174D02*
X5194468Y-10839222D01*
X5194468Y-10839222D02*
X5194468Y-10858270D01*
X5194468Y-10858270D02*
X5099230Y-10877317D01*
X5270658Y-10934460D02*
X5289706Y-10943984D01*
X5289706Y-10943984D02*
X5327801Y-10943984D01*
X5327801Y-10943984D02*
X5346849Y-10934460D01*
X5346849Y-10934460D02*
X5356373Y-10915412D01*
X5356373Y-10915412D02*
X5356373Y-10905889D01*
X5356373Y-10905889D02*
X5346849Y-10886841D01*
X5346849Y-10886841D02*
X5327801Y-10877317D01*
X5327801Y-10877317D02*
X5299230Y-10877317D01*
X5299230Y-10877317D02*
X5280182Y-10867793D01*
X5280182Y-10867793D02*
X5270658Y-10848746D01*
X5270658Y-10848746D02*
X5270658Y-10839222D01*
X5270658Y-10839222D02*
X5280182Y-10820174D01*
X5280182Y-10820174D02*
X5299230Y-10810650D01*
X5299230Y-10810650D02*
X5327801Y-10810650D01*
X5327801Y-10810650D02*
X5346849Y-10820174D01*
X5423039Y-11020174D02*
X5432563Y-11010650D01*
X5432563Y-11010650D02*
X5451611Y-10982079D01*
X5451611Y-10982079D02*
X5461134Y-10963031D01*
X5461134Y-10963031D02*
X5470658Y-10934460D01*
X5470658Y-10934460D02*
X5480182Y-10886841D01*
X5480182Y-10886841D02*
X5480182Y-10848746D01*
X5480182Y-10848746D02*
X5470658Y-10801127D01*
X5470658Y-10801127D02*
X5461134Y-10772555D01*
X5461134Y-10772555D02*
X5451611Y-10753508D01*
X5451611Y-10753508D02*
X5432563Y-10724936D01*
X5432563Y-10724936D02*
X5423039Y-10715412D01*
D12*
X457500Y-11116500D02*
G75*
G02*
X417500Y-11116500I-20000J0D01*
G01*
X417500Y-11116500D02*
G75*
G02*
X457500Y-11116500I20000J0D01*
G01*
D11*
X756372Y-11007984D02*
X775420Y-11007984D01*
X775420Y-11007984D02*
X794467Y-11017508D01*
X794467Y-11017508D02*
X803991Y-11027031D01*
X803991Y-11027031D02*
X813515Y-11046079D01*
X813515Y-11046079D02*
X823039Y-11084174D01*
X823039Y-11084174D02*
X823039Y-11131793D01*
X823039Y-11131793D02*
X813515Y-11169889D01*
X813515Y-11169889D02*
X803991Y-11188936D01*
X803991Y-11188936D02*
X794467Y-11198460D01*
X794467Y-11198460D02*
X775420Y-11207984D01*
X775420Y-11207984D02*
X756372Y-11207984D01*
X756372Y-11207984D02*
X737324Y-11198460D01*
X737324Y-11198460D02*
X727801Y-11188936D01*
X727801Y-11188936D02*
X718277Y-11169889D01*
X718277Y-11169889D02*
X708753Y-11131793D01*
X708753Y-11131793D02*
X708753Y-11084174D01*
X708753Y-11084174D02*
X718277Y-11046079D01*
X718277Y-11046079D02*
X727801Y-11027031D01*
X727801Y-11027031D02*
X737324Y-11017508D01*
X737324Y-11017508D02*
X756372Y-11007984D01*
X908753Y-11188936D02*
X918277Y-11198460D01*
X918277Y-11198460D02*
X908753Y-11207984D01*
X908753Y-11207984D02*
X899229Y-11198460D01*
X899229Y-11198460D02*
X908753Y-11188936D01*
X908753Y-11188936D02*
X908753Y-11207984D01*
X1089705Y-11074650D02*
X1089705Y-11207984D01*
X1042086Y-10998460D02*
X994467Y-11141317D01*
X994467Y-11141317D02*
X1118277Y-11141317D01*
X1232563Y-11007984D02*
X1251610Y-11007984D01*
X1251610Y-11007984D02*
X1270658Y-11017508D01*
X1270658Y-11017508D02*
X1280182Y-11027031D01*
X1280182Y-11027031D02*
X1289705Y-11046079D01*
X1289705Y-11046079D02*
X1299229Y-11084174D01*
X1299229Y-11084174D02*
X1299229Y-11131793D01*
X1299229Y-11131793D02*
X1289705Y-11169889D01*
X1289705Y-11169889D02*
X1280182Y-11188936D01*
X1280182Y-11188936D02*
X1270658Y-11198460D01*
X1270658Y-11198460D02*
X1251610Y-11207984D01*
X1251610Y-11207984D02*
X1232563Y-11207984D01*
X1232563Y-11207984D02*
X1213515Y-11198460D01*
X1213515Y-11198460D02*
X1203991Y-11188936D01*
X1203991Y-11188936D02*
X1194467Y-11169889D01*
X1194467Y-11169889D02*
X1184944Y-11131793D01*
X1184944Y-11131793D02*
X1184944Y-11084174D01*
X1184944Y-11084174D02*
X1194467Y-11046079D01*
X1194467Y-11046079D02*
X1203991Y-11027031D01*
X1203991Y-11027031D02*
X1213515Y-11017508D01*
X1213515Y-11017508D02*
X1232563Y-11007984D01*
X1423039Y-11007984D02*
X1442086Y-11007984D01*
X1442086Y-11007984D02*
X1461134Y-11017508D01*
X1461134Y-11017508D02*
X1470658Y-11027031D01*
X1470658Y-11027031D02*
X1480182Y-11046079D01*
X1480182Y-11046079D02*
X1489705Y-11084174D01*
X1489705Y-11084174D02*
X1489705Y-11131793D01*
X1489705Y-11131793D02*
X1480182Y-11169889D01*
X1480182Y-11169889D02*
X1470658Y-11188936D01*
X1470658Y-11188936D02*
X1461134Y-11198460D01*
X1461134Y-11198460D02*
X1442086Y-11207984D01*
X1442086Y-11207984D02*
X1423039Y-11207984D01*
X1423039Y-11207984D02*
X1403991Y-11198460D01*
X1403991Y-11198460D02*
X1394467Y-11188936D01*
X1394467Y-11188936D02*
X1384944Y-11169889D01*
X1384944Y-11169889D02*
X1375420Y-11131793D01*
X1375420Y-11131793D02*
X1375420Y-11084174D01*
X1375420Y-11084174D02*
X1384944Y-11046079D01*
X1384944Y-11046079D02*
X1394467Y-11027031D01*
X1394467Y-11027031D02*
X1403991Y-11017508D01*
X1403991Y-11017508D02*
X1423039Y-11007984D01*
X1575420Y-11207984D02*
X1575420Y-11074650D01*
X1575420Y-11093698D02*
X1584943Y-11084174D01*
X1584943Y-11084174D02*
X1603991Y-11074650D01*
X1603991Y-11074650D02*
X1632563Y-11074650D01*
X1632563Y-11074650D02*
X1651610Y-11084174D01*
X1651610Y-11084174D02*
X1661134Y-11103222D01*
X1661134Y-11103222D02*
X1661134Y-11207984D01*
X1661134Y-11103222D02*
X1670658Y-11084174D01*
X1670658Y-11084174D02*
X1689705Y-11074650D01*
X1689705Y-11074650D02*
X1718277Y-11074650D01*
X1718277Y-11074650D02*
X1737324Y-11084174D01*
X1737324Y-11084174D02*
X1746848Y-11103222D01*
X1746848Y-11103222D02*
X1746848Y-11207984D01*
X1842086Y-11207984D02*
X1842086Y-11074650D01*
X1842086Y-11093698D02*
X1851610Y-11084174D01*
X1851610Y-11084174D02*
X1870658Y-11074650D01*
X1870658Y-11074650D02*
X1899229Y-11074650D01*
X1899229Y-11074650D02*
X1918277Y-11084174D01*
X1918277Y-11084174D02*
X1927801Y-11103222D01*
X1927801Y-11103222D02*
X1927801Y-11207984D01*
X1927801Y-11103222D02*
X1937324Y-11084174D01*
X1937324Y-11084174D02*
X1956372Y-11074650D01*
X1956372Y-11074650D02*
X1984943Y-11074650D01*
X1984943Y-11074650D02*
X2003991Y-11084174D01*
X2003991Y-11084174D02*
X2013515Y-11103222D01*
X2013515Y-11103222D02*
X2013515Y-11207984D01*
X2403991Y-10998460D02*
X2232563Y-11255603D01*
X2661134Y-11007984D02*
X2680182Y-11007984D01*
X2680182Y-11007984D02*
X2699229Y-11017508D01*
X2699229Y-11017508D02*
X2708753Y-11027031D01*
X2708753Y-11027031D02*
X2718277Y-11046079D01*
X2718277Y-11046079D02*
X2727801Y-11084174D01*
X2727801Y-11084174D02*
X2727801Y-11131793D01*
X2727801Y-11131793D02*
X2718277Y-11169889D01*
X2718277Y-11169889D02*
X2708753Y-11188936D01*
X2708753Y-11188936D02*
X2699229Y-11198460D01*
X2699229Y-11198460D02*
X2680182Y-11207984D01*
X2680182Y-11207984D02*
X2661134Y-11207984D01*
X2661134Y-11207984D02*
X2642087Y-11198460D01*
X2642087Y-11198460D02*
X2632563Y-11188936D01*
X2632563Y-11188936D02*
X2623039Y-11169889D01*
X2623039Y-11169889D02*
X2613515Y-11131793D01*
X2613515Y-11131793D02*
X2613515Y-11084174D01*
X2613515Y-11084174D02*
X2623039Y-11046079D01*
X2623039Y-11046079D02*
X2632563Y-11027031D01*
X2632563Y-11027031D02*
X2642087Y-11017508D01*
X2642087Y-11017508D02*
X2661134Y-11007984D01*
X2813515Y-11188936D02*
X2823039Y-11198460D01*
X2823039Y-11198460D02*
X2813515Y-11207984D01*
X2813515Y-11207984D02*
X2803991Y-11198460D01*
X2803991Y-11198460D02*
X2813515Y-11188936D01*
X2813515Y-11188936D02*
X2813515Y-11207984D01*
X2946848Y-11007984D02*
X2965896Y-11007984D01*
X2965896Y-11007984D02*
X2984944Y-11017508D01*
X2984944Y-11017508D02*
X2994467Y-11027031D01*
X2994467Y-11027031D02*
X3003991Y-11046079D01*
X3003991Y-11046079D02*
X3013515Y-11084174D01*
X3013515Y-11084174D02*
X3013515Y-11131793D01*
X3013515Y-11131793D02*
X3003991Y-11169889D01*
X3003991Y-11169889D02*
X2994467Y-11188936D01*
X2994467Y-11188936D02*
X2984944Y-11198460D01*
X2984944Y-11198460D02*
X2965896Y-11207984D01*
X2965896Y-11207984D02*
X2946848Y-11207984D01*
X2946848Y-11207984D02*
X2927801Y-11198460D01*
X2927801Y-11198460D02*
X2918277Y-11188936D01*
X2918277Y-11188936D02*
X2908753Y-11169889D01*
X2908753Y-11169889D02*
X2899229Y-11131793D01*
X2899229Y-11131793D02*
X2899229Y-11084174D01*
X2899229Y-11084174D02*
X2908753Y-11046079D01*
X2908753Y-11046079D02*
X2918277Y-11027031D01*
X2918277Y-11027031D02*
X2927801Y-11017508D01*
X2927801Y-11017508D02*
X2946848Y-11007984D01*
X3203991Y-11207984D02*
X3089706Y-11207984D01*
X3146848Y-11207984D02*
X3146848Y-11007984D01*
X3146848Y-11007984D02*
X3127801Y-11036555D01*
X3127801Y-11036555D02*
X3108753Y-11055603D01*
X3108753Y-11055603D02*
X3089706Y-11065127D01*
X3384944Y-11007984D02*
X3289706Y-11007984D01*
X3289706Y-11007984D02*
X3280182Y-11103222D01*
X3280182Y-11103222D02*
X3289706Y-11093698D01*
X3289706Y-11093698D02*
X3308753Y-11084174D01*
X3308753Y-11084174D02*
X3356372Y-11084174D01*
X3356372Y-11084174D02*
X3375420Y-11093698D01*
X3375420Y-11093698D02*
X3384944Y-11103222D01*
X3384944Y-11103222D02*
X3394467Y-11122270D01*
X3394467Y-11122270D02*
X3394467Y-11169889D01*
X3394467Y-11169889D02*
X3384944Y-11188936D01*
X3384944Y-11188936D02*
X3375420Y-11198460D01*
X3375420Y-11198460D02*
X3356372Y-11207984D01*
X3356372Y-11207984D02*
X3308753Y-11207984D01*
X3308753Y-11207984D02*
X3289706Y-11198460D01*
X3289706Y-11198460D02*
X3280182Y-11188936D01*
X3461134Y-11007984D02*
X3594467Y-11007984D01*
X3594467Y-11007984D02*
X3508753Y-11207984D01*
X3661134Y-11007984D02*
X3661134Y-11046079D01*
X3737325Y-11007984D02*
X3737325Y-11046079D01*
X4032563Y-11284174D02*
X4023039Y-11274650D01*
X4023039Y-11274650D02*
X4003991Y-11246079D01*
X4003991Y-11246079D02*
X3994468Y-11227031D01*
X3994468Y-11227031D02*
X3984944Y-11198460D01*
X3984944Y-11198460D02*
X3975420Y-11150841D01*
X3975420Y-11150841D02*
X3975420Y-11112746D01*
X3975420Y-11112746D02*
X3984944Y-11065127D01*
X3984944Y-11065127D02*
X3994468Y-11036555D01*
X3994468Y-11036555D02*
X4003991Y-11017508D01*
X4003991Y-11017508D02*
X4023039Y-10988936D01*
X4023039Y-10988936D02*
X4032563Y-10979412D01*
X4203991Y-11007984D02*
X4108753Y-11007984D01*
X4108753Y-11007984D02*
X4099229Y-11103222D01*
X4099229Y-11103222D02*
X4108753Y-11093698D01*
X4108753Y-11093698D02*
X4127801Y-11084174D01*
X4127801Y-11084174D02*
X4175420Y-11084174D01*
X4175420Y-11084174D02*
X4194468Y-11093698D01*
X4194468Y-11093698D02*
X4203991Y-11103222D01*
X4203991Y-11103222D02*
X4213515Y-11122270D01*
X4213515Y-11122270D02*
X4213515Y-11169889D01*
X4213515Y-11169889D02*
X4203991Y-11188936D01*
X4203991Y-11188936D02*
X4194468Y-11198460D01*
X4194468Y-11198460D02*
X4175420Y-11207984D01*
X4175420Y-11207984D02*
X4127801Y-11207984D01*
X4127801Y-11207984D02*
X4108753Y-11198460D01*
X4108753Y-11198460D02*
X4099229Y-11188936D01*
X4327801Y-11093698D02*
X4308753Y-11084174D01*
X4308753Y-11084174D02*
X4299230Y-11074650D01*
X4299230Y-11074650D02*
X4289706Y-11055603D01*
X4289706Y-11055603D02*
X4289706Y-11046079D01*
X4289706Y-11046079D02*
X4299230Y-11027031D01*
X4299230Y-11027031D02*
X4308753Y-11017508D01*
X4308753Y-11017508D02*
X4327801Y-11007984D01*
X4327801Y-11007984D02*
X4365896Y-11007984D01*
X4365896Y-11007984D02*
X4384944Y-11017508D01*
X4384944Y-11017508D02*
X4394468Y-11027031D01*
X4394468Y-11027031D02*
X4403991Y-11046079D01*
X4403991Y-11046079D02*
X4403991Y-11055603D01*
X4403991Y-11055603D02*
X4394468Y-11074650D01*
X4394468Y-11074650D02*
X4384944Y-11084174D01*
X4384944Y-11084174D02*
X4365896Y-11093698D01*
X4365896Y-11093698D02*
X4327801Y-11093698D01*
X4327801Y-11093698D02*
X4308753Y-11103222D01*
X4308753Y-11103222D02*
X4299230Y-11112746D01*
X4299230Y-11112746D02*
X4289706Y-11131793D01*
X4289706Y-11131793D02*
X4289706Y-11169889D01*
X4289706Y-11169889D02*
X4299230Y-11188936D01*
X4299230Y-11188936D02*
X4308753Y-11198460D01*
X4308753Y-11198460D02*
X4327801Y-11207984D01*
X4327801Y-11207984D02*
X4365896Y-11207984D01*
X4365896Y-11207984D02*
X4384944Y-11198460D01*
X4384944Y-11198460D02*
X4394468Y-11188936D01*
X4394468Y-11188936D02*
X4403991Y-11169889D01*
X4403991Y-11169889D02*
X4403991Y-11131793D01*
X4403991Y-11131793D02*
X4394468Y-11112746D01*
X4394468Y-11112746D02*
X4384944Y-11103222D01*
X4384944Y-11103222D02*
X4365896Y-11093698D01*
X4642087Y-11207984D02*
X4642087Y-11007984D01*
X4727801Y-11207984D02*
X4727801Y-11103222D01*
X4727801Y-11103222D02*
X4718277Y-11084174D01*
X4718277Y-11084174D02*
X4699230Y-11074650D01*
X4699230Y-11074650D02*
X4670658Y-11074650D01*
X4670658Y-11074650D02*
X4651611Y-11084174D01*
X4651611Y-11084174D02*
X4642087Y-11093698D01*
X4851611Y-11207984D02*
X4832563Y-11198460D01*
X4832563Y-11198460D02*
X4823039Y-11188936D01*
X4823039Y-11188936D02*
X4813515Y-11169889D01*
X4813515Y-11169889D02*
X4813515Y-11112746D01*
X4813515Y-11112746D02*
X4823039Y-11093698D01*
X4823039Y-11093698D02*
X4832563Y-11084174D01*
X4832563Y-11084174D02*
X4851611Y-11074650D01*
X4851611Y-11074650D02*
X4880182Y-11074650D01*
X4880182Y-11074650D02*
X4899230Y-11084174D01*
X4899230Y-11084174D02*
X4908753Y-11093698D01*
X4908753Y-11093698D02*
X4918277Y-11112746D01*
X4918277Y-11112746D02*
X4918277Y-11169889D01*
X4918277Y-11169889D02*
X4908753Y-11188936D01*
X4908753Y-11188936D02*
X4899230Y-11198460D01*
X4899230Y-11198460D02*
X4880182Y-11207984D01*
X4880182Y-11207984D02*
X4851611Y-11207984D01*
X5032563Y-11207984D02*
X5013515Y-11198460D01*
X5013515Y-11198460D02*
X5003992Y-11179412D01*
X5003992Y-11179412D02*
X5003992Y-11007984D01*
X5184944Y-11198460D02*
X5165896Y-11207984D01*
X5165896Y-11207984D02*
X5127801Y-11207984D01*
X5127801Y-11207984D02*
X5108753Y-11198460D01*
X5108753Y-11198460D02*
X5099230Y-11179412D01*
X5099230Y-11179412D02*
X5099230Y-11103222D01*
X5099230Y-11103222D02*
X5108753Y-11084174D01*
X5108753Y-11084174D02*
X5127801Y-11074650D01*
X5127801Y-11074650D02*
X5165896Y-11074650D01*
X5165896Y-11074650D02*
X5184944Y-11084174D01*
X5184944Y-11084174D02*
X5194468Y-11103222D01*
X5194468Y-11103222D02*
X5194468Y-11122270D01*
X5194468Y-11122270D02*
X5099230Y-11141317D01*
X5270658Y-11198460D02*
X5289706Y-11207984D01*
X5289706Y-11207984D02*
X5327801Y-11207984D01*
X5327801Y-11207984D02*
X5346849Y-11198460D01*
X5346849Y-11198460D02*
X5356373Y-11179412D01*
X5356373Y-11179412D02*
X5356373Y-11169889D01*
X5356373Y-11169889D02*
X5346849Y-11150841D01*
X5346849Y-11150841D02*
X5327801Y-11141317D01*
X5327801Y-11141317D02*
X5299230Y-11141317D01*
X5299230Y-11141317D02*
X5280182Y-11131793D01*
X5280182Y-11131793D02*
X5270658Y-11112746D01*
X5270658Y-11112746D02*
X5270658Y-11103222D01*
X5270658Y-11103222D02*
X5280182Y-11084174D01*
X5280182Y-11084174D02*
X5299230Y-11074650D01*
X5299230Y-11074650D02*
X5327801Y-11074650D01*
X5327801Y-11074650D02*
X5346849Y-11084174D01*
X5423039Y-11284174D02*
X5432563Y-11274650D01*
X5432563Y-11274650D02*
X5451611Y-11246079D01*
X5451611Y-11246079D02*
X5461134Y-11227031D01*
X5461134Y-11227031D02*
X5470658Y-11198460D01*
X5470658Y-11198460D02*
X5480182Y-11150841D01*
X5480182Y-11150841D02*
X5480182Y-11112746D01*
X5480182Y-11112746D02*
X5470658Y-11065127D01*
X5470658Y-11065127D02*
X5461134Y-11036555D01*
X5461134Y-11036555D02*
X5451611Y-11017508D01*
X5451611Y-11017508D02*
X5432563Y-10988936D01*
X5432563Y-10988936D02*
X5423039Y-10979412D01*
D12*
X432500Y-11355500D02*
X432500Y-11405500D01*
X407500Y-11380500D02*
X457500Y-11380500D01*
D11*
X756372Y-11271984D02*
X775420Y-11271984D01*
X775420Y-11271984D02*
X794467Y-11281508D01*
X794467Y-11281508D02*
X803991Y-11291031D01*
X803991Y-11291031D02*
X813515Y-11310079D01*
X813515Y-11310079D02*
X823039Y-11348174D01*
X823039Y-11348174D02*
X823039Y-11395793D01*
X823039Y-11395793D02*
X813515Y-11433888D01*
X813515Y-11433888D02*
X803991Y-11452936D01*
X803991Y-11452936D02*
X794467Y-11462460D01*
X794467Y-11462460D02*
X775420Y-11471984D01*
X775420Y-11471984D02*
X756372Y-11471984D01*
X756372Y-11471984D02*
X737324Y-11462460D01*
X737324Y-11462460D02*
X727801Y-11452936D01*
X727801Y-11452936D02*
X718277Y-11433888D01*
X718277Y-11433888D02*
X708753Y-11395793D01*
X708753Y-11395793D02*
X708753Y-11348174D01*
X708753Y-11348174D02*
X718277Y-11310079D01*
X718277Y-11310079D02*
X727801Y-11291031D01*
X727801Y-11291031D02*
X737324Y-11281508D01*
X737324Y-11281508D02*
X756372Y-11271984D01*
X908753Y-11452936D02*
X918277Y-11462460D01*
X918277Y-11462460D02*
X908753Y-11471984D01*
X908753Y-11471984D02*
X899229Y-11462460D01*
X899229Y-11462460D02*
X908753Y-11452936D01*
X908753Y-11452936D02*
X908753Y-11471984D01*
X1099229Y-11271984D02*
X1003991Y-11271984D01*
X1003991Y-11271984D02*
X994467Y-11367222D01*
X994467Y-11367222D02*
X1003991Y-11357698D01*
X1003991Y-11357698D02*
X1023039Y-11348174D01*
X1023039Y-11348174D02*
X1070658Y-11348174D01*
X1070658Y-11348174D02*
X1089705Y-11357698D01*
X1089705Y-11357698D02*
X1099229Y-11367222D01*
X1099229Y-11367222D02*
X1108753Y-11386269D01*
X1108753Y-11386269D02*
X1108753Y-11433888D01*
X1108753Y-11433888D02*
X1099229Y-11452936D01*
X1099229Y-11452936D02*
X1089705Y-11462460D01*
X1089705Y-11462460D02*
X1070658Y-11471984D01*
X1070658Y-11471984D02*
X1023039Y-11471984D01*
X1023039Y-11471984D02*
X1003991Y-11462460D01*
X1003991Y-11462460D02*
X994467Y-11452936D01*
X1232563Y-11271984D02*
X1251610Y-11271984D01*
X1251610Y-11271984D02*
X1270658Y-11281508D01*
X1270658Y-11281508D02*
X1280182Y-11291031D01*
X1280182Y-11291031D02*
X1289705Y-11310079D01*
X1289705Y-11310079D02*
X1299229Y-11348174D01*
X1299229Y-11348174D02*
X1299229Y-11395793D01*
X1299229Y-11395793D02*
X1289705Y-11433888D01*
X1289705Y-11433888D02*
X1280182Y-11452936D01*
X1280182Y-11452936D02*
X1270658Y-11462460D01*
X1270658Y-11462460D02*
X1251610Y-11471984D01*
X1251610Y-11471984D02*
X1232563Y-11471984D01*
X1232563Y-11471984D02*
X1213515Y-11462460D01*
X1213515Y-11462460D02*
X1203991Y-11452936D01*
X1203991Y-11452936D02*
X1194467Y-11433888D01*
X1194467Y-11433888D02*
X1184944Y-11395793D01*
X1184944Y-11395793D02*
X1184944Y-11348174D01*
X1184944Y-11348174D02*
X1194467Y-11310079D01*
X1194467Y-11310079D02*
X1203991Y-11291031D01*
X1203991Y-11291031D02*
X1213515Y-11281508D01*
X1213515Y-11281508D02*
X1232563Y-11271984D01*
X1423039Y-11271984D02*
X1442086Y-11271984D01*
X1442086Y-11271984D02*
X1461134Y-11281508D01*
X1461134Y-11281508D02*
X1470658Y-11291031D01*
X1470658Y-11291031D02*
X1480182Y-11310079D01*
X1480182Y-11310079D02*
X1489705Y-11348174D01*
X1489705Y-11348174D02*
X1489705Y-11395793D01*
X1489705Y-11395793D02*
X1480182Y-11433888D01*
X1480182Y-11433888D02*
X1470658Y-11452936D01*
X1470658Y-11452936D02*
X1461134Y-11462460D01*
X1461134Y-11462460D02*
X1442086Y-11471984D01*
X1442086Y-11471984D02*
X1423039Y-11471984D01*
X1423039Y-11471984D02*
X1403991Y-11462460D01*
X1403991Y-11462460D02*
X1394467Y-11452936D01*
X1394467Y-11452936D02*
X1384944Y-11433888D01*
X1384944Y-11433888D02*
X1375420Y-11395793D01*
X1375420Y-11395793D02*
X1375420Y-11348174D01*
X1375420Y-11348174D02*
X1384944Y-11310079D01*
X1384944Y-11310079D02*
X1394467Y-11291031D01*
X1394467Y-11291031D02*
X1403991Y-11281508D01*
X1403991Y-11281508D02*
X1423039Y-11271984D01*
X1575420Y-11471984D02*
X1575420Y-11338650D01*
X1575420Y-11357698D02*
X1584943Y-11348174D01*
X1584943Y-11348174D02*
X1603991Y-11338650D01*
X1603991Y-11338650D02*
X1632563Y-11338650D01*
X1632563Y-11338650D02*
X1651610Y-11348174D01*
X1651610Y-11348174D02*
X1661134Y-11367222D01*
X1661134Y-11367222D02*
X1661134Y-11471984D01*
X1661134Y-11367222D02*
X1670658Y-11348174D01*
X1670658Y-11348174D02*
X1689705Y-11338650D01*
X1689705Y-11338650D02*
X1718277Y-11338650D01*
X1718277Y-11338650D02*
X1737324Y-11348174D01*
X1737324Y-11348174D02*
X1746848Y-11367222D01*
X1746848Y-11367222D02*
X1746848Y-11471984D01*
X1842086Y-11471984D02*
X1842086Y-11338650D01*
X1842086Y-11357698D02*
X1851610Y-11348174D01*
X1851610Y-11348174D02*
X1870658Y-11338650D01*
X1870658Y-11338650D02*
X1899229Y-11338650D01*
X1899229Y-11338650D02*
X1918277Y-11348174D01*
X1918277Y-11348174D02*
X1927801Y-11367222D01*
X1927801Y-11367222D02*
X1927801Y-11471984D01*
X1927801Y-11367222D02*
X1937324Y-11348174D01*
X1937324Y-11348174D02*
X1956372Y-11338650D01*
X1956372Y-11338650D02*
X1984943Y-11338650D01*
X1984943Y-11338650D02*
X2003991Y-11348174D01*
X2003991Y-11348174D02*
X2013515Y-11367222D01*
X2013515Y-11367222D02*
X2013515Y-11471984D01*
X2403991Y-11262460D02*
X2232563Y-11519603D01*
X2661134Y-11271984D02*
X2680182Y-11271984D01*
X2680182Y-11271984D02*
X2699229Y-11281508D01*
X2699229Y-11281508D02*
X2708753Y-11291031D01*
X2708753Y-11291031D02*
X2718277Y-11310079D01*
X2718277Y-11310079D02*
X2727801Y-11348174D01*
X2727801Y-11348174D02*
X2727801Y-11395793D01*
X2727801Y-11395793D02*
X2718277Y-11433888D01*
X2718277Y-11433888D02*
X2708753Y-11452936D01*
X2708753Y-11452936D02*
X2699229Y-11462460D01*
X2699229Y-11462460D02*
X2680182Y-11471984D01*
X2680182Y-11471984D02*
X2661134Y-11471984D01*
X2661134Y-11471984D02*
X2642087Y-11462460D01*
X2642087Y-11462460D02*
X2632563Y-11452936D01*
X2632563Y-11452936D02*
X2623039Y-11433888D01*
X2623039Y-11433888D02*
X2613515Y-11395793D01*
X2613515Y-11395793D02*
X2613515Y-11348174D01*
X2613515Y-11348174D02*
X2623039Y-11310079D01*
X2623039Y-11310079D02*
X2632563Y-11291031D01*
X2632563Y-11291031D02*
X2642087Y-11281508D01*
X2642087Y-11281508D02*
X2661134Y-11271984D01*
X2813515Y-11452936D02*
X2823039Y-11462460D01*
X2823039Y-11462460D02*
X2813515Y-11471984D01*
X2813515Y-11471984D02*
X2803991Y-11462460D01*
X2803991Y-11462460D02*
X2813515Y-11452936D01*
X2813515Y-11452936D02*
X2813515Y-11471984D01*
X2946848Y-11271984D02*
X2965896Y-11271984D01*
X2965896Y-11271984D02*
X2984944Y-11281508D01*
X2984944Y-11281508D02*
X2994467Y-11291031D01*
X2994467Y-11291031D02*
X3003991Y-11310079D01*
X3003991Y-11310079D02*
X3013515Y-11348174D01*
X3013515Y-11348174D02*
X3013515Y-11395793D01*
X3013515Y-11395793D02*
X3003991Y-11433888D01*
X3003991Y-11433888D02*
X2994467Y-11452936D01*
X2994467Y-11452936D02*
X2984944Y-11462460D01*
X2984944Y-11462460D02*
X2965896Y-11471984D01*
X2965896Y-11471984D02*
X2946848Y-11471984D01*
X2946848Y-11471984D02*
X2927801Y-11462460D01*
X2927801Y-11462460D02*
X2918277Y-11452936D01*
X2918277Y-11452936D02*
X2908753Y-11433888D01*
X2908753Y-11433888D02*
X2899229Y-11395793D01*
X2899229Y-11395793D02*
X2899229Y-11348174D01*
X2899229Y-11348174D02*
X2908753Y-11310079D01*
X2908753Y-11310079D02*
X2918277Y-11291031D01*
X2918277Y-11291031D02*
X2927801Y-11281508D01*
X2927801Y-11281508D02*
X2946848Y-11271984D01*
X3203991Y-11471984D02*
X3089706Y-11471984D01*
X3146848Y-11471984D02*
X3146848Y-11271984D01*
X3146848Y-11271984D02*
X3127801Y-11300555D01*
X3127801Y-11300555D02*
X3108753Y-11319603D01*
X3108753Y-11319603D02*
X3089706Y-11329127D01*
X3299229Y-11471984D02*
X3337325Y-11471984D01*
X3337325Y-11471984D02*
X3356372Y-11462460D01*
X3356372Y-11462460D02*
X3365896Y-11452936D01*
X3365896Y-11452936D02*
X3384944Y-11424365D01*
X3384944Y-11424365D02*
X3394467Y-11386269D01*
X3394467Y-11386269D02*
X3394467Y-11310079D01*
X3394467Y-11310079D02*
X3384944Y-11291031D01*
X3384944Y-11291031D02*
X3375420Y-11281508D01*
X3375420Y-11281508D02*
X3356372Y-11271984D01*
X3356372Y-11271984D02*
X3318277Y-11271984D01*
X3318277Y-11271984D02*
X3299229Y-11281508D01*
X3299229Y-11281508D02*
X3289706Y-11291031D01*
X3289706Y-11291031D02*
X3280182Y-11310079D01*
X3280182Y-11310079D02*
X3280182Y-11357698D01*
X3280182Y-11357698D02*
X3289706Y-11376746D01*
X3289706Y-11376746D02*
X3299229Y-11386269D01*
X3299229Y-11386269D02*
X3318277Y-11395793D01*
X3318277Y-11395793D02*
X3356372Y-11395793D01*
X3356372Y-11395793D02*
X3375420Y-11386269D01*
X3375420Y-11386269D02*
X3384944Y-11376746D01*
X3384944Y-11376746D02*
X3394467Y-11357698D01*
X3461134Y-11271984D02*
X3594467Y-11271984D01*
X3594467Y-11271984D02*
X3508753Y-11471984D01*
X3661134Y-11271984D02*
X3661134Y-11310079D01*
X3737325Y-11271984D02*
X3737325Y-11310079D01*
X4032563Y-11548174D02*
X4023039Y-11538650D01*
X4023039Y-11538650D02*
X4003991Y-11510079D01*
X4003991Y-11510079D02*
X3994468Y-11491031D01*
X3994468Y-11491031D02*
X3984944Y-11462460D01*
X3984944Y-11462460D02*
X3975420Y-11414841D01*
X3975420Y-11414841D02*
X3975420Y-11376746D01*
X3975420Y-11376746D02*
X3984944Y-11329127D01*
X3984944Y-11329127D02*
X3994468Y-11300555D01*
X3994468Y-11300555D02*
X4003991Y-11281508D01*
X4003991Y-11281508D02*
X4023039Y-11252936D01*
X4023039Y-11252936D02*
X4032563Y-11243412D01*
X4194468Y-11338650D02*
X4194468Y-11471984D01*
X4146848Y-11262460D02*
X4099229Y-11405317D01*
X4099229Y-11405317D02*
X4223039Y-11405317D01*
X4327801Y-11357698D02*
X4308753Y-11348174D01*
X4308753Y-11348174D02*
X4299230Y-11338650D01*
X4299230Y-11338650D02*
X4289706Y-11319603D01*
X4289706Y-11319603D02*
X4289706Y-11310079D01*
X4289706Y-11310079D02*
X4299230Y-11291031D01*
X4299230Y-11291031D02*
X4308753Y-11281508D01*
X4308753Y-11281508D02*
X4327801Y-11271984D01*
X4327801Y-11271984D02*
X4365896Y-11271984D01*
X4365896Y-11271984D02*
X4384944Y-11281508D01*
X4384944Y-11281508D02*
X4394468Y-11291031D01*
X4394468Y-11291031D02*
X4403991Y-11310079D01*
X4403991Y-11310079D02*
X4403991Y-11319603D01*
X4403991Y-11319603D02*
X4394468Y-11338650D01*
X4394468Y-11338650D02*
X4384944Y-11348174D01*
X4384944Y-11348174D02*
X4365896Y-11357698D01*
X4365896Y-11357698D02*
X4327801Y-11357698D01*
X4327801Y-11357698D02*
X4308753Y-11367222D01*
X4308753Y-11367222D02*
X4299230Y-11376746D01*
X4299230Y-11376746D02*
X4289706Y-11395793D01*
X4289706Y-11395793D02*
X4289706Y-11433888D01*
X4289706Y-11433888D02*
X4299230Y-11452936D01*
X4299230Y-11452936D02*
X4308753Y-11462460D01*
X4308753Y-11462460D02*
X4327801Y-11471984D01*
X4327801Y-11471984D02*
X4365896Y-11471984D01*
X4365896Y-11471984D02*
X4384944Y-11462460D01*
X4384944Y-11462460D02*
X4394468Y-11452936D01*
X4394468Y-11452936D02*
X4403991Y-11433888D01*
X4403991Y-11433888D02*
X4403991Y-11395793D01*
X4403991Y-11395793D02*
X4394468Y-11376746D01*
X4394468Y-11376746D02*
X4384944Y-11367222D01*
X4384944Y-11367222D02*
X4365896Y-11357698D01*
X4642087Y-11471984D02*
X4642087Y-11271984D01*
X4727801Y-11471984D02*
X4727801Y-11367222D01*
X4727801Y-11367222D02*
X4718277Y-11348174D01*
X4718277Y-11348174D02*
X4699230Y-11338650D01*
X4699230Y-11338650D02*
X4670658Y-11338650D01*
X4670658Y-11338650D02*
X4651611Y-11348174D01*
X4651611Y-11348174D02*
X4642087Y-11357698D01*
X4851611Y-11471984D02*
X4832563Y-11462460D01*
X4832563Y-11462460D02*
X4823039Y-11452936D01*
X4823039Y-11452936D02*
X4813515Y-11433888D01*
X4813515Y-11433888D02*
X4813515Y-11376746D01*
X4813515Y-11376746D02*
X4823039Y-11357698D01*
X4823039Y-11357698D02*
X4832563Y-11348174D01*
X4832563Y-11348174D02*
X4851611Y-11338650D01*
X4851611Y-11338650D02*
X4880182Y-11338650D01*
X4880182Y-11338650D02*
X4899230Y-11348174D01*
X4899230Y-11348174D02*
X4908753Y-11357698D01*
X4908753Y-11357698D02*
X4918277Y-11376746D01*
X4918277Y-11376746D02*
X4918277Y-11433888D01*
X4918277Y-11433888D02*
X4908753Y-11452936D01*
X4908753Y-11452936D02*
X4899230Y-11462460D01*
X4899230Y-11462460D02*
X4880182Y-11471984D01*
X4880182Y-11471984D02*
X4851611Y-11471984D01*
X5032563Y-11471984D02*
X5013515Y-11462460D01*
X5013515Y-11462460D02*
X5003992Y-11443412D01*
X5003992Y-11443412D02*
X5003992Y-11271984D01*
X5184944Y-11462460D02*
X5165896Y-11471984D01*
X5165896Y-11471984D02*
X5127801Y-11471984D01*
X5127801Y-11471984D02*
X5108753Y-11462460D01*
X5108753Y-11462460D02*
X5099230Y-11443412D01*
X5099230Y-11443412D02*
X5099230Y-11367222D01*
X5099230Y-11367222D02*
X5108753Y-11348174D01*
X5108753Y-11348174D02*
X5127801Y-11338650D01*
X5127801Y-11338650D02*
X5165896Y-11338650D01*
X5165896Y-11338650D02*
X5184944Y-11348174D01*
X5184944Y-11348174D02*
X5194468Y-11367222D01*
X5194468Y-11367222D02*
X5194468Y-11386269D01*
X5194468Y-11386269D02*
X5099230Y-11405317D01*
X5270658Y-11462460D02*
X5289706Y-11471984D01*
X5289706Y-11471984D02*
X5327801Y-11471984D01*
X5327801Y-11471984D02*
X5346849Y-11462460D01*
X5346849Y-11462460D02*
X5356373Y-11443412D01*
X5356373Y-11443412D02*
X5356373Y-11433888D01*
X5356373Y-11433888D02*
X5346849Y-11414841D01*
X5346849Y-11414841D02*
X5327801Y-11405317D01*
X5327801Y-11405317D02*
X5299230Y-11405317D01*
X5299230Y-11405317D02*
X5280182Y-11395793D01*
X5280182Y-11395793D02*
X5270658Y-11376746D01*
X5270658Y-11376746D02*
X5270658Y-11367222D01*
X5270658Y-11367222D02*
X5280182Y-11348174D01*
X5280182Y-11348174D02*
X5299230Y-11338650D01*
X5299230Y-11338650D02*
X5327801Y-11338650D01*
X5327801Y-11338650D02*
X5346849Y-11348174D01*
X5423039Y-11548174D02*
X5432563Y-11538650D01*
X5432563Y-11538650D02*
X5451611Y-11510079D01*
X5451611Y-11510079D02*
X5461134Y-11491031D01*
X5461134Y-11491031D02*
X5470658Y-11462460D01*
X5470658Y-11462460D02*
X5480182Y-11414841D01*
X5480182Y-11414841D02*
X5480182Y-11376746D01*
X5480182Y-11376746D02*
X5470658Y-11329127D01*
X5470658Y-11329127D02*
X5461134Y-11300555D01*
X5461134Y-11300555D02*
X5451611Y-11281508D01*
X5451611Y-11281508D02*
X5432563Y-11252936D01*
X5432563Y-11252936D02*
X5423039Y-11243412D01*
D12*
X448713Y-11665713D02*
X448713Y-11623287D01*
X406287Y-11623287D01*
X406287Y-11665713D01*
X448713Y-11665713D01*
D11*
X756372Y-11535984D02*
X775420Y-11535984D01*
X775420Y-11535984D02*
X794467Y-11545508D01*
X794467Y-11545508D02*
X803991Y-11555031D01*
X803991Y-11555031D02*
X813515Y-11574079D01*
X813515Y-11574079D02*
X823039Y-11612174D01*
X823039Y-11612174D02*
X823039Y-11659793D01*
X823039Y-11659793D02*
X813515Y-11697888D01*
X813515Y-11697888D02*
X803991Y-11716936D01*
X803991Y-11716936D02*
X794467Y-11726460D01*
X794467Y-11726460D02*
X775420Y-11735984D01*
X775420Y-11735984D02*
X756372Y-11735984D01*
X756372Y-11735984D02*
X737324Y-11726460D01*
X737324Y-11726460D02*
X727801Y-11716936D01*
X727801Y-11716936D02*
X718277Y-11697888D01*
X718277Y-11697888D02*
X708753Y-11659793D01*
X708753Y-11659793D02*
X708753Y-11612174D01*
X708753Y-11612174D02*
X718277Y-11574079D01*
X718277Y-11574079D02*
X727801Y-11555031D01*
X727801Y-11555031D02*
X737324Y-11545508D01*
X737324Y-11545508D02*
X756372Y-11535984D01*
X908753Y-11716936D02*
X918277Y-11726460D01*
X918277Y-11726460D02*
X908753Y-11735984D01*
X908753Y-11735984D02*
X899229Y-11726460D01*
X899229Y-11726460D02*
X908753Y-11716936D01*
X908753Y-11716936D02*
X908753Y-11735984D01*
X1089705Y-11535984D02*
X1051610Y-11535984D01*
X1051610Y-11535984D02*
X1032562Y-11545508D01*
X1032562Y-11545508D02*
X1023039Y-11555031D01*
X1023039Y-11555031D02*
X1003991Y-11583603D01*
X1003991Y-11583603D02*
X994467Y-11621698D01*
X994467Y-11621698D02*
X994467Y-11697888D01*
X994467Y-11697888D02*
X1003991Y-11716936D01*
X1003991Y-11716936D02*
X1013515Y-11726460D01*
X1013515Y-11726460D02*
X1032562Y-11735984D01*
X1032562Y-11735984D02*
X1070658Y-11735984D01*
X1070658Y-11735984D02*
X1089705Y-11726460D01*
X1089705Y-11726460D02*
X1099229Y-11716936D01*
X1099229Y-11716936D02*
X1108753Y-11697888D01*
X1108753Y-11697888D02*
X1108753Y-11650269D01*
X1108753Y-11650269D02*
X1099229Y-11631222D01*
X1099229Y-11631222D02*
X1089705Y-11621698D01*
X1089705Y-11621698D02*
X1070658Y-11612174D01*
X1070658Y-11612174D02*
X1032562Y-11612174D01*
X1032562Y-11612174D02*
X1013515Y-11621698D01*
X1013515Y-11621698D02*
X1003991Y-11631222D01*
X1003991Y-11631222D02*
X994467Y-11650269D01*
X1232563Y-11535984D02*
X1251610Y-11535984D01*
X1251610Y-11535984D02*
X1270658Y-11545508D01*
X1270658Y-11545508D02*
X1280182Y-11555031D01*
X1280182Y-11555031D02*
X1289705Y-11574079D01*
X1289705Y-11574079D02*
X1299229Y-11612174D01*
X1299229Y-11612174D02*
X1299229Y-11659793D01*
X1299229Y-11659793D02*
X1289705Y-11697888D01*
X1289705Y-11697888D02*
X1280182Y-11716936D01*
X1280182Y-11716936D02*
X1270658Y-11726460D01*
X1270658Y-11726460D02*
X1251610Y-11735984D01*
X1251610Y-11735984D02*
X1232563Y-11735984D01*
X1232563Y-11735984D02*
X1213515Y-11726460D01*
X1213515Y-11726460D02*
X1203991Y-11716936D01*
X1203991Y-11716936D02*
X1194467Y-11697888D01*
X1194467Y-11697888D02*
X1184944Y-11659793D01*
X1184944Y-11659793D02*
X1184944Y-11612174D01*
X1184944Y-11612174D02*
X1194467Y-11574079D01*
X1194467Y-11574079D02*
X1203991Y-11555031D01*
X1203991Y-11555031D02*
X1213515Y-11545508D01*
X1213515Y-11545508D02*
X1232563Y-11535984D01*
X1423039Y-11535984D02*
X1442086Y-11535984D01*
X1442086Y-11535984D02*
X1461134Y-11545508D01*
X1461134Y-11545508D02*
X1470658Y-11555031D01*
X1470658Y-11555031D02*
X1480182Y-11574079D01*
X1480182Y-11574079D02*
X1489705Y-11612174D01*
X1489705Y-11612174D02*
X1489705Y-11659793D01*
X1489705Y-11659793D02*
X1480182Y-11697888D01*
X1480182Y-11697888D02*
X1470658Y-11716936D01*
X1470658Y-11716936D02*
X1461134Y-11726460D01*
X1461134Y-11726460D02*
X1442086Y-11735984D01*
X1442086Y-11735984D02*
X1423039Y-11735984D01*
X1423039Y-11735984D02*
X1403991Y-11726460D01*
X1403991Y-11726460D02*
X1394467Y-11716936D01*
X1394467Y-11716936D02*
X1384944Y-11697888D01*
X1384944Y-11697888D02*
X1375420Y-11659793D01*
X1375420Y-11659793D02*
X1375420Y-11612174D01*
X1375420Y-11612174D02*
X1384944Y-11574079D01*
X1384944Y-11574079D02*
X1394467Y-11555031D01*
X1394467Y-11555031D02*
X1403991Y-11545508D01*
X1403991Y-11545508D02*
X1423039Y-11535984D01*
X1575420Y-11735984D02*
X1575420Y-11602650D01*
X1575420Y-11621698D02*
X1584943Y-11612174D01*
X1584943Y-11612174D02*
X1603991Y-11602650D01*
X1603991Y-11602650D02*
X1632563Y-11602650D01*
X1632563Y-11602650D02*
X1651610Y-11612174D01*
X1651610Y-11612174D02*
X1661134Y-11631222D01*
X1661134Y-11631222D02*
X1661134Y-11735984D01*
X1661134Y-11631222D02*
X1670658Y-11612174D01*
X1670658Y-11612174D02*
X1689705Y-11602650D01*
X1689705Y-11602650D02*
X1718277Y-11602650D01*
X1718277Y-11602650D02*
X1737324Y-11612174D01*
X1737324Y-11612174D02*
X1746848Y-11631222D01*
X1746848Y-11631222D02*
X1746848Y-11735984D01*
X1842086Y-11735984D02*
X1842086Y-11602650D01*
X1842086Y-11621698D02*
X1851610Y-11612174D01*
X1851610Y-11612174D02*
X1870658Y-11602650D01*
X1870658Y-11602650D02*
X1899229Y-11602650D01*
X1899229Y-11602650D02*
X1918277Y-11612174D01*
X1918277Y-11612174D02*
X1927801Y-11631222D01*
X1927801Y-11631222D02*
X1927801Y-11735984D01*
X1927801Y-11631222D02*
X1937324Y-11612174D01*
X1937324Y-11612174D02*
X1956372Y-11602650D01*
X1956372Y-11602650D02*
X1984943Y-11602650D01*
X1984943Y-11602650D02*
X2003991Y-11612174D01*
X2003991Y-11612174D02*
X2013515Y-11631222D01*
X2013515Y-11631222D02*
X2013515Y-11735984D01*
X2403991Y-11526460D02*
X2232563Y-11783603D01*
X2661134Y-11535984D02*
X2680182Y-11535984D01*
X2680182Y-11535984D02*
X2699229Y-11545508D01*
X2699229Y-11545508D02*
X2708753Y-11555031D01*
X2708753Y-11555031D02*
X2718277Y-11574079D01*
X2718277Y-11574079D02*
X2727801Y-11612174D01*
X2727801Y-11612174D02*
X2727801Y-11659793D01*
X2727801Y-11659793D02*
X2718277Y-11697888D01*
X2718277Y-11697888D02*
X2708753Y-11716936D01*
X2708753Y-11716936D02*
X2699229Y-11726460D01*
X2699229Y-11726460D02*
X2680182Y-11735984D01*
X2680182Y-11735984D02*
X2661134Y-11735984D01*
X2661134Y-11735984D02*
X2642087Y-11726460D01*
X2642087Y-11726460D02*
X2632563Y-11716936D01*
X2632563Y-11716936D02*
X2623039Y-11697888D01*
X2623039Y-11697888D02*
X2613515Y-11659793D01*
X2613515Y-11659793D02*
X2613515Y-11612174D01*
X2613515Y-11612174D02*
X2623039Y-11574079D01*
X2623039Y-11574079D02*
X2632563Y-11555031D01*
X2632563Y-11555031D02*
X2642087Y-11545508D01*
X2642087Y-11545508D02*
X2661134Y-11535984D01*
X2813515Y-11716936D02*
X2823039Y-11726460D01*
X2823039Y-11726460D02*
X2813515Y-11735984D01*
X2813515Y-11735984D02*
X2803991Y-11726460D01*
X2803991Y-11726460D02*
X2813515Y-11716936D01*
X2813515Y-11716936D02*
X2813515Y-11735984D01*
X2946848Y-11535984D02*
X2965896Y-11535984D01*
X2965896Y-11535984D02*
X2984944Y-11545508D01*
X2984944Y-11545508D02*
X2994467Y-11555031D01*
X2994467Y-11555031D02*
X3003991Y-11574079D01*
X3003991Y-11574079D02*
X3013515Y-11612174D01*
X3013515Y-11612174D02*
X3013515Y-11659793D01*
X3013515Y-11659793D02*
X3003991Y-11697888D01*
X3003991Y-11697888D02*
X2994467Y-11716936D01*
X2994467Y-11716936D02*
X2984944Y-11726460D01*
X2984944Y-11726460D02*
X2965896Y-11735984D01*
X2965896Y-11735984D02*
X2946848Y-11735984D01*
X2946848Y-11735984D02*
X2927801Y-11726460D01*
X2927801Y-11726460D02*
X2918277Y-11716936D01*
X2918277Y-11716936D02*
X2908753Y-11697888D01*
X2908753Y-11697888D02*
X2899229Y-11659793D01*
X2899229Y-11659793D02*
X2899229Y-11612174D01*
X2899229Y-11612174D02*
X2908753Y-11574079D01*
X2908753Y-11574079D02*
X2918277Y-11555031D01*
X2918277Y-11555031D02*
X2927801Y-11545508D01*
X2927801Y-11545508D02*
X2946848Y-11535984D01*
X3089706Y-11555031D02*
X3099229Y-11545508D01*
X3099229Y-11545508D02*
X3118277Y-11535984D01*
X3118277Y-11535984D02*
X3165896Y-11535984D01*
X3165896Y-11535984D02*
X3184944Y-11545508D01*
X3184944Y-11545508D02*
X3194467Y-11555031D01*
X3194467Y-11555031D02*
X3203991Y-11574079D01*
X3203991Y-11574079D02*
X3203991Y-11593127D01*
X3203991Y-11593127D02*
X3194467Y-11621698D01*
X3194467Y-11621698D02*
X3080182Y-11735984D01*
X3080182Y-11735984D02*
X3203991Y-11735984D01*
X3270658Y-11535984D02*
X3394467Y-11535984D01*
X3394467Y-11535984D02*
X3327801Y-11612174D01*
X3327801Y-11612174D02*
X3356372Y-11612174D01*
X3356372Y-11612174D02*
X3375420Y-11621698D01*
X3375420Y-11621698D02*
X3384944Y-11631222D01*
X3384944Y-11631222D02*
X3394467Y-11650269D01*
X3394467Y-11650269D02*
X3394467Y-11697888D01*
X3394467Y-11697888D02*
X3384944Y-11716936D01*
X3384944Y-11716936D02*
X3375420Y-11726460D01*
X3375420Y-11726460D02*
X3356372Y-11735984D01*
X3356372Y-11735984D02*
X3299229Y-11735984D01*
X3299229Y-11735984D02*
X3280182Y-11726460D01*
X3280182Y-11726460D02*
X3270658Y-11716936D01*
X3565896Y-11535984D02*
X3527801Y-11535984D01*
X3527801Y-11535984D02*
X3508753Y-11545508D01*
X3508753Y-11545508D02*
X3499229Y-11555031D01*
X3499229Y-11555031D02*
X3480182Y-11583603D01*
X3480182Y-11583603D02*
X3470658Y-11621698D01*
X3470658Y-11621698D02*
X3470658Y-11697888D01*
X3470658Y-11697888D02*
X3480182Y-11716936D01*
X3480182Y-11716936D02*
X3489706Y-11726460D01*
X3489706Y-11726460D02*
X3508753Y-11735984D01*
X3508753Y-11735984D02*
X3546848Y-11735984D01*
X3546848Y-11735984D02*
X3565896Y-11726460D01*
X3565896Y-11726460D02*
X3575420Y-11716936D01*
X3575420Y-11716936D02*
X3584944Y-11697888D01*
X3584944Y-11697888D02*
X3584944Y-11650269D01*
X3584944Y-11650269D02*
X3575420Y-11631222D01*
X3575420Y-11631222D02*
X3565896Y-11621698D01*
X3565896Y-11621698D02*
X3546848Y-11612174D01*
X3546848Y-11612174D02*
X3508753Y-11612174D01*
X3508753Y-11612174D02*
X3489706Y-11621698D01*
X3489706Y-11621698D02*
X3480182Y-11631222D01*
X3480182Y-11631222D02*
X3470658Y-11650269D01*
X3661134Y-11535984D02*
X3661134Y-11574079D01*
X3737325Y-11535984D02*
X3737325Y-11574079D01*
X4032563Y-11812174D02*
X4023039Y-11802650D01*
X4023039Y-11802650D02*
X4003991Y-11774079D01*
X4003991Y-11774079D02*
X3994468Y-11755031D01*
X3994468Y-11755031D02*
X3984944Y-11726460D01*
X3984944Y-11726460D02*
X3975420Y-11678841D01*
X3975420Y-11678841D02*
X3975420Y-11640746D01*
X3975420Y-11640746D02*
X3984944Y-11593127D01*
X3984944Y-11593127D02*
X3994468Y-11564555D01*
X3994468Y-11564555D02*
X4003991Y-11545508D01*
X4003991Y-11545508D02*
X4023039Y-11516936D01*
X4023039Y-11516936D02*
X4032563Y-11507412D01*
X4146848Y-11535984D02*
X4165896Y-11535984D01*
X4165896Y-11535984D02*
X4184944Y-11545508D01*
X4184944Y-11545508D02*
X4194468Y-11555031D01*
X4194468Y-11555031D02*
X4203991Y-11574079D01*
X4203991Y-11574079D02*
X4213515Y-11612174D01*
X4213515Y-11612174D02*
X4213515Y-11659793D01*
X4213515Y-11659793D02*
X4203991Y-11697888D01*
X4203991Y-11697888D02*
X4194468Y-11716936D01*
X4194468Y-11716936D02*
X4184944Y-11726460D01*
X4184944Y-11726460D02*
X4165896Y-11735984D01*
X4165896Y-11735984D02*
X4146848Y-11735984D01*
X4146848Y-11735984D02*
X4127801Y-11726460D01*
X4127801Y-11726460D02*
X4118277Y-11716936D01*
X4118277Y-11716936D02*
X4108753Y-11697888D01*
X4108753Y-11697888D02*
X4099229Y-11659793D01*
X4099229Y-11659793D02*
X4099229Y-11612174D01*
X4099229Y-11612174D02*
X4108753Y-11574079D01*
X4108753Y-11574079D02*
X4118277Y-11555031D01*
X4118277Y-11555031D02*
X4127801Y-11545508D01*
X4127801Y-11545508D02*
X4146848Y-11535984D01*
X4451611Y-11735984D02*
X4451611Y-11535984D01*
X4537325Y-11735984D02*
X4537325Y-11631222D01*
X4537325Y-11631222D02*
X4527801Y-11612174D01*
X4527801Y-11612174D02*
X4508753Y-11602650D01*
X4508753Y-11602650D02*
X4480182Y-11602650D01*
X4480182Y-11602650D02*
X4461134Y-11612174D01*
X4461134Y-11612174D02*
X4451611Y-11621698D01*
X4661134Y-11735984D02*
X4642087Y-11726460D01*
X4642087Y-11726460D02*
X4632563Y-11716936D01*
X4632563Y-11716936D02*
X4623039Y-11697888D01*
X4623039Y-11697888D02*
X4623039Y-11640746D01*
X4623039Y-11640746D02*
X4632563Y-11621698D01*
X4632563Y-11621698D02*
X4642087Y-11612174D01*
X4642087Y-11612174D02*
X4661134Y-11602650D01*
X4661134Y-11602650D02*
X4689706Y-11602650D01*
X4689706Y-11602650D02*
X4708753Y-11612174D01*
X4708753Y-11612174D02*
X4718277Y-11621698D01*
X4718277Y-11621698D02*
X4727801Y-11640746D01*
X4727801Y-11640746D02*
X4727801Y-11697888D01*
X4727801Y-11697888D02*
X4718277Y-11716936D01*
X4718277Y-11716936D02*
X4708753Y-11726460D01*
X4708753Y-11726460D02*
X4689706Y-11735984D01*
X4689706Y-11735984D02*
X4661134Y-11735984D01*
X4842087Y-11735984D02*
X4823039Y-11726460D01*
X4823039Y-11726460D02*
X4813515Y-11707412D01*
X4813515Y-11707412D02*
X4813515Y-11535984D01*
X4994468Y-11726460D02*
X4975420Y-11735984D01*
X4975420Y-11735984D02*
X4937325Y-11735984D01*
X4937325Y-11735984D02*
X4918277Y-11726460D01*
X4918277Y-11726460D02*
X4908753Y-11707412D01*
X4908753Y-11707412D02*
X4908753Y-11631222D01*
X4908753Y-11631222D02*
X4918277Y-11612174D01*
X4918277Y-11612174D02*
X4937325Y-11602650D01*
X4937325Y-11602650D02*
X4975420Y-11602650D01*
X4975420Y-11602650D02*
X4994468Y-11612174D01*
X4994468Y-11612174D02*
X5003992Y-11631222D01*
X5003992Y-11631222D02*
X5003992Y-11650269D01*
X5003992Y-11650269D02*
X4908753Y-11669317D01*
X5080182Y-11726460D02*
X5099230Y-11735984D01*
X5099230Y-11735984D02*
X5137325Y-11735984D01*
X5137325Y-11735984D02*
X5156373Y-11726460D01*
X5156373Y-11726460D02*
X5165896Y-11707412D01*
X5165896Y-11707412D02*
X5165896Y-11697888D01*
X5165896Y-11697888D02*
X5156373Y-11678841D01*
X5156373Y-11678841D02*
X5137325Y-11669317D01*
X5137325Y-11669317D02*
X5108753Y-11669317D01*
X5108753Y-11669317D02*
X5089706Y-11659793D01*
X5089706Y-11659793D02*
X5080182Y-11640746D01*
X5080182Y-11640746D02*
X5080182Y-11631222D01*
X5080182Y-11631222D02*
X5089706Y-11612174D01*
X5089706Y-11612174D02*
X5108753Y-11602650D01*
X5108753Y-11602650D02*
X5137325Y-11602650D01*
X5137325Y-11602650D02*
X5156373Y-11612174D01*
X5403992Y-11659793D02*
X5556373Y-11659793D01*
X5480182Y-11735984D02*
X5480182Y-11583603D01*
X5832563Y-11621698D02*
X5813515Y-11612174D01*
X5813515Y-11612174D02*
X5803992Y-11602650D01*
X5803992Y-11602650D02*
X5794468Y-11583603D01*
X5794468Y-11583603D02*
X5794468Y-11574079D01*
X5794468Y-11574079D02*
X5803992Y-11555031D01*
X5803992Y-11555031D02*
X5813515Y-11545508D01*
X5813515Y-11545508D02*
X5832563Y-11535984D01*
X5832563Y-11535984D02*
X5870658Y-11535984D01*
X5870658Y-11535984D02*
X5889706Y-11545508D01*
X5889706Y-11545508D02*
X5899230Y-11555031D01*
X5899230Y-11555031D02*
X5908753Y-11574079D01*
X5908753Y-11574079D02*
X5908753Y-11583603D01*
X5908753Y-11583603D02*
X5899230Y-11602650D01*
X5899230Y-11602650D02*
X5889706Y-11612174D01*
X5889706Y-11612174D02*
X5870658Y-11621698D01*
X5870658Y-11621698D02*
X5832563Y-11621698D01*
X5832563Y-11621698D02*
X5813515Y-11631222D01*
X5813515Y-11631222D02*
X5803992Y-11640746D01*
X5803992Y-11640746D02*
X5794468Y-11659793D01*
X5794468Y-11659793D02*
X5794468Y-11697888D01*
X5794468Y-11697888D02*
X5803992Y-11716936D01*
X5803992Y-11716936D02*
X5813515Y-11726460D01*
X5813515Y-11726460D02*
X5832563Y-11735984D01*
X5832563Y-11735984D02*
X5870658Y-11735984D01*
X5870658Y-11735984D02*
X5889706Y-11726460D01*
X5889706Y-11726460D02*
X5899230Y-11716936D01*
X5899230Y-11716936D02*
X5908753Y-11697888D01*
X5908753Y-11697888D02*
X5908753Y-11659793D01*
X5908753Y-11659793D02*
X5899230Y-11640746D01*
X5899230Y-11640746D02*
X5889706Y-11631222D01*
X5889706Y-11631222D02*
X5870658Y-11621698D01*
X6137325Y-11726460D02*
X6156373Y-11735984D01*
X6156373Y-11735984D02*
X6194468Y-11735984D01*
X6194468Y-11735984D02*
X6213515Y-11726460D01*
X6213515Y-11726460D02*
X6223039Y-11707412D01*
X6223039Y-11707412D02*
X6223039Y-11697888D01*
X6223039Y-11697888D02*
X6213515Y-11678841D01*
X6213515Y-11678841D02*
X6194468Y-11669317D01*
X6194468Y-11669317D02*
X6165896Y-11669317D01*
X6165896Y-11669317D02*
X6146849Y-11659793D01*
X6146849Y-11659793D02*
X6137325Y-11640746D01*
X6137325Y-11640746D02*
X6137325Y-11631222D01*
X6137325Y-11631222D02*
X6146849Y-11612174D01*
X6146849Y-11612174D02*
X6165896Y-11602650D01*
X6165896Y-11602650D02*
X6194468Y-11602650D01*
X6194468Y-11602650D02*
X6213515Y-11612174D01*
X6337325Y-11735984D02*
X6318277Y-11726460D01*
X6318277Y-11726460D02*
X6308754Y-11707412D01*
X6308754Y-11707412D02*
X6308754Y-11535984D01*
X6442087Y-11735984D02*
X6423039Y-11726460D01*
X6423039Y-11726460D02*
X6413515Y-11716936D01*
X6413515Y-11716936D02*
X6403992Y-11697888D01*
X6403992Y-11697888D02*
X6403992Y-11640746D01*
X6403992Y-11640746D02*
X6413515Y-11621698D01*
X6413515Y-11621698D02*
X6423039Y-11612174D01*
X6423039Y-11612174D02*
X6442087Y-11602650D01*
X6442087Y-11602650D02*
X6470658Y-11602650D01*
X6470658Y-11602650D02*
X6489706Y-11612174D01*
X6489706Y-11612174D02*
X6499230Y-11621698D01*
X6499230Y-11621698D02*
X6508754Y-11640746D01*
X6508754Y-11640746D02*
X6508754Y-11697888D01*
X6508754Y-11697888D02*
X6499230Y-11716936D01*
X6499230Y-11716936D02*
X6489706Y-11726460D01*
X6489706Y-11726460D02*
X6470658Y-11735984D01*
X6470658Y-11735984D02*
X6442087Y-11735984D01*
X6565896Y-11602650D02*
X6642087Y-11602650D01*
X6594468Y-11535984D02*
X6594468Y-11707412D01*
X6594468Y-11707412D02*
X6603992Y-11726460D01*
X6603992Y-11726460D02*
X6623039Y-11735984D01*
X6623039Y-11735984D02*
X6642087Y-11735984D01*
X6699230Y-11726460D02*
X6718277Y-11735984D01*
X6718277Y-11735984D02*
X6756373Y-11735984D01*
X6756373Y-11735984D02*
X6775420Y-11726460D01*
X6775420Y-11726460D02*
X6784944Y-11707412D01*
X6784944Y-11707412D02*
X6784944Y-11697888D01*
X6784944Y-11697888D02*
X6775420Y-11678841D01*
X6775420Y-11678841D02*
X6756373Y-11669317D01*
X6756373Y-11669317D02*
X6727801Y-11669317D01*
X6727801Y-11669317D02*
X6708754Y-11659793D01*
X6708754Y-11659793D02*
X6699230Y-11640746D01*
X6699230Y-11640746D02*
X6699230Y-11631222D01*
X6699230Y-11631222D02*
X6708754Y-11612174D01*
X6708754Y-11612174D02*
X6727801Y-11602650D01*
X6727801Y-11602650D02*
X6756373Y-11602650D01*
X6756373Y-11602650D02*
X6775420Y-11612174D01*
X6851611Y-11812174D02*
X6861135Y-11802650D01*
X6861135Y-11802650D02*
X6880182Y-11774079D01*
X6880182Y-11774079D02*
X6889706Y-11755031D01*
X6889706Y-11755031D02*
X6899230Y-11726460D01*
X6899230Y-11726460D02*
X6908754Y-11678841D01*
X6908754Y-11678841D02*
X6908754Y-11640746D01*
X6908754Y-11640746D02*
X6899230Y-11593127D01*
X6899230Y-11593127D02*
X6889706Y-11564555D01*
X6889706Y-11564555D02*
X6880182Y-11545508D01*
X6880182Y-11545508D02*
X6861135Y-11516936D01*
X6861135Y-11516936D02*
X6851611Y-11507412D01*
D12*
X425000Y-11941000D02*
X457500Y-11908500D01*
X425000Y-11876000D01*
X392500Y-11908500D01*
X425000Y-11941000D01*
D11*
X756372Y-11799984D02*
X775420Y-11799984D01*
X775420Y-11799984D02*
X794467Y-11809508D01*
X794467Y-11809508D02*
X803991Y-11819031D01*
X803991Y-11819031D02*
X813515Y-11838079D01*
X813515Y-11838079D02*
X823039Y-11876174D01*
X823039Y-11876174D02*
X823039Y-11923793D01*
X823039Y-11923793D02*
X813515Y-11961888D01*
X813515Y-11961888D02*
X803991Y-11980936D01*
X803991Y-11980936D02*
X794467Y-11990460D01*
X794467Y-11990460D02*
X775420Y-11999984D01*
X775420Y-11999984D02*
X756372Y-11999984D01*
X756372Y-11999984D02*
X737324Y-11990460D01*
X737324Y-11990460D02*
X727801Y-11980936D01*
X727801Y-11980936D02*
X718277Y-11961888D01*
X718277Y-11961888D02*
X708753Y-11923793D01*
X708753Y-11923793D02*
X708753Y-11876174D01*
X708753Y-11876174D02*
X718277Y-11838079D01*
X718277Y-11838079D02*
X727801Y-11819031D01*
X727801Y-11819031D02*
X737324Y-11809508D01*
X737324Y-11809508D02*
X756372Y-11799984D01*
X908753Y-11980936D02*
X918277Y-11990460D01*
X918277Y-11990460D02*
X908753Y-11999984D01*
X908753Y-11999984D02*
X899229Y-11990460D01*
X899229Y-11990460D02*
X908753Y-11980936D01*
X908753Y-11980936D02*
X908753Y-11999984D01*
X1089705Y-11799984D02*
X1051610Y-11799984D01*
X1051610Y-11799984D02*
X1032562Y-11809508D01*
X1032562Y-11809508D02*
X1023039Y-11819031D01*
X1023039Y-11819031D02*
X1003991Y-11847603D01*
X1003991Y-11847603D02*
X994467Y-11885698D01*
X994467Y-11885698D02*
X994467Y-11961888D01*
X994467Y-11961888D02*
X1003991Y-11980936D01*
X1003991Y-11980936D02*
X1013515Y-11990460D01*
X1013515Y-11990460D02*
X1032562Y-11999984D01*
X1032562Y-11999984D02*
X1070658Y-11999984D01*
X1070658Y-11999984D02*
X1089705Y-11990460D01*
X1089705Y-11990460D02*
X1099229Y-11980936D01*
X1099229Y-11980936D02*
X1108753Y-11961888D01*
X1108753Y-11961888D02*
X1108753Y-11914269D01*
X1108753Y-11914269D02*
X1099229Y-11895222D01*
X1099229Y-11895222D02*
X1089705Y-11885698D01*
X1089705Y-11885698D02*
X1070658Y-11876174D01*
X1070658Y-11876174D02*
X1032562Y-11876174D01*
X1032562Y-11876174D02*
X1013515Y-11885698D01*
X1013515Y-11885698D02*
X1003991Y-11895222D01*
X1003991Y-11895222D02*
X994467Y-11914269D01*
X1289705Y-11799984D02*
X1194467Y-11799984D01*
X1194467Y-11799984D02*
X1184944Y-11895222D01*
X1184944Y-11895222D02*
X1194467Y-11885698D01*
X1194467Y-11885698D02*
X1213515Y-11876174D01*
X1213515Y-11876174D02*
X1261134Y-11876174D01*
X1261134Y-11876174D02*
X1280182Y-11885698D01*
X1280182Y-11885698D02*
X1289705Y-11895222D01*
X1289705Y-11895222D02*
X1299229Y-11914269D01*
X1299229Y-11914269D02*
X1299229Y-11961888D01*
X1299229Y-11961888D02*
X1289705Y-11980936D01*
X1289705Y-11980936D02*
X1280182Y-11990460D01*
X1280182Y-11990460D02*
X1261134Y-11999984D01*
X1261134Y-11999984D02*
X1213515Y-11999984D01*
X1213515Y-11999984D02*
X1194467Y-11990460D01*
X1194467Y-11990460D02*
X1184944Y-11980936D01*
X1423039Y-11799984D02*
X1442086Y-11799984D01*
X1442086Y-11799984D02*
X1461134Y-11809508D01*
X1461134Y-11809508D02*
X1470658Y-11819031D01*
X1470658Y-11819031D02*
X1480182Y-11838079D01*
X1480182Y-11838079D02*
X1489705Y-11876174D01*
X1489705Y-11876174D02*
X1489705Y-11923793D01*
X1489705Y-11923793D02*
X1480182Y-11961888D01*
X1480182Y-11961888D02*
X1470658Y-11980936D01*
X1470658Y-11980936D02*
X1461134Y-11990460D01*
X1461134Y-11990460D02*
X1442086Y-11999984D01*
X1442086Y-11999984D02*
X1423039Y-11999984D01*
X1423039Y-11999984D02*
X1403991Y-11990460D01*
X1403991Y-11990460D02*
X1394467Y-11980936D01*
X1394467Y-11980936D02*
X1384944Y-11961888D01*
X1384944Y-11961888D02*
X1375420Y-11923793D01*
X1375420Y-11923793D02*
X1375420Y-11876174D01*
X1375420Y-11876174D02*
X1384944Y-11838079D01*
X1384944Y-11838079D02*
X1394467Y-11819031D01*
X1394467Y-11819031D02*
X1403991Y-11809508D01*
X1403991Y-11809508D02*
X1423039Y-11799984D01*
X1575420Y-11999984D02*
X1575420Y-11866650D01*
X1575420Y-11885698D02*
X1584943Y-11876174D01*
X1584943Y-11876174D02*
X1603991Y-11866650D01*
X1603991Y-11866650D02*
X1632563Y-11866650D01*
X1632563Y-11866650D02*
X1651610Y-11876174D01*
X1651610Y-11876174D02*
X1661134Y-11895222D01*
X1661134Y-11895222D02*
X1661134Y-11999984D01*
X1661134Y-11895222D02*
X1670658Y-11876174D01*
X1670658Y-11876174D02*
X1689705Y-11866650D01*
X1689705Y-11866650D02*
X1718277Y-11866650D01*
X1718277Y-11866650D02*
X1737324Y-11876174D01*
X1737324Y-11876174D02*
X1746848Y-11895222D01*
X1746848Y-11895222D02*
X1746848Y-11999984D01*
X1842086Y-11999984D02*
X1842086Y-11866650D01*
X1842086Y-11885698D02*
X1851610Y-11876174D01*
X1851610Y-11876174D02*
X1870658Y-11866650D01*
X1870658Y-11866650D02*
X1899229Y-11866650D01*
X1899229Y-11866650D02*
X1918277Y-11876174D01*
X1918277Y-11876174D02*
X1927801Y-11895222D01*
X1927801Y-11895222D02*
X1927801Y-11999984D01*
X1927801Y-11895222D02*
X1937324Y-11876174D01*
X1937324Y-11876174D02*
X1956372Y-11866650D01*
X1956372Y-11866650D02*
X1984943Y-11866650D01*
X1984943Y-11866650D02*
X2003991Y-11876174D01*
X2003991Y-11876174D02*
X2013515Y-11895222D01*
X2013515Y-11895222D02*
X2013515Y-11999984D01*
X2403991Y-11790460D02*
X2232563Y-12047603D01*
X2661134Y-11799984D02*
X2680182Y-11799984D01*
X2680182Y-11799984D02*
X2699229Y-11809508D01*
X2699229Y-11809508D02*
X2708753Y-11819031D01*
X2708753Y-11819031D02*
X2718277Y-11838079D01*
X2718277Y-11838079D02*
X2727801Y-11876174D01*
X2727801Y-11876174D02*
X2727801Y-11923793D01*
X2727801Y-11923793D02*
X2718277Y-11961888D01*
X2718277Y-11961888D02*
X2708753Y-11980936D01*
X2708753Y-11980936D02*
X2699229Y-11990460D01*
X2699229Y-11990460D02*
X2680182Y-11999984D01*
X2680182Y-11999984D02*
X2661134Y-11999984D01*
X2661134Y-11999984D02*
X2642087Y-11990460D01*
X2642087Y-11990460D02*
X2632563Y-11980936D01*
X2632563Y-11980936D02*
X2623039Y-11961888D01*
X2623039Y-11961888D02*
X2613515Y-11923793D01*
X2613515Y-11923793D02*
X2613515Y-11876174D01*
X2613515Y-11876174D02*
X2623039Y-11838079D01*
X2623039Y-11838079D02*
X2632563Y-11819031D01*
X2632563Y-11819031D02*
X2642087Y-11809508D01*
X2642087Y-11809508D02*
X2661134Y-11799984D01*
X2813515Y-11980936D02*
X2823039Y-11990460D01*
X2823039Y-11990460D02*
X2813515Y-11999984D01*
X2813515Y-11999984D02*
X2803991Y-11990460D01*
X2803991Y-11990460D02*
X2813515Y-11980936D01*
X2813515Y-11980936D02*
X2813515Y-11999984D01*
X2946848Y-11799984D02*
X2965896Y-11799984D01*
X2965896Y-11799984D02*
X2984944Y-11809508D01*
X2984944Y-11809508D02*
X2994467Y-11819031D01*
X2994467Y-11819031D02*
X3003991Y-11838079D01*
X3003991Y-11838079D02*
X3013515Y-11876174D01*
X3013515Y-11876174D02*
X3013515Y-11923793D01*
X3013515Y-11923793D02*
X3003991Y-11961888D01*
X3003991Y-11961888D02*
X2994467Y-11980936D01*
X2994467Y-11980936D02*
X2984944Y-11990460D01*
X2984944Y-11990460D02*
X2965896Y-11999984D01*
X2965896Y-11999984D02*
X2946848Y-11999984D01*
X2946848Y-11999984D02*
X2927801Y-11990460D01*
X2927801Y-11990460D02*
X2918277Y-11980936D01*
X2918277Y-11980936D02*
X2908753Y-11961888D01*
X2908753Y-11961888D02*
X2899229Y-11923793D01*
X2899229Y-11923793D02*
X2899229Y-11876174D01*
X2899229Y-11876174D02*
X2908753Y-11838079D01*
X2908753Y-11838079D02*
X2918277Y-11819031D01*
X2918277Y-11819031D02*
X2927801Y-11809508D01*
X2927801Y-11809508D02*
X2946848Y-11799984D01*
X3089706Y-11819031D02*
X3099229Y-11809508D01*
X3099229Y-11809508D02*
X3118277Y-11799984D01*
X3118277Y-11799984D02*
X3165896Y-11799984D01*
X3165896Y-11799984D02*
X3184944Y-11809508D01*
X3184944Y-11809508D02*
X3194467Y-11819031D01*
X3194467Y-11819031D02*
X3203991Y-11838079D01*
X3203991Y-11838079D02*
X3203991Y-11857127D01*
X3203991Y-11857127D02*
X3194467Y-11885698D01*
X3194467Y-11885698D02*
X3080182Y-11999984D01*
X3080182Y-11999984D02*
X3203991Y-11999984D01*
X3384944Y-11799984D02*
X3289706Y-11799984D01*
X3289706Y-11799984D02*
X3280182Y-11895222D01*
X3280182Y-11895222D02*
X3289706Y-11885698D01*
X3289706Y-11885698D02*
X3308753Y-11876174D01*
X3308753Y-11876174D02*
X3356372Y-11876174D01*
X3356372Y-11876174D02*
X3375420Y-11885698D01*
X3375420Y-11885698D02*
X3384944Y-11895222D01*
X3384944Y-11895222D02*
X3394467Y-11914269D01*
X3394467Y-11914269D02*
X3394467Y-11961888D01*
X3394467Y-11961888D02*
X3384944Y-11980936D01*
X3384944Y-11980936D02*
X3375420Y-11990460D01*
X3375420Y-11990460D02*
X3356372Y-11999984D01*
X3356372Y-11999984D02*
X3308753Y-11999984D01*
X3308753Y-11999984D02*
X3289706Y-11990460D01*
X3289706Y-11990460D02*
X3280182Y-11980936D01*
X3565896Y-11799984D02*
X3527801Y-11799984D01*
X3527801Y-11799984D02*
X3508753Y-11809508D01*
X3508753Y-11809508D02*
X3499229Y-11819031D01*
X3499229Y-11819031D02*
X3480182Y-11847603D01*
X3480182Y-11847603D02*
X3470658Y-11885698D01*
X3470658Y-11885698D02*
X3470658Y-11961888D01*
X3470658Y-11961888D02*
X3480182Y-11980936D01*
X3480182Y-11980936D02*
X3489706Y-11990460D01*
X3489706Y-11990460D02*
X3508753Y-11999984D01*
X3508753Y-11999984D02*
X3546848Y-11999984D01*
X3546848Y-11999984D02*
X3565896Y-11990460D01*
X3565896Y-11990460D02*
X3575420Y-11980936D01*
X3575420Y-11980936D02*
X3584944Y-11961888D01*
X3584944Y-11961888D02*
X3584944Y-11914269D01*
X3584944Y-11914269D02*
X3575420Y-11895222D01*
X3575420Y-11895222D02*
X3565896Y-11885698D01*
X3565896Y-11885698D02*
X3546848Y-11876174D01*
X3546848Y-11876174D02*
X3508753Y-11876174D01*
X3508753Y-11876174D02*
X3489706Y-11885698D01*
X3489706Y-11885698D02*
X3480182Y-11895222D01*
X3480182Y-11895222D02*
X3470658Y-11914269D01*
X3661134Y-11799984D02*
X3661134Y-11838079D01*
X3737325Y-11799984D02*
X3737325Y-11838079D01*
X4032563Y-12076174D02*
X4023039Y-12066650D01*
X4023039Y-12066650D02*
X4003991Y-12038079D01*
X4003991Y-12038079D02*
X3994468Y-12019031D01*
X3994468Y-12019031D02*
X3984944Y-11990460D01*
X3984944Y-11990460D02*
X3975420Y-11942841D01*
X3975420Y-11942841D02*
X3975420Y-11904746D01*
X3975420Y-11904746D02*
X3984944Y-11857127D01*
X3984944Y-11857127D02*
X3994468Y-11828555D01*
X3994468Y-11828555D02*
X4003991Y-11809508D01*
X4003991Y-11809508D02*
X4023039Y-11780936D01*
X4023039Y-11780936D02*
X4032563Y-11771412D01*
X4194468Y-11866650D02*
X4194468Y-11999984D01*
X4146848Y-11790460D02*
X4099229Y-11933317D01*
X4099229Y-11933317D02*
X4223039Y-11933317D01*
X4451611Y-11999984D02*
X4451611Y-11799984D01*
X4537325Y-11999984D02*
X4537325Y-11895222D01*
X4537325Y-11895222D02*
X4527801Y-11876174D01*
X4527801Y-11876174D02*
X4508753Y-11866650D01*
X4508753Y-11866650D02*
X4480182Y-11866650D01*
X4480182Y-11866650D02*
X4461134Y-11876174D01*
X4461134Y-11876174D02*
X4451611Y-11885698D01*
X4661134Y-11999984D02*
X4642087Y-11990460D01*
X4642087Y-11990460D02*
X4632563Y-11980936D01*
X4632563Y-11980936D02*
X4623039Y-11961888D01*
X4623039Y-11961888D02*
X4623039Y-11904746D01*
X4623039Y-11904746D02*
X4632563Y-11885698D01*
X4632563Y-11885698D02*
X4642087Y-11876174D01*
X4642087Y-11876174D02*
X4661134Y-11866650D01*
X4661134Y-11866650D02*
X4689706Y-11866650D01*
X4689706Y-11866650D02*
X4708753Y-11876174D01*
X4708753Y-11876174D02*
X4718277Y-11885698D01*
X4718277Y-11885698D02*
X4727801Y-11904746D01*
X4727801Y-11904746D02*
X4727801Y-11961888D01*
X4727801Y-11961888D02*
X4718277Y-11980936D01*
X4718277Y-11980936D02*
X4708753Y-11990460D01*
X4708753Y-11990460D02*
X4689706Y-11999984D01*
X4689706Y-11999984D02*
X4661134Y-11999984D01*
X4842087Y-11999984D02*
X4823039Y-11990460D01*
X4823039Y-11990460D02*
X4813515Y-11971412D01*
X4813515Y-11971412D02*
X4813515Y-11799984D01*
X4994468Y-11990460D02*
X4975420Y-11999984D01*
X4975420Y-11999984D02*
X4937325Y-11999984D01*
X4937325Y-11999984D02*
X4918277Y-11990460D01*
X4918277Y-11990460D02*
X4908753Y-11971412D01*
X4908753Y-11971412D02*
X4908753Y-11895222D01*
X4908753Y-11895222D02*
X4918277Y-11876174D01*
X4918277Y-11876174D02*
X4937325Y-11866650D01*
X4937325Y-11866650D02*
X4975420Y-11866650D01*
X4975420Y-11866650D02*
X4994468Y-11876174D01*
X4994468Y-11876174D02*
X5003992Y-11895222D01*
X5003992Y-11895222D02*
X5003992Y-11914269D01*
X5003992Y-11914269D02*
X4908753Y-11933317D01*
X5080182Y-11990460D02*
X5099230Y-11999984D01*
X5099230Y-11999984D02*
X5137325Y-11999984D01*
X5137325Y-11999984D02*
X5156373Y-11990460D01*
X5156373Y-11990460D02*
X5165896Y-11971412D01*
X5165896Y-11971412D02*
X5165896Y-11961888D01*
X5165896Y-11961888D02*
X5156373Y-11942841D01*
X5156373Y-11942841D02*
X5137325Y-11933317D01*
X5137325Y-11933317D02*
X5108753Y-11933317D01*
X5108753Y-11933317D02*
X5089706Y-11923793D01*
X5089706Y-11923793D02*
X5080182Y-11904746D01*
X5080182Y-11904746D02*
X5080182Y-11895222D01*
X5080182Y-11895222D02*
X5089706Y-11876174D01*
X5089706Y-11876174D02*
X5108753Y-11866650D01*
X5108753Y-11866650D02*
X5137325Y-11866650D01*
X5137325Y-11866650D02*
X5156373Y-11876174D01*
X5232563Y-12076174D02*
X5242087Y-12066650D01*
X5242087Y-12066650D02*
X5261134Y-12038079D01*
X5261134Y-12038079D02*
X5270658Y-12019031D01*
X5270658Y-12019031D02*
X5280182Y-11990460D01*
X5280182Y-11990460D02*
X5289706Y-11942841D01*
X5289706Y-11942841D02*
X5289706Y-11904746D01*
X5289706Y-11904746D02*
X5280182Y-11857127D01*
X5280182Y-11857127D02*
X5270658Y-11828555D01*
X5270658Y-11828555D02*
X5261134Y-11809508D01*
X5261134Y-11809508D02*
X5242087Y-11780936D01*
X5242087Y-11780936D02*
X5232563Y-11771412D01*
D12*
X387500Y-12137500D02*
X457500Y-12207500D01*
X457500Y-12137500D02*
X387500Y-12207500D01*
X457500Y-12172500D02*
G75*
G02*
X387500Y-12172500I-35000J0D01*
G01*
X387500Y-12172500D02*
G75*
G02*
X457500Y-12172500I35000J0D01*
G01*
D11*
X756372Y-12063984D02*
X775420Y-12063984D01*
X775420Y-12063984D02*
X794467Y-12073508D01*
X794467Y-12073508D02*
X803991Y-12083031D01*
X803991Y-12083031D02*
X813515Y-12102079D01*
X813515Y-12102079D02*
X823039Y-12140174D01*
X823039Y-12140174D02*
X823039Y-12187793D01*
X823039Y-12187793D02*
X813515Y-12225888D01*
X813515Y-12225888D02*
X803991Y-12244936D01*
X803991Y-12244936D02*
X794467Y-12254460D01*
X794467Y-12254460D02*
X775420Y-12263984D01*
X775420Y-12263984D02*
X756372Y-12263984D01*
X756372Y-12263984D02*
X737324Y-12254460D01*
X737324Y-12254460D02*
X727801Y-12244936D01*
X727801Y-12244936D02*
X718277Y-12225888D01*
X718277Y-12225888D02*
X708753Y-12187793D01*
X708753Y-12187793D02*
X708753Y-12140174D01*
X708753Y-12140174D02*
X718277Y-12102079D01*
X718277Y-12102079D02*
X727801Y-12083031D01*
X727801Y-12083031D02*
X737324Y-12073508D01*
X737324Y-12073508D02*
X756372Y-12063984D01*
X908753Y-12244936D02*
X918277Y-12254460D01*
X918277Y-12254460D02*
X908753Y-12263984D01*
X908753Y-12263984D02*
X899229Y-12254460D01*
X899229Y-12254460D02*
X908753Y-12244936D01*
X908753Y-12244936D02*
X908753Y-12263984D01*
X984943Y-12063984D02*
X1118277Y-12063984D01*
X1118277Y-12063984D02*
X1032562Y-12263984D01*
X1232563Y-12063984D02*
X1251610Y-12063984D01*
X1251610Y-12063984D02*
X1270658Y-12073508D01*
X1270658Y-12073508D02*
X1280182Y-12083031D01*
X1280182Y-12083031D02*
X1289705Y-12102079D01*
X1289705Y-12102079D02*
X1299229Y-12140174D01*
X1299229Y-12140174D02*
X1299229Y-12187793D01*
X1299229Y-12187793D02*
X1289705Y-12225888D01*
X1289705Y-12225888D02*
X1280182Y-12244936D01*
X1280182Y-12244936D02*
X1270658Y-12254460D01*
X1270658Y-12254460D02*
X1251610Y-12263984D01*
X1251610Y-12263984D02*
X1232563Y-12263984D01*
X1232563Y-12263984D02*
X1213515Y-12254460D01*
X1213515Y-12254460D02*
X1203991Y-12244936D01*
X1203991Y-12244936D02*
X1194467Y-12225888D01*
X1194467Y-12225888D02*
X1184944Y-12187793D01*
X1184944Y-12187793D02*
X1184944Y-12140174D01*
X1184944Y-12140174D02*
X1194467Y-12102079D01*
X1194467Y-12102079D02*
X1203991Y-12083031D01*
X1203991Y-12083031D02*
X1213515Y-12073508D01*
X1213515Y-12073508D02*
X1232563Y-12063984D01*
X1423039Y-12063984D02*
X1442086Y-12063984D01*
X1442086Y-12063984D02*
X1461134Y-12073508D01*
X1461134Y-12073508D02*
X1470658Y-12083031D01*
X1470658Y-12083031D02*
X1480182Y-12102079D01*
X1480182Y-12102079D02*
X1489705Y-12140174D01*
X1489705Y-12140174D02*
X1489705Y-12187793D01*
X1489705Y-12187793D02*
X1480182Y-12225888D01*
X1480182Y-12225888D02*
X1470658Y-12244936D01*
X1470658Y-12244936D02*
X1461134Y-12254460D01*
X1461134Y-12254460D02*
X1442086Y-12263984D01*
X1442086Y-12263984D02*
X1423039Y-12263984D01*
X1423039Y-12263984D02*
X1403991Y-12254460D01*
X1403991Y-12254460D02*
X1394467Y-12244936D01*
X1394467Y-12244936D02*
X1384944Y-12225888D01*
X1384944Y-12225888D02*
X1375420Y-12187793D01*
X1375420Y-12187793D02*
X1375420Y-12140174D01*
X1375420Y-12140174D02*
X1384944Y-12102079D01*
X1384944Y-12102079D02*
X1394467Y-12083031D01*
X1394467Y-12083031D02*
X1403991Y-12073508D01*
X1403991Y-12073508D02*
X1423039Y-12063984D01*
X1575420Y-12263984D02*
X1575420Y-12130650D01*
X1575420Y-12149698D02*
X1584943Y-12140174D01*
X1584943Y-12140174D02*
X1603991Y-12130650D01*
X1603991Y-12130650D02*
X1632563Y-12130650D01*
X1632563Y-12130650D02*
X1651610Y-12140174D01*
X1651610Y-12140174D02*
X1661134Y-12159222D01*
X1661134Y-12159222D02*
X1661134Y-12263984D01*
X1661134Y-12159222D02*
X1670658Y-12140174D01*
X1670658Y-12140174D02*
X1689705Y-12130650D01*
X1689705Y-12130650D02*
X1718277Y-12130650D01*
X1718277Y-12130650D02*
X1737324Y-12140174D01*
X1737324Y-12140174D02*
X1746848Y-12159222D01*
X1746848Y-12159222D02*
X1746848Y-12263984D01*
X1842086Y-12263984D02*
X1842086Y-12130650D01*
X1842086Y-12149698D02*
X1851610Y-12140174D01*
X1851610Y-12140174D02*
X1870658Y-12130650D01*
X1870658Y-12130650D02*
X1899229Y-12130650D01*
X1899229Y-12130650D02*
X1918277Y-12140174D01*
X1918277Y-12140174D02*
X1927801Y-12159222D01*
X1927801Y-12159222D02*
X1927801Y-12263984D01*
X1927801Y-12159222D02*
X1937324Y-12140174D01*
X1937324Y-12140174D02*
X1956372Y-12130650D01*
X1956372Y-12130650D02*
X1984943Y-12130650D01*
X1984943Y-12130650D02*
X2003991Y-12140174D01*
X2003991Y-12140174D02*
X2013515Y-12159222D01*
X2013515Y-12159222D02*
X2013515Y-12263984D01*
X2403991Y-12054460D02*
X2232563Y-12311603D01*
X2661134Y-12063984D02*
X2680182Y-12063984D01*
X2680182Y-12063984D02*
X2699229Y-12073508D01*
X2699229Y-12073508D02*
X2708753Y-12083031D01*
X2708753Y-12083031D02*
X2718277Y-12102079D01*
X2718277Y-12102079D02*
X2727801Y-12140174D01*
X2727801Y-12140174D02*
X2727801Y-12187793D01*
X2727801Y-12187793D02*
X2718277Y-12225888D01*
X2718277Y-12225888D02*
X2708753Y-12244936D01*
X2708753Y-12244936D02*
X2699229Y-12254460D01*
X2699229Y-12254460D02*
X2680182Y-12263984D01*
X2680182Y-12263984D02*
X2661134Y-12263984D01*
X2661134Y-12263984D02*
X2642087Y-12254460D01*
X2642087Y-12254460D02*
X2632563Y-12244936D01*
X2632563Y-12244936D02*
X2623039Y-12225888D01*
X2623039Y-12225888D02*
X2613515Y-12187793D01*
X2613515Y-12187793D02*
X2613515Y-12140174D01*
X2613515Y-12140174D02*
X2623039Y-12102079D01*
X2623039Y-12102079D02*
X2632563Y-12083031D01*
X2632563Y-12083031D02*
X2642087Y-12073508D01*
X2642087Y-12073508D02*
X2661134Y-12063984D01*
X2813515Y-12244936D02*
X2823039Y-12254460D01*
X2823039Y-12254460D02*
X2813515Y-12263984D01*
X2813515Y-12263984D02*
X2803991Y-12254460D01*
X2803991Y-12254460D02*
X2813515Y-12244936D01*
X2813515Y-12244936D02*
X2813515Y-12263984D01*
X2946848Y-12063984D02*
X2965896Y-12063984D01*
X2965896Y-12063984D02*
X2984944Y-12073508D01*
X2984944Y-12073508D02*
X2994467Y-12083031D01*
X2994467Y-12083031D02*
X3003991Y-12102079D01*
X3003991Y-12102079D02*
X3013515Y-12140174D01*
X3013515Y-12140174D02*
X3013515Y-12187793D01*
X3013515Y-12187793D02*
X3003991Y-12225888D01*
X3003991Y-12225888D02*
X2994467Y-12244936D01*
X2994467Y-12244936D02*
X2984944Y-12254460D01*
X2984944Y-12254460D02*
X2965896Y-12263984D01*
X2965896Y-12263984D02*
X2946848Y-12263984D01*
X2946848Y-12263984D02*
X2927801Y-12254460D01*
X2927801Y-12254460D02*
X2918277Y-12244936D01*
X2918277Y-12244936D02*
X2908753Y-12225888D01*
X2908753Y-12225888D02*
X2899229Y-12187793D01*
X2899229Y-12187793D02*
X2899229Y-12140174D01*
X2899229Y-12140174D02*
X2908753Y-12102079D01*
X2908753Y-12102079D02*
X2918277Y-12083031D01*
X2918277Y-12083031D02*
X2927801Y-12073508D01*
X2927801Y-12073508D02*
X2946848Y-12063984D01*
X3089706Y-12083031D02*
X3099229Y-12073508D01*
X3099229Y-12073508D02*
X3118277Y-12063984D01*
X3118277Y-12063984D02*
X3165896Y-12063984D01*
X3165896Y-12063984D02*
X3184944Y-12073508D01*
X3184944Y-12073508D02*
X3194467Y-12083031D01*
X3194467Y-12083031D02*
X3203991Y-12102079D01*
X3203991Y-12102079D02*
X3203991Y-12121127D01*
X3203991Y-12121127D02*
X3194467Y-12149698D01*
X3194467Y-12149698D02*
X3080182Y-12263984D01*
X3080182Y-12263984D02*
X3203991Y-12263984D01*
X3270658Y-12063984D02*
X3403991Y-12063984D01*
X3403991Y-12063984D02*
X3318277Y-12263984D01*
X3565896Y-12063984D02*
X3527801Y-12063984D01*
X3527801Y-12063984D02*
X3508753Y-12073508D01*
X3508753Y-12073508D02*
X3499229Y-12083031D01*
X3499229Y-12083031D02*
X3480182Y-12111603D01*
X3480182Y-12111603D02*
X3470658Y-12149698D01*
X3470658Y-12149698D02*
X3470658Y-12225888D01*
X3470658Y-12225888D02*
X3480182Y-12244936D01*
X3480182Y-12244936D02*
X3489706Y-12254460D01*
X3489706Y-12254460D02*
X3508753Y-12263984D01*
X3508753Y-12263984D02*
X3546848Y-12263984D01*
X3546848Y-12263984D02*
X3565896Y-12254460D01*
X3565896Y-12254460D02*
X3575420Y-12244936D01*
X3575420Y-12244936D02*
X3584944Y-12225888D01*
X3584944Y-12225888D02*
X3584944Y-12178269D01*
X3584944Y-12178269D02*
X3575420Y-12159222D01*
X3575420Y-12159222D02*
X3565896Y-12149698D01*
X3565896Y-12149698D02*
X3546848Y-12140174D01*
X3546848Y-12140174D02*
X3508753Y-12140174D01*
X3508753Y-12140174D02*
X3489706Y-12149698D01*
X3489706Y-12149698D02*
X3480182Y-12159222D01*
X3480182Y-12159222D02*
X3470658Y-12178269D01*
X3661134Y-12063984D02*
X3661134Y-12102079D01*
X3737325Y-12063984D02*
X3737325Y-12102079D01*
X4032563Y-12340174D02*
X4023039Y-12330650D01*
X4023039Y-12330650D02*
X4003991Y-12302079D01*
X4003991Y-12302079D02*
X3994468Y-12283031D01*
X3994468Y-12283031D02*
X3984944Y-12254460D01*
X3984944Y-12254460D02*
X3975420Y-12206841D01*
X3975420Y-12206841D02*
X3975420Y-12168746D01*
X3975420Y-12168746D02*
X3984944Y-12121127D01*
X3984944Y-12121127D02*
X3994468Y-12092555D01*
X3994468Y-12092555D02*
X4003991Y-12073508D01*
X4003991Y-12073508D02*
X4023039Y-12044936D01*
X4023039Y-12044936D02*
X4032563Y-12035412D01*
X4194468Y-12130650D02*
X4194468Y-12263984D01*
X4146848Y-12054460D02*
X4099229Y-12197317D01*
X4099229Y-12197317D02*
X4223039Y-12197317D01*
X4451611Y-12263984D02*
X4451611Y-12063984D01*
X4537325Y-12263984D02*
X4537325Y-12159222D01*
X4537325Y-12159222D02*
X4527801Y-12140174D01*
X4527801Y-12140174D02*
X4508753Y-12130650D01*
X4508753Y-12130650D02*
X4480182Y-12130650D01*
X4480182Y-12130650D02*
X4461134Y-12140174D01*
X4461134Y-12140174D02*
X4451611Y-12149698D01*
X4661134Y-12263984D02*
X4642087Y-12254460D01*
X4642087Y-12254460D02*
X4632563Y-12244936D01*
X4632563Y-12244936D02*
X4623039Y-12225888D01*
X4623039Y-12225888D02*
X4623039Y-12168746D01*
X4623039Y-12168746D02*
X4632563Y-12149698D01*
X4632563Y-12149698D02*
X4642087Y-12140174D01*
X4642087Y-12140174D02*
X4661134Y-12130650D01*
X4661134Y-12130650D02*
X4689706Y-12130650D01*
X4689706Y-12130650D02*
X4708753Y-12140174D01*
X4708753Y-12140174D02*
X4718277Y-12149698D01*
X4718277Y-12149698D02*
X4727801Y-12168746D01*
X4727801Y-12168746D02*
X4727801Y-12225888D01*
X4727801Y-12225888D02*
X4718277Y-12244936D01*
X4718277Y-12244936D02*
X4708753Y-12254460D01*
X4708753Y-12254460D02*
X4689706Y-12263984D01*
X4689706Y-12263984D02*
X4661134Y-12263984D01*
X4842087Y-12263984D02*
X4823039Y-12254460D01*
X4823039Y-12254460D02*
X4813515Y-12235412D01*
X4813515Y-12235412D02*
X4813515Y-12063984D01*
X4994468Y-12254460D02*
X4975420Y-12263984D01*
X4975420Y-12263984D02*
X4937325Y-12263984D01*
X4937325Y-12263984D02*
X4918277Y-12254460D01*
X4918277Y-12254460D02*
X4908753Y-12235412D01*
X4908753Y-12235412D02*
X4908753Y-12159222D01*
X4908753Y-12159222D02*
X4918277Y-12140174D01*
X4918277Y-12140174D02*
X4937325Y-12130650D01*
X4937325Y-12130650D02*
X4975420Y-12130650D01*
X4975420Y-12130650D02*
X4994468Y-12140174D01*
X4994468Y-12140174D02*
X5003992Y-12159222D01*
X5003992Y-12159222D02*
X5003992Y-12178269D01*
X5003992Y-12178269D02*
X4908753Y-12197317D01*
X5080182Y-12254460D02*
X5099230Y-12263984D01*
X5099230Y-12263984D02*
X5137325Y-12263984D01*
X5137325Y-12263984D02*
X5156373Y-12254460D01*
X5156373Y-12254460D02*
X5165896Y-12235412D01*
X5165896Y-12235412D02*
X5165896Y-12225888D01*
X5165896Y-12225888D02*
X5156373Y-12206841D01*
X5156373Y-12206841D02*
X5137325Y-12197317D01*
X5137325Y-12197317D02*
X5108753Y-12197317D01*
X5108753Y-12197317D02*
X5089706Y-12187793D01*
X5089706Y-12187793D02*
X5080182Y-12168746D01*
X5080182Y-12168746D02*
X5080182Y-12159222D01*
X5080182Y-12159222D02*
X5089706Y-12140174D01*
X5089706Y-12140174D02*
X5108753Y-12130650D01*
X5108753Y-12130650D02*
X5137325Y-12130650D01*
X5137325Y-12130650D02*
X5156373Y-12140174D01*
X5232563Y-12340174D02*
X5242087Y-12330650D01*
X5242087Y-12330650D02*
X5261134Y-12302079D01*
X5261134Y-12302079D02*
X5270658Y-12283031D01*
X5270658Y-12283031D02*
X5280182Y-12254460D01*
X5280182Y-12254460D02*
X5289706Y-12206841D01*
X5289706Y-12206841D02*
X5289706Y-12168746D01*
X5289706Y-12168746D02*
X5280182Y-12121127D01*
X5280182Y-12121127D02*
X5270658Y-12092555D01*
X5270658Y-12092555D02*
X5261134Y-12073508D01*
X5261134Y-12073508D02*
X5242087Y-12044936D01*
X5242087Y-12044936D02*
X5232563Y-12035412D01*
D12*
X377500Y-12396500D02*
X457500Y-12476500D01*
X457500Y-12396500D02*
X377500Y-12476500D01*
X417500Y-12396500D02*
X417500Y-12476500D01*
X377500Y-12436500D02*
X457500Y-12436500D01*
D11*
X756372Y-12327984D02*
X775420Y-12327984D01*
X775420Y-12327984D02*
X794467Y-12337508D01*
X794467Y-12337508D02*
X803991Y-12347031D01*
X803991Y-12347031D02*
X813515Y-12366079D01*
X813515Y-12366079D02*
X823039Y-12404174D01*
X823039Y-12404174D02*
X823039Y-12451793D01*
X823039Y-12451793D02*
X813515Y-12489888D01*
X813515Y-12489888D02*
X803991Y-12508936D01*
X803991Y-12508936D02*
X794467Y-12518460D01*
X794467Y-12518460D02*
X775420Y-12527984D01*
X775420Y-12527984D02*
X756372Y-12527984D01*
X756372Y-12527984D02*
X737324Y-12518460D01*
X737324Y-12518460D02*
X727801Y-12508936D01*
X727801Y-12508936D02*
X718277Y-12489888D01*
X718277Y-12489888D02*
X708753Y-12451793D01*
X708753Y-12451793D02*
X708753Y-12404174D01*
X708753Y-12404174D02*
X718277Y-12366079D01*
X718277Y-12366079D02*
X727801Y-12347031D01*
X727801Y-12347031D02*
X737324Y-12337508D01*
X737324Y-12337508D02*
X756372Y-12327984D01*
X908753Y-12508936D02*
X918277Y-12518460D01*
X918277Y-12518460D02*
X908753Y-12527984D01*
X908753Y-12527984D02*
X899229Y-12518460D01*
X899229Y-12518460D02*
X908753Y-12508936D01*
X908753Y-12508936D02*
X908753Y-12527984D01*
X1032562Y-12413698D02*
X1013515Y-12404174D01*
X1013515Y-12404174D02*
X1003991Y-12394650D01*
X1003991Y-12394650D02*
X994467Y-12375603D01*
X994467Y-12375603D02*
X994467Y-12366079D01*
X994467Y-12366079D02*
X1003991Y-12347031D01*
X1003991Y-12347031D02*
X1013515Y-12337508D01*
X1013515Y-12337508D02*
X1032562Y-12327984D01*
X1032562Y-12327984D02*
X1070658Y-12327984D01*
X1070658Y-12327984D02*
X1089705Y-12337508D01*
X1089705Y-12337508D02*
X1099229Y-12347031D01*
X1099229Y-12347031D02*
X1108753Y-12366079D01*
X1108753Y-12366079D02*
X1108753Y-12375603D01*
X1108753Y-12375603D02*
X1099229Y-12394650D01*
X1099229Y-12394650D02*
X1089705Y-12404174D01*
X1089705Y-12404174D02*
X1070658Y-12413698D01*
X1070658Y-12413698D02*
X1032562Y-12413698D01*
X1032562Y-12413698D02*
X1013515Y-12423222D01*
X1013515Y-12423222D02*
X1003991Y-12432746D01*
X1003991Y-12432746D02*
X994467Y-12451793D01*
X994467Y-12451793D02*
X994467Y-12489888D01*
X994467Y-12489888D02*
X1003991Y-12508936D01*
X1003991Y-12508936D02*
X1013515Y-12518460D01*
X1013515Y-12518460D02*
X1032562Y-12527984D01*
X1032562Y-12527984D02*
X1070658Y-12527984D01*
X1070658Y-12527984D02*
X1089705Y-12518460D01*
X1089705Y-12518460D02*
X1099229Y-12508936D01*
X1099229Y-12508936D02*
X1108753Y-12489888D01*
X1108753Y-12489888D02*
X1108753Y-12451793D01*
X1108753Y-12451793D02*
X1099229Y-12432746D01*
X1099229Y-12432746D02*
X1089705Y-12423222D01*
X1089705Y-12423222D02*
X1070658Y-12413698D01*
X1232563Y-12327984D02*
X1251610Y-12327984D01*
X1251610Y-12327984D02*
X1270658Y-12337508D01*
X1270658Y-12337508D02*
X1280182Y-12347031D01*
X1280182Y-12347031D02*
X1289705Y-12366079D01*
X1289705Y-12366079D02*
X1299229Y-12404174D01*
X1299229Y-12404174D02*
X1299229Y-12451793D01*
X1299229Y-12451793D02*
X1289705Y-12489888D01*
X1289705Y-12489888D02*
X1280182Y-12508936D01*
X1280182Y-12508936D02*
X1270658Y-12518460D01*
X1270658Y-12518460D02*
X1251610Y-12527984D01*
X1251610Y-12527984D02*
X1232563Y-12527984D01*
X1232563Y-12527984D02*
X1213515Y-12518460D01*
X1213515Y-12518460D02*
X1203991Y-12508936D01*
X1203991Y-12508936D02*
X1194467Y-12489888D01*
X1194467Y-12489888D02*
X1184944Y-12451793D01*
X1184944Y-12451793D02*
X1184944Y-12404174D01*
X1184944Y-12404174D02*
X1194467Y-12366079D01*
X1194467Y-12366079D02*
X1203991Y-12347031D01*
X1203991Y-12347031D02*
X1213515Y-12337508D01*
X1213515Y-12337508D02*
X1232563Y-12327984D01*
X1423039Y-12327984D02*
X1442086Y-12327984D01*
X1442086Y-12327984D02*
X1461134Y-12337508D01*
X1461134Y-12337508D02*
X1470658Y-12347031D01*
X1470658Y-12347031D02*
X1480182Y-12366079D01*
X1480182Y-12366079D02*
X1489705Y-12404174D01*
X1489705Y-12404174D02*
X1489705Y-12451793D01*
X1489705Y-12451793D02*
X1480182Y-12489888D01*
X1480182Y-12489888D02*
X1470658Y-12508936D01*
X1470658Y-12508936D02*
X1461134Y-12518460D01*
X1461134Y-12518460D02*
X1442086Y-12527984D01*
X1442086Y-12527984D02*
X1423039Y-12527984D01*
X1423039Y-12527984D02*
X1403991Y-12518460D01*
X1403991Y-12518460D02*
X1394467Y-12508936D01*
X1394467Y-12508936D02*
X1384944Y-12489888D01*
X1384944Y-12489888D02*
X1375420Y-12451793D01*
X1375420Y-12451793D02*
X1375420Y-12404174D01*
X1375420Y-12404174D02*
X1384944Y-12366079D01*
X1384944Y-12366079D02*
X1394467Y-12347031D01*
X1394467Y-12347031D02*
X1403991Y-12337508D01*
X1403991Y-12337508D02*
X1423039Y-12327984D01*
X1575420Y-12527984D02*
X1575420Y-12394650D01*
X1575420Y-12413698D02*
X1584943Y-12404174D01*
X1584943Y-12404174D02*
X1603991Y-12394650D01*
X1603991Y-12394650D02*
X1632563Y-12394650D01*
X1632563Y-12394650D02*
X1651610Y-12404174D01*
X1651610Y-12404174D02*
X1661134Y-12423222D01*
X1661134Y-12423222D02*
X1661134Y-12527984D01*
X1661134Y-12423222D02*
X1670658Y-12404174D01*
X1670658Y-12404174D02*
X1689705Y-12394650D01*
X1689705Y-12394650D02*
X1718277Y-12394650D01*
X1718277Y-12394650D02*
X1737324Y-12404174D01*
X1737324Y-12404174D02*
X1746848Y-12423222D01*
X1746848Y-12423222D02*
X1746848Y-12527984D01*
X1842086Y-12527984D02*
X1842086Y-12394650D01*
X1842086Y-12413698D02*
X1851610Y-12404174D01*
X1851610Y-12404174D02*
X1870658Y-12394650D01*
X1870658Y-12394650D02*
X1899229Y-12394650D01*
X1899229Y-12394650D02*
X1918277Y-12404174D01*
X1918277Y-12404174D02*
X1927801Y-12423222D01*
X1927801Y-12423222D02*
X1927801Y-12527984D01*
X1927801Y-12423222D02*
X1937324Y-12404174D01*
X1937324Y-12404174D02*
X1956372Y-12394650D01*
X1956372Y-12394650D02*
X1984943Y-12394650D01*
X1984943Y-12394650D02*
X2003991Y-12404174D01*
X2003991Y-12404174D02*
X2013515Y-12423222D01*
X2013515Y-12423222D02*
X2013515Y-12527984D01*
X2403991Y-12318460D02*
X2232563Y-12575603D01*
X2661134Y-12327984D02*
X2680182Y-12327984D01*
X2680182Y-12327984D02*
X2699229Y-12337508D01*
X2699229Y-12337508D02*
X2708753Y-12347031D01*
X2708753Y-12347031D02*
X2718277Y-12366079D01*
X2718277Y-12366079D02*
X2727801Y-12404174D01*
X2727801Y-12404174D02*
X2727801Y-12451793D01*
X2727801Y-12451793D02*
X2718277Y-12489888D01*
X2718277Y-12489888D02*
X2708753Y-12508936D01*
X2708753Y-12508936D02*
X2699229Y-12518460D01*
X2699229Y-12518460D02*
X2680182Y-12527984D01*
X2680182Y-12527984D02*
X2661134Y-12527984D01*
X2661134Y-12527984D02*
X2642087Y-12518460D01*
X2642087Y-12518460D02*
X2632563Y-12508936D01*
X2632563Y-12508936D02*
X2623039Y-12489888D01*
X2623039Y-12489888D02*
X2613515Y-12451793D01*
X2613515Y-12451793D02*
X2613515Y-12404174D01*
X2613515Y-12404174D02*
X2623039Y-12366079D01*
X2623039Y-12366079D02*
X2632563Y-12347031D01*
X2632563Y-12347031D02*
X2642087Y-12337508D01*
X2642087Y-12337508D02*
X2661134Y-12327984D01*
X2813515Y-12508936D02*
X2823039Y-12518460D01*
X2823039Y-12518460D02*
X2813515Y-12527984D01*
X2813515Y-12527984D02*
X2803991Y-12518460D01*
X2803991Y-12518460D02*
X2813515Y-12508936D01*
X2813515Y-12508936D02*
X2813515Y-12527984D01*
X2946848Y-12327984D02*
X2965896Y-12327984D01*
X2965896Y-12327984D02*
X2984944Y-12337508D01*
X2984944Y-12337508D02*
X2994467Y-12347031D01*
X2994467Y-12347031D02*
X3003991Y-12366079D01*
X3003991Y-12366079D02*
X3013515Y-12404174D01*
X3013515Y-12404174D02*
X3013515Y-12451793D01*
X3013515Y-12451793D02*
X3003991Y-12489888D01*
X3003991Y-12489888D02*
X2994467Y-12508936D01*
X2994467Y-12508936D02*
X2984944Y-12518460D01*
X2984944Y-12518460D02*
X2965896Y-12527984D01*
X2965896Y-12527984D02*
X2946848Y-12527984D01*
X2946848Y-12527984D02*
X2927801Y-12518460D01*
X2927801Y-12518460D02*
X2918277Y-12508936D01*
X2918277Y-12508936D02*
X2908753Y-12489888D01*
X2908753Y-12489888D02*
X2899229Y-12451793D01*
X2899229Y-12451793D02*
X2899229Y-12404174D01*
X2899229Y-12404174D02*
X2908753Y-12366079D01*
X2908753Y-12366079D02*
X2918277Y-12347031D01*
X2918277Y-12347031D02*
X2927801Y-12337508D01*
X2927801Y-12337508D02*
X2946848Y-12327984D01*
X3080182Y-12327984D02*
X3203991Y-12327984D01*
X3203991Y-12327984D02*
X3137325Y-12404174D01*
X3137325Y-12404174D02*
X3165896Y-12404174D01*
X3165896Y-12404174D02*
X3184944Y-12413698D01*
X3184944Y-12413698D02*
X3194467Y-12423222D01*
X3194467Y-12423222D02*
X3203991Y-12442269D01*
X3203991Y-12442269D02*
X3203991Y-12489888D01*
X3203991Y-12489888D02*
X3194467Y-12508936D01*
X3194467Y-12508936D02*
X3184944Y-12518460D01*
X3184944Y-12518460D02*
X3165896Y-12527984D01*
X3165896Y-12527984D02*
X3108753Y-12527984D01*
X3108753Y-12527984D02*
X3089706Y-12518460D01*
X3089706Y-12518460D02*
X3080182Y-12508936D01*
X3394467Y-12527984D02*
X3280182Y-12527984D01*
X3337325Y-12527984D02*
X3337325Y-12327984D01*
X3337325Y-12327984D02*
X3318277Y-12356555D01*
X3318277Y-12356555D02*
X3299229Y-12375603D01*
X3299229Y-12375603D02*
X3280182Y-12385127D01*
X3575420Y-12327984D02*
X3480182Y-12327984D01*
X3480182Y-12327984D02*
X3470658Y-12423222D01*
X3470658Y-12423222D02*
X3480182Y-12413698D01*
X3480182Y-12413698D02*
X3499229Y-12404174D01*
X3499229Y-12404174D02*
X3546848Y-12404174D01*
X3546848Y-12404174D02*
X3565896Y-12413698D01*
X3565896Y-12413698D02*
X3575420Y-12423222D01*
X3575420Y-12423222D02*
X3584944Y-12442269D01*
X3584944Y-12442269D02*
X3584944Y-12489888D01*
X3584944Y-12489888D02*
X3575420Y-12508936D01*
X3575420Y-12508936D02*
X3565896Y-12518460D01*
X3565896Y-12518460D02*
X3546848Y-12527984D01*
X3546848Y-12527984D02*
X3499229Y-12527984D01*
X3499229Y-12527984D02*
X3480182Y-12518460D01*
X3480182Y-12518460D02*
X3470658Y-12508936D01*
X3661134Y-12327984D02*
X3661134Y-12366079D01*
X3737325Y-12327984D02*
X3737325Y-12366079D01*
X4032563Y-12604174D02*
X4023039Y-12594650D01*
X4023039Y-12594650D02*
X4003991Y-12566079D01*
X4003991Y-12566079D02*
X3994468Y-12547031D01*
X3994468Y-12547031D02*
X3984944Y-12518460D01*
X3984944Y-12518460D02*
X3975420Y-12470841D01*
X3975420Y-12470841D02*
X3975420Y-12432746D01*
X3975420Y-12432746D02*
X3984944Y-12385127D01*
X3984944Y-12385127D02*
X3994468Y-12356555D01*
X3994468Y-12356555D02*
X4003991Y-12337508D01*
X4003991Y-12337508D02*
X4023039Y-12308936D01*
X4023039Y-12308936D02*
X4032563Y-12299412D01*
X4146848Y-12327984D02*
X4165896Y-12327984D01*
X4165896Y-12327984D02*
X4184944Y-12337508D01*
X4184944Y-12337508D02*
X4194468Y-12347031D01*
X4194468Y-12347031D02*
X4203991Y-12366079D01*
X4203991Y-12366079D02*
X4213515Y-12404174D01*
X4213515Y-12404174D02*
X4213515Y-12451793D01*
X4213515Y-12451793D02*
X4203991Y-12489888D01*
X4203991Y-12489888D02*
X4194468Y-12508936D01*
X4194468Y-12508936D02*
X4184944Y-12518460D01*
X4184944Y-12518460D02*
X4165896Y-12527984D01*
X4165896Y-12527984D02*
X4146848Y-12527984D01*
X4146848Y-12527984D02*
X4127801Y-12518460D01*
X4127801Y-12518460D02*
X4118277Y-12508936D01*
X4118277Y-12508936D02*
X4108753Y-12489888D01*
X4108753Y-12489888D02*
X4099229Y-12451793D01*
X4099229Y-12451793D02*
X4099229Y-12404174D01*
X4099229Y-12404174D02*
X4108753Y-12366079D01*
X4108753Y-12366079D02*
X4118277Y-12347031D01*
X4118277Y-12347031D02*
X4127801Y-12337508D01*
X4127801Y-12337508D02*
X4146848Y-12327984D01*
X4451611Y-12527984D02*
X4451611Y-12327984D01*
X4537325Y-12527984D02*
X4537325Y-12423222D01*
X4537325Y-12423222D02*
X4527801Y-12404174D01*
X4527801Y-12404174D02*
X4508753Y-12394650D01*
X4508753Y-12394650D02*
X4480182Y-12394650D01*
X4480182Y-12394650D02*
X4461134Y-12404174D01*
X4461134Y-12404174D02*
X4451611Y-12413698D01*
X4661134Y-12527984D02*
X4642087Y-12518460D01*
X4642087Y-12518460D02*
X4632563Y-12508936D01*
X4632563Y-12508936D02*
X4623039Y-12489888D01*
X4623039Y-12489888D02*
X4623039Y-12432746D01*
X4623039Y-12432746D02*
X4632563Y-12413698D01*
X4632563Y-12413698D02*
X4642087Y-12404174D01*
X4642087Y-12404174D02*
X4661134Y-12394650D01*
X4661134Y-12394650D02*
X4689706Y-12394650D01*
X4689706Y-12394650D02*
X4708753Y-12404174D01*
X4708753Y-12404174D02*
X4718277Y-12413698D01*
X4718277Y-12413698D02*
X4727801Y-12432746D01*
X4727801Y-12432746D02*
X4727801Y-12489888D01*
X4727801Y-12489888D02*
X4718277Y-12508936D01*
X4718277Y-12508936D02*
X4708753Y-12518460D01*
X4708753Y-12518460D02*
X4689706Y-12527984D01*
X4689706Y-12527984D02*
X4661134Y-12527984D01*
X4842087Y-12527984D02*
X4823039Y-12518460D01*
X4823039Y-12518460D02*
X4813515Y-12499412D01*
X4813515Y-12499412D02*
X4813515Y-12327984D01*
X4994468Y-12518460D02*
X4975420Y-12527984D01*
X4975420Y-12527984D02*
X4937325Y-12527984D01*
X4937325Y-12527984D02*
X4918277Y-12518460D01*
X4918277Y-12518460D02*
X4908753Y-12499412D01*
X4908753Y-12499412D02*
X4908753Y-12423222D01*
X4908753Y-12423222D02*
X4918277Y-12404174D01*
X4918277Y-12404174D02*
X4937325Y-12394650D01*
X4937325Y-12394650D02*
X4975420Y-12394650D01*
X4975420Y-12394650D02*
X4994468Y-12404174D01*
X4994468Y-12404174D02*
X5003992Y-12423222D01*
X5003992Y-12423222D02*
X5003992Y-12442269D01*
X5003992Y-12442269D02*
X4908753Y-12461317D01*
X5080182Y-12518460D02*
X5099230Y-12527984D01*
X5099230Y-12527984D02*
X5137325Y-12527984D01*
X5137325Y-12527984D02*
X5156373Y-12518460D01*
X5156373Y-12518460D02*
X5165896Y-12499412D01*
X5165896Y-12499412D02*
X5165896Y-12489888D01*
X5165896Y-12489888D02*
X5156373Y-12470841D01*
X5156373Y-12470841D02*
X5137325Y-12461317D01*
X5137325Y-12461317D02*
X5108753Y-12461317D01*
X5108753Y-12461317D02*
X5089706Y-12451793D01*
X5089706Y-12451793D02*
X5080182Y-12432746D01*
X5080182Y-12432746D02*
X5080182Y-12423222D01*
X5080182Y-12423222D02*
X5089706Y-12404174D01*
X5089706Y-12404174D02*
X5108753Y-12394650D01*
X5108753Y-12394650D02*
X5137325Y-12394650D01*
X5137325Y-12394650D02*
X5156373Y-12404174D01*
X5403992Y-12451793D02*
X5556373Y-12451793D01*
X5480182Y-12527984D02*
X5480182Y-12375603D01*
X5784944Y-12327984D02*
X5908753Y-12327984D01*
X5908753Y-12327984D02*
X5842087Y-12404174D01*
X5842087Y-12404174D02*
X5870658Y-12404174D01*
X5870658Y-12404174D02*
X5889706Y-12413698D01*
X5889706Y-12413698D02*
X5899230Y-12423222D01*
X5899230Y-12423222D02*
X5908753Y-12442269D01*
X5908753Y-12442269D02*
X5908753Y-12489888D01*
X5908753Y-12489888D02*
X5899230Y-12508936D01*
X5899230Y-12508936D02*
X5889706Y-12518460D01*
X5889706Y-12518460D02*
X5870658Y-12527984D01*
X5870658Y-12527984D02*
X5813515Y-12527984D01*
X5813515Y-12527984D02*
X5794468Y-12518460D01*
X5794468Y-12518460D02*
X5784944Y-12508936D01*
X6137325Y-12518460D02*
X6156373Y-12527984D01*
X6156373Y-12527984D02*
X6194468Y-12527984D01*
X6194468Y-12527984D02*
X6213515Y-12518460D01*
X6213515Y-12518460D02*
X6223039Y-12499412D01*
X6223039Y-12499412D02*
X6223039Y-12489888D01*
X6223039Y-12489888D02*
X6213515Y-12470841D01*
X6213515Y-12470841D02*
X6194468Y-12461317D01*
X6194468Y-12461317D02*
X6165896Y-12461317D01*
X6165896Y-12461317D02*
X6146849Y-12451793D01*
X6146849Y-12451793D02*
X6137325Y-12432746D01*
X6137325Y-12432746D02*
X6137325Y-12423222D01*
X6137325Y-12423222D02*
X6146849Y-12404174D01*
X6146849Y-12404174D02*
X6165896Y-12394650D01*
X6165896Y-12394650D02*
X6194468Y-12394650D01*
X6194468Y-12394650D02*
X6213515Y-12404174D01*
X6337325Y-12527984D02*
X6318277Y-12518460D01*
X6318277Y-12518460D02*
X6308754Y-12499412D01*
X6308754Y-12499412D02*
X6308754Y-12327984D01*
X6442087Y-12527984D02*
X6423039Y-12518460D01*
X6423039Y-12518460D02*
X6413515Y-12508936D01*
X6413515Y-12508936D02*
X6403992Y-12489888D01*
X6403992Y-12489888D02*
X6403992Y-12432746D01*
X6403992Y-12432746D02*
X6413515Y-12413698D01*
X6413515Y-12413698D02*
X6423039Y-12404174D01*
X6423039Y-12404174D02*
X6442087Y-12394650D01*
X6442087Y-12394650D02*
X6470658Y-12394650D01*
X6470658Y-12394650D02*
X6489706Y-12404174D01*
X6489706Y-12404174D02*
X6499230Y-12413698D01*
X6499230Y-12413698D02*
X6508754Y-12432746D01*
X6508754Y-12432746D02*
X6508754Y-12489888D01*
X6508754Y-12489888D02*
X6499230Y-12508936D01*
X6499230Y-12508936D02*
X6489706Y-12518460D01*
X6489706Y-12518460D02*
X6470658Y-12527984D01*
X6470658Y-12527984D02*
X6442087Y-12527984D01*
X6565896Y-12394650D02*
X6642087Y-12394650D01*
X6594468Y-12327984D02*
X6594468Y-12499412D01*
X6594468Y-12499412D02*
X6603992Y-12518460D01*
X6603992Y-12518460D02*
X6623039Y-12527984D01*
X6623039Y-12527984D02*
X6642087Y-12527984D01*
X6699230Y-12518460D02*
X6718277Y-12527984D01*
X6718277Y-12527984D02*
X6756373Y-12527984D01*
X6756373Y-12527984D02*
X6775420Y-12518460D01*
X6775420Y-12518460D02*
X6784944Y-12499412D01*
X6784944Y-12499412D02*
X6784944Y-12489888D01*
X6784944Y-12489888D02*
X6775420Y-12470841D01*
X6775420Y-12470841D02*
X6756373Y-12461317D01*
X6756373Y-12461317D02*
X6727801Y-12461317D01*
X6727801Y-12461317D02*
X6708754Y-12451793D01*
X6708754Y-12451793D02*
X6699230Y-12432746D01*
X6699230Y-12432746D02*
X6699230Y-12423222D01*
X6699230Y-12423222D02*
X6708754Y-12404174D01*
X6708754Y-12404174D02*
X6727801Y-12394650D01*
X6727801Y-12394650D02*
X6756373Y-12394650D01*
X6756373Y-12394650D02*
X6775420Y-12404174D01*
X6851611Y-12604174D02*
X6861135Y-12594650D01*
X6861135Y-12594650D02*
X6880182Y-12566079D01*
X6880182Y-12566079D02*
X6889706Y-12547031D01*
X6889706Y-12547031D02*
X6899230Y-12518460D01*
X6899230Y-12518460D02*
X6908754Y-12470841D01*
X6908754Y-12470841D02*
X6908754Y-12432746D01*
X6908754Y-12432746D02*
X6899230Y-12385127D01*
X6899230Y-12385127D02*
X6889706Y-12356555D01*
X6889706Y-12356555D02*
X6880182Y-12337508D01*
X6880182Y-12337508D02*
X6861135Y-12308936D01*
X6861135Y-12308936D02*
X6851611Y-12299412D01*
D12*
X357500Y-12650500D02*
X457500Y-12750500D01*
X457500Y-12650500D02*
X357500Y-12750500D01*
X442856Y-12735856D02*
X442856Y-12665144D01*
X372144Y-12665144D01*
X372144Y-12735856D01*
X442856Y-12735856D01*
D11*
X823039Y-12791984D02*
X708753Y-12791984D01*
X765896Y-12791984D02*
X765896Y-12591984D01*
X765896Y-12591984D02*
X746848Y-12620555D01*
X746848Y-12620555D02*
X727801Y-12639603D01*
X727801Y-12639603D02*
X708753Y-12649127D01*
X908753Y-12772936D02*
X918277Y-12782460D01*
X918277Y-12782460D02*
X908753Y-12791984D01*
X908753Y-12791984D02*
X899229Y-12782460D01*
X899229Y-12782460D02*
X908753Y-12772936D01*
X908753Y-12772936D02*
X908753Y-12791984D01*
X1042086Y-12591984D02*
X1061134Y-12591984D01*
X1061134Y-12591984D02*
X1080182Y-12601508D01*
X1080182Y-12601508D02*
X1089705Y-12611031D01*
X1089705Y-12611031D02*
X1099229Y-12630079D01*
X1099229Y-12630079D02*
X1108753Y-12668174D01*
X1108753Y-12668174D02*
X1108753Y-12715793D01*
X1108753Y-12715793D02*
X1099229Y-12753888D01*
X1099229Y-12753888D02*
X1089705Y-12772936D01*
X1089705Y-12772936D02*
X1080182Y-12782460D01*
X1080182Y-12782460D02*
X1061134Y-12791984D01*
X1061134Y-12791984D02*
X1042086Y-12791984D01*
X1042086Y-12791984D02*
X1023039Y-12782460D01*
X1023039Y-12782460D02*
X1013515Y-12772936D01*
X1013515Y-12772936D02*
X1003991Y-12753888D01*
X1003991Y-12753888D02*
X994467Y-12715793D01*
X994467Y-12715793D02*
X994467Y-12668174D01*
X994467Y-12668174D02*
X1003991Y-12630079D01*
X1003991Y-12630079D02*
X1013515Y-12611031D01*
X1013515Y-12611031D02*
X1023039Y-12601508D01*
X1023039Y-12601508D02*
X1042086Y-12591984D01*
X1232563Y-12591984D02*
X1251610Y-12591984D01*
X1251610Y-12591984D02*
X1270658Y-12601508D01*
X1270658Y-12601508D02*
X1280182Y-12611031D01*
X1280182Y-12611031D02*
X1289705Y-12630079D01*
X1289705Y-12630079D02*
X1299229Y-12668174D01*
X1299229Y-12668174D02*
X1299229Y-12715793D01*
X1299229Y-12715793D02*
X1289705Y-12753888D01*
X1289705Y-12753888D02*
X1280182Y-12772936D01*
X1280182Y-12772936D02*
X1270658Y-12782460D01*
X1270658Y-12782460D02*
X1251610Y-12791984D01*
X1251610Y-12791984D02*
X1232563Y-12791984D01*
X1232563Y-12791984D02*
X1213515Y-12782460D01*
X1213515Y-12782460D02*
X1203991Y-12772936D01*
X1203991Y-12772936D02*
X1194467Y-12753888D01*
X1194467Y-12753888D02*
X1184944Y-12715793D01*
X1184944Y-12715793D02*
X1184944Y-12668174D01*
X1184944Y-12668174D02*
X1194467Y-12630079D01*
X1194467Y-12630079D02*
X1203991Y-12611031D01*
X1203991Y-12611031D02*
X1213515Y-12601508D01*
X1213515Y-12601508D02*
X1232563Y-12591984D01*
X1423039Y-12591984D02*
X1442086Y-12591984D01*
X1442086Y-12591984D02*
X1461134Y-12601508D01*
X1461134Y-12601508D02*
X1470658Y-12611031D01*
X1470658Y-12611031D02*
X1480182Y-12630079D01*
X1480182Y-12630079D02*
X1489705Y-12668174D01*
X1489705Y-12668174D02*
X1489705Y-12715793D01*
X1489705Y-12715793D02*
X1480182Y-12753888D01*
X1480182Y-12753888D02*
X1470658Y-12772936D01*
X1470658Y-12772936D02*
X1461134Y-12782460D01*
X1461134Y-12782460D02*
X1442086Y-12791984D01*
X1442086Y-12791984D02*
X1423039Y-12791984D01*
X1423039Y-12791984D02*
X1403991Y-12782460D01*
X1403991Y-12782460D02*
X1394467Y-12772936D01*
X1394467Y-12772936D02*
X1384944Y-12753888D01*
X1384944Y-12753888D02*
X1375420Y-12715793D01*
X1375420Y-12715793D02*
X1375420Y-12668174D01*
X1375420Y-12668174D02*
X1384944Y-12630079D01*
X1384944Y-12630079D02*
X1394467Y-12611031D01*
X1394467Y-12611031D02*
X1403991Y-12601508D01*
X1403991Y-12601508D02*
X1423039Y-12591984D01*
X1575420Y-12791984D02*
X1575420Y-12658650D01*
X1575420Y-12677698D02*
X1584943Y-12668174D01*
X1584943Y-12668174D02*
X1603991Y-12658650D01*
X1603991Y-12658650D02*
X1632563Y-12658650D01*
X1632563Y-12658650D02*
X1651610Y-12668174D01*
X1651610Y-12668174D02*
X1661134Y-12687222D01*
X1661134Y-12687222D02*
X1661134Y-12791984D01*
X1661134Y-12687222D02*
X1670658Y-12668174D01*
X1670658Y-12668174D02*
X1689705Y-12658650D01*
X1689705Y-12658650D02*
X1718277Y-12658650D01*
X1718277Y-12658650D02*
X1737324Y-12668174D01*
X1737324Y-12668174D02*
X1746848Y-12687222D01*
X1746848Y-12687222D02*
X1746848Y-12791984D01*
X1842086Y-12791984D02*
X1842086Y-12658650D01*
X1842086Y-12677698D02*
X1851610Y-12668174D01*
X1851610Y-12668174D02*
X1870658Y-12658650D01*
X1870658Y-12658650D02*
X1899229Y-12658650D01*
X1899229Y-12658650D02*
X1918277Y-12668174D01*
X1918277Y-12668174D02*
X1927801Y-12687222D01*
X1927801Y-12687222D02*
X1927801Y-12791984D01*
X1927801Y-12687222D02*
X1937324Y-12668174D01*
X1937324Y-12668174D02*
X1956372Y-12658650D01*
X1956372Y-12658650D02*
X1984943Y-12658650D01*
X1984943Y-12658650D02*
X2003991Y-12668174D01*
X2003991Y-12668174D02*
X2013515Y-12687222D01*
X2013515Y-12687222D02*
X2013515Y-12791984D01*
X2403991Y-12582460D02*
X2232563Y-12839603D01*
X2661134Y-12591984D02*
X2680182Y-12591984D01*
X2680182Y-12591984D02*
X2699229Y-12601508D01*
X2699229Y-12601508D02*
X2708753Y-12611031D01*
X2708753Y-12611031D02*
X2718277Y-12630079D01*
X2718277Y-12630079D02*
X2727801Y-12668174D01*
X2727801Y-12668174D02*
X2727801Y-12715793D01*
X2727801Y-12715793D02*
X2718277Y-12753888D01*
X2718277Y-12753888D02*
X2708753Y-12772936D01*
X2708753Y-12772936D02*
X2699229Y-12782460D01*
X2699229Y-12782460D02*
X2680182Y-12791984D01*
X2680182Y-12791984D02*
X2661134Y-12791984D01*
X2661134Y-12791984D02*
X2642087Y-12782460D01*
X2642087Y-12782460D02*
X2632563Y-12772936D01*
X2632563Y-12772936D02*
X2623039Y-12753888D01*
X2623039Y-12753888D02*
X2613515Y-12715793D01*
X2613515Y-12715793D02*
X2613515Y-12668174D01*
X2613515Y-12668174D02*
X2623039Y-12630079D01*
X2623039Y-12630079D02*
X2632563Y-12611031D01*
X2632563Y-12611031D02*
X2642087Y-12601508D01*
X2642087Y-12601508D02*
X2661134Y-12591984D01*
X2813515Y-12772936D02*
X2823039Y-12782460D01*
X2823039Y-12782460D02*
X2813515Y-12791984D01*
X2813515Y-12791984D02*
X2803991Y-12782460D01*
X2803991Y-12782460D02*
X2813515Y-12772936D01*
X2813515Y-12772936D02*
X2813515Y-12791984D01*
X2946848Y-12591984D02*
X2965896Y-12591984D01*
X2965896Y-12591984D02*
X2984944Y-12601508D01*
X2984944Y-12601508D02*
X2994467Y-12611031D01*
X2994467Y-12611031D02*
X3003991Y-12630079D01*
X3003991Y-12630079D02*
X3013515Y-12668174D01*
X3013515Y-12668174D02*
X3013515Y-12715793D01*
X3013515Y-12715793D02*
X3003991Y-12753888D01*
X3003991Y-12753888D02*
X2994467Y-12772936D01*
X2994467Y-12772936D02*
X2984944Y-12782460D01*
X2984944Y-12782460D02*
X2965896Y-12791984D01*
X2965896Y-12791984D02*
X2946848Y-12791984D01*
X2946848Y-12791984D02*
X2927801Y-12782460D01*
X2927801Y-12782460D02*
X2918277Y-12772936D01*
X2918277Y-12772936D02*
X2908753Y-12753888D01*
X2908753Y-12753888D02*
X2899229Y-12715793D01*
X2899229Y-12715793D02*
X2899229Y-12668174D01*
X2899229Y-12668174D02*
X2908753Y-12630079D01*
X2908753Y-12630079D02*
X2918277Y-12611031D01*
X2918277Y-12611031D02*
X2927801Y-12601508D01*
X2927801Y-12601508D02*
X2946848Y-12591984D01*
X3080182Y-12591984D02*
X3203991Y-12591984D01*
X3203991Y-12591984D02*
X3137325Y-12668174D01*
X3137325Y-12668174D02*
X3165896Y-12668174D01*
X3165896Y-12668174D02*
X3184944Y-12677698D01*
X3184944Y-12677698D02*
X3194467Y-12687222D01*
X3194467Y-12687222D02*
X3203991Y-12706269D01*
X3203991Y-12706269D02*
X3203991Y-12753888D01*
X3203991Y-12753888D02*
X3194467Y-12772936D01*
X3194467Y-12772936D02*
X3184944Y-12782460D01*
X3184944Y-12782460D02*
X3165896Y-12791984D01*
X3165896Y-12791984D02*
X3108753Y-12791984D01*
X3108753Y-12791984D02*
X3089706Y-12782460D01*
X3089706Y-12782460D02*
X3080182Y-12772936D01*
X3299229Y-12791984D02*
X3337325Y-12791984D01*
X3337325Y-12791984D02*
X3356372Y-12782460D01*
X3356372Y-12782460D02*
X3365896Y-12772936D01*
X3365896Y-12772936D02*
X3384944Y-12744365D01*
X3384944Y-12744365D02*
X3394467Y-12706269D01*
X3394467Y-12706269D02*
X3394467Y-12630079D01*
X3394467Y-12630079D02*
X3384944Y-12611031D01*
X3384944Y-12611031D02*
X3375420Y-12601508D01*
X3375420Y-12601508D02*
X3356372Y-12591984D01*
X3356372Y-12591984D02*
X3318277Y-12591984D01*
X3318277Y-12591984D02*
X3299229Y-12601508D01*
X3299229Y-12601508D02*
X3289706Y-12611031D01*
X3289706Y-12611031D02*
X3280182Y-12630079D01*
X3280182Y-12630079D02*
X3280182Y-12677698D01*
X3280182Y-12677698D02*
X3289706Y-12696746D01*
X3289706Y-12696746D02*
X3299229Y-12706269D01*
X3299229Y-12706269D02*
X3318277Y-12715793D01*
X3318277Y-12715793D02*
X3356372Y-12715793D01*
X3356372Y-12715793D02*
X3375420Y-12706269D01*
X3375420Y-12706269D02*
X3384944Y-12696746D01*
X3384944Y-12696746D02*
X3394467Y-12677698D01*
X3565896Y-12658650D02*
X3565896Y-12791984D01*
X3518277Y-12582460D02*
X3470658Y-12725317D01*
X3470658Y-12725317D02*
X3594467Y-12725317D01*
X3661134Y-12591984D02*
X3661134Y-12630079D01*
X3737325Y-12591984D02*
X3737325Y-12630079D01*
X4032563Y-12868174D02*
X4023039Y-12858650D01*
X4023039Y-12858650D02*
X4003991Y-12830079D01*
X4003991Y-12830079D02*
X3994468Y-12811031D01*
X3994468Y-12811031D02*
X3984944Y-12782460D01*
X3984944Y-12782460D02*
X3975420Y-12734841D01*
X3975420Y-12734841D02*
X3975420Y-12696746D01*
X3975420Y-12696746D02*
X3984944Y-12649127D01*
X3984944Y-12649127D02*
X3994468Y-12620555D01*
X3994468Y-12620555D02*
X4003991Y-12601508D01*
X4003991Y-12601508D02*
X4023039Y-12572936D01*
X4023039Y-12572936D02*
X4032563Y-12563412D01*
X4089706Y-12591984D02*
X4213515Y-12591984D01*
X4213515Y-12591984D02*
X4146848Y-12668174D01*
X4146848Y-12668174D02*
X4175420Y-12668174D01*
X4175420Y-12668174D02*
X4194468Y-12677698D01*
X4194468Y-12677698D02*
X4203991Y-12687222D01*
X4203991Y-12687222D02*
X4213515Y-12706269D01*
X4213515Y-12706269D02*
X4213515Y-12753888D01*
X4213515Y-12753888D02*
X4203991Y-12772936D01*
X4203991Y-12772936D02*
X4194468Y-12782460D01*
X4194468Y-12782460D02*
X4175420Y-12791984D01*
X4175420Y-12791984D02*
X4118277Y-12791984D01*
X4118277Y-12791984D02*
X4099229Y-12782460D01*
X4099229Y-12782460D02*
X4089706Y-12772936D01*
X4280182Y-12591984D02*
X4413515Y-12591984D01*
X4413515Y-12591984D02*
X4327801Y-12791984D01*
X4642087Y-12791984D02*
X4642087Y-12591984D01*
X4727801Y-12791984D02*
X4727801Y-12687222D01*
X4727801Y-12687222D02*
X4718277Y-12668174D01*
X4718277Y-12668174D02*
X4699230Y-12658650D01*
X4699230Y-12658650D02*
X4670658Y-12658650D01*
X4670658Y-12658650D02*
X4651611Y-12668174D01*
X4651611Y-12668174D02*
X4642087Y-12677698D01*
X4851611Y-12791984D02*
X4832563Y-12782460D01*
X4832563Y-12782460D02*
X4823039Y-12772936D01*
X4823039Y-12772936D02*
X4813515Y-12753888D01*
X4813515Y-12753888D02*
X4813515Y-12696746D01*
X4813515Y-12696746D02*
X4823039Y-12677698D01*
X4823039Y-12677698D02*
X4832563Y-12668174D01*
X4832563Y-12668174D02*
X4851611Y-12658650D01*
X4851611Y-12658650D02*
X4880182Y-12658650D01*
X4880182Y-12658650D02*
X4899230Y-12668174D01*
X4899230Y-12668174D02*
X4908753Y-12677698D01*
X4908753Y-12677698D02*
X4918277Y-12696746D01*
X4918277Y-12696746D02*
X4918277Y-12753888D01*
X4918277Y-12753888D02*
X4908753Y-12772936D01*
X4908753Y-12772936D02*
X4899230Y-12782460D01*
X4899230Y-12782460D02*
X4880182Y-12791984D01*
X4880182Y-12791984D02*
X4851611Y-12791984D01*
X5032563Y-12791984D02*
X5013515Y-12782460D01*
X5013515Y-12782460D02*
X5003992Y-12763412D01*
X5003992Y-12763412D02*
X5003992Y-12591984D01*
X5184944Y-12782460D02*
X5165896Y-12791984D01*
X5165896Y-12791984D02*
X5127801Y-12791984D01*
X5127801Y-12791984D02*
X5108753Y-12782460D01*
X5108753Y-12782460D02*
X5099230Y-12763412D01*
X5099230Y-12763412D02*
X5099230Y-12687222D01*
X5099230Y-12687222D02*
X5108753Y-12668174D01*
X5108753Y-12668174D02*
X5127801Y-12658650D01*
X5127801Y-12658650D02*
X5165896Y-12658650D01*
X5165896Y-12658650D02*
X5184944Y-12668174D01*
X5184944Y-12668174D02*
X5194468Y-12687222D01*
X5194468Y-12687222D02*
X5194468Y-12706269D01*
X5194468Y-12706269D02*
X5099230Y-12725317D01*
X5270658Y-12782460D02*
X5289706Y-12791984D01*
X5289706Y-12791984D02*
X5327801Y-12791984D01*
X5327801Y-12791984D02*
X5346849Y-12782460D01*
X5346849Y-12782460D02*
X5356373Y-12763412D01*
X5356373Y-12763412D02*
X5356373Y-12753888D01*
X5356373Y-12753888D02*
X5346849Y-12734841D01*
X5346849Y-12734841D02*
X5327801Y-12725317D01*
X5327801Y-12725317D02*
X5299230Y-12725317D01*
X5299230Y-12725317D02*
X5280182Y-12715793D01*
X5280182Y-12715793D02*
X5270658Y-12696746D01*
X5270658Y-12696746D02*
X5270658Y-12687222D01*
X5270658Y-12687222D02*
X5280182Y-12668174D01*
X5280182Y-12668174D02*
X5299230Y-12658650D01*
X5299230Y-12658650D02*
X5327801Y-12658650D01*
X5327801Y-12658650D02*
X5346849Y-12668174D01*
X5423039Y-12868174D02*
X5432563Y-12858650D01*
X5432563Y-12858650D02*
X5451611Y-12830079D01*
X5451611Y-12830079D02*
X5461134Y-12811031D01*
X5461134Y-12811031D02*
X5470658Y-12782460D01*
X5470658Y-12782460D02*
X5480182Y-12734841D01*
X5480182Y-12734841D02*
X5480182Y-12696746D01*
X5480182Y-12696746D02*
X5470658Y-12649127D01*
X5470658Y-12649127D02*
X5461134Y-12620555D01*
X5461134Y-12620555D02*
X5451611Y-12601508D01*
X5451611Y-12601508D02*
X5432563Y-12572936D01*
X5432563Y-12572936D02*
X5423039Y-12563412D01*
D13*
X342300Y-12906900D02*
X457500Y-13022100D01*
X457500Y-12906900D02*
X342300Y-13022100D01*
X399900Y-13022100D02*
X457500Y-12964500D01*
X399900Y-12906900D01*
X342300Y-12964500D01*
X399900Y-13022100D01*
D11*
X823039Y-13055984D02*
X708753Y-13055984D01*
X765896Y-13055984D02*
X765896Y-12855984D01*
X765896Y-12855984D02*
X746848Y-12884555D01*
X746848Y-12884555D02*
X727801Y-12903603D01*
X727801Y-12903603D02*
X708753Y-12913127D01*
X908753Y-13036936D02*
X918277Y-13046460D01*
X918277Y-13046460D02*
X908753Y-13055984D01*
X908753Y-13055984D02*
X899229Y-13046460D01*
X899229Y-13046460D02*
X908753Y-13036936D01*
X908753Y-13036936D02*
X908753Y-13055984D01*
X1108753Y-13055984D02*
X994467Y-13055984D01*
X1051610Y-13055984D02*
X1051610Y-12855984D01*
X1051610Y-12855984D02*
X1032562Y-12884555D01*
X1032562Y-12884555D02*
X1013515Y-12903603D01*
X1013515Y-12903603D02*
X994467Y-12913127D01*
X1289705Y-12855984D02*
X1194467Y-12855984D01*
X1194467Y-12855984D02*
X1184944Y-12951222D01*
X1184944Y-12951222D02*
X1194467Y-12941698D01*
X1194467Y-12941698D02*
X1213515Y-12932174D01*
X1213515Y-12932174D02*
X1261134Y-12932174D01*
X1261134Y-12932174D02*
X1280182Y-12941698D01*
X1280182Y-12941698D02*
X1289705Y-12951222D01*
X1289705Y-12951222D02*
X1299229Y-12970269D01*
X1299229Y-12970269D02*
X1299229Y-13017888D01*
X1299229Y-13017888D02*
X1289705Y-13036936D01*
X1289705Y-13036936D02*
X1280182Y-13046460D01*
X1280182Y-13046460D02*
X1261134Y-13055984D01*
X1261134Y-13055984D02*
X1213515Y-13055984D01*
X1213515Y-13055984D02*
X1194467Y-13046460D01*
X1194467Y-13046460D02*
X1184944Y-13036936D01*
X1375420Y-12875031D02*
X1384944Y-12865508D01*
X1384944Y-12865508D02*
X1403991Y-12855984D01*
X1403991Y-12855984D02*
X1451610Y-12855984D01*
X1451610Y-12855984D02*
X1470658Y-12865508D01*
X1470658Y-12865508D02*
X1480182Y-12875031D01*
X1480182Y-12875031D02*
X1489705Y-12894079D01*
X1489705Y-12894079D02*
X1489705Y-12913127D01*
X1489705Y-12913127D02*
X1480182Y-12941698D01*
X1480182Y-12941698D02*
X1365896Y-13055984D01*
X1365896Y-13055984D02*
X1489705Y-13055984D01*
X1575420Y-13055984D02*
X1575420Y-12922650D01*
X1575420Y-12941698D02*
X1584943Y-12932174D01*
X1584943Y-12932174D02*
X1603991Y-12922650D01*
X1603991Y-12922650D02*
X1632563Y-12922650D01*
X1632563Y-12922650D02*
X1651610Y-12932174D01*
X1651610Y-12932174D02*
X1661134Y-12951222D01*
X1661134Y-12951222D02*
X1661134Y-13055984D01*
X1661134Y-12951222D02*
X1670658Y-12932174D01*
X1670658Y-12932174D02*
X1689705Y-12922650D01*
X1689705Y-12922650D02*
X1718277Y-12922650D01*
X1718277Y-12922650D02*
X1737324Y-12932174D01*
X1737324Y-12932174D02*
X1746848Y-12951222D01*
X1746848Y-12951222D02*
X1746848Y-13055984D01*
X1842086Y-13055984D02*
X1842086Y-12922650D01*
X1842086Y-12941698D02*
X1851610Y-12932174D01*
X1851610Y-12932174D02*
X1870658Y-12922650D01*
X1870658Y-12922650D02*
X1899229Y-12922650D01*
X1899229Y-12922650D02*
X1918277Y-12932174D01*
X1918277Y-12932174D02*
X1927801Y-12951222D01*
X1927801Y-12951222D02*
X1927801Y-13055984D01*
X1927801Y-12951222D02*
X1937324Y-12932174D01*
X1937324Y-12932174D02*
X1956372Y-12922650D01*
X1956372Y-12922650D02*
X1984943Y-12922650D01*
X1984943Y-12922650D02*
X2003991Y-12932174D01*
X2003991Y-12932174D02*
X2013515Y-12951222D01*
X2013515Y-12951222D02*
X2013515Y-13055984D01*
X2403991Y-12846460D02*
X2232563Y-13103603D01*
X2661134Y-12855984D02*
X2680182Y-12855984D01*
X2680182Y-12855984D02*
X2699229Y-12865508D01*
X2699229Y-12865508D02*
X2708753Y-12875031D01*
X2708753Y-12875031D02*
X2718277Y-12894079D01*
X2718277Y-12894079D02*
X2727801Y-12932174D01*
X2727801Y-12932174D02*
X2727801Y-12979793D01*
X2727801Y-12979793D02*
X2718277Y-13017888D01*
X2718277Y-13017888D02*
X2708753Y-13036936D01*
X2708753Y-13036936D02*
X2699229Y-13046460D01*
X2699229Y-13046460D02*
X2680182Y-13055984D01*
X2680182Y-13055984D02*
X2661134Y-13055984D01*
X2661134Y-13055984D02*
X2642087Y-13046460D01*
X2642087Y-13046460D02*
X2632563Y-13036936D01*
X2632563Y-13036936D02*
X2623039Y-13017888D01*
X2623039Y-13017888D02*
X2613515Y-12979793D01*
X2613515Y-12979793D02*
X2613515Y-12932174D01*
X2613515Y-12932174D02*
X2623039Y-12894079D01*
X2623039Y-12894079D02*
X2632563Y-12875031D01*
X2632563Y-12875031D02*
X2642087Y-12865508D01*
X2642087Y-12865508D02*
X2661134Y-12855984D01*
X2813515Y-13036936D02*
X2823039Y-13046460D01*
X2823039Y-13046460D02*
X2813515Y-13055984D01*
X2813515Y-13055984D02*
X2803991Y-13046460D01*
X2803991Y-13046460D02*
X2813515Y-13036936D01*
X2813515Y-13036936D02*
X2813515Y-13055984D01*
X2946848Y-12855984D02*
X2965896Y-12855984D01*
X2965896Y-12855984D02*
X2984944Y-12865508D01*
X2984944Y-12865508D02*
X2994467Y-12875031D01*
X2994467Y-12875031D02*
X3003991Y-12894079D01*
X3003991Y-12894079D02*
X3013515Y-12932174D01*
X3013515Y-12932174D02*
X3013515Y-12979793D01*
X3013515Y-12979793D02*
X3003991Y-13017888D01*
X3003991Y-13017888D02*
X2994467Y-13036936D01*
X2994467Y-13036936D02*
X2984944Y-13046460D01*
X2984944Y-13046460D02*
X2965896Y-13055984D01*
X2965896Y-13055984D02*
X2946848Y-13055984D01*
X2946848Y-13055984D02*
X2927801Y-13046460D01*
X2927801Y-13046460D02*
X2918277Y-13036936D01*
X2918277Y-13036936D02*
X2908753Y-13017888D01*
X2908753Y-13017888D02*
X2899229Y-12979793D01*
X2899229Y-12979793D02*
X2899229Y-12932174D01*
X2899229Y-12932174D02*
X2908753Y-12894079D01*
X2908753Y-12894079D02*
X2918277Y-12875031D01*
X2918277Y-12875031D02*
X2927801Y-12865508D01*
X2927801Y-12865508D02*
X2946848Y-12855984D01*
X3184944Y-12922650D02*
X3184944Y-13055984D01*
X3137325Y-12846460D02*
X3089706Y-12989317D01*
X3089706Y-12989317D02*
X3213515Y-12989317D01*
X3384944Y-12855984D02*
X3289706Y-12855984D01*
X3289706Y-12855984D02*
X3280182Y-12951222D01*
X3280182Y-12951222D02*
X3289706Y-12941698D01*
X3289706Y-12941698D02*
X3308753Y-12932174D01*
X3308753Y-12932174D02*
X3356372Y-12932174D01*
X3356372Y-12932174D02*
X3375420Y-12941698D01*
X3375420Y-12941698D02*
X3384944Y-12951222D01*
X3384944Y-12951222D02*
X3394467Y-12970269D01*
X3394467Y-12970269D02*
X3394467Y-13017888D01*
X3394467Y-13017888D02*
X3384944Y-13036936D01*
X3384944Y-13036936D02*
X3375420Y-13046460D01*
X3375420Y-13046460D02*
X3356372Y-13055984D01*
X3356372Y-13055984D02*
X3308753Y-13055984D01*
X3308753Y-13055984D02*
X3289706Y-13046460D01*
X3289706Y-13046460D02*
X3280182Y-13036936D01*
X3565896Y-12922650D02*
X3565896Y-13055984D01*
X3518277Y-12846460D02*
X3470658Y-12989317D01*
X3470658Y-12989317D02*
X3594467Y-12989317D01*
X3661134Y-12855984D02*
X3661134Y-12894079D01*
X3737325Y-12855984D02*
X3737325Y-12894079D01*
X4032563Y-13132174D02*
X4023039Y-13122650D01*
X4023039Y-13122650D02*
X4003991Y-13094079D01*
X4003991Y-13094079D02*
X3994468Y-13075031D01*
X3994468Y-13075031D02*
X3984944Y-13046460D01*
X3984944Y-13046460D02*
X3975420Y-12998841D01*
X3975420Y-12998841D02*
X3975420Y-12960746D01*
X3975420Y-12960746D02*
X3984944Y-12913127D01*
X3984944Y-12913127D02*
X3994468Y-12884555D01*
X3994468Y-12884555D02*
X4003991Y-12865508D01*
X4003991Y-12865508D02*
X4023039Y-12836936D01*
X4023039Y-12836936D02*
X4032563Y-12827412D01*
X4089706Y-12855984D02*
X4213515Y-12855984D01*
X4213515Y-12855984D02*
X4146848Y-12932174D01*
X4146848Y-12932174D02*
X4175420Y-12932174D01*
X4175420Y-12932174D02*
X4194468Y-12941698D01*
X4194468Y-12941698D02*
X4203991Y-12951222D01*
X4203991Y-12951222D02*
X4213515Y-12970269D01*
X4213515Y-12970269D02*
X4213515Y-13017888D01*
X4213515Y-13017888D02*
X4203991Y-13036936D01*
X4203991Y-13036936D02*
X4194468Y-13046460D01*
X4194468Y-13046460D02*
X4175420Y-13055984D01*
X4175420Y-13055984D02*
X4118277Y-13055984D01*
X4118277Y-13055984D02*
X4099229Y-13046460D01*
X4099229Y-13046460D02*
X4089706Y-13036936D01*
X4451611Y-13055984D02*
X4451611Y-12855984D01*
X4537325Y-13055984D02*
X4537325Y-12951222D01*
X4537325Y-12951222D02*
X4527801Y-12932174D01*
X4527801Y-12932174D02*
X4508753Y-12922650D01*
X4508753Y-12922650D02*
X4480182Y-12922650D01*
X4480182Y-12922650D02*
X4461134Y-12932174D01*
X4461134Y-12932174D02*
X4451611Y-12941698D01*
X4661134Y-13055984D02*
X4642087Y-13046460D01*
X4642087Y-13046460D02*
X4632563Y-13036936D01*
X4632563Y-13036936D02*
X4623039Y-13017888D01*
X4623039Y-13017888D02*
X4623039Y-12960746D01*
X4623039Y-12960746D02*
X4632563Y-12941698D01*
X4632563Y-12941698D02*
X4642087Y-12932174D01*
X4642087Y-12932174D02*
X4661134Y-12922650D01*
X4661134Y-12922650D02*
X4689706Y-12922650D01*
X4689706Y-12922650D02*
X4708753Y-12932174D01*
X4708753Y-12932174D02*
X4718277Y-12941698D01*
X4718277Y-12941698D02*
X4727801Y-12960746D01*
X4727801Y-12960746D02*
X4727801Y-13017888D01*
X4727801Y-13017888D02*
X4718277Y-13036936D01*
X4718277Y-13036936D02*
X4708753Y-13046460D01*
X4708753Y-13046460D02*
X4689706Y-13055984D01*
X4689706Y-13055984D02*
X4661134Y-13055984D01*
X4842087Y-13055984D02*
X4823039Y-13046460D01*
X4823039Y-13046460D02*
X4813515Y-13027412D01*
X4813515Y-13027412D02*
X4813515Y-12855984D01*
X4994468Y-13046460D02*
X4975420Y-13055984D01*
X4975420Y-13055984D02*
X4937325Y-13055984D01*
X4937325Y-13055984D02*
X4918277Y-13046460D01*
X4918277Y-13046460D02*
X4908753Y-13027412D01*
X4908753Y-13027412D02*
X4908753Y-12951222D01*
X4908753Y-12951222D02*
X4918277Y-12932174D01*
X4918277Y-12932174D02*
X4937325Y-12922650D01*
X4937325Y-12922650D02*
X4975420Y-12922650D01*
X4975420Y-12922650D02*
X4994468Y-12932174D01*
X4994468Y-12932174D02*
X5003992Y-12951222D01*
X5003992Y-12951222D02*
X5003992Y-12970269D01*
X5003992Y-12970269D02*
X4908753Y-12989317D01*
X5080182Y-13046460D02*
X5099230Y-13055984D01*
X5099230Y-13055984D02*
X5137325Y-13055984D01*
X5137325Y-13055984D02*
X5156373Y-13046460D01*
X5156373Y-13046460D02*
X5165896Y-13027412D01*
X5165896Y-13027412D02*
X5165896Y-13017888D01*
X5165896Y-13017888D02*
X5156373Y-12998841D01*
X5156373Y-12998841D02*
X5137325Y-12989317D01*
X5137325Y-12989317D02*
X5108753Y-12989317D01*
X5108753Y-12989317D02*
X5089706Y-12979793D01*
X5089706Y-12979793D02*
X5080182Y-12960746D01*
X5080182Y-12960746D02*
X5080182Y-12951222D01*
X5080182Y-12951222D02*
X5089706Y-12932174D01*
X5089706Y-12932174D02*
X5108753Y-12922650D01*
X5108753Y-12922650D02*
X5137325Y-12922650D01*
X5137325Y-12922650D02*
X5156373Y-12932174D01*
X5232563Y-13132174D02*
X5242087Y-13122650D01*
X5242087Y-13122650D02*
X5261134Y-13094079D01*
X5261134Y-13094079D02*
X5270658Y-13075031D01*
X5270658Y-13075031D02*
X5280182Y-13046460D01*
X5280182Y-13046460D02*
X5289706Y-12998841D01*
X5289706Y-12998841D02*
X5289706Y-12960746D01*
X5289706Y-12960746D02*
X5280182Y-12913127D01*
X5280182Y-12913127D02*
X5270658Y-12884555D01*
X5270658Y-12884555D02*
X5261134Y-12865508D01*
X5261134Y-12865508D02*
X5242087Y-12836936D01*
X5242087Y-12836936D02*
X5232563Y-12827412D01*
D14*
X397500Y-13168500D02*
X397500Y-13288500D01*
X337500Y-13228500D02*
X457500Y-13228500D01*
X457500Y-13228500D02*
G75*
G02*
X337500Y-13228500I-60000J0D01*
G01*
X337500Y-13228500D02*
G75*
G02*
X457500Y-13228500I60000J0D01*
G01*
D11*
X823039Y-13319984D02*
X708753Y-13319984D01*
X765896Y-13319984D02*
X765896Y-13119984D01*
X765896Y-13119984D02*
X746848Y-13148555D01*
X746848Y-13148555D02*
X727801Y-13167603D01*
X727801Y-13167603D02*
X708753Y-13177127D01*
X908753Y-13300936D02*
X918277Y-13310460D01*
X918277Y-13310460D02*
X908753Y-13319984D01*
X908753Y-13319984D02*
X899229Y-13310460D01*
X899229Y-13310460D02*
X908753Y-13300936D01*
X908753Y-13300936D02*
X908753Y-13319984D01*
X994467Y-13139031D02*
X1003991Y-13129508D01*
X1003991Y-13129508D02*
X1023039Y-13119984D01*
X1023039Y-13119984D02*
X1070658Y-13119984D01*
X1070658Y-13119984D02*
X1089705Y-13129508D01*
X1089705Y-13129508D02*
X1099229Y-13139031D01*
X1099229Y-13139031D02*
X1108753Y-13158079D01*
X1108753Y-13158079D02*
X1108753Y-13177127D01*
X1108753Y-13177127D02*
X1099229Y-13205698D01*
X1099229Y-13205698D02*
X984943Y-13319984D01*
X984943Y-13319984D02*
X1108753Y-13319984D01*
X1232563Y-13119984D02*
X1251610Y-13119984D01*
X1251610Y-13119984D02*
X1270658Y-13129508D01*
X1270658Y-13129508D02*
X1280182Y-13139031D01*
X1280182Y-13139031D02*
X1289705Y-13158079D01*
X1289705Y-13158079D02*
X1299229Y-13196174D01*
X1299229Y-13196174D02*
X1299229Y-13243793D01*
X1299229Y-13243793D02*
X1289705Y-13281888D01*
X1289705Y-13281888D02*
X1280182Y-13300936D01*
X1280182Y-13300936D02*
X1270658Y-13310460D01*
X1270658Y-13310460D02*
X1251610Y-13319984D01*
X1251610Y-13319984D02*
X1232563Y-13319984D01*
X1232563Y-13319984D02*
X1213515Y-13310460D01*
X1213515Y-13310460D02*
X1203991Y-13300936D01*
X1203991Y-13300936D02*
X1194467Y-13281888D01*
X1194467Y-13281888D02*
X1184944Y-13243793D01*
X1184944Y-13243793D02*
X1184944Y-13196174D01*
X1184944Y-13196174D02*
X1194467Y-13158079D01*
X1194467Y-13158079D02*
X1203991Y-13139031D01*
X1203991Y-13139031D02*
X1213515Y-13129508D01*
X1213515Y-13129508D02*
X1232563Y-13119984D01*
X1423039Y-13119984D02*
X1442086Y-13119984D01*
X1442086Y-13119984D02*
X1461134Y-13129508D01*
X1461134Y-13129508D02*
X1470658Y-13139031D01*
X1470658Y-13139031D02*
X1480182Y-13158079D01*
X1480182Y-13158079D02*
X1489705Y-13196174D01*
X1489705Y-13196174D02*
X1489705Y-13243793D01*
X1489705Y-13243793D02*
X1480182Y-13281888D01*
X1480182Y-13281888D02*
X1470658Y-13300936D01*
X1470658Y-13300936D02*
X1461134Y-13310460D01*
X1461134Y-13310460D02*
X1442086Y-13319984D01*
X1442086Y-13319984D02*
X1423039Y-13319984D01*
X1423039Y-13319984D02*
X1403991Y-13310460D01*
X1403991Y-13310460D02*
X1394467Y-13300936D01*
X1394467Y-13300936D02*
X1384944Y-13281888D01*
X1384944Y-13281888D02*
X1375420Y-13243793D01*
X1375420Y-13243793D02*
X1375420Y-13196174D01*
X1375420Y-13196174D02*
X1384944Y-13158079D01*
X1384944Y-13158079D02*
X1394467Y-13139031D01*
X1394467Y-13139031D02*
X1403991Y-13129508D01*
X1403991Y-13129508D02*
X1423039Y-13119984D01*
X1575420Y-13319984D02*
X1575420Y-13186650D01*
X1575420Y-13205698D02*
X1584943Y-13196174D01*
X1584943Y-13196174D02*
X1603991Y-13186650D01*
X1603991Y-13186650D02*
X1632563Y-13186650D01*
X1632563Y-13186650D02*
X1651610Y-13196174D01*
X1651610Y-13196174D02*
X1661134Y-13215222D01*
X1661134Y-13215222D02*
X1661134Y-13319984D01*
X1661134Y-13215222D02*
X1670658Y-13196174D01*
X1670658Y-13196174D02*
X1689705Y-13186650D01*
X1689705Y-13186650D02*
X1718277Y-13186650D01*
X1718277Y-13186650D02*
X1737324Y-13196174D01*
X1737324Y-13196174D02*
X1746848Y-13215222D01*
X1746848Y-13215222D02*
X1746848Y-13319984D01*
X1842086Y-13319984D02*
X1842086Y-13186650D01*
X1842086Y-13205698D02*
X1851610Y-13196174D01*
X1851610Y-13196174D02*
X1870658Y-13186650D01*
X1870658Y-13186650D02*
X1899229Y-13186650D01*
X1899229Y-13186650D02*
X1918277Y-13196174D01*
X1918277Y-13196174D02*
X1927801Y-13215222D01*
X1927801Y-13215222D02*
X1927801Y-13319984D01*
X1927801Y-13215222D02*
X1937324Y-13196174D01*
X1937324Y-13196174D02*
X1956372Y-13186650D01*
X1956372Y-13186650D02*
X1984943Y-13186650D01*
X1984943Y-13186650D02*
X2003991Y-13196174D01*
X2003991Y-13196174D02*
X2013515Y-13215222D01*
X2013515Y-13215222D02*
X2013515Y-13319984D01*
X2403991Y-13110460D02*
X2232563Y-13367603D01*
X2661134Y-13119984D02*
X2680182Y-13119984D01*
X2680182Y-13119984D02*
X2699229Y-13129508D01*
X2699229Y-13129508D02*
X2708753Y-13139031D01*
X2708753Y-13139031D02*
X2718277Y-13158079D01*
X2718277Y-13158079D02*
X2727801Y-13196174D01*
X2727801Y-13196174D02*
X2727801Y-13243793D01*
X2727801Y-13243793D02*
X2718277Y-13281888D01*
X2718277Y-13281888D02*
X2708753Y-13300936D01*
X2708753Y-13300936D02*
X2699229Y-13310460D01*
X2699229Y-13310460D02*
X2680182Y-13319984D01*
X2680182Y-13319984D02*
X2661134Y-13319984D01*
X2661134Y-13319984D02*
X2642087Y-13310460D01*
X2642087Y-13310460D02*
X2632563Y-13300936D01*
X2632563Y-13300936D02*
X2623039Y-13281888D01*
X2623039Y-13281888D02*
X2613515Y-13243793D01*
X2613515Y-13243793D02*
X2613515Y-13196174D01*
X2613515Y-13196174D02*
X2623039Y-13158079D01*
X2623039Y-13158079D02*
X2632563Y-13139031D01*
X2632563Y-13139031D02*
X2642087Y-13129508D01*
X2642087Y-13129508D02*
X2661134Y-13119984D01*
X2813515Y-13300936D02*
X2823039Y-13310460D01*
X2823039Y-13310460D02*
X2813515Y-13319984D01*
X2813515Y-13319984D02*
X2803991Y-13310460D01*
X2803991Y-13310460D02*
X2813515Y-13300936D01*
X2813515Y-13300936D02*
X2813515Y-13319984D01*
X2946848Y-13119984D02*
X2965896Y-13119984D01*
X2965896Y-13119984D02*
X2984944Y-13129508D01*
X2984944Y-13129508D02*
X2994467Y-13139031D01*
X2994467Y-13139031D02*
X3003991Y-13158079D01*
X3003991Y-13158079D02*
X3013515Y-13196174D01*
X3013515Y-13196174D02*
X3013515Y-13243793D01*
X3013515Y-13243793D02*
X3003991Y-13281888D01*
X3003991Y-13281888D02*
X2994467Y-13300936D01*
X2994467Y-13300936D02*
X2984944Y-13310460D01*
X2984944Y-13310460D02*
X2965896Y-13319984D01*
X2965896Y-13319984D02*
X2946848Y-13319984D01*
X2946848Y-13319984D02*
X2927801Y-13310460D01*
X2927801Y-13310460D02*
X2918277Y-13300936D01*
X2918277Y-13300936D02*
X2908753Y-13281888D01*
X2908753Y-13281888D02*
X2899229Y-13243793D01*
X2899229Y-13243793D02*
X2899229Y-13196174D01*
X2899229Y-13196174D02*
X2908753Y-13158079D01*
X2908753Y-13158079D02*
X2918277Y-13139031D01*
X2918277Y-13139031D02*
X2927801Y-13129508D01*
X2927801Y-13129508D02*
X2946848Y-13119984D01*
X3184944Y-13186650D02*
X3184944Y-13319984D01*
X3137325Y-13110460D02*
X3089706Y-13253317D01*
X3089706Y-13253317D02*
X3213515Y-13253317D01*
X3270658Y-13119984D02*
X3403991Y-13119984D01*
X3403991Y-13119984D02*
X3318277Y-13319984D01*
X3470658Y-13139031D02*
X3480182Y-13129508D01*
X3480182Y-13129508D02*
X3499229Y-13119984D01*
X3499229Y-13119984D02*
X3546848Y-13119984D01*
X3546848Y-13119984D02*
X3565896Y-13129508D01*
X3565896Y-13129508D02*
X3575420Y-13139031D01*
X3575420Y-13139031D02*
X3584944Y-13158079D01*
X3584944Y-13158079D02*
X3584944Y-13177127D01*
X3584944Y-13177127D02*
X3575420Y-13205698D01*
X3575420Y-13205698D02*
X3461134Y-13319984D01*
X3461134Y-13319984D02*
X3584944Y-13319984D01*
X3661134Y-13119984D02*
X3661134Y-13158079D01*
X3737325Y-13119984D02*
X3737325Y-13158079D01*
X4032563Y-13396174D02*
X4023039Y-13386650D01*
X4023039Y-13386650D02*
X4003991Y-13358079D01*
X4003991Y-13358079D02*
X3994468Y-13339031D01*
X3994468Y-13339031D02*
X3984944Y-13310460D01*
X3984944Y-13310460D02*
X3975420Y-13262841D01*
X3975420Y-13262841D02*
X3975420Y-13224746D01*
X3975420Y-13224746D02*
X3984944Y-13177127D01*
X3984944Y-13177127D02*
X3994468Y-13148555D01*
X3994468Y-13148555D02*
X4003991Y-13129508D01*
X4003991Y-13129508D02*
X4023039Y-13100936D01*
X4023039Y-13100936D02*
X4032563Y-13091412D01*
X4089706Y-13119984D02*
X4213515Y-13119984D01*
X4213515Y-13119984D02*
X4146848Y-13196174D01*
X4146848Y-13196174D02*
X4175420Y-13196174D01*
X4175420Y-13196174D02*
X4194468Y-13205698D01*
X4194468Y-13205698D02*
X4203991Y-13215222D01*
X4203991Y-13215222D02*
X4213515Y-13234269D01*
X4213515Y-13234269D02*
X4213515Y-13281888D01*
X4213515Y-13281888D02*
X4203991Y-13300936D01*
X4203991Y-13300936D02*
X4194468Y-13310460D01*
X4194468Y-13310460D02*
X4175420Y-13319984D01*
X4175420Y-13319984D02*
X4118277Y-13319984D01*
X4118277Y-13319984D02*
X4099229Y-13310460D01*
X4099229Y-13310460D02*
X4089706Y-13300936D01*
X4451611Y-13319984D02*
X4451611Y-13119984D01*
X4537325Y-13319984D02*
X4537325Y-13215222D01*
X4537325Y-13215222D02*
X4527801Y-13196174D01*
X4527801Y-13196174D02*
X4508753Y-13186650D01*
X4508753Y-13186650D02*
X4480182Y-13186650D01*
X4480182Y-13186650D02*
X4461134Y-13196174D01*
X4461134Y-13196174D02*
X4451611Y-13205698D01*
X4661134Y-13319984D02*
X4642087Y-13310460D01*
X4642087Y-13310460D02*
X4632563Y-13300936D01*
X4632563Y-13300936D02*
X4623039Y-13281888D01*
X4623039Y-13281888D02*
X4623039Y-13224746D01*
X4623039Y-13224746D02*
X4632563Y-13205698D01*
X4632563Y-13205698D02*
X4642087Y-13196174D01*
X4642087Y-13196174D02*
X4661134Y-13186650D01*
X4661134Y-13186650D02*
X4689706Y-13186650D01*
X4689706Y-13186650D02*
X4708753Y-13196174D01*
X4708753Y-13196174D02*
X4718277Y-13205698D01*
X4718277Y-13205698D02*
X4727801Y-13224746D01*
X4727801Y-13224746D02*
X4727801Y-13281888D01*
X4727801Y-13281888D02*
X4718277Y-13300936D01*
X4718277Y-13300936D02*
X4708753Y-13310460D01*
X4708753Y-13310460D02*
X4689706Y-13319984D01*
X4689706Y-13319984D02*
X4661134Y-13319984D01*
X4842087Y-13319984D02*
X4823039Y-13310460D01*
X4823039Y-13310460D02*
X4813515Y-13291412D01*
X4813515Y-13291412D02*
X4813515Y-13119984D01*
X4994468Y-13310460D02*
X4975420Y-13319984D01*
X4975420Y-13319984D02*
X4937325Y-13319984D01*
X4937325Y-13319984D02*
X4918277Y-13310460D01*
X4918277Y-13310460D02*
X4908753Y-13291412D01*
X4908753Y-13291412D02*
X4908753Y-13215222D01*
X4908753Y-13215222D02*
X4918277Y-13196174D01*
X4918277Y-13196174D02*
X4937325Y-13186650D01*
X4937325Y-13186650D02*
X4975420Y-13186650D01*
X4975420Y-13186650D02*
X4994468Y-13196174D01*
X4994468Y-13196174D02*
X5003992Y-13215222D01*
X5003992Y-13215222D02*
X5003992Y-13234269D01*
X5003992Y-13234269D02*
X4908753Y-13253317D01*
X5080182Y-13310460D02*
X5099230Y-13319984D01*
X5099230Y-13319984D02*
X5137325Y-13319984D01*
X5137325Y-13319984D02*
X5156373Y-13310460D01*
X5156373Y-13310460D02*
X5165896Y-13291412D01*
X5165896Y-13291412D02*
X5165896Y-13281888D01*
X5165896Y-13281888D02*
X5156373Y-13262841D01*
X5156373Y-13262841D02*
X5137325Y-13253317D01*
X5137325Y-13253317D02*
X5108753Y-13253317D01*
X5108753Y-13253317D02*
X5089706Y-13243793D01*
X5089706Y-13243793D02*
X5080182Y-13224746D01*
X5080182Y-13224746D02*
X5080182Y-13215222D01*
X5080182Y-13215222D02*
X5089706Y-13196174D01*
X5089706Y-13196174D02*
X5108753Y-13186650D01*
X5108753Y-13186650D02*
X5137325Y-13186650D01*
X5137325Y-13186650D02*
X5156373Y-13196174D01*
X5232563Y-13396174D02*
X5242087Y-13386650D01*
X5242087Y-13386650D02*
X5261134Y-13358079D01*
X5261134Y-13358079D02*
X5270658Y-13339031D01*
X5270658Y-13339031D02*
X5280182Y-13310460D01*
X5280182Y-13310460D02*
X5289706Y-13262841D01*
X5289706Y-13262841D02*
X5289706Y-13224746D01*
X5289706Y-13224746D02*
X5280182Y-13177127D01*
X5280182Y-13177127D02*
X5270658Y-13148555D01*
X5270658Y-13148555D02*
X5261134Y-13129508D01*
X5261134Y-13129508D02*
X5242087Y-13100936D01*
X5242087Y-13100936D02*
X5232563Y-13091412D01*
D15*
X432605Y-13552605D02*
X432605Y-13432395D01*
X312395Y-13432395D01*
X312395Y-13552605D01*
X432605Y-13552605D01*
X457500Y-13492500D02*
G75*
G02*
X287500Y-13492500I-85000J0D01*
G01*
X287500Y-13492500D02*
G75*
G02*
X457500Y-13492500I85000J0D01*
G01*
D11*
X823039Y-13583984D02*
X708753Y-13583984D01*
X765896Y-13583984D02*
X765896Y-13383984D01*
X765896Y-13383984D02*
X746848Y-13412555D01*
X746848Y-13412555D02*
X727801Y-13431603D01*
X727801Y-13431603D02*
X708753Y-13441127D01*
X908753Y-13564936D02*
X918277Y-13574460D01*
X918277Y-13574460D02*
X908753Y-13583984D01*
X908753Y-13583984D02*
X899229Y-13574460D01*
X899229Y-13574460D02*
X908753Y-13564936D01*
X908753Y-13564936D02*
X908753Y-13583984D01*
X984943Y-13383984D02*
X1118277Y-13383984D01*
X1118277Y-13383984D02*
X1032562Y-13583984D01*
X1232563Y-13383984D02*
X1251610Y-13383984D01*
X1251610Y-13383984D02*
X1270658Y-13393508D01*
X1270658Y-13393508D02*
X1280182Y-13403031D01*
X1280182Y-13403031D02*
X1289705Y-13422079D01*
X1289705Y-13422079D02*
X1299229Y-13460174D01*
X1299229Y-13460174D02*
X1299229Y-13507793D01*
X1299229Y-13507793D02*
X1289705Y-13545888D01*
X1289705Y-13545888D02*
X1280182Y-13564936D01*
X1280182Y-13564936D02*
X1270658Y-13574460D01*
X1270658Y-13574460D02*
X1251610Y-13583984D01*
X1251610Y-13583984D02*
X1232563Y-13583984D01*
X1232563Y-13583984D02*
X1213515Y-13574460D01*
X1213515Y-13574460D02*
X1203991Y-13564936D01*
X1203991Y-13564936D02*
X1194467Y-13545888D01*
X1194467Y-13545888D02*
X1184944Y-13507793D01*
X1184944Y-13507793D02*
X1184944Y-13460174D01*
X1184944Y-13460174D02*
X1194467Y-13422079D01*
X1194467Y-13422079D02*
X1203991Y-13403031D01*
X1203991Y-13403031D02*
X1213515Y-13393508D01*
X1213515Y-13393508D02*
X1232563Y-13383984D01*
X1423039Y-13383984D02*
X1442086Y-13383984D01*
X1442086Y-13383984D02*
X1461134Y-13393508D01*
X1461134Y-13393508D02*
X1470658Y-13403031D01*
X1470658Y-13403031D02*
X1480182Y-13422079D01*
X1480182Y-13422079D02*
X1489705Y-13460174D01*
X1489705Y-13460174D02*
X1489705Y-13507793D01*
X1489705Y-13507793D02*
X1480182Y-13545888D01*
X1480182Y-13545888D02*
X1470658Y-13564936D01*
X1470658Y-13564936D02*
X1461134Y-13574460D01*
X1461134Y-13574460D02*
X1442086Y-13583984D01*
X1442086Y-13583984D02*
X1423039Y-13583984D01*
X1423039Y-13583984D02*
X1403991Y-13574460D01*
X1403991Y-13574460D02*
X1394467Y-13564936D01*
X1394467Y-13564936D02*
X1384944Y-13545888D01*
X1384944Y-13545888D02*
X1375420Y-13507793D01*
X1375420Y-13507793D02*
X1375420Y-13460174D01*
X1375420Y-13460174D02*
X1384944Y-13422079D01*
X1384944Y-13422079D02*
X1394467Y-13403031D01*
X1394467Y-13403031D02*
X1403991Y-13393508D01*
X1403991Y-13393508D02*
X1423039Y-13383984D01*
X1575420Y-13583984D02*
X1575420Y-13450650D01*
X1575420Y-13469698D02*
X1584943Y-13460174D01*
X1584943Y-13460174D02*
X1603991Y-13450650D01*
X1603991Y-13450650D02*
X1632563Y-13450650D01*
X1632563Y-13450650D02*
X1651610Y-13460174D01*
X1651610Y-13460174D02*
X1661134Y-13479222D01*
X1661134Y-13479222D02*
X1661134Y-13583984D01*
X1661134Y-13479222D02*
X1670658Y-13460174D01*
X1670658Y-13460174D02*
X1689705Y-13450650D01*
X1689705Y-13450650D02*
X1718277Y-13450650D01*
X1718277Y-13450650D02*
X1737324Y-13460174D01*
X1737324Y-13460174D02*
X1746848Y-13479222D01*
X1746848Y-13479222D02*
X1746848Y-13583984D01*
X1842086Y-13583984D02*
X1842086Y-13450650D01*
X1842086Y-13469698D02*
X1851610Y-13460174D01*
X1851610Y-13460174D02*
X1870658Y-13450650D01*
X1870658Y-13450650D02*
X1899229Y-13450650D01*
X1899229Y-13450650D02*
X1918277Y-13460174D01*
X1918277Y-13460174D02*
X1927801Y-13479222D01*
X1927801Y-13479222D02*
X1927801Y-13583984D01*
X1927801Y-13479222D02*
X1937324Y-13460174D01*
X1937324Y-13460174D02*
X1956372Y-13450650D01*
X1956372Y-13450650D02*
X1984943Y-13450650D01*
X1984943Y-13450650D02*
X2003991Y-13460174D01*
X2003991Y-13460174D02*
X2013515Y-13479222D01*
X2013515Y-13479222D02*
X2013515Y-13583984D01*
X2403991Y-13374460D02*
X2232563Y-13631603D01*
X2661134Y-13383984D02*
X2680182Y-13383984D01*
X2680182Y-13383984D02*
X2699229Y-13393508D01*
X2699229Y-13393508D02*
X2708753Y-13403031D01*
X2708753Y-13403031D02*
X2718277Y-13422079D01*
X2718277Y-13422079D02*
X2727801Y-13460174D01*
X2727801Y-13460174D02*
X2727801Y-13507793D01*
X2727801Y-13507793D02*
X2718277Y-13545888D01*
X2718277Y-13545888D02*
X2708753Y-13564936D01*
X2708753Y-13564936D02*
X2699229Y-13574460D01*
X2699229Y-13574460D02*
X2680182Y-13583984D01*
X2680182Y-13583984D02*
X2661134Y-13583984D01*
X2661134Y-13583984D02*
X2642087Y-13574460D01*
X2642087Y-13574460D02*
X2632563Y-13564936D01*
X2632563Y-13564936D02*
X2623039Y-13545888D01*
X2623039Y-13545888D02*
X2613515Y-13507793D01*
X2613515Y-13507793D02*
X2613515Y-13460174D01*
X2613515Y-13460174D02*
X2623039Y-13422079D01*
X2623039Y-13422079D02*
X2632563Y-13403031D01*
X2632563Y-13403031D02*
X2642087Y-13393508D01*
X2642087Y-13393508D02*
X2661134Y-13383984D01*
X2813515Y-13564936D02*
X2823039Y-13574460D01*
X2823039Y-13574460D02*
X2813515Y-13583984D01*
X2813515Y-13583984D02*
X2803991Y-13574460D01*
X2803991Y-13574460D02*
X2813515Y-13564936D01*
X2813515Y-13564936D02*
X2813515Y-13583984D01*
X2946848Y-13383984D02*
X2965896Y-13383984D01*
X2965896Y-13383984D02*
X2984944Y-13393508D01*
X2984944Y-13393508D02*
X2994467Y-13403031D01*
X2994467Y-13403031D02*
X3003991Y-13422079D01*
X3003991Y-13422079D02*
X3013515Y-13460174D01*
X3013515Y-13460174D02*
X3013515Y-13507793D01*
X3013515Y-13507793D02*
X3003991Y-13545888D01*
X3003991Y-13545888D02*
X2994467Y-13564936D01*
X2994467Y-13564936D02*
X2984944Y-13574460D01*
X2984944Y-13574460D02*
X2965896Y-13583984D01*
X2965896Y-13583984D02*
X2946848Y-13583984D01*
X2946848Y-13583984D02*
X2927801Y-13574460D01*
X2927801Y-13574460D02*
X2918277Y-13564936D01*
X2918277Y-13564936D02*
X2908753Y-13545888D01*
X2908753Y-13545888D02*
X2899229Y-13507793D01*
X2899229Y-13507793D02*
X2899229Y-13460174D01*
X2899229Y-13460174D02*
X2908753Y-13422079D01*
X2908753Y-13422079D02*
X2918277Y-13403031D01*
X2918277Y-13403031D02*
X2927801Y-13393508D01*
X2927801Y-13393508D02*
X2946848Y-13383984D01*
X3184944Y-13383984D02*
X3146848Y-13383984D01*
X3146848Y-13383984D02*
X3127801Y-13393508D01*
X3127801Y-13393508D02*
X3118277Y-13403031D01*
X3118277Y-13403031D02*
X3099229Y-13431603D01*
X3099229Y-13431603D02*
X3089706Y-13469698D01*
X3089706Y-13469698D02*
X3089706Y-13545888D01*
X3089706Y-13545888D02*
X3099229Y-13564936D01*
X3099229Y-13564936D02*
X3108753Y-13574460D01*
X3108753Y-13574460D02*
X3127801Y-13583984D01*
X3127801Y-13583984D02*
X3165896Y-13583984D01*
X3165896Y-13583984D02*
X3184944Y-13574460D01*
X3184944Y-13574460D02*
X3194467Y-13564936D01*
X3194467Y-13564936D02*
X3203991Y-13545888D01*
X3203991Y-13545888D02*
X3203991Y-13498269D01*
X3203991Y-13498269D02*
X3194467Y-13479222D01*
X3194467Y-13479222D02*
X3184944Y-13469698D01*
X3184944Y-13469698D02*
X3165896Y-13460174D01*
X3165896Y-13460174D02*
X3127801Y-13460174D01*
X3127801Y-13460174D02*
X3108753Y-13469698D01*
X3108753Y-13469698D02*
X3099229Y-13479222D01*
X3099229Y-13479222D02*
X3089706Y-13498269D01*
X3375420Y-13383984D02*
X3337325Y-13383984D01*
X3337325Y-13383984D02*
X3318277Y-13393508D01*
X3318277Y-13393508D02*
X3308753Y-13403031D01*
X3308753Y-13403031D02*
X3289706Y-13431603D01*
X3289706Y-13431603D02*
X3280182Y-13469698D01*
X3280182Y-13469698D02*
X3280182Y-13545888D01*
X3280182Y-13545888D02*
X3289706Y-13564936D01*
X3289706Y-13564936D02*
X3299229Y-13574460D01*
X3299229Y-13574460D02*
X3318277Y-13583984D01*
X3318277Y-13583984D02*
X3356372Y-13583984D01*
X3356372Y-13583984D02*
X3375420Y-13574460D01*
X3375420Y-13574460D02*
X3384944Y-13564936D01*
X3384944Y-13564936D02*
X3394467Y-13545888D01*
X3394467Y-13545888D02*
X3394467Y-13498269D01*
X3394467Y-13498269D02*
X3384944Y-13479222D01*
X3384944Y-13479222D02*
X3375420Y-13469698D01*
X3375420Y-13469698D02*
X3356372Y-13460174D01*
X3356372Y-13460174D02*
X3318277Y-13460174D01*
X3318277Y-13460174D02*
X3299229Y-13469698D01*
X3299229Y-13469698D02*
X3289706Y-13479222D01*
X3289706Y-13479222D02*
X3280182Y-13498269D01*
X3489706Y-13583984D02*
X3527801Y-13583984D01*
X3527801Y-13583984D02*
X3546848Y-13574460D01*
X3546848Y-13574460D02*
X3556372Y-13564936D01*
X3556372Y-13564936D02*
X3575420Y-13536365D01*
X3575420Y-13536365D02*
X3584944Y-13498269D01*
X3584944Y-13498269D02*
X3584944Y-13422079D01*
X3584944Y-13422079D02*
X3575420Y-13403031D01*
X3575420Y-13403031D02*
X3565896Y-13393508D01*
X3565896Y-13393508D02*
X3546848Y-13383984D01*
X3546848Y-13383984D02*
X3508753Y-13383984D01*
X3508753Y-13383984D02*
X3489706Y-13393508D01*
X3489706Y-13393508D02*
X3480182Y-13403031D01*
X3480182Y-13403031D02*
X3470658Y-13422079D01*
X3470658Y-13422079D02*
X3470658Y-13469698D01*
X3470658Y-13469698D02*
X3480182Y-13488746D01*
X3480182Y-13488746D02*
X3489706Y-13498269D01*
X3489706Y-13498269D02*
X3508753Y-13507793D01*
X3508753Y-13507793D02*
X3546848Y-13507793D01*
X3546848Y-13507793D02*
X3565896Y-13498269D01*
X3565896Y-13498269D02*
X3575420Y-13488746D01*
X3575420Y-13488746D02*
X3584944Y-13469698D01*
X3661134Y-13383984D02*
X3661134Y-13422079D01*
X3737325Y-13383984D02*
X3737325Y-13422079D01*
X4032563Y-13660174D02*
X4023039Y-13650650D01*
X4023039Y-13650650D02*
X4003991Y-13622079D01*
X4003991Y-13622079D02*
X3994468Y-13603031D01*
X3994468Y-13603031D02*
X3984944Y-13574460D01*
X3984944Y-13574460D02*
X3975420Y-13526841D01*
X3975420Y-13526841D02*
X3975420Y-13488746D01*
X3975420Y-13488746D02*
X3984944Y-13441127D01*
X3984944Y-13441127D02*
X3994468Y-13412555D01*
X3994468Y-13412555D02*
X4003991Y-13393508D01*
X4003991Y-13393508D02*
X4023039Y-13364936D01*
X4023039Y-13364936D02*
X4032563Y-13355412D01*
X4194468Y-13450650D02*
X4194468Y-13583984D01*
X4146848Y-13374460D02*
X4099229Y-13517317D01*
X4099229Y-13517317D02*
X4223039Y-13517317D01*
X4451611Y-13583984D02*
X4451611Y-13383984D01*
X4537325Y-13583984D02*
X4537325Y-13479222D01*
X4537325Y-13479222D02*
X4527801Y-13460174D01*
X4527801Y-13460174D02*
X4508753Y-13450650D01*
X4508753Y-13450650D02*
X4480182Y-13450650D01*
X4480182Y-13450650D02*
X4461134Y-13460174D01*
X4461134Y-13460174D02*
X4451611Y-13469698D01*
X4661134Y-13583984D02*
X4642087Y-13574460D01*
X4642087Y-13574460D02*
X4632563Y-13564936D01*
X4632563Y-13564936D02*
X4623039Y-13545888D01*
X4623039Y-13545888D02*
X4623039Y-13488746D01*
X4623039Y-13488746D02*
X4632563Y-13469698D01*
X4632563Y-13469698D02*
X4642087Y-13460174D01*
X4642087Y-13460174D02*
X4661134Y-13450650D01*
X4661134Y-13450650D02*
X4689706Y-13450650D01*
X4689706Y-13450650D02*
X4708753Y-13460174D01*
X4708753Y-13460174D02*
X4718277Y-13469698D01*
X4718277Y-13469698D02*
X4727801Y-13488746D01*
X4727801Y-13488746D02*
X4727801Y-13545888D01*
X4727801Y-13545888D02*
X4718277Y-13564936D01*
X4718277Y-13564936D02*
X4708753Y-13574460D01*
X4708753Y-13574460D02*
X4689706Y-13583984D01*
X4689706Y-13583984D02*
X4661134Y-13583984D01*
X4842087Y-13583984D02*
X4823039Y-13574460D01*
X4823039Y-13574460D02*
X4813515Y-13555412D01*
X4813515Y-13555412D02*
X4813515Y-13383984D01*
X4994468Y-13574460D02*
X4975420Y-13583984D01*
X4975420Y-13583984D02*
X4937325Y-13583984D01*
X4937325Y-13583984D02*
X4918277Y-13574460D01*
X4918277Y-13574460D02*
X4908753Y-13555412D01*
X4908753Y-13555412D02*
X4908753Y-13479222D01*
X4908753Y-13479222D02*
X4918277Y-13460174D01*
X4918277Y-13460174D02*
X4937325Y-13450650D01*
X4937325Y-13450650D02*
X4975420Y-13450650D01*
X4975420Y-13450650D02*
X4994468Y-13460174D01*
X4994468Y-13460174D02*
X5003992Y-13479222D01*
X5003992Y-13479222D02*
X5003992Y-13498269D01*
X5003992Y-13498269D02*
X4908753Y-13517317D01*
X5080182Y-13574460D02*
X5099230Y-13583984D01*
X5099230Y-13583984D02*
X5137325Y-13583984D01*
X5137325Y-13583984D02*
X5156373Y-13574460D01*
X5156373Y-13574460D02*
X5165896Y-13555412D01*
X5165896Y-13555412D02*
X5165896Y-13545888D01*
X5165896Y-13545888D02*
X5156373Y-13526841D01*
X5156373Y-13526841D02*
X5137325Y-13517317D01*
X5137325Y-13517317D02*
X5108753Y-13517317D01*
X5108753Y-13517317D02*
X5089706Y-13507793D01*
X5089706Y-13507793D02*
X5080182Y-13488746D01*
X5080182Y-13488746D02*
X5080182Y-13479222D01*
X5080182Y-13479222D02*
X5089706Y-13460174D01*
X5089706Y-13460174D02*
X5108753Y-13450650D01*
X5108753Y-13450650D02*
X5137325Y-13450650D01*
X5137325Y-13450650D02*
X5156373Y-13460174D01*
X5232563Y-13660174D02*
X5242087Y-13650650D01*
X5242087Y-13650650D02*
X5261134Y-13622079D01*
X5261134Y-13622079D02*
X5270658Y-13603031D01*
X5270658Y-13603031D02*
X5280182Y-13574460D01*
X5280182Y-13574460D02*
X5289706Y-13526841D01*
X5289706Y-13526841D02*
X5289706Y-13488746D01*
X5289706Y-13488746D02*
X5280182Y-13441127D01*
X5280182Y-13441127D02*
X5270658Y-13412555D01*
X5270658Y-13412555D02*
X5261134Y-13393508D01*
X5261134Y-13393508D02*
X5242087Y-13364936D01*
X5242087Y-13364936D02*
X5232563Y-13355412D01*
X357500Y-13882500D02*
X457500Y-13782500D01*
X357500Y-13682500D01*
X257500Y-13782500D01*
X357500Y-13882500D01*
X457500Y-13782500D02*
G75*
G02*
X257500Y-13782500I-100000J0D01*
G01*
X257500Y-13782500D02*
G75*
G02*
X457500Y-13782500I100000J0D01*
G01*
X708753Y-13693031D02*
X718277Y-13683508D01*
X718277Y-13683508D02*
X737324Y-13673984D01*
X737324Y-13673984D02*
X784943Y-13673984D01*
X784943Y-13673984D02*
X803991Y-13683508D01*
X803991Y-13683508D02*
X813515Y-13693031D01*
X813515Y-13693031D02*
X823039Y-13712079D01*
X823039Y-13712079D02*
X823039Y-13731127D01*
X823039Y-13731127D02*
X813515Y-13759698D01*
X813515Y-13759698D02*
X699229Y-13873984D01*
X699229Y-13873984D02*
X823039Y-13873984D01*
X908753Y-13854936D02*
X918277Y-13864460D01*
X918277Y-13864460D02*
X908753Y-13873984D01*
X908753Y-13873984D02*
X899229Y-13864460D01*
X899229Y-13864460D02*
X908753Y-13854936D01*
X908753Y-13854936D02*
X908753Y-13873984D01*
X1099229Y-13673984D02*
X1003991Y-13673984D01*
X1003991Y-13673984D02*
X994467Y-13769222D01*
X994467Y-13769222D02*
X1003991Y-13759698D01*
X1003991Y-13759698D02*
X1023039Y-13750174D01*
X1023039Y-13750174D02*
X1070658Y-13750174D01*
X1070658Y-13750174D02*
X1089705Y-13759698D01*
X1089705Y-13759698D02*
X1099229Y-13769222D01*
X1099229Y-13769222D02*
X1108753Y-13788269D01*
X1108753Y-13788269D02*
X1108753Y-13835888D01*
X1108753Y-13835888D02*
X1099229Y-13854936D01*
X1099229Y-13854936D02*
X1089705Y-13864460D01*
X1089705Y-13864460D02*
X1070658Y-13873984D01*
X1070658Y-13873984D02*
X1023039Y-13873984D01*
X1023039Y-13873984D02*
X1003991Y-13864460D01*
X1003991Y-13864460D02*
X994467Y-13854936D01*
X1232563Y-13673984D02*
X1251610Y-13673984D01*
X1251610Y-13673984D02*
X1270658Y-13683508D01*
X1270658Y-13683508D02*
X1280182Y-13693031D01*
X1280182Y-13693031D02*
X1289705Y-13712079D01*
X1289705Y-13712079D02*
X1299229Y-13750174D01*
X1299229Y-13750174D02*
X1299229Y-13797793D01*
X1299229Y-13797793D02*
X1289705Y-13835888D01*
X1289705Y-13835888D02*
X1280182Y-13854936D01*
X1280182Y-13854936D02*
X1270658Y-13864460D01*
X1270658Y-13864460D02*
X1251610Y-13873984D01*
X1251610Y-13873984D02*
X1232563Y-13873984D01*
X1232563Y-13873984D02*
X1213515Y-13864460D01*
X1213515Y-13864460D02*
X1203991Y-13854936D01*
X1203991Y-13854936D02*
X1194467Y-13835888D01*
X1194467Y-13835888D02*
X1184944Y-13797793D01*
X1184944Y-13797793D02*
X1184944Y-13750174D01*
X1184944Y-13750174D02*
X1194467Y-13712079D01*
X1194467Y-13712079D02*
X1203991Y-13693031D01*
X1203991Y-13693031D02*
X1213515Y-13683508D01*
X1213515Y-13683508D02*
X1232563Y-13673984D01*
X1423039Y-13673984D02*
X1442086Y-13673984D01*
X1442086Y-13673984D02*
X1461134Y-13683508D01*
X1461134Y-13683508D02*
X1470658Y-13693031D01*
X1470658Y-13693031D02*
X1480182Y-13712079D01*
X1480182Y-13712079D02*
X1489705Y-13750174D01*
X1489705Y-13750174D02*
X1489705Y-13797793D01*
X1489705Y-13797793D02*
X1480182Y-13835888D01*
X1480182Y-13835888D02*
X1470658Y-13854936D01*
X1470658Y-13854936D02*
X1461134Y-13864460D01*
X1461134Y-13864460D02*
X1442086Y-13873984D01*
X1442086Y-13873984D02*
X1423039Y-13873984D01*
X1423039Y-13873984D02*
X1403991Y-13864460D01*
X1403991Y-13864460D02*
X1394467Y-13854936D01*
X1394467Y-13854936D02*
X1384944Y-13835888D01*
X1384944Y-13835888D02*
X1375420Y-13797793D01*
X1375420Y-13797793D02*
X1375420Y-13750174D01*
X1375420Y-13750174D02*
X1384944Y-13712079D01*
X1384944Y-13712079D02*
X1394467Y-13693031D01*
X1394467Y-13693031D02*
X1403991Y-13683508D01*
X1403991Y-13683508D02*
X1423039Y-13673984D01*
X1575420Y-13873984D02*
X1575420Y-13740650D01*
X1575420Y-13759698D02*
X1584943Y-13750174D01*
X1584943Y-13750174D02*
X1603991Y-13740650D01*
X1603991Y-13740650D02*
X1632563Y-13740650D01*
X1632563Y-13740650D02*
X1651610Y-13750174D01*
X1651610Y-13750174D02*
X1661134Y-13769222D01*
X1661134Y-13769222D02*
X1661134Y-13873984D01*
X1661134Y-13769222D02*
X1670658Y-13750174D01*
X1670658Y-13750174D02*
X1689705Y-13740650D01*
X1689705Y-13740650D02*
X1718277Y-13740650D01*
X1718277Y-13740650D02*
X1737324Y-13750174D01*
X1737324Y-13750174D02*
X1746848Y-13769222D01*
X1746848Y-13769222D02*
X1746848Y-13873984D01*
X1842086Y-13873984D02*
X1842086Y-13740650D01*
X1842086Y-13759698D02*
X1851610Y-13750174D01*
X1851610Y-13750174D02*
X1870658Y-13740650D01*
X1870658Y-13740650D02*
X1899229Y-13740650D01*
X1899229Y-13740650D02*
X1918277Y-13750174D01*
X1918277Y-13750174D02*
X1927801Y-13769222D01*
X1927801Y-13769222D02*
X1927801Y-13873984D01*
X1927801Y-13769222D02*
X1937324Y-13750174D01*
X1937324Y-13750174D02*
X1956372Y-13740650D01*
X1956372Y-13740650D02*
X1984943Y-13740650D01*
X1984943Y-13740650D02*
X2003991Y-13750174D01*
X2003991Y-13750174D02*
X2013515Y-13769222D01*
X2013515Y-13769222D02*
X2013515Y-13873984D01*
X2403991Y-13664460D02*
X2232563Y-13921603D01*
X2661134Y-13673984D02*
X2680182Y-13673984D01*
X2680182Y-13673984D02*
X2699229Y-13683508D01*
X2699229Y-13683508D02*
X2708753Y-13693031D01*
X2708753Y-13693031D02*
X2718277Y-13712079D01*
X2718277Y-13712079D02*
X2727801Y-13750174D01*
X2727801Y-13750174D02*
X2727801Y-13797793D01*
X2727801Y-13797793D02*
X2718277Y-13835888D01*
X2718277Y-13835888D02*
X2708753Y-13854936D01*
X2708753Y-13854936D02*
X2699229Y-13864460D01*
X2699229Y-13864460D02*
X2680182Y-13873984D01*
X2680182Y-13873984D02*
X2661134Y-13873984D01*
X2661134Y-13873984D02*
X2642087Y-13864460D01*
X2642087Y-13864460D02*
X2632563Y-13854936D01*
X2632563Y-13854936D02*
X2623039Y-13835888D01*
X2623039Y-13835888D02*
X2613515Y-13797793D01*
X2613515Y-13797793D02*
X2613515Y-13750174D01*
X2613515Y-13750174D02*
X2623039Y-13712079D01*
X2623039Y-13712079D02*
X2632563Y-13693031D01*
X2632563Y-13693031D02*
X2642087Y-13683508D01*
X2642087Y-13683508D02*
X2661134Y-13673984D01*
X2813515Y-13854936D02*
X2823039Y-13864460D01*
X2823039Y-13864460D02*
X2813515Y-13873984D01*
X2813515Y-13873984D02*
X2803991Y-13864460D01*
X2803991Y-13864460D02*
X2813515Y-13854936D01*
X2813515Y-13854936D02*
X2813515Y-13873984D01*
X2946848Y-13673984D02*
X2965896Y-13673984D01*
X2965896Y-13673984D02*
X2984944Y-13683508D01*
X2984944Y-13683508D02*
X2994467Y-13693031D01*
X2994467Y-13693031D02*
X3003991Y-13712079D01*
X3003991Y-13712079D02*
X3013515Y-13750174D01*
X3013515Y-13750174D02*
X3013515Y-13797793D01*
X3013515Y-13797793D02*
X3003991Y-13835888D01*
X3003991Y-13835888D02*
X2994467Y-13854936D01*
X2994467Y-13854936D02*
X2984944Y-13864460D01*
X2984944Y-13864460D02*
X2965896Y-13873984D01*
X2965896Y-13873984D02*
X2946848Y-13873984D01*
X2946848Y-13873984D02*
X2927801Y-13864460D01*
X2927801Y-13864460D02*
X2918277Y-13854936D01*
X2918277Y-13854936D02*
X2908753Y-13835888D01*
X2908753Y-13835888D02*
X2899229Y-13797793D01*
X2899229Y-13797793D02*
X2899229Y-13750174D01*
X2899229Y-13750174D02*
X2908753Y-13712079D01*
X2908753Y-13712079D02*
X2918277Y-13693031D01*
X2918277Y-13693031D02*
X2927801Y-13683508D01*
X2927801Y-13683508D02*
X2946848Y-13673984D01*
X3108753Y-13873984D02*
X3146848Y-13873984D01*
X3146848Y-13873984D02*
X3165896Y-13864460D01*
X3165896Y-13864460D02*
X3175420Y-13854936D01*
X3175420Y-13854936D02*
X3194467Y-13826365D01*
X3194467Y-13826365D02*
X3203991Y-13788269D01*
X3203991Y-13788269D02*
X3203991Y-13712079D01*
X3203991Y-13712079D02*
X3194467Y-13693031D01*
X3194467Y-13693031D02*
X3184944Y-13683508D01*
X3184944Y-13683508D02*
X3165896Y-13673984D01*
X3165896Y-13673984D02*
X3127801Y-13673984D01*
X3127801Y-13673984D02*
X3108753Y-13683508D01*
X3108753Y-13683508D02*
X3099229Y-13693031D01*
X3099229Y-13693031D02*
X3089706Y-13712079D01*
X3089706Y-13712079D02*
X3089706Y-13759698D01*
X3089706Y-13759698D02*
X3099229Y-13778746D01*
X3099229Y-13778746D02*
X3108753Y-13788269D01*
X3108753Y-13788269D02*
X3127801Y-13797793D01*
X3127801Y-13797793D02*
X3165896Y-13797793D01*
X3165896Y-13797793D02*
X3184944Y-13788269D01*
X3184944Y-13788269D02*
X3194467Y-13778746D01*
X3194467Y-13778746D02*
X3203991Y-13759698D01*
X3318277Y-13759698D02*
X3299229Y-13750174D01*
X3299229Y-13750174D02*
X3289706Y-13740650D01*
X3289706Y-13740650D02*
X3280182Y-13721603D01*
X3280182Y-13721603D02*
X3280182Y-13712079D01*
X3280182Y-13712079D02*
X3289706Y-13693031D01*
X3289706Y-13693031D02*
X3299229Y-13683508D01*
X3299229Y-13683508D02*
X3318277Y-13673984D01*
X3318277Y-13673984D02*
X3356372Y-13673984D01*
X3356372Y-13673984D02*
X3375420Y-13683508D01*
X3375420Y-13683508D02*
X3384944Y-13693031D01*
X3384944Y-13693031D02*
X3394467Y-13712079D01*
X3394467Y-13712079D02*
X3394467Y-13721603D01*
X3394467Y-13721603D02*
X3384944Y-13740650D01*
X3384944Y-13740650D02*
X3375420Y-13750174D01*
X3375420Y-13750174D02*
X3356372Y-13759698D01*
X3356372Y-13759698D02*
X3318277Y-13759698D01*
X3318277Y-13759698D02*
X3299229Y-13769222D01*
X3299229Y-13769222D02*
X3289706Y-13778746D01*
X3289706Y-13778746D02*
X3280182Y-13797793D01*
X3280182Y-13797793D02*
X3280182Y-13835888D01*
X3280182Y-13835888D02*
X3289706Y-13854936D01*
X3289706Y-13854936D02*
X3299229Y-13864460D01*
X3299229Y-13864460D02*
X3318277Y-13873984D01*
X3318277Y-13873984D02*
X3356372Y-13873984D01*
X3356372Y-13873984D02*
X3375420Y-13864460D01*
X3375420Y-13864460D02*
X3384944Y-13854936D01*
X3384944Y-13854936D02*
X3394467Y-13835888D01*
X3394467Y-13835888D02*
X3394467Y-13797793D01*
X3394467Y-13797793D02*
X3384944Y-13778746D01*
X3384944Y-13778746D02*
X3375420Y-13769222D01*
X3375420Y-13769222D02*
X3356372Y-13759698D01*
X3565896Y-13740650D02*
X3565896Y-13873984D01*
X3518277Y-13664460D02*
X3470658Y-13807317D01*
X3470658Y-13807317D02*
X3594467Y-13807317D01*
X3661134Y-13673984D02*
X3661134Y-13712079D01*
X3737325Y-13673984D02*
X3737325Y-13712079D01*
X4032563Y-13950174D02*
X4023039Y-13940650D01*
X4023039Y-13940650D02*
X4003991Y-13912079D01*
X4003991Y-13912079D02*
X3994468Y-13893031D01*
X3994468Y-13893031D02*
X3984944Y-13864460D01*
X3984944Y-13864460D02*
X3975420Y-13816841D01*
X3975420Y-13816841D02*
X3975420Y-13778746D01*
X3975420Y-13778746D02*
X3984944Y-13731127D01*
X3984944Y-13731127D02*
X3994468Y-13702555D01*
X3994468Y-13702555D02*
X4003991Y-13683508D01*
X4003991Y-13683508D02*
X4023039Y-13654936D01*
X4023039Y-13654936D02*
X4032563Y-13645412D01*
X4194468Y-13673984D02*
X4156372Y-13673984D01*
X4156372Y-13673984D02*
X4137325Y-13683508D01*
X4137325Y-13683508D02*
X4127801Y-13693031D01*
X4127801Y-13693031D02*
X4108753Y-13721603D01*
X4108753Y-13721603D02*
X4099229Y-13759698D01*
X4099229Y-13759698D02*
X4099229Y-13835888D01*
X4099229Y-13835888D02*
X4108753Y-13854936D01*
X4108753Y-13854936D02*
X4118277Y-13864460D01*
X4118277Y-13864460D02*
X4137325Y-13873984D01*
X4137325Y-13873984D02*
X4175420Y-13873984D01*
X4175420Y-13873984D02*
X4194468Y-13864460D01*
X4194468Y-13864460D02*
X4203991Y-13854936D01*
X4203991Y-13854936D02*
X4213515Y-13835888D01*
X4213515Y-13835888D02*
X4213515Y-13788269D01*
X4213515Y-13788269D02*
X4203991Y-13769222D01*
X4203991Y-13769222D02*
X4194468Y-13759698D01*
X4194468Y-13759698D02*
X4175420Y-13750174D01*
X4175420Y-13750174D02*
X4137325Y-13750174D01*
X4137325Y-13750174D02*
X4118277Y-13759698D01*
X4118277Y-13759698D02*
X4108753Y-13769222D01*
X4108753Y-13769222D02*
X4099229Y-13788269D01*
X4451611Y-13873984D02*
X4451611Y-13673984D01*
X4537325Y-13873984D02*
X4537325Y-13769222D01*
X4537325Y-13769222D02*
X4527801Y-13750174D01*
X4527801Y-13750174D02*
X4508753Y-13740650D01*
X4508753Y-13740650D02*
X4480182Y-13740650D01*
X4480182Y-13740650D02*
X4461134Y-13750174D01*
X4461134Y-13750174D02*
X4451611Y-13759698D01*
X4661134Y-13873984D02*
X4642087Y-13864460D01*
X4642087Y-13864460D02*
X4632563Y-13854936D01*
X4632563Y-13854936D02*
X4623039Y-13835888D01*
X4623039Y-13835888D02*
X4623039Y-13778746D01*
X4623039Y-13778746D02*
X4632563Y-13759698D01*
X4632563Y-13759698D02*
X4642087Y-13750174D01*
X4642087Y-13750174D02*
X4661134Y-13740650D01*
X4661134Y-13740650D02*
X4689706Y-13740650D01*
X4689706Y-13740650D02*
X4708753Y-13750174D01*
X4708753Y-13750174D02*
X4718277Y-13759698D01*
X4718277Y-13759698D02*
X4727801Y-13778746D01*
X4727801Y-13778746D02*
X4727801Y-13835888D01*
X4727801Y-13835888D02*
X4718277Y-13854936D01*
X4718277Y-13854936D02*
X4708753Y-13864460D01*
X4708753Y-13864460D02*
X4689706Y-13873984D01*
X4689706Y-13873984D02*
X4661134Y-13873984D01*
X4842087Y-13873984D02*
X4823039Y-13864460D01*
X4823039Y-13864460D02*
X4813515Y-13845412D01*
X4813515Y-13845412D02*
X4813515Y-13673984D01*
X4994468Y-13864460D02*
X4975420Y-13873984D01*
X4975420Y-13873984D02*
X4937325Y-13873984D01*
X4937325Y-13873984D02*
X4918277Y-13864460D01*
X4918277Y-13864460D02*
X4908753Y-13845412D01*
X4908753Y-13845412D02*
X4908753Y-13769222D01*
X4908753Y-13769222D02*
X4918277Y-13750174D01*
X4918277Y-13750174D02*
X4937325Y-13740650D01*
X4937325Y-13740650D02*
X4975420Y-13740650D01*
X4975420Y-13740650D02*
X4994468Y-13750174D01*
X4994468Y-13750174D02*
X5003992Y-13769222D01*
X5003992Y-13769222D02*
X5003992Y-13788269D01*
X5003992Y-13788269D02*
X4908753Y-13807317D01*
X5080182Y-13864460D02*
X5099230Y-13873984D01*
X5099230Y-13873984D02*
X5137325Y-13873984D01*
X5137325Y-13873984D02*
X5156373Y-13864460D01*
X5156373Y-13864460D02*
X5165896Y-13845412D01*
X5165896Y-13845412D02*
X5165896Y-13835888D01*
X5165896Y-13835888D02*
X5156373Y-13816841D01*
X5156373Y-13816841D02*
X5137325Y-13807317D01*
X5137325Y-13807317D02*
X5108753Y-13807317D01*
X5108753Y-13807317D02*
X5089706Y-13797793D01*
X5089706Y-13797793D02*
X5080182Y-13778746D01*
X5080182Y-13778746D02*
X5080182Y-13769222D01*
X5080182Y-13769222D02*
X5089706Y-13750174D01*
X5089706Y-13750174D02*
X5108753Y-13740650D01*
X5108753Y-13740650D02*
X5137325Y-13740650D01*
X5137325Y-13740650D02*
X5156373Y-13750174D01*
X5232563Y-13950174D02*
X5242087Y-13940650D01*
X5242087Y-13940650D02*
X5261134Y-13912079D01*
X5261134Y-13912079D02*
X5270658Y-13893031D01*
X5270658Y-13893031D02*
X5280182Y-13864460D01*
X5280182Y-13864460D02*
X5289706Y-13816841D01*
X5289706Y-13816841D02*
X5289706Y-13778746D01*
X5289706Y-13778746D02*
X5280182Y-13731127D01*
X5280182Y-13731127D02*
X5270658Y-13702555D01*
X5270658Y-13702555D02*
X5261134Y-13683508D01*
X5261134Y-13683508D02*
X5242087Y-13654936D01*
X5242087Y-13654936D02*
X5232563Y-13645412D01*
M02*
