G04 #@! TF.GenerationSoftware,KiCad,Pcbnew,9.0.6*
G04 #@! TF.CreationDate,2025-12-01T14:44:23+01:00*
G04 #@! TF.ProjectId,wled-eth.versioned,776c6564-2d65-4746-982e-76657273696f,v0.49*
G04 #@! TF.SameCoordinates,Original*
G04 #@! TF.FileFunction,Paste,Top*
G04 #@! TF.FilePolarity,Positive*
%FSLAX46Y46*%
G04 Gerber Fmt 4.6, Leading zero omitted, Abs format (unit mm)*
G04 Created by KiCad (PCBNEW 9.0.6) date 2025-12-01 14:44:23*
%MOMM*%
%LPD*%
G01*
G04 APERTURE LIST*
%ADD10R,1.200000X0.900000*%
%ADD11R,1.100000X0.750000*%
%ADD12R,1.100000X0.600000*%
%ADD13R,0.300000X1.450000*%
%ADD14O,1.000000X1.800000*%
%ADD15O,1.000000X2.100000*%
%ADD16R,2.000000X2.500000*%
%ADD17R,1.525000X0.600000*%
%ADD18R,0.750000X1.100000*%
%ADD19R,0.400000X0.950000*%
%ADD20R,0.350000X2.300000*%
%ADD21R,1.300000X0.350000*%
%ADD22R,1.450000X0.300000*%
%ADD23O,1.800000X1.000000*%
%ADD24O,2.100000X1.000000*%
%ADD25R,1.250000X1.100000*%
%ADD26R,0.500000X0.400000*%
%ADD27R,1.100000X1.250000*%
%ADD28R,0.750000X1.000000*%
%ADD29R,1.550000X2.400000*%
%ADD30R,0.600000X1.525000*%
%ADD31R,3.100000X2.410000*%
%ADD32R,1.350000X0.650000*%
%ADD33R,2.300000X3.200000*%
%ADD34R,1.000000X2.000000*%
%ADD35R,3.500000X2.350000*%
%ADD36R,0.600000X1.100000*%
%ADD37R,1.800000X2.300000*%
%ADD38R,0.600000X1.450000*%
G04 APERTURE END LIST*
D10*
G04 #@! TO.C,D3*
X5900000Y-66900000D03*
X5900000Y-68500000D03*
G04 #@! TD*
D11*
G04 #@! TO.C,R20*
X28900000Y-71700000D03*
X28900000Y-70300000D03*
G04 #@! TD*
D12*
G04 #@! TO.C,Q4*
X51300000Y-68950000D03*
X51300000Y-67050000D03*
X49000000Y-68000000D03*
G04 #@! TD*
D11*
G04 #@! TO.C,R16*
X23200000Y-77400000D03*
X23200000Y-78800000D03*
G04 #@! TD*
D13*
G04 #@! TO.C,J7*
X59800000Y-47005000D03*
X59000000Y-47005000D03*
X57650000Y-47005000D03*
X56650000Y-47005000D03*
X56150000Y-47005000D03*
X55150000Y-47005000D03*
X53800000Y-47005000D03*
X53000000Y-47005000D03*
X53300000Y-47005000D03*
X54100000Y-47005000D03*
X54650000Y-47005000D03*
X55650000Y-47005000D03*
X57150000Y-47005000D03*
X58150000Y-47005000D03*
X58700000Y-47005000D03*
X59500000Y-47005000D03*
D14*
X52080000Y-41920000D03*
D15*
X52080000Y-46090000D03*
D14*
X60720000Y-41920000D03*
D15*
X60720000Y-46090000D03*
G04 #@! TD*
D16*
G04 #@! TO.C,RV1*
X49700000Y-61700000D03*
X46300000Y-61700000D03*
G04 #@! TD*
D17*
G04 #@! TO.C,U4*
X34200000Y-93190000D03*
X34200000Y-94460000D03*
X34200000Y-95730000D03*
X34200000Y-97000000D03*
X34200000Y-98270000D03*
X34200000Y-99540000D03*
X34200000Y-100810000D03*
X39600000Y-100810000D03*
X39600000Y-99540000D03*
X39600000Y-98270000D03*
X39600000Y-97000000D03*
X39600000Y-95730000D03*
X39600000Y-94460000D03*
X39600000Y-93190000D03*
G04 #@! TD*
D18*
G04 #@! TO.C,R6*
X41800000Y-97100000D03*
X43200000Y-97100000D03*
G04 #@! TD*
D19*
G04 #@! TO.C,U5*
X47475000Y-98325000D03*
X47475000Y-99675000D03*
X48325000Y-99675000D03*
X48325000Y-98325000D03*
D20*
X46675000Y-99000000D03*
D21*
X47900000Y-97275000D03*
X47900000Y-100725000D03*
D20*
X49125000Y-99000000D03*
G04 #@! TD*
D18*
G04 #@! TO.C,R13*
X16800000Y-100500000D03*
X15400000Y-100500000D03*
G04 #@! TD*
D22*
G04 #@! TO.C,J1*
X13105000Y-78100000D03*
X13105000Y-78900000D03*
X13105000Y-80250000D03*
X13105000Y-81250000D03*
X13105000Y-81750000D03*
X13105000Y-82750000D03*
X13105000Y-84100000D03*
X13105000Y-84900000D03*
X13105000Y-84600000D03*
X13105000Y-83800000D03*
X13105000Y-83250000D03*
X13105000Y-82250000D03*
X13105000Y-80750000D03*
X13105000Y-79750000D03*
X13105000Y-79200000D03*
X13105000Y-78400000D03*
D23*
X8020000Y-85820000D03*
D24*
X12190000Y-85820000D03*
D23*
X8020000Y-77180000D03*
D24*
X12190000Y-77180000D03*
G04 #@! TD*
D18*
G04 #@! TO.C,R14*
X10500000Y-61600000D03*
X9100000Y-61600000D03*
G04 #@! TD*
D25*
G04 #@! TO.C,C8*
X48900000Y-94050000D03*
X48900000Y-95550000D03*
G04 #@! TD*
D26*
G04 #@! TO.C,D1*
X47562500Y-67450000D03*
X45962500Y-67450000D03*
G04 #@! TD*
D10*
G04 #@! TO.C,D5*
X5900000Y-73500000D03*
X5900000Y-75100000D03*
G04 #@! TD*
D27*
G04 #@! TO.C,C12*
X40550000Y-79100000D03*
X39050000Y-79100000D03*
G04 #@! TD*
D28*
G04 #@! TO.C,SW3*
X5825000Y-59800000D03*
X5825000Y-53800000D03*
X9575000Y-59800000D03*
X9575000Y-53800000D03*
G04 #@! TD*
D27*
G04 #@! TO.C,C2*
X30600000Y-79100000D03*
X32100000Y-79100000D03*
G04 #@! TD*
D29*
G04 #@! TO.C,D7*
X32600000Y-85250000D03*
X32600000Y-81750000D03*
G04 #@! TD*
D18*
G04 #@! TO.C,R12*
X16800000Y-97100000D03*
X15400000Y-97100000D03*
G04 #@! TD*
D27*
G04 #@! TO.C,C6*
X24850000Y-64000000D03*
X23350000Y-64000000D03*
G04 #@! TD*
D18*
G04 #@! TO.C,R24*
X12700000Y-95200000D03*
X11300000Y-95200000D03*
G04 #@! TD*
G04 #@! TO.C,R21*
X46100000Y-69050000D03*
X47500000Y-69050000D03*
G04 #@! TD*
D12*
G04 #@! TO.C,Q3*
X46050000Y-64150000D03*
X46050000Y-66050000D03*
X48350000Y-65100000D03*
G04 #@! TD*
D18*
G04 #@! TO.C,R1*
X15300000Y-80500000D03*
X16700000Y-80500000D03*
G04 #@! TD*
D30*
G04 #@! TO.C,U1*
X26870000Y-80500000D03*
X25600000Y-80500000D03*
X24330000Y-80500000D03*
X23060000Y-80500000D03*
X23060000Y-85900000D03*
X24330000Y-85900000D03*
X25600000Y-85900000D03*
X26870000Y-85900000D03*
D31*
X24965000Y-83200000D03*
G04 #@! TD*
D18*
G04 #@! TO.C,R17*
X24800000Y-89600000D03*
X26200000Y-89600000D03*
G04 #@! TD*
G04 #@! TO.C,R7*
X10500000Y-65000000D03*
X9100000Y-65000000D03*
G04 #@! TD*
D32*
G04 #@! TO.C,U7*
X32750000Y-72800000D03*
X32750000Y-73800000D03*
X32750000Y-74800000D03*
X32750000Y-75800000D03*
X32750000Y-76800000D03*
X38250000Y-76800000D03*
X38250000Y-75800000D03*
X38250000Y-74800000D03*
X38250000Y-73800000D03*
X38250000Y-72800000D03*
D33*
X35500000Y-74800000D03*
G04 #@! TD*
D25*
G04 #@! TO.C,C14*
X16200000Y-89150000D03*
X16200000Y-87650000D03*
G04 #@! TD*
D12*
G04 #@! TO.C,Q1*
X18250000Y-96950000D03*
X18250000Y-98850000D03*
X20550000Y-97900000D03*
G04 #@! TD*
D27*
G04 #@! TO.C,C11*
X35050000Y-79100000D03*
X36550000Y-79100000D03*
G04 #@! TD*
D18*
G04 #@! TO.C,R4*
X41800000Y-98800000D03*
X43200000Y-98800000D03*
G04 #@! TD*
D34*
G04 #@! TO.C,SW4*
X30600000Y-70600000D03*
X32600000Y-70600000D03*
X36600000Y-70600000D03*
X38600000Y-70600000D03*
X30600000Y-64600000D03*
X32600000Y-64600000D03*
X36600000Y-64600000D03*
X38600000Y-64600000D03*
G04 #@! TD*
D25*
G04 #@! TO.C,C9*
X30800000Y-76950000D03*
X30800000Y-75450000D03*
G04 #@! TD*
D18*
G04 #@! TO.C,R11*
X15400000Y-98800000D03*
X16800000Y-98800000D03*
G04 #@! TD*
D11*
G04 #@! TO.C,R3*
X23100000Y-75500000D03*
X23100000Y-74100000D03*
G04 #@! TD*
D35*
G04 #@! TO.C,L1*
X37800000Y-87625000D03*
X37800000Y-81575000D03*
G04 #@! TD*
D36*
G04 #@! TO.C,D8*
X17650000Y-57000000D03*
X18600000Y-57000000D03*
X19550000Y-57000000D03*
X19550000Y-54400000D03*
X18600000Y-54400000D03*
X17650000Y-54400000D03*
G04 #@! TD*
D10*
G04 #@! TO.C,D4*
X5900000Y-70200000D03*
X5900000Y-71800000D03*
G04 #@! TD*
D18*
G04 #@! TO.C,R18*
X24900000Y-87900000D03*
X23500000Y-87900000D03*
G04 #@! TD*
D25*
G04 #@! TO.C,C7*
X47000000Y-94250000D03*
X47000000Y-95750000D03*
G04 #@! TD*
D18*
G04 #@! TO.C,R9*
X10500000Y-68400000D03*
X9100000Y-68400000D03*
G04 #@! TD*
G04 #@! TO.C,R8*
X10500000Y-66700000D03*
X9100000Y-66700000D03*
G04 #@! TD*
G04 #@! TO.C,R2*
X15300000Y-82900000D03*
X16700000Y-82900000D03*
G04 #@! TD*
D37*
G04 #@! TO.C,C13*
X28450000Y-74850000D03*
X25250000Y-74850000D03*
G04 #@! TD*
D10*
G04 #@! TO.C,D6*
X5900000Y-63600000D03*
X5900000Y-65200000D03*
G04 #@! TD*
D36*
G04 #@! TO.C,Q5*
X5950000Y-91550000D03*
X7850000Y-91550000D03*
X6900000Y-89250000D03*
G04 #@! TD*
D27*
G04 #@! TO.C,C5*
X38550000Y-91200000D03*
X40050000Y-91200000D03*
G04 #@! TD*
D25*
G04 #@! TO.C,C3*
X29000000Y-99450000D03*
X29000000Y-97950000D03*
G04 #@! TD*
D11*
G04 #@! TO.C,R19*
X30700000Y-72600000D03*
X30700000Y-74000000D03*
G04 #@! TD*
D18*
G04 #@! TO.C,R5*
X41800000Y-100500000D03*
X43200000Y-100500000D03*
G04 #@! TD*
D37*
G04 #@! TO.C,C10*
X25300000Y-77750000D03*
X28500000Y-77750000D03*
G04 #@! TD*
D18*
G04 #@! TO.C,R10*
X10500000Y-63300000D03*
X9100000Y-63300000D03*
G04 #@! TD*
D29*
G04 #@! TO.C,D2*
X29400000Y-85250000D03*
X29400000Y-81750000D03*
G04 #@! TD*
D30*
G04 #@! TO.C,U6*
X23095000Y-71500000D03*
X24365000Y-71500000D03*
X25635000Y-71500000D03*
X26905000Y-71500000D03*
X26905000Y-66100000D03*
X25635000Y-66100000D03*
X24365000Y-66100000D03*
X23095000Y-66100000D03*
G04 #@! TD*
D12*
G04 #@! TO.C,Q2*
X13950000Y-98850000D03*
X13950000Y-96950000D03*
X11650000Y-97900000D03*
G04 #@! TD*
D28*
G04 #@! TO.C,SW1*
X5800000Y-100900000D03*
X5800000Y-94900000D03*
X9550000Y-100900000D03*
X9550000Y-94900000D03*
G04 #@! TD*
D11*
G04 #@! TO.C,R22*
X16200000Y-86200000D03*
X16200000Y-84800000D03*
G04 #@! TD*
G04 #@! TO.C,R23*
X40300000Y-73400000D03*
X40300000Y-74800000D03*
G04 #@! TD*
G04 #@! TO.C,R15*
X29000000Y-96400000D03*
X29000000Y-95000000D03*
G04 #@! TD*
D27*
G04 #@! TO.C,C15*
X17900000Y-52600000D03*
X19400000Y-52600000D03*
G04 #@! TD*
D38*
G04 #@! TO.C,U2*
X27200000Y-93700000D03*
X26200000Y-93700000D03*
X25200000Y-93700000D03*
X24200000Y-93700000D03*
X23200000Y-93700000D03*
X23200000Y-99300000D03*
X24200000Y-99300000D03*
X25200000Y-99300000D03*
X26200000Y-99300000D03*
X27200000Y-99300000D03*
G04 #@! TD*
M02*
